G04 PROTEUS GERBER X2 FILE*
%TF.GenerationSoftware,Labcenter,Proteus,8.9-SP2-Build28501*%
%TF.CreationDate,2020-09-21T12:23:44+00:00*%
%TF.FileFunction,Copper,L1,Bot*%
%TF.FilePolarity,Positive*%
%TF.Part,Single*%
%TF.SameCoordinates,{09cedfca-c85c-474b-bf34-a9c95e6352d1}*%
%FSLAX45Y45*%
%MOMM*%
G01*
%TA.AperFunction,Conductor*%
%ADD10C,1.016000*%
%ADD11C,0.381000*%
%ADD12C,0.254000*%
%ADD13C,0.508000*%
%TA.AperFunction,ComponentPad*%
%ADD14C,2.032000*%
%ADD15C,1.778000*%
%TA.AperFunction,ComponentPad*%
%ADD16R,2.032000X2.032000*%
%TA.AperFunction,ComponentPad*%
%ADD17R,1.270000X1.270000*%
%ADD18C,1.270000*%
%TA.AperFunction,Profile*%
%ADD19C,0.203200*%
%TD.AperFunction*%
G36*
X-442000Y+1658000D02*
X-445598Y+1670179D01*
X-480047Y+1660000D01*
X-446856Y+1646266D01*
X-442000Y+1658000D01*
G37*
G36*
X-442000Y+1404000D02*
X-442289Y+1416696D01*
X-478201Y+1415878D01*
X-449755Y+1393943D01*
X-442000Y+1404000D01*
G37*
G36*
X-442000Y+1150000D02*
X-442942Y+1162665D01*
X-478764Y+1160000D01*
X-449227Y+1139558D01*
X-442000Y+1150000D01*
G37*
G36*
X-442000Y+134000D02*
X-446233Y+145973D01*
X-480100Y+134000D01*
X-446233Y+122027D01*
X-442000Y+134000D01*
G37*
G36*
X-442000Y+134000D02*
X-437767Y+122027D01*
X-403900Y+134000D01*
X-437767Y+145973D01*
X-442000Y+134000D01*
G37*
G36*
X-442000Y-374000D02*
X-443087Y-361347D01*
X-478876Y-364424D01*
X-449106Y-384525D01*
X-442000Y-374000D01*
G37*
G36*
X-442000Y-628000D02*
X-446233Y-616027D01*
X-480100Y-628000D01*
X-446233Y-639973D01*
X-442000Y-628000D01*
G37*
G36*
X-442000Y-1390000D02*
X-445709Y-1377854D01*
X-480064Y-1388346D01*
X-446749Y-1401778D01*
X-442000Y-1390000D01*
G37*
G36*
X-442000Y-1644000D02*
X-453749Y-1639180D01*
X-467383Y-1672413D01*
X-435891Y-1655134D01*
X-442000Y-1644000D01*
G37*
G36*
X+320000Y-1644000D02*
X+314527Y-1655460D01*
X+346940Y-1670940D01*
X+331460Y-1638527D01*
X+320000Y-1644000D01*
G37*
G36*
X+320000Y-1390000D02*
X+324233Y-1401973D01*
X+358100Y-1390000D01*
X+324233Y-1378027D01*
X+320000Y-1390000D01*
G37*
G36*
X+320000Y-1136000D02*
X+331460Y-1141473D01*
X+346940Y-1109060D01*
X+314527Y-1124540D01*
X+320000Y-1136000D01*
G37*
G36*
X+320000Y-374000D02*
X+331460Y-379473D01*
X+346940Y-347060D01*
X+314527Y-362540D01*
X+320000Y-374000D01*
G37*
G36*
X+320000Y-374000D02*
X+320317Y-361304D01*
X+284409Y-360405D01*
X+311773Y-383674D01*
X+320000Y-374000D01*
G37*
G36*
X+3878240Y-1266801D02*
X+3516801Y-1266801D01*
X+3516801Y-1658209D01*
X+3103199Y-1658209D01*
X+3103199Y-1306801D01*
X+2696801Y-1306801D01*
X+2696801Y-1357601D01*
X+1859978Y-1357601D01*
X+1855130Y-1352753D01*
X+1855130Y-282399D01*
X+2656801Y-282399D01*
X+2656801Y-509601D01*
X+2281007Y-509601D01*
X+2242907Y-471501D01*
X+2085093Y-471501D01*
X+1973501Y-583093D01*
X+1973501Y-740907D01*
X+2085093Y-852499D01*
X+2242907Y-852499D01*
X+2281007Y-814399D01*
X+2656801Y-814399D01*
X+2656801Y-873199D01*
X+3063199Y-873199D01*
X+3063199Y-717151D01*
X+3105922Y-674428D01*
X+3063199Y-605672D01*
X+3063199Y-542399D01*
X+3436801Y-542399D01*
X+3436801Y-593199D01*
X+3843199Y-593199D01*
X+3843199Y+67199D01*
X+3436801Y+67199D01*
X+3436801Y-237601D01*
X+3063199Y-237601D01*
X+3063199Y+41199D01*
X+2656801Y+41199D01*
X+2656801Y+22399D01*
X+1855130Y+22399D01*
X+1855130Y+450394D01*
X+1702399Y+603125D01*
X+1702399Y+1116801D01*
X+1723199Y+1116801D01*
X+1723199Y+1167601D01*
X+2586801Y+1167601D01*
X+2586801Y+1020399D01*
X+2181007Y+1020399D01*
X+2142907Y+1058499D01*
X+1985093Y+1058499D01*
X+1873501Y+946907D01*
X+1873501Y+789093D01*
X+1985093Y+677501D01*
X+2142907Y+677501D01*
X+2181007Y+715601D01*
X+2586801Y+715601D01*
X+2586801Y+676801D01*
X+2993199Y+676801D01*
X+2993199Y+987601D01*
X+3366801Y+987601D01*
X+3366801Y+932801D01*
X+3773199Y+932801D01*
X+3773199Y+1593199D01*
X+3366801Y+1593199D01*
X+3366801Y+1292399D01*
X+2993199Y+1292399D01*
X+2993199Y+1591199D01*
X+2586801Y+1591199D01*
X+2586801Y+1472399D01*
X+1723199Y+1472399D01*
X+1723199Y+1777199D01*
X+1316801Y+1777199D01*
X+1316801Y+1336588D01*
X+712850Y+1336588D01*
X+512022Y+1135760D01*
X+512022Y+33546D01*
X+455980Y-22495D01*
X+426485Y+7000D01*
X+485099Y+65614D01*
X+485099Y+202386D01*
X+426485Y+261000D01*
X+485099Y+319614D01*
X+485099Y+456386D01*
X+426485Y+515000D01*
X+485099Y+573614D01*
X+485099Y+710386D01*
X+426485Y+769000D01*
X+485099Y+827614D01*
X+485099Y+964386D01*
X+426485Y+1023000D01*
X+485099Y+1081614D01*
X+485099Y+1218386D01*
X+426485Y+1277000D01*
X+485099Y+1335614D01*
X+485099Y+1472386D01*
X+427485Y+1530000D01*
X+485099Y+1587614D01*
X+485099Y+1724386D01*
X+388386Y+1821099D01*
X+251614Y+1821099D01*
X+154901Y+1724386D01*
X+154901Y+1587614D01*
X+212515Y+1530000D01*
X+154901Y+1472386D01*
X+154901Y+1335614D01*
X+213515Y+1277000D01*
X+154901Y+1218386D01*
X+154901Y+1081614D01*
X+213515Y+1023000D01*
X+154901Y+964386D01*
X+154901Y+827614D01*
X+213515Y+769000D01*
X+154901Y+710386D01*
X+154901Y+573614D01*
X+213515Y+515000D01*
X+154901Y+456386D01*
X+154901Y+319614D01*
X+213515Y+261000D01*
X+154901Y+202386D01*
X+154901Y+65614D01*
X+213515Y+7000D01*
X+154901Y-51614D01*
X+154901Y-188386D01*
X+174521Y-208006D01*
X+58222Y-208006D01*
X+35942Y-185726D01*
X+35942Y+114611D01*
X-135846Y+286399D01*
X-310116Y+286399D01*
X-276901Y+319614D01*
X-276901Y+456386D01*
X-335515Y+515000D01*
X-276901Y+573614D01*
X-276901Y+710386D01*
X-335515Y+769000D01*
X-276901Y+827614D01*
X-276901Y+964386D01*
X-335515Y+1023000D01*
X-276901Y+1081614D01*
X-276901Y+1218386D01*
X-335515Y+1277000D01*
X-276901Y+1335614D01*
X-276901Y+1472386D01*
X-297416Y+1492901D01*
X-276901Y+1492901D01*
X-276901Y+1823099D01*
X-607099Y+1823099D01*
X-607099Y+1812399D01*
X-782993Y+1812399D01*
X-821093Y+1850499D01*
X-978907Y+1850499D01*
X-1090499Y+1738907D01*
X-1090499Y+1581093D01*
X-1077683Y+1568277D01*
X-2121372Y+1568277D01*
X-2475494Y+1922399D01*
X-3026801Y+1922399D01*
X-3026801Y+1973199D01*
X-3433199Y+1973199D01*
X-3433199Y+1330581D01*
X-3684673Y+1330581D01*
X-3763929Y+1251325D01*
X-3763929Y+1201351D01*
X-3763930Y-1474432D01*
X-3685713Y-1552649D01*
X-3433199Y-1552649D01*
X-3433199Y-2143199D01*
X-3026801Y-2143199D01*
X-3026801Y-2092399D01*
X-671845Y-2092399D01*
X-388545Y-1809099D01*
X-373614Y-1809099D01*
X-276901Y-1712386D01*
X-276901Y-1575614D01*
X-335515Y-1517000D01*
X-276901Y-1458386D01*
X-276901Y-1321614D01*
X-335515Y-1263000D01*
X-276901Y-1204386D01*
X-276901Y-1067614D01*
X-335515Y-1009000D01*
X-276901Y-950386D01*
X-276901Y-813614D01*
X-335515Y-755000D01*
X-276901Y-696386D01*
X-276901Y-559614D01*
X-335515Y-501000D01*
X-276901Y-442386D01*
X-276901Y-305614D01*
X-335515Y-247000D01*
X-276901Y-188386D01*
X-276901Y-51614D01*
X-310116Y-18399D01*
X-268856Y-18399D01*
X-268856Y-311976D01*
X-68028Y-512804D01*
X+201711Y-512804D01*
X+154901Y-559614D01*
X+154901Y-696386D01*
X+213515Y-755000D01*
X+154901Y-813614D01*
X+154901Y-950386D01*
X+213515Y-1009000D01*
X+154901Y-1067614D01*
X+154901Y-1204386D01*
X+213515Y-1263000D01*
X+154901Y-1321614D01*
X+154901Y-1458386D01*
X+213515Y-1517000D01*
X+154901Y-1575614D01*
X+154901Y-1712386D01*
X+251614Y-1809099D01*
X+269575Y-1809099D01*
X+624875Y-2164399D01*
X+1120993Y-2164399D01*
X+1159093Y-2202499D01*
X+1316907Y-2202499D01*
X+1428499Y-2090907D01*
X+1428499Y-1933093D01*
X+1316907Y-1821501D01*
X+1159093Y-1821501D01*
X+1120993Y-1859601D01*
X+751125Y-1859601D01*
X+485099Y-1593575D01*
X+485099Y-1575614D01*
X+451884Y-1542399D01*
X+976532Y-1542399D01*
X+1185806Y-1333125D01*
X+1185806Y-852499D01*
X+1226907Y-852499D01*
X+1338499Y-740907D01*
X+1338499Y-583093D01*
X+1226907Y-471501D01*
X+1069093Y-471501D01*
X+988441Y-552153D01*
X+988441Y+592917D01*
X+1073025Y+677501D01*
X+1126907Y+677501D01*
X+1238499Y+789093D01*
X+1238499Y+946907D01*
X+1153616Y+1031790D01*
X+1397601Y+1031790D01*
X+1397601Y+476875D01*
X+1550332Y+324144D01*
X+1550332Y-1479003D01*
X+1733728Y-1662399D01*
X+2696801Y-1662399D01*
X+2696801Y-1859601D01*
X+2371007Y-1859601D01*
X+2332907Y-1821501D01*
X+2175093Y-1821501D01*
X+2063501Y-1933093D01*
X+2063501Y-2090907D01*
X+2175093Y-2202499D01*
X+2332907Y-2202499D01*
X+2371007Y-2164399D01*
X+2696801Y-2164399D01*
X+2696801Y-2221199D01*
X+3103199Y-2221199D01*
X+3103199Y-1963007D01*
X+3696517Y-1963007D01*
X+3732325Y-1927199D01*
X+3878240Y-1927199D01*
X+3878240Y-2388240D01*
X-3878240Y-2388240D01*
X-3878240Y+2368240D01*
X+3878240Y+2368240D01*
X+3878240Y-1266801D01*
G37*
G36*
X-2254834Y+1270690D02*
X-2643126Y+882398D01*
X-3036801Y+882399D01*
X-3036801Y+933199D01*
X-3443199Y+933199D01*
X-3443199Y+270649D01*
X-3522632Y+270649D01*
X-3522633Y+1089283D01*
X-3433199Y+1089283D01*
X-3433199Y+1058801D01*
X-3026801Y+1058801D01*
X-3026801Y+1617601D01*
X-2601744Y+1617601D01*
X-2254834Y+1270690D01*
G37*
G36*
X-607099Y+964386D02*
X-607099Y+827614D01*
X-548485Y+769000D01*
X-607099Y+710386D01*
X-607099Y+573614D01*
X-548485Y+515000D01*
X-607099Y+456386D01*
X-607099Y+319614D01*
X-573884Y+286399D01*
X-710778Y+286399D01*
X-744936Y+320557D01*
X-744936Y+529658D01*
X-709501Y+565093D01*
X-709501Y+722907D01*
X-821093Y+834499D01*
X-978907Y+834499D01*
X-1061007Y+752399D01*
X-2083125Y+752399D01*
X-2492125Y+343399D01*
X-3036801Y+343399D01*
X-3036801Y+577601D01*
X-2516874Y+577602D01*
X-2086875Y+1007601D01*
X-563884Y+1007601D01*
X-607099Y+964386D01*
G37*
G36*
X-1049734Y+257432D02*
X-1049734Y+194307D01*
X-837028Y-18399D01*
X-573884Y-18399D01*
X-607099Y-51614D01*
X-607099Y-126198D01*
X-658428Y-74869D01*
X-979764Y-74869D01*
X-1030564Y-24069D01*
X-1198900Y-24069D01*
X-1236432Y-61601D01*
X-1532195Y-61601D01*
X-1509501Y-38907D01*
X-1509501Y+118907D01*
X-1621093Y+230499D01*
X-1778907Y+230499D01*
X-1890499Y+118907D01*
X-1890499Y-38907D01*
X-1842406Y-87000D01*
X-1890499Y-135093D01*
X-1890499Y-292907D01*
X-1778907Y-404499D01*
X-1621093Y-404499D01*
X-1582993Y-366399D01*
X-1262968Y-366399D01*
X-1198900Y-430467D01*
X-1030564Y-430467D01*
X-979764Y-379667D01*
X-784678Y-379667D01*
X-668703Y-495642D01*
X-647420Y-495642D01*
X-784647Y-632869D01*
X-929764Y-632869D01*
X-1030564Y-532069D01*
X-1198900Y-532069D01*
X-1270432Y-603601D01*
X-1572993Y-603601D01*
X-1611093Y-565501D01*
X-1768907Y-565501D01*
X-1880499Y-677093D01*
X-1880499Y-834907D01*
X-1832406Y-883000D01*
X-1880499Y-931093D01*
X-1880499Y-1088907D01*
X-1768907Y-1200499D01*
X-1611093Y-1200499D01*
X-1499501Y-1088907D01*
X-1499501Y-931093D01*
X-1522195Y-908399D01*
X-1228968Y-908399D01*
X-1198900Y-938467D01*
X-1030564Y-938467D01*
X-1029764Y-937667D01*
X-658397Y-937667D01*
X-607099Y-886369D01*
X-607099Y-950386D01*
X-548485Y-1009000D01*
X-607099Y-1067614D01*
X-607099Y-1203411D01*
X-2370224Y-1203411D01*
X-2452571Y-1121064D01*
X-2452571Y-649104D01*
X-2650074Y-451601D01*
X-3026801Y-451601D01*
X-3026801Y-146801D01*
X-3433199Y-146801D01*
X-3433199Y-789351D01*
X-3522632Y-789351D01*
X-3522632Y+29351D01*
X-3443199Y+29351D01*
X-3443199Y+18801D01*
X-3036801Y+18801D01*
X-3036801Y+38601D01*
X-2365875Y+38601D01*
X-1956875Y+447601D01*
X-1049734Y+447601D01*
X-1049734Y+257432D01*
G37*
G36*
X-2757369Y-775354D02*
X-2757369Y-1247314D01*
X-2496474Y-1508209D01*
X-600055Y-1508209D01*
X-571343Y-1536921D01*
X-568630Y-1537145D01*
X-607099Y-1575614D01*
X-607099Y-1596605D01*
X-798095Y-1787601D01*
X-3026801Y-1787601D01*
X-3026801Y-1228801D01*
X-3433199Y-1228801D01*
X-3433199Y-1311351D01*
X-3522632Y-1311351D01*
X-3522632Y-1030649D01*
X-3433199Y-1030649D01*
X-3433199Y-1061199D01*
X-3026801Y-1061199D01*
X-3026801Y-756399D01*
X-2776324Y-756399D01*
X-2757369Y-775354D01*
G37*
D10*
X+320000Y-1644000D02*
X+688000Y-2012000D01*
X+1238000Y-2012000D01*
X+320000Y-1390000D02*
X+913407Y-1390000D01*
X+1033407Y-1270000D01*
X+1033407Y-776593D01*
X+1148000Y-662000D01*
X+2254000Y-2012000D02*
X+2762758Y-2012000D01*
X+2798400Y-1976358D01*
X+2900000Y-2018000D01*
X+3720000Y-1724000D02*
X+3633392Y-1810608D01*
X+3001600Y-1810608D01*
X+2900000Y-1764000D01*
X+3640000Y-390000D02*
X+2886000Y-390000D01*
X+2860000Y-416000D01*
X+320000Y-374000D02*
X+664421Y-29579D01*
X+664421Y+1072635D01*
X+775975Y+1184189D01*
X+1384189Y+1184189D01*
X+1520000Y+1320000D01*
X+320000Y-1136000D02*
X+836042Y-619958D01*
X+836042Y-437635D01*
X+836042Y+656042D01*
X+1048000Y+868000D01*
X+2064000Y+868000D02*
X+2778000Y+868000D01*
X+2790000Y+880000D01*
X+1520000Y+1320000D02*
X+2722000Y+1320000D01*
X+2790000Y+1388000D01*
X+2164000Y-662000D02*
X+2902826Y-662000D01*
X+2912664Y-652162D01*
X+2860000Y-670000D01*
X+1702731Y-130000D02*
X+2828000Y-130000D01*
X+2860000Y-162000D01*
X+2900000Y-1510000D02*
X+1796853Y-1510000D01*
X+1702731Y-1415878D01*
X+1702731Y-130000D01*
X+1702731Y+387269D01*
X+1550000Y+540000D01*
X+1550000Y+1290000D01*
X+1520000Y+1320000D01*
X-1690000Y-756000D02*
X-1114732Y-756000D01*
D11*
X-1106000Y-756000D01*
X-1100000Y-750000D01*
X-1114732Y-735268D01*
D12*
X-1114732Y-756000D01*
X-1114732Y-785268D01*
X-1100000Y-785268D01*
X-1100000Y-750000D01*
D10*
X-1700000Y-214000D02*
X-1128000Y-214000D01*
X-1114732Y-227268D01*
X-721553Y-227268D01*
X-605578Y-343243D01*
X-519767Y-343243D01*
X-505500Y-357510D01*
X-442000Y-374000D01*
X-1100000Y-785268D02*
X-721522Y-785268D01*
X-682808Y-746554D01*
X-564254Y-628000D01*
X-442000Y-628000D01*
X-3230000Y-1940000D02*
X-734970Y-1940000D01*
X-717132Y-1922162D01*
X-442000Y-1647030D01*
X-442000Y-1644000D01*
D11*
X-3643281Y+150000D02*
X-3643281Y+1201351D01*
X-3634700Y+1209932D01*
X-3282068Y+1209932D01*
X-3230000Y+1262000D01*
X-3643281Y-910000D02*
X-3282000Y-910000D01*
X-3230000Y-858000D01*
X-3230000Y-1432000D02*
X-3635740Y-1432000D01*
X-3643281Y-1424459D01*
X-3643281Y-910000D01*
X-3643281Y+150000D01*
D10*
X-3230000Y-604000D02*
X-2713199Y-604000D01*
X-2604970Y-712229D01*
X-2604970Y-1184189D01*
X-2433349Y-1355810D01*
X-536930Y-1355810D01*
X-505500Y-1387240D01*
X-442000Y-1390000D01*
X-3240000Y+730000D02*
X-2580000Y+730000D01*
X-2150000Y+1160000D01*
X-452000Y+1160000D01*
X-442000Y+1150000D01*
X-3230000Y+1770000D02*
X-2538619Y+1770000D01*
X-2184497Y+1415878D01*
X-453878Y+1415878D01*
X-442000Y+1404000D01*
X-900000Y+1660000D02*
X-444000Y+1660000D01*
X-442000Y+1658000D01*
D11*
X-3643281Y+150000D02*
X-3312000Y+150000D01*
X-3271000Y+191000D01*
D10*
X-2429000Y+191000D01*
X-2020000Y+600000D01*
X-944000Y+600000D01*
D11*
X-900000Y+644000D01*
X-3271000Y+191000D02*
X-3240000Y+222000D01*
D10*
X-442000Y+134000D02*
X-773903Y+134000D01*
X-897335Y+257432D01*
X-897335Y+641335D01*
X-900000Y+644000D01*
X-442000Y+134000D02*
X-198971Y+134000D01*
X-116457Y+51486D01*
X-116457Y-248851D01*
X-99295Y-266013D01*
X-4903Y-360405D01*
X+3677Y-360405D01*
X+306405Y-360405D01*
X+320000Y-374000D01*
X+3570000Y+1136000D02*
X+3570000Y+1140000D01*
X+2790000Y+1140000D01*
X+2790000Y+1134000D01*
X-442000Y+1658000D02*
X-445598Y+1670179D01*
X-480047Y+1660000D01*
X-446856Y+1646266D01*
X-442000Y+1658000D01*
X-442000Y+1404000D02*
X-442289Y+1416696D01*
X-478201Y+1415878D01*
X-449755Y+1393943D01*
X-442000Y+1404000D01*
X-442000Y+1150000D02*
X-442942Y+1162665D01*
X-478764Y+1160000D01*
X-449227Y+1139558D01*
X-442000Y+1150000D01*
X-442000Y+134000D02*
X-446233Y+145973D01*
X-480100Y+134000D01*
X-446233Y+122027D01*
X-442000Y+134000D01*
X-437767Y+122027D01*
X-403900Y+134000D01*
X-437767Y+145973D01*
X-442000Y+134000D01*
X-442000Y-374000D02*
X-443087Y-361347D01*
X-478876Y-364424D01*
X-449106Y-384525D01*
X-442000Y-374000D01*
X-442000Y-628000D02*
X-446233Y-616027D01*
X-480100Y-628000D01*
X-446233Y-639973D01*
X-442000Y-628000D01*
X-442000Y-1390000D02*
X-445709Y-1377854D01*
X-480064Y-1388346D01*
X-446749Y-1401778D01*
X-442000Y-1390000D01*
X-442000Y-1644000D02*
X-453749Y-1639180D01*
X-467383Y-1672413D01*
X-435891Y-1655134D01*
X-442000Y-1644000D01*
X+320000Y-1644000D02*
X+314527Y-1655460D01*
X+346940Y-1670940D01*
X+331460Y-1638527D01*
X+320000Y-1644000D01*
X+320000Y-1390000D02*
X+324233Y-1401973D01*
X+358100Y-1390000D01*
X+324233Y-1378027D01*
X+320000Y-1390000D01*
X+320000Y-1136000D02*
X+331460Y-1141473D01*
X+346940Y-1109060D01*
X+314527Y-1124540D01*
X+320000Y-1136000D01*
X+320000Y-374000D02*
X+331460Y-379473D01*
X+346940Y-347060D01*
X+314527Y-362540D01*
X+320000Y-374000D01*
X+320317Y-361304D01*
X+284409Y-360405D01*
X+311773Y-383674D01*
X+320000Y-374000D01*
D13*
X+3878240Y-1266801D02*
X+3516801Y-1266801D01*
X+3516801Y-1658209D01*
X+3103199Y-1658209D01*
X+3103199Y-1306801D01*
X+2696801Y-1306801D01*
X+2696801Y-1357601D01*
X+1859978Y-1357601D01*
X+1855130Y-1352753D01*
X+1855130Y-282399D01*
X+2656801Y-282399D01*
X+2656801Y-509601D01*
X+2281007Y-509601D01*
X+2242907Y-471501D01*
X+2085093Y-471501D01*
X+1973501Y-583093D01*
X+1973501Y-740907D01*
X+2085093Y-852499D01*
X+2242907Y-852499D01*
X+2281007Y-814399D01*
X+2656801Y-814399D01*
X+2656801Y-873199D01*
X+3063199Y-873199D01*
X+3063199Y-717151D01*
X+3105922Y-674428D01*
X+3063199Y-605672D01*
X+3063199Y-542399D01*
X+3436801Y-542399D01*
X+3436801Y-593199D01*
X+3843199Y-593199D01*
X+3843199Y+67199D01*
X+3436801Y+67199D01*
X+3436801Y-237601D01*
X+3063199Y-237601D01*
X+3063199Y+41199D01*
X+2656801Y+41199D01*
X+2656801Y+22399D01*
X+1855130Y+22399D01*
X+1855130Y+450394D01*
X+1702399Y+603125D01*
X+1702399Y+1116801D01*
X+1723199Y+1116801D01*
X+1723199Y+1167601D01*
X+2586801Y+1167601D01*
X+2586801Y+1020399D01*
X+2181007Y+1020399D01*
X+2142907Y+1058499D01*
X+1985093Y+1058499D01*
X+1873501Y+946907D01*
X+1873501Y+789093D01*
X+1985093Y+677501D01*
X+2142907Y+677501D01*
X+2181007Y+715601D01*
X+2586801Y+715601D01*
X+2586801Y+676801D01*
X+2993199Y+676801D01*
X+2993199Y+987601D01*
X+3366801Y+987601D01*
X+3366801Y+932801D01*
X+3773199Y+932801D01*
X+3773199Y+1593199D01*
X+3366801Y+1593199D01*
X+3366801Y+1292399D01*
X+2993199Y+1292399D01*
X+2993199Y+1591199D01*
X+2586801Y+1591199D01*
X+2586801Y+1472399D01*
X+1723199Y+1472399D01*
X+1723199Y+1777199D01*
X+1316801Y+1777199D01*
X+1316801Y+1336588D01*
X+712850Y+1336588D01*
X+512022Y+1135760D01*
X+512022Y+33546D01*
X+455980Y-22495D01*
X+426485Y+7000D01*
X+485099Y+65614D01*
X+485099Y+202386D01*
X+426485Y+261000D01*
X+485099Y+319614D01*
X+485099Y+456386D01*
X+426485Y+515000D01*
X+485099Y+573614D01*
X+485099Y+710386D01*
X+426485Y+769000D01*
X+485099Y+827614D01*
X+485099Y+964386D01*
X+426485Y+1023000D01*
X+485099Y+1081614D01*
X+485099Y+1218386D01*
X+426485Y+1277000D01*
X+485099Y+1335614D01*
X+485099Y+1472386D01*
X+427485Y+1530000D01*
X+485099Y+1587614D01*
X+485099Y+1724386D01*
X+388386Y+1821099D01*
X+251614Y+1821099D01*
X+154901Y+1724386D01*
X+154901Y+1587614D01*
X+212515Y+1530000D01*
X+154901Y+1472386D01*
X+154901Y+1335614D01*
X+213515Y+1277000D01*
X+154901Y+1218386D01*
X+154901Y+1081614D01*
X+213515Y+1023000D01*
X+154901Y+964386D01*
X+154901Y+827614D01*
X+213515Y+769000D01*
X+154901Y+710386D01*
X+154901Y+573614D01*
X+213515Y+515000D01*
X+154901Y+456386D01*
X+154901Y+319614D01*
X+213515Y+261000D01*
X+154901Y+202386D01*
X+154901Y+65614D01*
X+213515Y+7000D01*
X+154901Y-51614D01*
X+154901Y-188386D01*
X+174521Y-208006D01*
X+58222Y-208006D01*
X+35942Y-185726D01*
X+35942Y+114611D01*
X-135846Y+286399D01*
X-310116Y+286399D01*
X-276901Y+319614D01*
X-276901Y+456386D01*
X-335515Y+515000D01*
X-276901Y+573614D01*
X-276901Y+710386D01*
X-335515Y+769000D01*
X-276901Y+827614D01*
X-276901Y+964386D01*
X-335515Y+1023000D01*
X-276901Y+1081614D01*
X-276901Y+1218386D01*
X-335515Y+1277000D01*
X-276901Y+1335614D01*
X-276901Y+1472386D01*
X-297416Y+1492901D01*
X-276901Y+1492901D01*
X-276901Y+1823099D01*
X-607099Y+1823099D01*
X-607099Y+1812399D01*
X-782993Y+1812399D01*
X-821093Y+1850499D01*
X-978907Y+1850499D01*
X-1090499Y+1738907D01*
X-1090499Y+1581093D01*
X-1077683Y+1568277D01*
X-2121372Y+1568277D01*
X-2475494Y+1922399D01*
X-3026801Y+1922399D01*
X-3026801Y+1973199D01*
X-3433199Y+1973199D01*
X-3433199Y+1330581D01*
X-3684673Y+1330581D01*
X-3763929Y+1251325D01*
X-3763929Y+1201351D01*
X-3763930Y-1474432D01*
X-3685713Y-1552649D01*
X-3433199Y-1552649D01*
X-3433199Y-2143199D01*
X-3026801Y-2143199D01*
X-3026801Y-2092399D01*
X-671845Y-2092399D01*
X-388545Y-1809099D01*
X-373614Y-1809099D01*
X-276901Y-1712386D01*
X-276901Y-1575614D01*
X-335515Y-1517000D01*
X-276901Y-1458386D01*
X-276901Y-1321614D01*
X-335515Y-1263000D01*
X-276901Y-1204386D01*
X-276901Y-1067614D01*
X-335515Y-1009000D01*
X-276901Y-950386D01*
X-276901Y-813614D01*
X-335515Y-755000D01*
X-276901Y-696386D01*
X-276901Y-559614D01*
X-335515Y-501000D01*
X-276901Y-442386D01*
X-276901Y-305614D01*
X-335515Y-247000D01*
X-276901Y-188386D01*
X-276901Y-51614D01*
X-310116Y-18399D01*
X-268856Y-18399D01*
X-268856Y-311976D01*
X-68028Y-512804D01*
X+201711Y-512804D01*
X+154901Y-559614D01*
X+154901Y-696386D01*
X+213515Y-755000D01*
X+154901Y-813614D01*
X+154901Y-950386D01*
X+213515Y-1009000D01*
X+154901Y-1067614D01*
X+154901Y-1204386D01*
X+213515Y-1263000D01*
X+154901Y-1321614D01*
X+154901Y-1458386D01*
X+213515Y-1517000D01*
X+154901Y-1575614D01*
X+154901Y-1712386D01*
X+251614Y-1809099D01*
X+269575Y-1809099D01*
X+624875Y-2164399D01*
X+1120993Y-2164399D01*
X+1159093Y-2202499D01*
X+1316907Y-2202499D01*
X+1428499Y-2090907D01*
X+1428499Y-1933093D01*
X+1316907Y-1821501D01*
X+1159093Y-1821501D01*
X+1120993Y-1859601D01*
X+751125Y-1859601D01*
X+485099Y-1593575D01*
X+485099Y-1575614D01*
X+451884Y-1542399D01*
X+976532Y-1542399D01*
X+1185806Y-1333125D01*
X+1185806Y-852499D01*
X+1226907Y-852499D01*
X+1338499Y-740907D01*
X+1338499Y-583093D01*
X+1226907Y-471501D01*
X+1069093Y-471501D01*
X+988441Y-552153D01*
X+988441Y+592917D01*
X+1073025Y+677501D01*
X+1126907Y+677501D01*
X+1238499Y+789093D01*
X+1238499Y+946907D01*
X+1153616Y+1031790D01*
X+1397601Y+1031790D01*
X+1397601Y+476875D01*
X+1550332Y+324144D01*
X+1550332Y-1479003D01*
X+1733728Y-1662399D01*
X+2696801Y-1662399D01*
X+2696801Y-1859601D01*
X+2371007Y-1859601D01*
X+2332907Y-1821501D01*
X+2175093Y-1821501D01*
X+2063501Y-1933093D01*
X+2063501Y-2090907D01*
X+2175093Y-2202499D01*
X+2332907Y-2202499D01*
X+2371007Y-2164399D01*
X+2696801Y-2164399D01*
X+2696801Y-2221199D01*
X+3103199Y-2221199D01*
X+3103199Y-1963007D01*
X+3696517Y-1963007D01*
X+3732325Y-1927199D01*
X+3878240Y-1927199D01*
X+3878240Y-2388240D01*
X-3878240Y-2388240D01*
X-3878240Y+2368240D01*
X+3878240Y+2368240D01*
X+3878240Y-1266801D01*
X-2254834Y+1270690D02*
X-2643126Y+882398D01*
X-3036801Y+882399D01*
X-3036801Y+933199D01*
X-3443199Y+933199D01*
X-3443199Y+270649D01*
X-3522632Y+270649D01*
X-3522633Y+1089283D01*
X-3433199Y+1089283D01*
X-3433199Y+1058801D01*
X-3026801Y+1058801D01*
X-3026801Y+1617601D01*
X-2601744Y+1617601D01*
X-2254834Y+1270690D01*
X-607099Y+964386D02*
X-607099Y+827614D01*
X-548485Y+769000D01*
X-607099Y+710386D01*
X-607099Y+573614D01*
X-548485Y+515000D01*
X-607099Y+456386D01*
X-607099Y+319614D01*
X-573884Y+286399D01*
X-710778Y+286399D01*
X-744936Y+320557D01*
X-744936Y+529658D01*
X-709501Y+565093D01*
X-709501Y+722907D01*
X-821093Y+834499D01*
X-978907Y+834499D01*
X-1061007Y+752399D01*
X-2083125Y+752399D01*
X-2492125Y+343399D01*
X-3036801Y+343399D01*
X-3036801Y+577601D01*
X-2516874Y+577602D01*
X-2086875Y+1007601D01*
X-563884Y+1007601D01*
X-607099Y+964386D01*
X-1049734Y+257432D02*
X-1049734Y+194307D01*
X-837028Y-18399D01*
X-573884Y-18399D01*
X-607099Y-51614D01*
X-607099Y-126198D01*
X-658428Y-74869D01*
X-979764Y-74869D01*
X-1030564Y-24069D01*
X-1198900Y-24069D01*
X-1236432Y-61601D01*
X-1532195Y-61601D01*
X-1509501Y-38907D01*
X-1509501Y+118907D01*
X-1621093Y+230499D01*
X-1778907Y+230499D01*
X-1890499Y+118907D01*
X-1890499Y-38907D01*
X-1842406Y-87000D01*
X-1890499Y-135093D01*
X-1890499Y-292907D01*
X-1778907Y-404499D01*
X-1621093Y-404499D01*
X-1582993Y-366399D01*
X-1262968Y-366399D01*
X-1198900Y-430467D01*
X-1030564Y-430467D01*
X-979764Y-379667D01*
X-784678Y-379667D01*
X-668703Y-495642D01*
X-647420Y-495642D01*
X-784647Y-632869D01*
X-929764Y-632869D01*
X-1030564Y-532069D01*
X-1198900Y-532069D01*
X-1270432Y-603601D01*
X-1572993Y-603601D01*
X-1611093Y-565501D01*
X-1768907Y-565501D01*
X-1880499Y-677093D01*
X-1880499Y-834907D01*
X-1832406Y-883000D01*
X-1880499Y-931093D01*
X-1880499Y-1088907D01*
X-1768907Y-1200499D01*
X-1611093Y-1200499D01*
X-1499501Y-1088907D01*
X-1499501Y-931093D01*
X-1522195Y-908399D01*
X-1228968Y-908399D01*
X-1198900Y-938467D01*
X-1030564Y-938467D01*
X-1029764Y-937667D01*
X-658397Y-937667D01*
X-607099Y-886369D01*
X-607099Y-950386D01*
X-548485Y-1009000D01*
X-607099Y-1067614D01*
X-607099Y-1203411D01*
X-2370224Y-1203411D01*
X-2452571Y-1121064D01*
X-2452571Y-649104D01*
X-2650074Y-451601D01*
X-3026801Y-451601D01*
X-3026801Y-146801D01*
X-3433199Y-146801D01*
X-3433199Y-789351D01*
X-3522632Y-789351D01*
X-3522632Y+29351D01*
X-3443199Y+29351D01*
X-3443199Y+18801D01*
X-3036801Y+18801D01*
X-3036801Y+38601D01*
X-2365875Y+38601D01*
X-1956875Y+447601D01*
X-1049734Y+447601D01*
X-1049734Y+257432D01*
X-2757369Y-775354D02*
X-2757369Y-1247314D01*
X-2496474Y-1508209D01*
X-600055Y-1508209D01*
X-571343Y-1536921D01*
X-568630Y-1537145D01*
X-607099Y-1575614D01*
X-607099Y-1596605D01*
X-798095Y-1787601D01*
X-3026801Y-1787601D01*
X-3026801Y-1228801D01*
X-3433199Y-1228801D01*
X-3433199Y-1311351D01*
X-3522632Y-1311351D01*
X-3522632Y-1030649D01*
X-3433199Y-1030649D01*
X-3433199Y-1061199D01*
X-3026801Y-1061199D01*
X-3026801Y-756399D01*
X-2776324Y-756399D01*
X-2757369Y-775354D01*
D12*
X-1700000Y+230499D02*
X-1700000Y+40000D01*
X-1509501Y+40000D02*
X-1700000Y+40000D01*
X-1890499Y+40000D02*
X-1700000Y+40000D01*
X-1690000Y-1200499D02*
X-1690000Y-1010000D01*
X-1880499Y-1010000D02*
X-1690000Y-1010000D01*
X-1499501Y-1010000D02*
X-1690000Y-1010000D01*
X-3026801Y-1686000D02*
X-3230000Y-1686000D01*
X-3433199Y-1686000D02*
X-3230000Y-1686000D01*
X-607099Y-120000D02*
X-442000Y-120000D01*
X-276901Y-120000D02*
X-442000Y-120000D01*
X+154901Y+134000D02*
X+320000Y+134000D01*
X+485099Y+134000D02*
X+320000Y+134000D01*
X+3570000Y+1593199D02*
X+3570000Y+1390000D01*
X+3366801Y+1390000D02*
X+3570000Y+1390000D01*
X+3773199Y+1390000D02*
X+3570000Y+1390000D01*
X-3230000Y-146801D02*
X-3230000Y-350000D01*
X-3433199Y-350000D02*
X-3230000Y-350000D01*
X-3026801Y-350000D02*
X-3230000Y-350000D01*
X-3443199Y+476000D02*
X-3240000Y+476000D01*
X-3036801Y+476000D02*
X-3240000Y+476000D01*
X-3433199Y+1516000D02*
X-3230000Y+1516000D01*
X-3026801Y+1516000D02*
X-3230000Y+1516000D01*
X+3640000Y+67199D02*
X+3640000Y-136000D01*
X+3436801Y-136000D02*
X+3640000Y-136000D01*
X+3843199Y-136000D02*
X+3640000Y-136000D01*
X+3720000Y-1266801D02*
X+3720000Y-1470000D01*
X+3516801Y-1470000D02*
X+3720000Y-1470000D01*
X+1520000Y+1777199D02*
X+1520000Y+1574000D01*
X+1316801Y+1574000D02*
X+1520000Y+1574000D01*
X+1723199Y+1574000D02*
X+1520000Y+1574000D01*
D14*
X-1114732Y-227268D03*
X-1114732Y-735268D03*
D15*
X-1700000Y-214000D03*
X-1700000Y+40000D03*
X-1690000Y-756000D03*
X-1690000Y-1010000D03*
D16*
X-3230000Y-1940000D03*
X-3230000Y-1686000D03*
X-3230000Y-1432000D03*
D17*
X-442000Y+1658000D03*
D18*
X-442000Y+1404000D03*
X-442000Y+1150000D03*
X-442000Y+896000D03*
X-442000Y+642000D03*
X-442000Y+388000D03*
X-442000Y+134000D03*
X-442000Y-120000D03*
X-442000Y-374000D03*
X-442000Y-628000D03*
X-442000Y-882000D03*
X-442000Y-1136000D03*
X-442000Y-1390000D03*
X-442000Y-1644000D03*
X+320000Y-1644000D03*
X+320000Y-1390000D03*
X+320000Y-1136000D03*
X+320000Y-882000D03*
X+320000Y-628000D03*
X+320000Y-374000D03*
X+320000Y-120000D03*
X+320000Y+134000D03*
X+320000Y+388000D03*
X+320000Y+642000D03*
X+320000Y+896000D03*
X+320000Y+1150000D03*
X+320000Y+1404000D03*
X+320000Y+1656000D03*
D16*
X+2790000Y+880000D03*
X+2790000Y+1134000D03*
X+2790000Y+1388000D03*
X+2860000Y-670000D03*
X+2860000Y-416000D03*
X+2860000Y-162000D03*
X+2900000Y-2018000D03*
X+2900000Y-1764000D03*
X+2900000Y-1510000D03*
X+3570000Y+1390000D03*
X+3570000Y+1136000D03*
D15*
X+1048000Y+868000D03*
X+2064000Y+868000D03*
X+1148000Y-662000D03*
X+2164000Y-662000D03*
X+1238000Y-2012000D03*
X+2254000Y-2012000D03*
D16*
X-3230000Y-350000D03*
X-3230000Y-604000D03*
X-3230000Y-858000D03*
X-3240000Y+730000D03*
X-3240000Y+476000D03*
X-3240000Y+222000D03*
X-3230000Y+1770000D03*
X-3230000Y+1516000D03*
X-3230000Y+1262000D03*
X+3640000Y-136000D03*
X+3640000Y-390000D03*
X+3720000Y-1470000D03*
X+3720000Y-1724000D03*
X+1520000Y+1574000D03*
X+1520000Y+1320000D03*
D15*
X-900000Y+644000D03*
X-900000Y+1660000D03*
D19*
X-3990000Y-2500000D02*
X+3990000Y-2500000D01*
X+3990000Y+2480000D01*
X-3990000Y+2480000D01*
X-3990000Y-2500000D01*
M02*
