G04 PROTEUS GERBER X2 FILE*
%TF.GenerationSoftware,Labcenter,Proteus,8.9-SP2-Build28501*%
%TF.CreationDate,2020-09-21T12:23:44+00:00*%
%TF.FileFunction,AssemblyDrawing,Top*%
%TF.FilePolarity,Positive*%
%TF.Part,Single*%
%TF.SameCoordinates,{09cedfca-c85c-474b-bf34-a9c95e6352d1}*%
%FSLAX45Y45*%
%MOMM*%
G01*
%TA.AperFunction,Material*%
%ADD70C,0.203200*%
%ADD24C,0.812800*%
%ADD25C,0.316990*%
%ADD26C,0.711200*%
%ADD27C,0.164590*%
%ADD28C,0.071120*%
%ADD29C,0.508000*%
%ADD72C,0.533400*%
%ADD73C,0.240790*%
%ADD30C,0.106680*%
%ADD31C,0.065190*%
%ADD32C,0.078230*%
%ADD33C,0.088050*%
%TA.AperFunction,Profile*%
%ADD19C,0.203200*%
%TD.AperFunction*%
D70*
X-1378892Y-999428D02*
X-850572Y-999428D01*
X-850572Y+36892D01*
X-1378892Y+36892D01*
X-1378892Y-999428D01*
D24*
X-1114732Y-227268D02*
X-1114732Y-227268D01*
D25*
X-1209829Y-734861D02*
X-1019634Y-544667D01*
X-1019634Y-734861D02*
X-1209829Y-544667D01*
X-1146431Y-417870D02*
X-1209829Y-354472D01*
X-1019634Y-354472D01*
D70*
X-1837160Y-351160D02*
X-1562840Y-351160D01*
X-1562840Y+177160D01*
X-1837160Y+177160D01*
X-1837160Y-351160D01*
D26*
X-1700000Y-214000D02*
X-1700000Y-214000D01*
D27*
X-1667081Y-119919D02*
X-1650622Y-136378D01*
X-1650622Y-185755D01*
X-1683540Y-218673D01*
X-1716459Y-218673D01*
X-1749377Y-185755D01*
X-1749377Y-136378D01*
X-1732918Y-119919D01*
X-1716459Y-54082D02*
X-1749377Y-21164D01*
X-1650622Y-21164D01*
D70*
X-1827160Y-1147160D02*
X-1552840Y-1147160D01*
X-1552840Y-618840D01*
X-1827160Y-618840D01*
X-1827160Y-1147160D01*
D26*
X-1690000Y-756000D02*
X-1690000Y-756000D01*
D27*
X-1657081Y-915919D02*
X-1640622Y-932378D01*
X-1640622Y-981755D01*
X-1673540Y-1014673D01*
X-1706459Y-1014673D01*
X-1739377Y-981755D01*
X-1739377Y-932378D01*
X-1722918Y-915919D01*
X-1722918Y-866541D02*
X-1739377Y-850082D01*
X-1739377Y-800705D01*
X-1722918Y-784246D01*
X-1706459Y-784246D01*
X-1690000Y-800705D01*
X-1690000Y-850082D01*
X-1673540Y-866541D01*
X-1640622Y-866541D01*
X-1640622Y-784246D01*
D70*
X-3367160Y-2077160D02*
X-3092840Y-2077160D01*
X-3092840Y-1294840D01*
X-3367160Y-1294840D01*
X-3367160Y-2077160D01*
D24*
X-3230000Y-1940000D02*
X-3230000Y-1940000D01*
D28*
X-3215776Y-1970480D02*
X-3208664Y-1963368D01*
X-3208664Y-1934920D01*
X-3215776Y-1927808D01*
X-3222888Y-1927808D01*
X-3230000Y-1934920D01*
X-3230000Y-1963368D01*
X-3237112Y-1970480D01*
X-3244224Y-1970480D01*
X-3251336Y-1963368D01*
X-3251336Y-1934920D01*
X-3244224Y-1927808D01*
X-3237112Y-1913584D02*
X-3251336Y-1899360D01*
X-3251336Y-1885136D01*
X-3237112Y-1870912D01*
X-3222888Y-1870912D01*
X-3208664Y-1885136D01*
X-3208664Y-1899360D01*
X-3222888Y-1913584D01*
X-3237112Y-1913584D01*
X-3208664Y-1856688D02*
X-3237112Y-1856688D01*
X-3251336Y-1842464D01*
X-3251336Y-1828240D01*
X-3237112Y-1814016D01*
X-3208664Y-1814016D01*
X-3222888Y-1856688D02*
X-3222888Y-1814016D01*
X-3208664Y-1799792D02*
X-3251336Y-1799792D01*
X-3251336Y-1764232D01*
X-3244224Y-1757120D01*
X-3237112Y-1757120D01*
X-3230000Y-1764232D01*
X-3230000Y-1799792D01*
X-3215776Y-1686000D02*
X-3208664Y-1678888D01*
X-3208664Y-1650440D01*
X-3215776Y-1643328D01*
X-3222888Y-1643328D01*
X-3230000Y-1650440D01*
X-3230000Y-1678888D01*
X-3237112Y-1686000D01*
X-3244224Y-1686000D01*
X-3251336Y-1678888D01*
X-3251336Y-1650440D01*
X-3244224Y-1643328D01*
X-3208664Y-1586432D02*
X-3208664Y-1629104D01*
X-3251336Y-1629104D01*
X-3251336Y-1586432D01*
X-3230000Y-1629104D02*
X-3230000Y-1600656D01*
X-3208664Y-1572208D02*
X-3251336Y-1572208D01*
X-3208664Y-1529536D01*
X-3251336Y-1529536D01*
X-3215776Y-1515312D02*
X-3208664Y-1508200D01*
X-3208664Y-1479752D01*
X-3215776Y-1472640D01*
X-3222888Y-1472640D01*
X-3230000Y-1479752D01*
X-3230000Y-1508200D01*
X-3237112Y-1515312D01*
X-3244224Y-1515312D01*
X-3251336Y-1508200D01*
X-3251336Y-1479752D01*
X-3244224Y-1472640D01*
X-3208664Y-1415744D02*
X-3208664Y-1458416D01*
X-3251336Y-1458416D01*
X-3251336Y-1415744D01*
X-3230000Y-1458416D02*
X-3230000Y-1429968D01*
D70*
X-505500Y-1719660D02*
X+383500Y-1719660D01*
X+383500Y+1729660D01*
X-505500Y+1729660D01*
X-505500Y-1719660D01*
D29*
X-442000Y+1658000D02*
X-442000Y+1658000D01*
D72*
X-221020Y-421720D02*
X+45680Y-421720D01*
X+99020Y-368380D01*
X+99020Y-155020D01*
X+45680Y-101680D01*
X-221020Y-101680D01*
X-114340Y+111680D02*
X-221020Y+218360D01*
X+99020Y+218360D01*
D70*
X+2525840Y+742840D02*
X+2927160Y+742840D01*
X+2927160Y+1525160D01*
X+2525840Y+1525160D01*
X+2525840Y+742840D01*
D24*
X+2790000Y+880000D02*
X+2790000Y+880000D01*
D73*
X+2702421Y+941367D02*
X+2654263Y+989525D01*
X+2654263Y+1037683D01*
X+2702421Y+1085841D01*
X+2750580Y+1085841D01*
X+2798738Y+1037683D01*
X+2798738Y+989525D01*
X+2750580Y+941367D01*
X+2702421Y+941367D01*
X+2750580Y+1037683D02*
X+2798738Y+1085841D01*
X+2702421Y+1182158D02*
X+2654263Y+1230316D01*
X+2798738Y+1230316D01*
D70*
X+2595840Y-807160D02*
X+2997160Y-807160D01*
X+2997160Y-24840D01*
X+2595840Y-24840D01*
X+2595840Y-807160D01*
D24*
X+2860000Y-670000D02*
X+2860000Y-670000D01*
D73*
X+2772421Y-608633D02*
X+2724263Y-560475D01*
X+2724263Y-512317D01*
X+2772421Y-464159D01*
X+2820580Y-464159D01*
X+2868738Y-512317D01*
X+2868738Y-560475D01*
X+2820580Y-608633D01*
X+2772421Y-608633D01*
X+2820580Y-512317D02*
X+2868738Y-464159D01*
X+2748342Y-391921D02*
X+2724263Y-367842D01*
X+2724263Y-295605D01*
X+2748342Y-271526D01*
X+2772421Y-271526D01*
X+2796500Y-295605D01*
X+2820580Y-271526D01*
X+2844659Y-271526D01*
X+2868738Y-295605D01*
X+2868738Y-367842D01*
X+2844659Y-391921D01*
X+2796500Y-343763D02*
X+2796500Y-295605D01*
D70*
X+2635840Y-2155160D02*
X+3037160Y-2155160D01*
X+3037160Y-1372840D01*
X+2635840Y-1372840D01*
X+2635840Y-2155160D01*
D24*
X+2900000Y-2018000D02*
X+2900000Y-2018000D01*
D73*
X+2812421Y-1956633D02*
X+2764263Y-1908475D01*
X+2764263Y-1860317D01*
X+2812421Y-1812159D01*
X+2860580Y-1812159D01*
X+2908738Y-1860317D01*
X+2908738Y-1908475D01*
X+2860580Y-1956633D01*
X+2812421Y-1956633D01*
X+2860580Y-1860317D02*
X+2908738Y-1812159D01*
X+2860580Y-1619526D02*
X+2860580Y-1764000D01*
X+2764263Y-1667684D01*
X+2908738Y-1667684D01*
D70*
X+3432840Y+998840D02*
X+3707160Y+998840D01*
X+3707160Y+1527160D01*
X+3432840Y+1527160D01*
X+3432840Y+998840D01*
D24*
X+3570000Y+1390000D02*
X+3570000Y+1390000D01*
D27*
X+3586460Y+1131327D02*
X+3602919Y+1131327D01*
X+3619378Y+1147786D01*
X+3619378Y+1213622D01*
X+3602919Y+1230081D01*
X+3520623Y+1230081D01*
X+3520623Y+1361754D02*
X+3520623Y+1279459D01*
X+3553541Y+1279459D01*
X+3553541Y+1345295D01*
X+3570000Y+1361754D01*
X+3602919Y+1361754D01*
X+3619378Y+1345295D01*
X+3619378Y+1295918D01*
X+3602919Y+1279459D01*
D70*
X+959100Y+779100D02*
X+2152900Y+779100D01*
X+2152900Y+956900D01*
X+959100Y+956900D01*
X+959100Y+779100D01*
D26*
X+1048000Y+868000D02*
X+1048000Y+868000D01*
D30*
X+1470656Y+835996D02*
X+1470656Y+900004D01*
X+1523996Y+900004D01*
X+1534664Y+889336D01*
X+1534664Y+878668D01*
X+1523996Y+868000D01*
X+1470656Y+868000D01*
X+1523996Y+868000D02*
X+1534664Y+857332D01*
X+1534664Y+835996D01*
X+1566668Y+889336D02*
X+1577336Y+900004D01*
X+1609340Y+900004D01*
X+1620008Y+889336D01*
X+1620008Y+878668D01*
X+1609340Y+868000D01*
X+1577336Y+868000D01*
X+1566668Y+857332D01*
X+1566668Y+835996D01*
X+1620008Y+835996D01*
D70*
X+1059100Y-750900D02*
X+2252900Y-750900D01*
X+2252900Y-573100D01*
X+1059100Y-573100D01*
X+1059100Y-750900D01*
D26*
X+1148000Y-662000D02*
X+1148000Y-662000D01*
D30*
X+1570656Y-694004D02*
X+1570656Y-629996D01*
X+1623996Y-629996D01*
X+1634664Y-640664D01*
X+1634664Y-651332D01*
X+1623996Y-662000D01*
X+1570656Y-662000D01*
X+1623996Y-662000D02*
X+1634664Y-672668D01*
X+1634664Y-694004D01*
X+1666668Y-640664D02*
X+1677336Y-629996D01*
X+1709340Y-629996D01*
X+1720008Y-640664D01*
X+1720008Y-651332D01*
X+1709340Y-662000D01*
X+1720008Y-672668D01*
X+1720008Y-683336D01*
X+1709340Y-694004D01*
X+1677336Y-694004D01*
X+1666668Y-683336D01*
X+1688004Y-662000D02*
X+1709340Y-662000D01*
D70*
X+1149100Y-2100900D02*
X+2342900Y-2100900D01*
X+2342900Y-1923100D01*
X+1149100Y-1923100D01*
X+1149100Y-2100900D01*
D26*
X+1238000Y-2012000D02*
X+1238000Y-2012000D01*
D30*
X+1660656Y-2044004D02*
X+1660656Y-1979996D01*
X+1713996Y-1979996D01*
X+1724664Y-1990664D01*
X+1724664Y-2001332D01*
X+1713996Y-2012000D01*
X+1660656Y-2012000D01*
X+1713996Y-2012000D02*
X+1724664Y-2022668D01*
X+1724664Y-2044004D01*
X+1810008Y-2022668D02*
X+1746000Y-2022668D01*
X+1788672Y-1979996D01*
X+1788672Y-2044004D01*
D70*
X-3367160Y-995160D02*
X-3092840Y-995160D01*
X-3092840Y-212840D01*
X-3367160Y-212840D01*
X-3367160Y-995160D01*
D24*
X-3230000Y-350000D02*
X-3230000Y-350000D01*
D27*
X-3180622Y-801509D02*
X-3279377Y-801509D01*
X-3279377Y-719214D01*
X-3262918Y-702755D01*
X-3246459Y-702755D01*
X-3230000Y-719214D01*
X-3230000Y-801509D01*
X-3279377Y-653377D02*
X-3279377Y-587541D01*
X-3279377Y-620459D02*
X-3180622Y-620459D01*
X-3180622Y-653377D02*
X-3180622Y-587541D01*
X-3180622Y-538163D02*
X-3279377Y-538163D01*
X-3279377Y-455868D01*
X-3262918Y-439409D01*
X-3246459Y-439409D01*
X-3230000Y-455868D01*
X-3230000Y-538163D01*
X-3230000Y-455868D02*
X-3213540Y-439409D01*
X-3180622Y-439409D01*
D70*
X-3377160Y+84840D02*
X-3102840Y+84840D01*
X-3102840Y+867160D01*
X-3377160Y+867160D01*
X-3377160Y+84840D01*
D24*
X-3240000Y+730000D02*
X-3240000Y+730000D01*
D31*
X-3259558Y+189153D02*
X-3220442Y+189153D01*
X-3240000Y+208710D01*
X-3220442Y+228268D01*
X-3259558Y+228268D01*
X-3220442Y+241307D02*
X-3246519Y+241307D01*
X-3259558Y+254345D01*
X-3259558Y+267384D01*
X-3246519Y+280422D01*
X-3220442Y+280422D01*
X-3233481Y+241307D02*
X-3233481Y+280422D01*
X-3259558Y+293461D02*
X-3259558Y+332576D01*
X-3259558Y+313018D02*
X-3220442Y+313018D01*
X-3220442Y+384730D02*
X-3220442Y+345615D01*
X-3259558Y+345615D01*
X-3259558Y+384730D01*
X-3240000Y+345615D02*
X-3240000Y+371692D01*
X-3220442Y+397769D02*
X-3259558Y+397769D01*
X-3259558Y+430365D01*
X-3253039Y+436884D01*
X-3246519Y+436884D01*
X-3240000Y+430365D01*
X-3240000Y+397769D01*
X-3240000Y+430365D02*
X-3233481Y+436884D01*
X-3220442Y+436884D01*
X-3226961Y+502077D02*
X-3220442Y+508596D01*
X-3220442Y+534673D01*
X-3226961Y+541192D01*
X-3233481Y+541192D01*
X-3240000Y+534673D01*
X-3240000Y+508596D01*
X-3246519Y+502077D01*
X-3253039Y+502077D01*
X-3259558Y+508596D01*
X-3259558Y+534673D01*
X-3253039Y+541192D01*
X-3220442Y+593346D02*
X-3220442Y+554231D01*
X-3259558Y+554231D01*
X-3259558Y+593346D01*
X-3240000Y+554231D02*
X-3240000Y+580308D01*
X-3220442Y+606385D02*
X-3259558Y+606385D01*
X-3220442Y+645500D01*
X-3259558Y+645500D01*
X-3226961Y+658539D02*
X-3220442Y+665058D01*
X-3220442Y+691135D01*
X-3226961Y+697654D01*
X-3233481Y+697654D01*
X-3240000Y+691135D01*
X-3240000Y+665058D01*
X-3246519Y+658539D01*
X-3253039Y+658539D01*
X-3259558Y+665058D01*
X-3259558Y+691135D01*
X-3253039Y+697654D01*
X-3220442Y+749808D02*
X-3220442Y+710693D01*
X-3259558Y+710693D01*
X-3259558Y+749808D01*
X-3240000Y+710693D02*
X-3240000Y+736770D01*
D70*
X-3367160Y+1124840D02*
X-3092840Y+1124840D01*
X-3092840Y+1907160D01*
X-3367160Y+1907160D01*
X-3367160Y+1124840D01*
D24*
X-3230000Y+1770000D02*
X-3230000Y+1770000D01*
D32*
X-3214353Y+1234368D02*
X-3206530Y+1242191D01*
X-3206530Y+1273483D01*
X-3214353Y+1281306D01*
X-3222176Y+1281306D01*
X-3230000Y+1273483D01*
X-3230000Y+1242191D01*
X-3237823Y+1234368D01*
X-3245646Y+1234368D01*
X-3253469Y+1242191D01*
X-3253469Y+1273483D01*
X-3245646Y+1281306D01*
X-3206530Y+1296953D02*
X-3237823Y+1296953D01*
X-3253469Y+1312599D01*
X-3253469Y+1328245D01*
X-3237823Y+1343891D01*
X-3206530Y+1343891D01*
X-3222176Y+1296953D02*
X-3222176Y+1343891D01*
X-3206530Y+1359538D02*
X-3253469Y+1359538D01*
X-3206530Y+1406476D01*
X-3253469Y+1406476D01*
X-3214353Y+1484708D02*
X-3206530Y+1492531D01*
X-3206530Y+1523823D01*
X-3214353Y+1531646D01*
X-3222176Y+1531646D01*
X-3230000Y+1523823D01*
X-3230000Y+1492531D01*
X-3237823Y+1484708D01*
X-3245646Y+1484708D01*
X-3253469Y+1492531D01*
X-3253469Y+1523823D01*
X-3245646Y+1531646D01*
X-3206530Y+1594231D02*
X-3206530Y+1547293D01*
X-3253469Y+1547293D01*
X-3253469Y+1594231D01*
X-3230000Y+1547293D02*
X-3230000Y+1578585D01*
X-3206530Y+1609878D02*
X-3253469Y+1609878D01*
X-3206530Y+1656816D01*
X-3253469Y+1656816D01*
X-3214353Y+1672463D02*
X-3206530Y+1680286D01*
X-3206530Y+1711578D01*
X-3214353Y+1719401D01*
X-3222176Y+1719401D01*
X-3230000Y+1711578D01*
X-3230000Y+1680286D01*
X-3237823Y+1672463D01*
X-3245646Y+1672463D01*
X-3253469Y+1680286D01*
X-3253469Y+1711578D01*
X-3245646Y+1719401D01*
X-3206530Y+1781986D02*
X-3206530Y+1735048D01*
X-3253469Y+1735048D01*
X-3253469Y+1781986D01*
X-3230000Y+1735048D02*
X-3230000Y+1766340D01*
D70*
X+3502840Y-527160D02*
X+3777160Y-527160D01*
X+3777160Y+1160D01*
X+3502840Y+1160D01*
X+3502840Y-527160D01*
D24*
X+3640000Y-136000D02*
X+3640000Y-136000D01*
D27*
X+3656460Y-394673D02*
X+3672919Y-394673D01*
X+3689378Y-378214D01*
X+3689378Y-312378D01*
X+3672919Y-295919D01*
X+3590623Y-295919D01*
X+3607082Y-164246D02*
X+3590623Y-180705D01*
X+3590623Y-230082D01*
X+3607082Y-246541D01*
X+3672919Y-246541D01*
X+3689378Y-230082D01*
X+3689378Y-180705D01*
X+3672919Y-164246D01*
X+3656460Y-164246D01*
X+3640000Y-180705D01*
X+3640000Y-246541D01*
D70*
X+3582840Y-1861160D02*
X+3857160Y-1861160D01*
X+3857160Y-1332840D01*
X+3582840Y-1332840D01*
X+3582840Y-1861160D01*
D24*
X+3720000Y-1470000D02*
X+3720000Y-1470000D01*
D27*
X+3736460Y-1728673D02*
X+3752919Y-1728673D01*
X+3769378Y-1712214D01*
X+3769378Y-1646378D01*
X+3752919Y-1629919D01*
X+3670623Y-1629919D01*
X+3670623Y-1580541D02*
X+3670623Y-1498246D01*
X+3687082Y-1498246D01*
X+3769378Y-1580541D01*
D70*
X+1382840Y+1182840D02*
X+1657160Y+1182840D01*
X+1657160Y+1711160D01*
X+1382840Y+1711160D01*
X+1382840Y+1182840D01*
D24*
X+1520000Y+1574000D02*
X+1520000Y+1574000D01*
D33*
X+1546416Y+1270895D02*
X+1493584Y+1270895D01*
X+1493584Y+1314921D01*
X+1502389Y+1323726D01*
X+1511195Y+1323726D01*
X+1520000Y+1314921D01*
X+1520000Y+1270895D01*
X+1511195Y+1341337D02*
X+1493584Y+1358947D01*
X+1493584Y+1376558D01*
X+1511195Y+1394168D01*
X+1528805Y+1394168D01*
X+1546416Y+1376558D01*
X+1546416Y+1358947D01*
X+1528805Y+1341337D01*
X+1511195Y+1341337D01*
X+1493584Y+1411779D02*
X+1546416Y+1411779D01*
X+1520000Y+1438194D01*
X+1546416Y+1464610D01*
X+1493584Y+1464610D01*
X+1546416Y+1535052D02*
X+1546416Y+1482221D01*
X+1493584Y+1482221D01*
X+1493584Y+1535052D01*
X+1520000Y+1482221D02*
X+1520000Y+1517442D01*
X+1546416Y+1552663D02*
X+1493584Y+1552663D01*
X+1493584Y+1596689D01*
X+1502389Y+1605494D01*
X+1511195Y+1605494D01*
X+1520000Y+1596689D01*
X+1520000Y+1552663D01*
X+1520000Y+1596689D02*
X+1528805Y+1605494D01*
X+1546416Y+1605494D01*
D19*
X-3990000Y-2500000D02*
X+3990000Y-2500000D01*
X+3990000Y+2480000D01*
X-3990000Y+2480000D01*
X-3990000Y-2500000D01*
D70*
X-988900Y+555100D02*
X-811100Y+555100D01*
X-811100Y+1748900D01*
X-988900Y+1748900D01*
X-988900Y+555100D01*
D26*
X-900000Y+644000D02*
X-900000Y+644000D01*
D30*
X-867996Y+1066656D02*
X-932004Y+1066656D01*
X-932004Y+1119996D01*
X-921336Y+1130664D01*
X-910668Y+1130664D01*
X-900000Y+1119996D01*
X-900000Y+1066656D01*
X-900000Y+1119996D02*
X-889332Y+1130664D01*
X-867996Y+1130664D01*
X-910668Y+1173336D02*
X-932004Y+1194672D01*
X-867996Y+1194672D01*
M02*
