G04 PROTEUS GERBER X2 FILE*
%TF.GenerationSoftware,Labcenter,Proteus,8.9-SP2-Build28501*%
%TF.CreationDate,2020-09-21T12:23:44+00:00*%
%TF.FileFunction,Legend,Top*%
%TF.FilePolarity,Positive*%
%TF.Part,Single*%
%TF.SameCoordinates,{09cedfca-c85c-474b-bf34-a9c95e6352d1}*%
%FSLAX45Y45*%
%MOMM*%
G01*
%TA.AperFunction,Material*%
%ADD70C,0.203200*%
%TA.AperFunction,Profile*%
%ADD19C,0.203200*%
%TD.AperFunction*%
D70*
X-860732Y-100268D02*
X-860732Y-862268D01*
X-987732Y-989268D01*
X-1241732Y-989268D01*
X-1368732Y-862268D01*
X-1368732Y-100268D01*
X-1241732Y+26732D01*
X-987732Y+26732D01*
X-860732Y-100268D01*
X-820092Y-608268D02*
X-728652Y-513018D01*
X-728652Y-608268D02*
X-820092Y-513018D01*
X-789612Y-449518D02*
X-820092Y-417768D01*
X-728652Y-417768D01*
X-1700000Y-341000D02*
X-1725876Y-335920D01*
X-1749848Y-321315D01*
X-1771438Y-298138D01*
X-1790170Y-267340D01*
X-1805569Y-229875D01*
X-1817158Y-186695D01*
X-1824460Y-138752D01*
X-1827000Y-87000D01*
X-1700000Y+167000D02*
X-1725876Y+161920D01*
X-1749848Y+147315D01*
X-1771438Y+124138D01*
X-1790170Y+93340D01*
X-1805569Y+55875D01*
X-1817158Y+12695D01*
X-1824460Y-35248D01*
X-1827000Y-87000D01*
X-1700000Y-341000D02*
X-1674124Y-335920D01*
X-1650152Y-321315D01*
X-1628562Y-298138D01*
X-1609830Y-267340D01*
X-1594431Y-229875D01*
X-1582842Y-186695D01*
X-1575540Y-138752D01*
X-1573000Y-87000D01*
X-1700000Y+167000D02*
X-1674124Y+161920D01*
X-1650152Y+147315D01*
X-1628562Y+124138D01*
X-1609830Y+93340D01*
X-1594431Y+55875D01*
X-1582842Y+12695D01*
X-1575540Y-35248D01*
X-1573000Y-87000D01*
X-1882880Y-118750D02*
X-1867640Y-134625D01*
X-1867640Y-182250D01*
X-1898120Y-214000D01*
X-1928600Y-214000D01*
X-1959080Y-182250D01*
X-1959080Y-134625D01*
X-1943840Y-118750D01*
X-1928600Y-55250D02*
X-1959080Y-23500D01*
X-1867640Y-23500D01*
X-1690000Y-629000D02*
X-1664124Y-634080D01*
X-1640152Y-648685D01*
X-1618562Y-671862D01*
X-1599830Y-702660D01*
X-1584431Y-740125D01*
X-1572842Y-783305D01*
X-1565540Y-831248D01*
X-1563000Y-883000D01*
X-1690000Y-1137000D02*
X-1664124Y-1131920D01*
X-1640152Y-1117315D01*
X-1618562Y-1094138D01*
X-1599830Y-1063340D01*
X-1584431Y-1025875D01*
X-1572842Y-982695D01*
X-1565540Y-934752D01*
X-1563000Y-883000D01*
X-1690000Y-629000D02*
X-1715876Y-634080D01*
X-1739848Y-648685D01*
X-1761438Y-671862D01*
X-1780170Y-702660D01*
X-1795569Y-740125D01*
X-1807158Y-783305D01*
X-1814460Y-831248D01*
X-1817000Y-883000D01*
X-1690000Y-1137000D02*
X-1715876Y-1131920D01*
X-1739848Y-1117315D01*
X-1761438Y-1094138D01*
X-1780170Y-1063340D01*
X-1795569Y-1025875D01*
X-1807158Y-982695D01*
X-1814460Y-934752D01*
X-1817000Y-883000D01*
X-1876160Y-894750D02*
X-1860920Y-910625D01*
X-1860920Y-958250D01*
X-1891400Y-990000D01*
X-1921880Y-990000D01*
X-1952360Y-958250D01*
X-1952360Y-910625D01*
X-1937120Y-894750D01*
X-1937120Y-847125D02*
X-1952360Y-831250D01*
X-1952360Y-783625D01*
X-1937120Y-767750D01*
X-1921880Y-767750D01*
X-1906640Y-783625D01*
X-1906640Y-831250D01*
X-1891400Y-847125D01*
X-1860920Y-847125D01*
X-1860920Y-767750D01*
X-3357000Y-2067000D02*
X-3103000Y-2067000D01*
X-3103000Y-1305000D01*
X-3357000Y-1305000D01*
X-3357000Y-2067000D01*
X-3442880Y-2311000D02*
X-3427640Y-2295125D01*
X-3427640Y-2231625D01*
X-3442880Y-2215750D01*
X-3458120Y-2215750D01*
X-3473360Y-2231625D01*
X-3473360Y-2295125D01*
X-3488600Y-2311000D01*
X-3503840Y-2311000D01*
X-3519080Y-2295125D01*
X-3519080Y-2231625D01*
X-3503840Y-2215750D01*
X-3488600Y-2184000D02*
X-3519080Y-2152250D01*
X-3519080Y-2120500D01*
X-3488600Y-2088750D01*
X-3458120Y-2088750D01*
X-3427640Y-2120500D01*
X-3427640Y-2152250D01*
X-3458120Y-2184000D01*
X-3488600Y-2184000D01*
X-3427640Y-2057000D02*
X-3488600Y-2057000D01*
X-3519080Y-2025250D01*
X-3519080Y-1993500D01*
X-3488600Y-1961750D01*
X-3427640Y-1961750D01*
X-3458120Y-2057000D02*
X-3458120Y-1961750D01*
X-3427640Y-1930000D02*
X-3519080Y-1930000D01*
X-3519080Y-1850625D01*
X-3503840Y-1834750D01*
X-3488600Y-1834750D01*
X-3473360Y-1850625D01*
X-3473360Y-1930000D01*
X-3442880Y-1676000D02*
X-3427640Y-1660125D01*
X-3427640Y-1596625D01*
X-3442880Y-1580750D01*
X-3458120Y-1580750D01*
X-3473360Y-1596625D01*
X-3473360Y-1660125D01*
X-3488600Y-1676000D01*
X-3503840Y-1676000D01*
X-3519080Y-1660125D01*
X-3519080Y-1596625D01*
X-3503840Y-1580750D01*
X-3427640Y-1453750D02*
X-3427640Y-1549000D01*
X-3519080Y-1549000D01*
X-3519080Y-1453750D01*
X-3473360Y-1549000D02*
X-3473360Y-1485500D01*
X-3427640Y-1422000D02*
X-3519080Y-1422000D01*
X-3427640Y-1326750D01*
X-3519080Y-1326750D01*
X-3442880Y-1295000D02*
X-3427640Y-1279125D01*
X-3427640Y-1215625D01*
X-3442880Y-1199750D01*
X-3458120Y-1199750D01*
X-3473360Y-1215625D01*
X-3473360Y-1279125D01*
X-3488600Y-1295000D01*
X-3503840Y-1295000D01*
X-3519080Y-1279125D01*
X-3519080Y-1215625D01*
X-3503840Y-1199750D01*
X-3427640Y-1072750D02*
X-3427640Y-1168000D01*
X-3519080Y-1168000D01*
X-3519080Y-1072750D01*
X-3473360Y-1168000D02*
X-3473360Y-1104500D01*
X-315000Y+1719500D02*
X-315000Y-1709500D01*
X+193000Y-1709500D01*
X+193000Y+1719500D01*
X-315000Y+1719500D02*
X-188000Y+1719500D01*
X+193000Y+1719500D02*
X+66000Y+1719500D01*
X-188000Y+1719500D02*
X-185473Y+1693532D01*
X-178202Y+1669518D01*
X-166652Y+1647923D01*
X-151289Y+1629211D01*
X-132577Y+1613847D01*
X-110981Y+1602298D01*
X-86967Y+1595027D01*
X-61000Y+1592500D01*
X+66000Y+1719500D02*
X+63473Y+1693532D01*
X+56202Y+1669518D01*
X+44652Y+1647923D01*
X+29289Y+1629211D01*
X+10577Y+1613847D01*
X-11018Y+1602298D01*
X-35032Y+1595027D01*
X-61000Y+1592500D01*
X-267176Y+1668700D02*
X-267201Y+1669297D01*
X-267403Y+1670493D01*
X-267827Y+1671689D01*
X-268521Y+1672885D01*
X-269581Y+1674064D01*
X-270777Y+1674927D01*
X-271973Y+1675476D01*
X-273169Y+1675785D01*
X-274360Y+1675884D01*
X-281544Y+1668700D02*
X-281519Y+1669297D01*
X-281317Y+1670493D01*
X-280893Y+1671689D01*
X-280199Y+1672885D01*
X-279139Y+1674064D01*
X-277943Y+1674927D01*
X-276747Y+1675476D01*
X-275551Y+1675785D01*
X-274360Y+1675884D01*
X-281544Y+1668700D02*
X-281519Y+1668103D01*
X-281317Y+1666907D01*
X-280893Y+1665711D01*
X-280199Y+1664515D01*
X-279139Y+1663336D01*
X-277943Y+1662473D01*
X-276747Y+1661924D01*
X-275551Y+1661615D01*
X-274360Y+1661516D01*
X-267176Y+1668700D02*
X-267201Y+1668103D01*
X-267403Y+1666907D01*
X-267827Y+1665711D01*
X-268521Y+1664515D01*
X-269581Y+1663336D01*
X-270777Y+1662473D01*
X-271973Y+1661924D01*
X-273169Y+1661615D01*
X-274360Y+1661516D01*
X-188000Y+1851580D02*
X-188000Y+1775380D01*
X-172125Y+1760140D01*
X-108625Y+1760140D01*
X-92750Y+1775380D01*
X-92750Y+1851580D01*
X-29250Y+1821100D02*
X+2500Y+1851580D01*
X+2500Y+1760140D01*
X+2663000Y+753000D02*
X+2917000Y+753000D01*
X+2917000Y+1515000D01*
X+2663000Y+1515000D01*
X+2663000Y+753000D01*
X+2536000Y+753000D01*
X+2536000Y+1515000D01*
X+2663000Y+1515000D01*
X+2663000Y+753000D02*
X+2536000Y+880000D01*
X+2663000Y+880000D02*
X+2536000Y+1007000D01*
X+2663000Y+1007000D02*
X+2536000Y+1134000D01*
X+2663000Y+1134000D02*
X+2536000Y+1261000D01*
X+2663000Y+1261000D02*
X+2536000Y+1388000D01*
X+2663000Y+1388000D02*
X+2536000Y+1515000D01*
X+2434400Y+1007000D02*
X+2403920Y+1038750D01*
X+2403920Y+1070500D01*
X+2434400Y+1102250D01*
X+2464880Y+1102250D01*
X+2495360Y+1070500D01*
X+2495360Y+1038750D01*
X+2464880Y+1007000D01*
X+2434400Y+1007000D01*
X+2464880Y+1070500D02*
X+2495360Y+1102250D01*
X+2434400Y+1165750D02*
X+2403920Y+1197500D01*
X+2495360Y+1197500D01*
X+2733000Y-797000D02*
X+2987000Y-797000D01*
X+2987000Y-35000D01*
X+2733000Y-35000D01*
X+2733000Y-797000D01*
X+2606000Y-797000D01*
X+2606000Y-35000D01*
X+2733000Y-35000D01*
X+2733000Y-797000D02*
X+2606000Y-670000D01*
X+2733000Y-670000D02*
X+2606000Y-543000D01*
X+2733000Y-543000D02*
X+2606000Y-416000D01*
X+2733000Y-416000D02*
X+2606000Y-289000D01*
X+2733000Y-289000D02*
X+2606000Y-162000D01*
X+2733000Y-162000D02*
X+2606000Y-35000D01*
X+2504400Y-543000D02*
X+2473920Y-511250D01*
X+2473920Y-479500D01*
X+2504400Y-447750D01*
X+2534880Y-447750D01*
X+2565360Y-479500D01*
X+2565360Y-511250D01*
X+2534880Y-543000D01*
X+2504400Y-543000D01*
X+2534880Y-479500D02*
X+2565360Y-447750D01*
X+2489160Y-400125D02*
X+2473920Y-384250D01*
X+2473920Y-336625D01*
X+2489160Y-320750D01*
X+2504400Y-320750D01*
X+2519640Y-336625D01*
X+2534880Y-320750D01*
X+2550120Y-320750D01*
X+2565360Y-336625D01*
X+2565360Y-384250D01*
X+2550120Y-400125D01*
X+2519640Y-368375D02*
X+2519640Y-336625D01*
X+2773000Y-2145000D02*
X+3027000Y-2145000D01*
X+3027000Y-1383000D01*
X+2773000Y-1383000D01*
X+2773000Y-2145000D01*
X+2646000Y-2145000D01*
X+2646000Y-1383000D01*
X+2773000Y-1383000D01*
X+2773000Y-2145000D02*
X+2646000Y-2018000D01*
X+2773000Y-2018000D02*
X+2646000Y-1891000D01*
X+2773000Y-1891000D02*
X+2646000Y-1764000D01*
X+2773000Y-1764000D02*
X+2646000Y-1637000D01*
X+2773000Y-1637000D02*
X+2646000Y-1510000D01*
X+2773000Y-1510000D02*
X+2646000Y-1383000D01*
X+2544400Y-1891000D02*
X+2513920Y-1859250D01*
X+2513920Y-1827500D01*
X+2544400Y-1795750D01*
X+2574880Y-1795750D01*
X+2605360Y-1827500D01*
X+2605360Y-1859250D01*
X+2574880Y-1891000D01*
X+2544400Y-1891000D01*
X+2574880Y-1827500D02*
X+2605360Y-1795750D01*
X+2574880Y-1668750D02*
X+2574880Y-1764000D01*
X+2513920Y-1700500D01*
X+2605360Y-1700500D01*
X+3443000Y+1009000D02*
X+3697000Y+1009000D01*
X+3697000Y+1517000D01*
X+3443000Y+1517000D01*
X+3443000Y+1009000D01*
X+3798600Y+1136000D02*
X+3813840Y+1136000D01*
X+3829080Y+1151875D01*
X+3829080Y+1215375D01*
X+3813840Y+1231250D01*
X+3737640Y+1231250D01*
X+3737640Y+1358250D02*
X+3737640Y+1278875D01*
X+3768120Y+1278875D01*
X+3768120Y+1342375D01*
X+3783360Y+1358250D01*
X+3813840Y+1358250D01*
X+3829080Y+1342375D01*
X+3829080Y+1294750D01*
X+3813840Y+1278875D01*
X+1175000Y+868000D02*
X+1302000Y+868000D01*
X+1302000Y+804500D02*
X+1810000Y+804500D01*
X+1810000Y+931500D01*
X+1302000Y+931500D01*
X+1302000Y+804500D01*
X+1810000Y+868000D02*
X+1937000Y+868000D01*
X+1429000Y+972140D02*
X+1429000Y+1063580D01*
X+1508375Y+1063580D01*
X+1524250Y+1048340D01*
X+1524250Y+1033100D01*
X+1508375Y+1017860D01*
X+1429000Y+1017860D01*
X+1508375Y+1017860D02*
X+1524250Y+1002620D01*
X+1524250Y+972140D01*
X+1571875Y+1048340D02*
X+1587750Y+1063580D01*
X+1635375Y+1063580D01*
X+1651250Y+1048340D01*
X+1651250Y+1033100D01*
X+1635375Y+1017860D01*
X+1587750Y+1017860D01*
X+1571875Y+1002620D01*
X+1571875Y+972140D01*
X+1651250Y+972140D01*
X+1275000Y-662000D02*
X+1402000Y-662000D01*
X+1402000Y-725500D02*
X+1910000Y-725500D01*
X+1910000Y-598500D01*
X+1402000Y-598500D01*
X+1402000Y-725500D01*
X+1910000Y-662000D02*
X+2037000Y-662000D01*
X+1529000Y-537860D02*
X+1529000Y-446420D01*
X+1608375Y-446420D01*
X+1624250Y-461660D01*
X+1624250Y-476900D01*
X+1608375Y-492140D01*
X+1529000Y-492140D01*
X+1608375Y-492140D02*
X+1624250Y-507380D01*
X+1624250Y-537860D01*
X+1671875Y-461660D02*
X+1687750Y-446420D01*
X+1735375Y-446420D01*
X+1751250Y-461660D01*
X+1751250Y-476900D01*
X+1735375Y-492140D01*
X+1751250Y-507380D01*
X+1751250Y-522620D01*
X+1735375Y-537860D01*
X+1687750Y-537860D01*
X+1671875Y-522620D01*
X+1703625Y-492140D02*
X+1735375Y-492140D01*
X+1365000Y-2012000D02*
X+1492000Y-2012000D01*
X+1492000Y-2075500D02*
X+2000000Y-2075500D01*
X+2000000Y-1948500D01*
X+1492000Y-1948500D01*
X+1492000Y-2075500D01*
X+2000000Y-2012000D02*
X+2127000Y-2012000D01*
X+1619000Y-1907860D02*
X+1619000Y-1816420D01*
X+1698375Y-1816420D01*
X+1714250Y-1831660D01*
X+1714250Y-1846900D01*
X+1698375Y-1862140D01*
X+1619000Y-1862140D01*
X+1698375Y-1862140D02*
X+1714250Y-1877380D01*
X+1714250Y-1907860D01*
X+1841250Y-1877380D02*
X+1746000Y-1877380D01*
X+1809500Y-1816420D01*
X+1809500Y-1907860D01*
X-3357000Y-985000D02*
X-3103000Y-985000D01*
X-3103000Y-223000D01*
X-3357000Y-223000D01*
X-3357000Y-985000D01*
X-3430920Y-794500D02*
X-3522360Y-794500D01*
X-3522360Y-715125D01*
X-3507120Y-699250D01*
X-3491880Y-699250D01*
X-3476640Y-715125D01*
X-3476640Y-794500D01*
X-3522360Y-651625D02*
X-3522360Y-588125D01*
X-3522360Y-619875D02*
X-3430920Y-619875D01*
X-3430920Y-651625D02*
X-3430920Y-588125D01*
X-3430920Y-540500D02*
X-3522360Y-540500D01*
X-3522360Y-461125D01*
X-3507120Y-445250D01*
X-3491880Y-445250D01*
X-3476640Y-461125D01*
X-3476640Y-540500D01*
X-3476640Y-461125D02*
X-3461400Y-445250D01*
X-3430920Y-445250D01*
X-3367000Y+95000D02*
X-3113000Y+95000D01*
X-3113000Y+857000D01*
X-3367000Y+857000D01*
X-3367000Y+95000D01*
X-3532360Y-262500D02*
X-3440920Y-262500D01*
X-3486640Y-214875D01*
X-3440920Y-167250D01*
X-3532360Y-167250D01*
X-3440920Y-135500D02*
X-3501880Y-135500D01*
X-3532360Y-103750D01*
X-3532360Y-72000D01*
X-3501880Y-40250D01*
X-3440920Y-40250D01*
X-3471400Y-135500D02*
X-3471400Y-40250D01*
X-3532360Y-8500D02*
X-3532360Y+86750D01*
X-3532360Y+39125D02*
X-3440920Y+39125D01*
X-3440920Y+213750D02*
X-3440920Y+118500D01*
X-3532360Y+118500D01*
X-3532360Y+213750D01*
X-3486640Y+118500D02*
X-3486640Y+182000D01*
X-3440920Y+245500D02*
X-3532360Y+245500D01*
X-3532360Y+324875D01*
X-3517120Y+340750D01*
X-3501880Y+340750D01*
X-3486640Y+324875D01*
X-3486640Y+245500D01*
X-3486640Y+324875D02*
X-3471400Y+340750D01*
X-3440920Y+340750D01*
X-3456160Y+499500D02*
X-3440920Y+515375D01*
X-3440920Y+578875D01*
X-3456160Y+594750D01*
X-3471400Y+594750D01*
X-3486640Y+578875D01*
X-3486640Y+515375D01*
X-3501880Y+499500D01*
X-3517120Y+499500D01*
X-3532360Y+515375D01*
X-3532360Y+578875D01*
X-3517120Y+594750D01*
X-3440920Y+721750D02*
X-3440920Y+626500D01*
X-3532360Y+626500D01*
X-3532360Y+721750D01*
X-3486640Y+626500D02*
X-3486640Y+690000D01*
X-3440920Y+753500D02*
X-3532360Y+753500D01*
X-3440920Y+848750D01*
X-3532360Y+848750D01*
X-3456160Y+880500D02*
X-3440920Y+896375D01*
X-3440920Y+959875D01*
X-3456160Y+975750D01*
X-3471400Y+975750D01*
X-3486640Y+959875D01*
X-3486640Y+896375D01*
X-3501880Y+880500D01*
X-3517120Y+880500D01*
X-3532360Y+896375D01*
X-3532360Y+959875D01*
X-3517120Y+975750D01*
X-3440920Y+1102750D02*
X-3440920Y+1007500D01*
X-3532360Y+1007500D01*
X-3532360Y+1102750D01*
X-3486640Y+1007500D02*
X-3486640Y+1071000D01*
X-3357000Y+1135000D02*
X-3103000Y+1135000D01*
X-3103000Y+1897000D01*
X-3357000Y+1897000D01*
X-3357000Y+1135000D01*
X-3456160Y+1164500D02*
X-3440920Y+1180375D01*
X-3440920Y+1243875D01*
X-3456160Y+1259750D01*
X-3471400Y+1259750D01*
X-3486640Y+1243875D01*
X-3486640Y+1180375D01*
X-3501880Y+1164500D01*
X-3517120Y+1164500D01*
X-3532360Y+1180375D01*
X-3532360Y+1243875D01*
X-3517120Y+1259750D01*
X-3440920Y+1291500D02*
X-3501880Y+1291500D01*
X-3532360Y+1323250D01*
X-3532360Y+1355000D01*
X-3501880Y+1386750D01*
X-3440920Y+1386750D01*
X-3471400Y+1291500D02*
X-3471400Y+1386750D01*
X-3440920Y+1418500D02*
X-3532360Y+1418500D01*
X-3440920Y+1513750D01*
X-3532360Y+1513750D01*
X-3456160Y+1672500D02*
X-3440920Y+1688375D01*
X-3440920Y+1751875D01*
X-3456160Y+1767750D01*
X-3471400Y+1767750D01*
X-3486640Y+1751875D01*
X-3486640Y+1688375D01*
X-3501880Y+1672500D01*
X-3517120Y+1672500D01*
X-3532360Y+1688375D01*
X-3532360Y+1751875D01*
X-3517120Y+1767750D01*
X-3440920Y+1894750D02*
X-3440920Y+1799500D01*
X-3532360Y+1799500D01*
X-3532360Y+1894750D01*
X-3486640Y+1799500D02*
X-3486640Y+1863000D01*
X-3440920Y+1926500D02*
X-3532360Y+1926500D01*
X-3440920Y+2021750D01*
X-3532360Y+2021750D01*
X-3456160Y+2053500D02*
X-3440920Y+2069375D01*
X-3440920Y+2132875D01*
X-3456160Y+2148750D01*
X-3471400Y+2148750D01*
X-3486640Y+2132875D01*
X-3486640Y+2069375D01*
X-3501880Y+2053500D01*
X-3517120Y+2053500D01*
X-3532360Y+2069375D01*
X-3532360Y+2132875D01*
X-3517120Y+2148750D01*
X-3440920Y+2275750D02*
X-3440920Y+2180500D01*
X-3532360Y+2180500D01*
X-3532360Y+2275750D01*
X-3486640Y+2180500D02*
X-3486640Y+2244000D01*
X+3513000Y-517000D02*
X+3767000Y-517000D01*
X+3767000Y-9000D01*
X+3513000Y-9000D01*
X+3513000Y-517000D01*
X+3868600Y-390000D02*
X+3883840Y-390000D01*
X+3899080Y-374125D01*
X+3899080Y-310625D01*
X+3883840Y-294750D01*
X+3807640Y-294750D01*
X+3822880Y-167750D02*
X+3807640Y-183625D01*
X+3807640Y-231250D01*
X+3822880Y-247125D01*
X+3883840Y-247125D01*
X+3899080Y-231250D01*
X+3899080Y-183625D01*
X+3883840Y-167750D01*
X+3868600Y-167750D01*
X+3853360Y-183625D01*
X+3853360Y-247125D01*
X+3593000Y-1851000D02*
X+3847000Y-1851000D01*
X+3847000Y-1343000D01*
X+3593000Y-1343000D01*
X+3593000Y-1851000D01*
X+3948600Y-1724000D02*
X+3963840Y-1724000D01*
X+3979080Y-1708125D01*
X+3979080Y-1644625D01*
X+3963840Y-1628750D01*
X+3887640Y-1628750D01*
X+3887640Y-1581125D02*
X+3887640Y-1501750D01*
X+3902880Y-1501750D01*
X+3979080Y-1581125D01*
X+1393000Y+1193000D02*
X+1647000Y+1193000D01*
X+1647000Y+1701000D01*
X+1393000Y+1701000D01*
X+1393000Y+1193000D01*
X+1779080Y+1129500D02*
X+1687640Y+1129500D01*
X+1687640Y+1208875D01*
X+1702880Y+1224750D01*
X+1718120Y+1224750D01*
X+1733360Y+1208875D01*
X+1733360Y+1129500D01*
X+1718120Y+1256500D02*
X+1687640Y+1288250D01*
X+1687640Y+1320000D01*
X+1718120Y+1351750D01*
X+1748600Y+1351750D01*
X+1779080Y+1320000D01*
X+1779080Y+1288250D01*
X+1748600Y+1256500D01*
X+1718120Y+1256500D01*
X+1687640Y+1383500D02*
X+1779080Y+1383500D01*
X+1733360Y+1431125D01*
X+1779080Y+1478750D01*
X+1687640Y+1478750D01*
X+1779080Y+1605750D02*
X+1779080Y+1510500D01*
X+1687640Y+1510500D01*
X+1687640Y+1605750D01*
X+1733360Y+1510500D02*
X+1733360Y+1574000D01*
X+1779080Y+1637500D02*
X+1687640Y+1637500D01*
X+1687640Y+1716875D01*
X+1702880Y+1732750D01*
X+1718120Y+1732750D01*
X+1733360Y+1716875D01*
X+1733360Y+1637500D01*
X+1733360Y+1716875D02*
X+1748600Y+1732750D01*
X+1779080Y+1732750D01*
D19*
X-3990000Y-2500000D02*
X+3990000Y-2500000D01*
X+3990000Y+2480000D01*
X-3990000Y+2480000D01*
X-3990000Y-2500000D01*
D70*
X-900000Y+771000D02*
X-900000Y+898000D01*
X-963500Y+898000D02*
X-836500Y+898000D01*
X-836500Y+1406000D01*
X-963500Y+1406000D01*
X-963500Y+898000D01*
X-900000Y+1406000D02*
X-900000Y+1533000D01*
X-1004140Y+1025000D02*
X-1095580Y+1025000D01*
X-1095580Y+1104375D01*
X-1080340Y+1120250D01*
X-1065100Y+1120250D01*
X-1049860Y+1104375D01*
X-1049860Y+1025000D01*
X-1049860Y+1104375D02*
X-1034620Y+1120250D01*
X-1004140Y+1120250D01*
X-1065100Y+1183750D02*
X-1095580Y+1215500D01*
X-1004140Y+1215500D01*
X-2620000Y+2016800D02*
X-2620000Y+2169200D01*
X-2518400Y+2169200D01*
X-2467600Y+2118400D01*
X-2467600Y+2067600D01*
X-2518400Y+2016800D01*
X-2620000Y+2016800D01*
X-2391400Y+2169200D02*
X-2289800Y+2169200D01*
X-2340600Y+2169200D02*
X-2340600Y+2016800D01*
X-2391400Y+2016800D02*
X-2289800Y+2016800D01*
X-2213600Y+2042200D02*
X-2188200Y+2016800D01*
X-2086600Y+2016800D01*
X-2061200Y+2042200D01*
X-2061200Y+2067600D01*
X-2086600Y+2093000D01*
X-2188200Y+2093000D01*
X-2213600Y+2118400D01*
X-2213600Y+2143800D01*
X-2188200Y+2169200D01*
X-2086600Y+2169200D01*
X-2061200Y+2143800D01*
X-1985000Y+2169200D02*
X-1883400Y+2169200D01*
X-1934200Y+2169200D02*
X-1934200Y+2016800D01*
X-1985000Y+2016800D02*
X-1883400Y+2016800D01*
X-1807200Y+2016800D02*
X-1807200Y+2169200D01*
X-1654800Y+2016800D01*
X-1654800Y+2169200D01*
X-1604000Y+2016800D02*
X-1604000Y+2169200D01*
X-1451600Y+2169200D01*
X-1604000Y+2093000D02*
X-1502400Y+2093000D01*
X-1248400Y+2016800D02*
X-1400800Y+2016800D01*
X-1400800Y+2169200D01*
X-1248400Y+2169200D01*
X-1400800Y+2093000D02*
X-1299200Y+2093000D01*
X-1045200Y+2042200D02*
X-1070600Y+2016800D01*
X-1146800Y+2016800D01*
X-1197600Y+2067600D01*
X-1197600Y+2118400D01*
X-1146800Y+2169200D01*
X-1070600Y+2169200D01*
X-1045200Y+2143800D01*
X-994400Y+2169200D02*
X-842000Y+2169200D01*
X-918200Y+2169200D02*
X-918200Y+2016800D01*
X-791200Y+2016800D02*
X-791200Y+2118400D01*
X-740400Y+2169200D01*
X-689600Y+2169200D01*
X-638800Y+2118400D01*
X-638800Y+2016800D01*
X-791200Y+2067600D02*
X-638800Y+2067600D01*
X-588000Y+2016800D02*
X-588000Y+2169200D01*
X-435600Y+2016800D01*
X-435600Y+2169200D01*
X-384800Y+2169200D02*
X-232400Y+2169200D01*
X-308600Y+2169200D02*
X-308600Y+2016800D01*
X+21600Y+2016800D02*
X+21600Y+2169200D01*
X+123200Y+2169200D01*
X+174000Y+2118400D01*
X+174000Y+2067600D01*
X+123200Y+2016800D01*
X+21600Y+2016800D01*
X+250200Y+2169200D02*
X+351800Y+2169200D01*
X+301000Y+2169200D02*
X+301000Y+2016800D01*
X+250200Y+2016800D02*
X+351800Y+2016800D01*
X+428000Y+2042200D02*
X+453400Y+2016800D01*
X+555000Y+2016800D01*
X+580400Y+2042200D01*
X+580400Y+2067600D01*
X+555000Y+2093000D01*
X+453400Y+2093000D01*
X+428000Y+2118400D01*
X+428000Y+2143800D01*
X+453400Y+2169200D01*
X+555000Y+2169200D01*
X+580400Y+2143800D01*
X+631200Y+2016800D02*
X+631200Y+2169200D01*
X+758200Y+2169200D01*
X+783600Y+2143800D01*
X+783600Y+2118400D01*
X+758200Y+2093000D01*
X+631200Y+2093000D01*
X+986800Y+2016800D02*
X+834400Y+2016800D01*
X+834400Y+2169200D01*
X+986800Y+2169200D01*
X+834400Y+2093000D02*
X+936000Y+2093000D01*
X+1037600Y+2016800D02*
X+1037600Y+2169200D01*
X+1190000Y+2016800D01*
X+1190000Y+2169200D01*
X+1240800Y+2042200D02*
X+1266200Y+2016800D01*
X+1367800Y+2016800D01*
X+1393200Y+2042200D01*
X+1393200Y+2067600D01*
X+1367800Y+2093000D01*
X+1266200Y+2093000D01*
X+1240800Y+2118400D01*
X+1240800Y+2143800D01*
X+1266200Y+2169200D01*
X+1367800Y+2169200D01*
X+1393200Y+2143800D01*
X+1596400Y+2016800D02*
X+1444000Y+2016800D01*
X+1444000Y+2169200D01*
X+1596400Y+2169200D01*
X+1444000Y+2093000D02*
X+1545600Y+2093000D01*
X+1647200Y+2016800D02*
X+1647200Y+2169200D01*
X+1774200Y+2169200D01*
X+1799600Y+2143800D01*
X+1799600Y+2118400D01*
X+1774200Y+2093000D01*
X+1647200Y+2093000D01*
X+1774200Y+2093000D02*
X+1799600Y+2067600D01*
X+1799600Y+2016800D01*
X+2053600Y+2169200D02*
X+2053600Y+2042200D01*
X+2079000Y+2016800D01*
X+2180600Y+2016800D01*
X+2206000Y+2042200D01*
X+2206000Y+2169200D01*
X+2256800Y+2016800D02*
X+2256800Y+2169200D01*
X+2409200Y+2016800D01*
X+2409200Y+2169200D01*
X+2485400Y+2169200D02*
X+2587000Y+2169200D01*
X+2536200Y+2169200D02*
X+2536200Y+2016800D01*
X+2485400Y+2016800D02*
X+2587000Y+2016800D01*
X+2663200Y+2169200D02*
X+2815600Y+2169200D01*
X+2739400Y+2169200D02*
X+2739400Y+2016800D01*
X-2317600Y-2220800D02*
X-2470000Y-2373200D01*
X-2470000Y-2220800D02*
X-2393800Y-2297000D01*
X-2266800Y-2373200D02*
X-2266800Y-2271600D01*
X-2216000Y-2220800D01*
X-2165200Y-2220800D01*
X-2114400Y-2271600D01*
X-2114400Y-2373200D01*
X-2266800Y-2322400D02*
X-2114400Y-2322400D01*
X-2063600Y-2373200D02*
X-2063600Y-2220800D01*
X-1936600Y-2220800D01*
X-1911200Y-2246200D01*
X-1911200Y-2271600D01*
X-1936600Y-2297000D01*
X-1911200Y-2322400D01*
X-1911200Y-2347800D01*
X-1936600Y-2373200D01*
X-2063600Y-2373200D01*
X-2063600Y-2297000D02*
X-1936600Y-2297000D01*
X-1860400Y-2373200D02*
X-1860400Y-2271600D01*
X-1809600Y-2220800D01*
X-1758800Y-2220800D01*
X-1708000Y-2271600D01*
X-1708000Y-2373200D01*
X-1860400Y-2322400D02*
X-1708000Y-2322400D01*
X-1301600Y-2347800D02*
X-1327000Y-2373200D01*
X-1403200Y-2373200D01*
X-1454000Y-2322400D01*
X-1454000Y-2271600D01*
X-1403200Y-2220800D01*
X-1327000Y-2220800D01*
X-1301600Y-2246200D01*
X-1250800Y-2271600D02*
X-1200000Y-2220800D01*
X-1149200Y-2220800D01*
X-1098400Y-2271600D01*
X-1098400Y-2322400D01*
X-1149200Y-2373200D01*
X-1200000Y-2373200D01*
X-1250800Y-2322400D01*
X-1250800Y-2271600D01*
X-1047600Y-2220800D02*
X-1047600Y-2373200D01*
X-895200Y-2373200D01*
X-844400Y-2220800D02*
X-844400Y-2373200D01*
X-692000Y-2373200D01*
X-488800Y-2373200D02*
X-641200Y-2373200D01*
X-641200Y-2220800D01*
X-488800Y-2220800D01*
X-641200Y-2297000D02*
X-539600Y-2297000D01*
X-336400Y-2322400D02*
X-285600Y-2322400D01*
X-285600Y-2373200D01*
X-387200Y-2373200D01*
X-438000Y-2322400D01*
X-438000Y-2271600D01*
X-387200Y-2220800D01*
X-311000Y-2220800D01*
X-285600Y-2246200D01*
X-82400Y-2373200D02*
X-234800Y-2373200D01*
X-234800Y-2220800D01*
X-82400Y-2220800D01*
X-234800Y-2297000D02*
X-133200Y-2297000D01*
X+171600Y-2271600D02*
X+222400Y-2220800D01*
X+273200Y-2220800D01*
X+324000Y-2271600D01*
X+324000Y-2322400D01*
X+273200Y-2373200D01*
X+222400Y-2373200D01*
X+171600Y-2322400D01*
X+171600Y-2271600D01*
X+374800Y-2373200D02*
X+374800Y-2220800D01*
X+527200Y-2220800D01*
X+374800Y-2297000D02*
X+476400Y-2297000D01*
X+781200Y-2220800D02*
X+933600Y-2220800D01*
X+857400Y-2220800D02*
X+857400Y-2373200D01*
X+1136800Y-2373200D02*
X+984400Y-2373200D01*
X+984400Y-2220800D01*
X+1136800Y-2220800D01*
X+984400Y-2297000D02*
X+1086000Y-2297000D01*
X+1340000Y-2347800D02*
X+1314600Y-2373200D01*
X+1238400Y-2373200D01*
X+1187600Y-2322400D01*
X+1187600Y-2271600D01*
X+1238400Y-2220800D01*
X+1314600Y-2220800D01*
X+1340000Y-2246200D01*
X+1390800Y-2373200D02*
X+1390800Y-2220800D01*
X+1543200Y-2220800D02*
X+1543200Y-2373200D01*
X+1390800Y-2297000D02*
X+1543200Y-2297000D01*
X+1594000Y-2373200D02*
X+1594000Y-2220800D01*
X+1746400Y-2373200D01*
X+1746400Y-2220800D01*
X+1797200Y-2271600D02*
X+1848000Y-2220800D01*
X+1898800Y-2220800D01*
X+1949600Y-2271600D01*
X+1949600Y-2322400D01*
X+1898800Y-2373200D01*
X+1848000Y-2373200D01*
X+1797200Y-2322400D01*
X+1797200Y-2271600D01*
X+2000400Y-2220800D02*
X+2000400Y-2373200D01*
X+2152800Y-2373200D01*
X+2203600Y-2271600D02*
X+2254400Y-2220800D01*
X+2305200Y-2220800D01*
X+2356000Y-2271600D01*
X+2356000Y-2322400D01*
X+2305200Y-2373200D01*
X+2254400Y-2373200D01*
X+2203600Y-2322400D01*
X+2203600Y-2271600D01*
X+2508400Y-2322400D02*
X+2559200Y-2322400D01*
X+2559200Y-2373200D01*
X+2457600Y-2373200D01*
X+2406800Y-2322400D01*
X+2406800Y-2271600D01*
X+2457600Y-2220800D01*
X+2533800Y-2220800D01*
X+2559200Y-2246200D01*
X+2762400Y-2220800D02*
X+2610000Y-2373200D01*
X+2610000Y-2220800D02*
X+2686200Y-2297000D01*
M02*
