G04 PROTEUS GERBER X2 FILE*
%TF.GenerationSoftware,Labcenter,Proteus,8.9-SP2-Build28501*%
%TF.CreationDate,2020-09-19T11:29:23+00:00*%
%TF.FileFunction,Copper,L1,Bot*%
%TF.FilePolarity,Positive*%
%TF.Part,Single*%
%TF.SameCoordinates,{772acfa9-d1b3-496f-bd10-68e06d5fd469}*%
%FSLAX45Y45*%
%MOMM*%
G01*
%TA.AperFunction,Conductor*%
%ADD10C,1.778000*%
%ADD11C,1.016000*%
%ADD12C,2.032000*%
%ADD13C,1.524000*%
%ADD14C,2.540000*%
%ADD15C,0.762000*%
%ADD16C,1.270000*%
%ADD17C,0.254000*%
%ADD18C,0.508000*%
%ADD19C,0.381000*%
%ADD70C,2.286000*%
%TA.AperFunction,ViaPad*%
%ADD71C,0.762000*%
%AMDIL012*
4,1,8,
-0.762000,0.965200,-0.457200,1.270000,0.457200,1.270000,0.762000,0.965200,0.762000,-0.965200,
0.457200,-1.270000,-0.457200,-1.270000,-0.762000,-0.965200,-0.762000,0.965200,
0*%
%TA.AperFunction,ComponentPad*%
%ADD20DIL012*%
%TA.AperFunction,ComponentPad*%
%ADD21C,1.778000*%
%TA.AperFunction,WasherPad*%
%ADD22R,1.050000X1.050000*%
%TA.AperFunction,ComponentPad*%
%ADD23C,1.050000*%
%TA.AperFunction,ComponentPad*%
%ADD24C,2.032000*%
%TA.AperFunction,WasherPad*%
%ADD25R,1.120000X1.120000*%
%TA.AperFunction,ComponentPad*%
%ADD26C,1.120000*%
%ADD27C,2.286000*%
%TA.AperFunction,ComponentPad*%
%ADD28R,2.032000X2.032000*%
%TA.AperFunction,OtherPad,Unknown*%
%ADD29C,6.350000*%
%AMDIL022*
4,1,8,
-1.270000,0.457200,-0.965200,0.762000,0.965200,0.762000,1.270000,0.457200,1.270000,-0.457200,
0.965200,-0.762000,-0.965200,-0.762000,-1.270000,-0.457200,-1.270000,0.457200,
0*%
%TA.AperFunction,ComponentPad*%
%ADD72DIL022*%
%TA.AperFunction,ComponentPad*%
%ADD73R,1.905000X1.905000*%
%TA.AperFunction,ComponentPad*%
%ADD30C,3.048000*%
%TA.AperFunction,WasherPad*%
%ADD31R,1.280000X1.280000*%
%TA.AperFunction,ComponentPad*%
%ADD32C,1.280000*%
%TA.AperFunction,ComponentPad*%
%ADD33R,1.270000X1.270000*%
%ADD34C,1.270000*%
%TA.AperFunction,WasherPad*%
%ADD35R,1.200000X1.200000*%
%TA.AperFunction,ComponentPad*%
%ADD36C,1.200000*%
%TA.AperFunction,OtherPad,Unknown*%
%ADD37C,2.540000*%
%TA.AperFunction,Profile*%
%ADD38C,0.203200*%
%TD.AperFunction*%
G36*
X+10097148Y+7000087D02*
X+9893815Y+7203420D01*
X+9536101Y+7203420D01*
X+9283159Y+6950478D01*
X+9283159Y+6592764D01*
X+9536101Y+6339822D01*
X+9893815Y+6339822D01*
X+10097148Y+6543155D01*
X+10097148Y-1412352D01*
X-8789632Y-1412352D01*
X-8789632Y+7290428D01*
X+10097148Y+7290428D01*
X+10097148Y+7000087D01*
G37*
%LPC*%
G36*
X+9394364Y+6247951D02*
X+9453880Y+6188435D01*
X+9453880Y+5973513D01*
X+9473418Y+5953974D01*
X+9609459Y+5817933D01*
X+9609459Y+5729359D01*
X+9728274Y+5729360D01*
X+9886088Y+5729360D01*
X+9997680Y+5617768D01*
X+9997680Y+1092743D01*
X+9762484Y+995321D01*
X+9727443Y+1030362D01*
X+9560496Y+1030362D01*
X+9705202Y+885656D01*
X+9710596Y+881623D01*
X+9727196Y+881623D01*
X+9846227Y+762592D01*
X+9846227Y+594256D01*
X+9727196Y+475225D01*
X+9558860Y+475225D01*
X+9439829Y+594256D01*
X+9439829Y+610856D01*
X+9435796Y+616250D01*
X+9208521Y+843525D01*
X+8792129Y+843525D01*
X+8792129Y+1783323D01*
X+9223927Y+1783323D01*
X+9223927Y+1325895D01*
X+9322092Y+1424060D01*
X+9490428Y+1424060D01*
X+9502166Y+1412322D01*
X+9508833Y+1411360D01*
X+9616682Y+1411360D01*
X+9616682Y+1491225D01*
X+9558860Y+1491225D01*
X+9439829Y+1610256D01*
X+9439829Y+1778592D01*
X+9558860Y+1897623D01*
X+9616682Y+1897623D01*
X+9616682Y+3697363D01*
X+9606721Y+3697363D01*
X+9508836Y+3697362D01*
X+9502166Y+3696400D01*
X+9490428Y+3684662D01*
X+9322092Y+3684662D01*
X+9241159Y+3765595D01*
X+9241159Y+3570360D01*
X+9461355Y+3570360D01*
X+9592790Y+3438925D01*
X+9592790Y+2978631D01*
X+9594184Y+2971304D01*
X+9609459Y+2956029D01*
X+9609459Y+2787693D01*
X+9490428Y+2668662D01*
X+9322092Y+2668662D01*
X+9241159Y+2749595D01*
X+9241159Y+2427360D01*
X+9303687Y+2427360D01*
X+9310354Y+2428322D01*
X+9322092Y+2440060D01*
X+9490428Y+2440060D01*
X+9609459Y+2321029D01*
X+9609459Y+2152693D01*
X+9490428Y+2033662D01*
X+9322092Y+2033662D01*
X+9310354Y+2045400D01*
X+9303687Y+2046362D01*
X+9241159Y+2046362D01*
X+9241159Y+2020962D01*
X+8809361Y+2020962D01*
X+8809361Y+2960760D01*
X+9207792Y+2960760D01*
X+9211208Y+2964176D01*
X+9211792Y+2970077D01*
X+9211792Y+3163962D01*
X+8809361Y+3163962D01*
X+8809361Y+4103760D01*
X+9241159Y+4103760D01*
X+9241159Y+4010127D01*
X+9322092Y+4091060D01*
X+9490428Y+4091060D01*
X+9502166Y+4079322D01*
X+9508836Y+4078360D01*
X+9616682Y+4078359D01*
X+9616682Y+5348363D01*
X+9606721Y+5348363D01*
X+9508836Y+5348362D01*
X+9502166Y+5347400D01*
X+9490428Y+5335662D01*
X+9322092Y+5335662D01*
X+9203061Y+5454693D01*
X+9203061Y+5649599D01*
X+9186052Y+5666608D01*
X+8382863Y+5666608D01*
X+8361887Y+5645632D01*
X+8193551Y+5645632D01*
X+8074520Y+5764663D01*
X+8074520Y+5932999D01*
X+8115686Y+5974166D01*
X+8066579Y+6023273D01*
X+8066579Y+6191609D01*
X+8185610Y+6310640D01*
X+8353946Y+6310640D01*
X+8472977Y+6191609D01*
X+8472977Y+6073006D01*
X+8994577Y+6073006D01*
X+8404514Y+6663069D01*
X+952848Y+6663069D01*
X+808360Y+6518581D01*
X+808360Y+5930110D01*
X+2479300Y+5930110D01*
X+2546463Y+5862947D01*
X+2870292Y+5862947D01*
X+2870292Y+5431149D01*
X+2184494Y+5431149D01*
X+2184494Y+5549112D01*
X+554360Y+5549112D01*
X+554360Y+5491106D01*
X+1113856Y+5491106D01*
X+1237260Y+5367702D01*
X+1237260Y+5230656D01*
X+1294589Y+5287985D01*
X+1462925Y+5287985D01*
X+1587592Y+5163317D01*
X+1587592Y+4673880D01*
X+1498692Y+4584980D01*
X+1498692Y+4364347D01*
X+2247992Y+4364347D01*
X+2247992Y+4326247D01*
X+2865560Y+4326247D01*
X+2984591Y+4207216D01*
X+2984591Y+4080217D01*
X+2984592Y+4080216D01*
X+2984592Y+3911880D01*
X+2865561Y+3792849D01*
X+2697225Y+3792849D01*
X+2578194Y+3911880D01*
X+2578194Y+3919849D01*
X+2247992Y+3919849D01*
X+2247992Y+3881749D01*
X+1154487Y+3881749D01*
X+1020292Y+3807702D01*
X+946245Y+3881749D01*
X-165006Y+3881749D01*
X-165006Y+3932549D01*
X-717025Y+3932549D01*
X-717025Y+3620881D01*
X-1146117Y+3191789D01*
X-1222673Y+3191789D01*
X-1222673Y+2832396D01*
X-1221326Y+2825134D01*
X-1206408Y+2810216D01*
X-1206408Y+2793616D01*
X-1202375Y+2788222D01*
X-681426Y+2267273D01*
X-319776Y+2267273D01*
X-203108Y+2150605D01*
X-203108Y+1786247D01*
X-88806Y+1786247D01*
X-88806Y+1794216D01*
X-77068Y+1805954D01*
X-76106Y+1812621D01*
X-76106Y+2395849D01*
X-223775Y+2395849D01*
X-266607Y+2438681D01*
X-309439Y+2395849D01*
X-731775Y+2395849D01*
X-850806Y+2514880D01*
X-850806Y+2683216D01*
X-731775Y+2802247D01*
X-723806Y+2802247D01*
X-723806Y+3445215D01*
X-604774Y+3564247D01*
X-165006Y+3564247D01*
X-165006Y+3602347D01*
X+2247992Y+3602347D01*
X+2247992Y+3439955D01*
X+2250372Y+3437575D01*
X+2250372Y+3190385D01*
X+2336892Y+3103865D01*
X+2336892Y+2701621D01*
X+2337854Y+2694954D01*
X+2349592Y+2683216D01*
X+2349592Y+2514880D01*
X+2230561Y+2395849D01*
X+2062225Y+2395849D01*
X+2019393Y+2438681D01*
X+1976561Y+2395849D01*
X+1808225Y+2395849D01*
X+1765393Y+2438681D01*
X+1722561Y+2395849D01*
X+1554225Y+2395849D01*
X+1435194Y+2514880D01*
X+1435194Y+2772424D01*
X+1300692Y+2772424D01*
X+1300692Y+2655508D01*
X+1200933Y+2555749D01*
X+1059853Y+2555749D01*
X+1050692Y+2564910D01*
X+1050692Y+2555749D01*
X+997461Y+2555749D01*
X+964561Y+2522849D01*
X+861262Y+2522849D01*
X+861262Y+2110624D01*
X+718712Y+1968074D01*
X+571592Y+1968074D01*
X+571592Y+1957574D01*
X+963994Y+1957574D01*
X+1038363Y+1883205D01*
X+1043246Y+1878727D01*
X+1046151Y+1876847D01*
X+1180533Y+1876847D01*
X+1180533Y+1954513D01*
X+1181194Y+1955174D01*
X+1181194Y+2048215D01*
X+1300225Y+2167246D01*
X+1976561Y+2167246D01*
X+2011349Y+2132458D01*
X+2062416Y+2183525D01*
X+2713503Y+2183525D01*
X+2824225Y+2294247D01*
X+2992561Y+2294247D01*
X+3111592Y+2175216D01*
X+3111592Y+1117880D01*
X+3111591Y+1051539D01*
X+3111821Y+1049947D01*
X+3124292Y+1037476D01*
X+3124292Y+909947D01*
X+3200494Y+909947D01*
X+3200494Y+1037476D01*
X+3326965Y+1163947D01*
X+3505821Y+1163947D01*
X+3632292Y+1037476D01*
X+3632292Y+858620D01*
X+3505821Y+732149D01*
X+3378292Y+732149D01*
X+3378292Y+604620D01*
X+3251821Y+478149D01*
X+3072965Y+478149D01*
X+2946494Y+604620D01*
X+2946494Y+732149D01*
X+2818965Y+732149D01*
X+2806494Y+744620D01*
X+2804906Y+744849D01*
X+2591492Y+744849D01*
X+2591492Y+707576D01*
X+2586360Y+702443D01*
X+2553460Y+669543D01*
X+2553460Y+616312D01*
X+2544299Y+616312D01*
X+2553460Y+607151D01*
X+2553460Y+466071D01*
X+2453701Y+366312D01*
X+2312621Y+366312D01*
X+2230159Y+448774D01*
X+2144064Y+362679D01*
X+1841592Y+362679D01*
X+1841592Y+228880D01*
X+1722561Y+109849D01*
X+1554225Y+109849D01*
X+1435194Y+228880D01*
X+1435194Y+362679D01*
X+1151381Y+362679D01*
X+1233951Y+280109D01*
X+1233951Y+280107D01*
X+1293897Y+220161D01*
X+1293899Y+220161D01*
X+1427809Y+86251D01*
X+1427809Y-403516D01*
X+1458034Y-403185D01*
X+1444534Y-402835D01*
X+1488441Y-402835D01*
X+1488441Y-80909D01*
X+1622459Y+59063D01*
X+1782926Y+66039D01*
X+7968131Y+66039D01*
X+8354949Y+53339D01*
X+8380349Y+27939D01*
X+8470899Y+27939D01*
X+8470899Y-62611D01*
X+8496299Y-88011D01*
X+8496299Y-287909D01*
X+8470899Y-313309D01*
X+8470899Y-403859D01*
X+8380349Y-403859D01*
X+8354949Y-429259D01*
X+8155051Y-429259D01*
X+7955993Y-416559D01*
X+2370707Y-416559D01*
X+2506979Y-552831D01*
X+2506979Y-752729D01*
X+2365629Y-894079D01*
X+2165731Y-894079D01*
X+2024381Y-752729D01*
X+2024381Y-552831D01*
X+2160653Y-416559D01*
X+1971039Y-416559D01*
X+1971039Y-473329D01*
X+1945639Y-498729D01*
X+1945639Y-1097279D01*
X+1513841Y-1097279D01*
X+1513841Y-1042706D01*
X+967739Y-1042706D01*
X+967739Y-1120127D01*
X+863587Y-1224279D01*
X+716293Y-1224279D01*
X+662940Y-1170926D01*
X+609587Y-1224279D01*
X+462293Y-1224279D01*
X+459739Y-1221725D01*
X+459739Y-1224279D01*
X+434339Y-1224279D01*
X+434339Y-1259291D01*
X+339810Y-1353820D01*
X-2908290Y-1353820D01*
X-3013458Y-1248652D01*
X-3013458Y-992869D01*
X-3032548Y-950519D01*
X-3065779Y-917288D01*
X-3065779Y-826589D01*
X-3113897Y-874707D01*
X-3726753Y-874707D01*
X-3870727Y-730733D01*
X-3870727Y-133412D01*
X-3668736Y+68579D01*
X-3587586Y+68579D01*
X-3546564Y+83082D01*
X-3522967Y+106679D01*
X-3375673Y+106679D01*
X-3271521Y+2527D01*
X-3271521Y-144767D01*
X-3375673Y-248919D01*
X-3522967Y-248919D01*
X-3546563Y-225323D01*
X-3562039Y-219852D01*
X-3591329Y-249142D01*
X-3591329Y-469683D01*
X-3522967Y-401321D01*
X-3375673Y-401321D01*
X-3365402Y-411592D01*
X-3348573Y-414021D01*
X-3332821Y-414021D01*
X-3038181Y-119381D01*
X-719206Y-119381D01*
X-687714Y-108247D01*
X-660748Y-81281D01*
X-492412Y-81281D01*
X-410210Y-163483D01*
X-328008Y-81281D01*
X-159672Y-81281D01*
X-139358Y-101595D01*
X-119659Y-106681D01*
X+355587Y-106681D01*
X+408940Y-160034D01*
X+462293Y-106681D01*
X+609587Y-106681D01*
X+662940Y-160034D01*
X+716293Y-106681D01*
X+863587Y-106681D01*
X+967739Y-210833D01*
X+967739Y-358127D01*
X+957468Y-368398D01*
X+955039Y-385227D01*
X+955039Y-581381D01*
X+970611Y-596953D01*
X+970611Y-103125D01*
X+910665Y-43179D01*
X-14533Y-43179D01*
X-22153Y-50799D01*
X-764905Y-50799D01*
X-772561Y-53506D01*
X-807954Y-88899D01*
X-1028894Y-88899D01*
X-1172424Y+54631D01*
X-1315954Y-88899D01*
X-1536894Y-88899D01*
X-1572288Y-53505D01*
X-1579942Y-50799D01*
X-1974287Y-50799D01*
X-2133598Y+108512D01*
X-2133598Y+297888D01*
X-1999688Y+431798D01*
X-1810312Y+431798D01*
X-1784913Y+406399D01*
X-1667723Y+406399D01*
X-1667723Y+917289D01*
X-1698551Y+886461D01*
X-1887929Y+886461D01*
X-2021839Y+1020371D01*
X-2021839Y+1181006D01*
X-2252884Y+949961D01*
X-2629851Y+949961D01*
X-2673143Y+927869D01*
X-2714551Y+886461D01*
X-2903929Y+886461D01*
X-3037839Y+1020371D01*
X-3037839Y+1209749D01*
X-2931778Y+1315810D01*
X-2979419Y+1363452D01*
X-2979419Y+1541781D01*
X-3178003Y+1541781D01*
X-3178003Y+852180D01*
X-2453609Y+852180D01*
X-2209637Y+608208D01*
X-2209637Y+345702D01*
X-2198560Y+314227D01*
X-2171701Y+287368D01*
X-2171701Y+119032D01*
X-2290732Y+1D01*
X-2459068Y+1D01*
X-2578099Y+119032D01*
X-2578099Y+287368D01*
X-2551023Y+314444D01*
X-2539835Y+345946D01*
X-2539835Y+471438D01*
X-2590379Y+521982D01*
X-2812818Y+521982D01*
X-2685366Y+394530D01*
X-2685366Y+307579D01*
X-2680139Y+287806D01*
X-2659381Y+267048D01*
X-2659381Y+98712D01*
X-2778412Y-20319D01*
X-2946748Y-20319D01*
X-3065779Y+98712D01*
X-3065779Y+255282D01*
X-3178003Y+255282D01*
X-3178003Y+242582D01*
X-3570616Y+242582D01*
X-3570616Y+242158D01*
X-3862174Y-49400D01*
X-4033521Y-49400D01*
X-4033521Y-248919D01*
X-4389119Y-248919D01*
X-4389119Y-232095D01*
X-4565341Y-232095D01*
X-4565341Y-277937D01*
X-4572971Y-285567D01*
X-4574541Y-300055D01*
X-4574541Y-422325D01*
X-4319477Y-422325D01*
X-4301673Y-418027D01*
X-4284967Y-401321D01*
X-4137673Y-401321D01*
X-4033521Y-505473D01*
X-4033521Y-652767D01*
X-4137673Y-756919D01*
X-4284967Y-756919D01*
X-4288599Y-753287D01*
X-4303936Y-752523D01*
X-4723756Y-752523D01*
X-4904739Y-571540D01*
X-4904739Y-380039D01*
X-5167939Y-380039D01*
X-5167939Y-31441D01*
X-5140700Y-31441D01*
X-5139199Y-29940D01*
X-5294784Y+125645D01*
X-5294784Y+329232D01*
X-5367134Y+256882D01*
X-5535470Y+256882D01*
X-5578302Y+299714D01*
X-5621134Y+256882D01*
X-5789470Y+256882D01*
X-5908501Y+375913D01*
X-5908501Y+544249D01*
X-5789470Y+663280D01*
X-5768801Y+663280D01*
X-5768801Y+715286D01*
X-5772618Y+730070D01*
X-5794201Y+751653D01*
X-5794201Y+930509D01*
X-5667730Y+1056980D01*
X-5488874Y+1056980D01*
X-5467291Y+1035397D01*
X-5452507Y+1031580D01*
X-5412209Y+1031580D01*
X-5286207Y+1157582D01*
X-5453464Y+1157582D01*
X-5468099Y+1153957D01*
X-5488874Y+1133182D01*
X-5667730Y+1133182D01*
X-5794201Y+1259653D01*
X-5794201Y+1290176D01*
X-5801956Y+1303329D01*
X-5895801Y+1397174D01*
X-5895801Y+1627508D01*
X-5896763Y+1634175D01*
X-5908501Y+1645913D01*
X-5908501Y+1814249D01*
X-5789470Y+1933280D01*
X-5621134Y+1933280D01*
X-5578302Y+1890448D01*
X-5535470Y+1933280D01*
X-5367134Y+1933280D01*
X-5248103Y+1814249D01*
X-5248103Y+1645913D01*
X-5355436Y+1538580D01*
X-5325209Y+1538580D01*
X-5145388Y+1718401D01*
X-5270499Y+1843512D01*
X-5270499Y+2020582D01*
X-7044525Y+2020582D01*
X-8493904Y+3469961D01*
X-8493904Y+4824059D01*
X-8321409Y+4996554D01*
X-7713369Y+4996554D01*
X-7546803Y+4829988D01*
X-7546803Y+4484380D01*
X-7394401Y+4484380D01*
X-7394401Y+4508911D01*
X-7218918Y+4684395D01*
X-6498317Y+4684395D01*
X-6401604Y+4587681D01*
X-6058361Y+4244438D01*
X-6058361Y+4943497D01*
X-6095805Y+4980941D01*
X-6305089Y+4980941D01*
X-6305089Y+4973310D01*
X-6724187Y+4973310D01*
X-6724187Y+5849608D01*
X-6305089Y+5849608D01*
X-6305089Y+5586740D01*
X-6022801Y+5586740D01*
X-6022801Y+5738974D01*
X-6243949Y+5960122D01*
X-6299663Y+5960122D01*
X-6299663Y+5934722D01*
X-6731461Y+5934722D01*
X-6731461Y+6874520D01*
X-6299663Y+6874520D01*
X-6299663Y+6849120D01*
X-5987075Y+6849120D01*
X-5816895Y+6678940D01*
X-635462Y+6678940D01*
X-635462Y+6678939D01*
X-375854Y+6678939D01*
X-251395Y+6554480D01*
X-179552Y+6554480D01*
X-91902Y+6466830D01*
X-4252Y+6554480D01*
X+216688Y+6554480D01*
X+372917Y+6398251D01*
X+372917Y+6177311D01*
X+216688Y+6021082D01*
X-4252Y+6021082D01*
X-91902Y+6108732D01*
X-179552Y+6021082D01*
X-400492Y+6021082D01*
X-556721Y+6177311D01*
X-556721Y+6247143D01*
X-635462Y+6247143D01*
X-635462Y+6247142D01*
X-5704775Y+6247142D01*
X-5721258Y+6230660D01*
X-5714878Y+6224280D01*
X-1631339Y+6224280D01*
X-1219108Y+5812049D01*
X-1219108Y+5608947D01*
X-846830Y+5608947D01*
X-838106Y+5617671D01*
X-838106Y+5642743D01*
X-850806Y+5655443D01*
X-850806Y+5823779D01*
X-838106Y+5836479D01*
X-838106Y+5842834D01*
X-726514Y+5954426D01*
X-568700Y+5954426D01*
X-457108Y+5842834D01*
X-457108Y+5836479D01*
X-444408Y+5823779D01*
X-444408Y+5655443D01*
X-457108Y+5642743D01*
X-457108Y+5583207D01*
X-448940Y+5575039D01*
X-448940Y+5519613D01*
X-431708Y+5502381D01*
X-431708Y+5303620D01*
X-558179Y+5177149D01*
X-1625506Y+5177149D01*
X-1625506Y+5608947D01*
X-1600106Y+5608947D01*
X-1600106Y+5654235D01*
X-1789153Y+5843282D01*
X-5641803Y+5843282D01*
X-5641803Y+5511514D01*
X-5640841Y+5504847D01*
X-5629103Y+5493109D01*
X-5629103Y+5324773D01*
X-5748134Y+5205742D01*
X-5853638Y+5205742D01*
X-5728163Y+5080267D01*
X-5728163Y+4287509D01*
X-5592252Y+4423420D01*
X-5371312Y+4423420D01*
X-5283662Y+4335770D01*
X-5196012Y+4423420D01*
X-4975072Y+4423420D01*
X-4964799Y+4413147D01*
X-4922857Y+4409162D01*
X-3826544Y+4409162D01*
X-3635203Y+4217821D01*
X-3635203Y+4068852D01*
X-3524475Y+4179580D01*
X-3359052Y+4179580D01*
X-3359052Y+5468229D01*
X-3028462Y+5798819D01*
X-1916957Y+5798819D01*
X-1878541Y+5785182D01*
X-1790677Y+5753993D01*
X-1730203Y+5668355D01*
X-1730203Y+5601980D01*
X-1679403Y+5601980D01*
X-1679403Y+5170182D01*
X-1717503Y+5170182D01*
X-1717503Y+5073959D01*
X-1688601Y+5073959D01*
X-1688601Y+4717361D01*
X-2045199Y+4717361D01*
X-2045199Y+4822515D01*
X-2073101Y+4850417D01*
X-2073101Y+5170182D01*
X-2619201Y+5170182D01*
X-2619201Y+5220982D01*
X-2733751Y+5220982D01*
X-2733751Y+5065275D01*
X-2685215Y+5016739D01*
X-2684942Y+5016498D01*
X-2489028Y+5016498D01*
X-2254899Y+4782369D01*
X-2254899Y+4130996D01*
X-2244214Y+4110060D01*
X-2207403Y+4073249D01*
X-2207403Y+3904913D01*
X-2326434Y+3785882D01*
X-2494770Y+3785882D01*
X-2582610Y+3873722D01*
X-2659032Y+3797301D01*
X-2827368Y+3797301D01*
X-2946399Y+3916332D01*
X-2946399Y+4084668D01*
X-2827368Y+4203699D01*
X-2659032Y+4203699D01*
X-2610497Y+4155164D01*
X-2610497Y+4478024D01*
X-2670120Y+4418401D01*
X-2811200Y+4418401D01*
X-2910959Y+4518160D01*
X-2910959Y+4659240D01*
X-2901798Y+4668401D01*
X-2910959Y+4668401D01*
X-2910959Y+4757553D01*
X-2918459Y+4765053D01*
X-2918459Y+4782982D01*
X-2918699Y+4783255D01*
X-3028854Y+4893409D01*
X-3028854Y+4180740D01*
X-3004491Y+4150733D01*
X-2952407Y+4098649D01*
X-2952407Y+3930313D01*
X-3071438Y+3811282D01*
X-3178003Y+3811282D01*
X-3178003Y+3174999D01*
X-2845773Y+3174999D01*
X-2839106Y+3175961D01*
X-2827368Y+3187699D01*
X-2659032Y+3187699D01*
X-2637219Y+3165886D01*
X-2628955Y+3163580D01*
X-2513175Y+3163580D01*
X-2506508Y+3164542D01*
X-2494770Y+3176280D01*
X-2326434Y+3176280D01*
X-2207403Y+3057249D01*
X-2207403Y+2888913D01*
X-2326434Y+2769882D01*
X-2401154Y+2769882D01*
X-2286001Y+2654729D01*
X-2286001Y+2432369D01*
X-2279286Y+2419210D01*
X-2268892Y+2413466D01*
X-2170067Y+2413466D01*
X-1983741Y+2227140D01*
X-1983741Y+1775459D01*
X-1805412Y+1775459D01*
X-1773347Y+1743394D01*
X-1735923Y+1728335D01*
X-1548342Y+1728335D01*
X-1638299Y+1818292D01*
X-1638299Y+1986628D01*
X-1611332Y+2013595D01*
X-1600199Y+2045083D01*
X-1600199Y+2073591D01*
X-1622291Y+2116883D01*
X-1663699Y+2158291D01*
X-1663699Y+2347669D01*
X-1529789Y+2481579D01*
X-1434544Y+2481579D01*
X-1471781Y+2518816D01*
X-1477175Y+2522849D01*
X-1493775Y+2522849D01*
X-1612806Y+2641880D01*
X-1612806Y+2810216D01*
X-1604290Y+2818732D01*
X-1603671Y+2824709D01*
X-1603671Y+3461195D01*
X-1492079Y+3572787D01*
X-1461847Y+3572787D01*
X-1553601Y+3664541D01*
X-1553601Y+3805621D01*
X-1453842Y+3905380D01*
X-1323801Y+3905380D01*
X-1323801Y+4140508D01*
X-1324763Y+4147175D01*
X-1336501Y+4158913D01*
X-1336501Y+4327249D01*
X-1320814Y+4342936D01*
X-1319368Y+4350327D01*
X-1319368Y+4509924D01*
X-1249440Y+4579852D01*
X-1336501Y+4666913D01*
X-1336501Y+4835249D01*
X-1217470Y+4954280D01*
X-1049134Y+4954280D01*
X-930103Y+4835249D01*
X-930103Y+4672320D01*
X-849246Y+4672320D01*
X-850806Y+4673880D01*
X-850806Y+4842216D01*
X-731775Y+4961247D01*
X-563439Y+4961247D01*
X-444408Y+4842216D01*
X-444408Y+4673880D01*
X-445968Y+4672320D01*
X-200876Y+4672320D01*
X-200876Y+5367702D01*
X-77472Y+5491106D01*
X+147962Y+5491106D01*
X+147962Y+5569779D01*
X+199410Y+5621227D01*
X+165194Y+5655443D01*
X+165194Y+5823779D01*
X+284225Y+5942810D01*
X+401962Y+5942810D01*
X+401962Y+6686915D01*
X+784514Y+7069467D01*
X+8572848Y+7069467D01*
X+9394364Y+6247951D01*
G37*
G36*
X+3505292Y+3069476D02*
X+3505292Y+2890620D01*
X+3378821Y+2764149D01*
X+3251292Y+2764149D01*
X+3251292Y+2636620D01*
X+3124821Y+2510149D01*
X+2945965Y+2510149D01*
X+2857592Y+2598522D01*
X+2857592Y+2514880D01*
X+2738561Y+2395849D01*
X+2570225Y+2395849D01*
X+2451194Y+2514880D01*
X+2451194Y+2683216D01*
X+2451195Y+2937216D01*
X+2564535Y+3050556D01*
X+2565494Y+3051838D01*
X+2565494Y+3069476D01*
X+2691965Y+3195947D01*
X+2870821Y+3195947D01*
X+2997292Y+3069476D01*
X+2997292Y+2941947D01*
X+3073494Y+2941947D01*
X+3073494Y+3069476D01*
X+3199965Y+3195947D01*
X+3378821Y+3195947D01*
X+3505292Y+3069476D01*
G37*
G36*
X+7765056Y+6491932D02*
X+8035776Y+6221212D01*
X+8035776Y+5356859D01*
X+8272613Y+5356859D01*
X+8282772Y+5367018D01*
X+8440586Y+5367018D01*
X+8809361Y+4998243D01*
X+8809361Y+5246760D01*
X+9241159Y+5246760D01*
X+9241159Y+4726060D01*
X+9490428Y+4726060D01*
X+9609459Y+4607029D01*
X+9609459Y+4438693D01*
X+9490428Y+4319662D01*
X+9241159Y+4319662D01*
X+9241159Y+4306962D01*
X+8809361Y+4306962D01*
X+8809361Y+4584114D01*
X+8684678Y+4584114D01*
X+8549639Y+4719153D01*
X+8549639Y+4479503D01*
X+8296697Y+4226561D01*
X+7938983Y+4226561D01*
X+7686041Y+4479503D01*
X+7686041Y+4837217D01*
X+7824685Y+4975861D01*
X+7784933Y+4975861D01*
X+7654778Y+5106016D01*
X+7654778Y+6063398D01*
X+7551446Y+6166730D01*
X+7456977Y+6166730D01*
X+7456977Y+6023273D01*
X+7415810Y+5982106D01*
X+7464918Y+5932999D01*
X+7464918Y+5764663D01*
X+7345887Y+5645632D01*
X+7177551Y+5645632D01*
X+7058520Y+5764663D01*
X+7058520Y+5932999D01*
X+7080563Y+5955042D01*
X+3872614Y+5955042D01*
X+3686993Y+5769421D01*
X+3686993Y+5316847D01*
X+3841282Y+5316847D01*
X+3880178Y+5277951D01*
X+3913443Y+5262224D01*
X+4074754Y+5262224D01*
X+4470494Y+4866484D01*
X+4470494Y+5100947D01*
X+4480099Y+5100947D01*
X+4480099Y+5269217D01*
X+4015485Y+5269217D01*
X+3896454Y+5388248D01*
X+3896454Y+5556584D01*
X+4015485Y+5675615D01*
X+4686838Y+5675615D01*
X+4886497Y+5475956D01*
X+4886497Y+5100947D01*
X+4902292Y+5100947D01*
X+4902292Y+4161149D01*
X+4508592Y+4161149D01*
X+4508592Y+4092761D01*
X+4780193Y+4092761D01*
X+4899225Y+3973729D01*
X+4899225Y+3957947D01*
X+4902292Y+3957947D01*
X+4902292Y+3018149D01*
X+4503861Y+3018149D01*
X+4389561Y+2903849D01*
X+4305379Y+2903849D01*
X+4305379Y+2802604D01*
X+4718534Y+2802604D01*
X+4740628Y+2780510D01*
X+4885060Y+2780510D01*
X+4885060Y+1840712D01*
X+4495892Y+1840712D01*
X+4495892Y+1637510D01*
X+4885060Y+1637510D01*
X+4885060Y+697712D01*
X+4453262Y+697712D01*
X+4453262Y+1046506D01*
X+4341798Y+935042D01*
X+4248246Y+935042D01*
X+4222191Y+908987D01*
X+4222191Y+891810D01*
X+4223416Y+884723D01*
X+4237360Y+870779D01*
X+4237360Y+702443D01*
X+4118329Y+583412D01*
X+3949993Y+583412D01*
X+3830962Y+702443D01*
X+3830962Y+870779D01*
X+3840473Y+880290D01*
X+3841193Y+886493D01*
X+3841193Y+1066801D01*
X+4090432Y+1316040D01*
X+4158034Y+1316040D01*
X+4102194Y+1371880D01*
X+4102194Y+1540216D01*
X+4113932Y+1551954D01*
X+4114894Y+1558621D01*
X+4114894Y+1599412D01*
X+3949993Y+1599412D01*
X+3830962Y+1718443D01*
X+3830962Y+1886779D01*
X+3836128Y+1891946D01*
X+3595613Y+2132462D01*
X+3595613Y+3290495D01*
X+3340194Y+3545914D01*
X+3340194Y+3843649D01*
X+3232804Y+3843649D01*
X+3098894Y+3977559D01*
X+3098894Y+4166937D01*
X+3232804Y+4300847D01*
X+3422182Y+4300847D01*
X+3445036Y+4277993D01*
X+3454898Y+4275447D01*
X+3619188Y+4275447D01*
X+3629050Y+4277993D01*
X+3651904Y+4300847D01*
X+3841282Y+4300847D01*
X+3918990Y+4223139D01*
X+3918990Y+4349712D01*
X+3910780Y+4357922D01*
X+3076360Y+4357922D01*
X+2603592Y+4830690D01*
X+2603592Y+4673880D01*
X+2484561Y+4554849D01*
X+2316225Y+4554849D01*
X+2197194Y+4673880D01*
X+2197194Y+4842216D01*
X+2273577Y+4918599D01*
X+2191558Y+5000618D01*
X+2191558Y+5168954D01*
X+2310589Y+5287985D01*
X+2478925Y+5287985D01*
X+2490663Y+5276247D01*
X+2497330Y+5275285D01*
X+2697809Y+5275285D01*
X+3234174Y+4738920D01*
X+3382195Y+4738920D01*
X+3382195Y+4859649D01*
X+3232804Y+4859649D01*
X+3098894Y+4993559D01*
X+3098894Y+5182937D01*
X+3129231Y+5213274D01*
X+3136994Y+5235231D01*
X+3136994Y+5813800D01*
X+3121661Y+5829133D01*
X+3121661Y+5986947D01*
X+3532163Y+6397449D01*
X+3532163Y+6436136D01*
X+3643755Y+6547728D01*
X+7709260Y+6547728D01*
X+7765056Y+6491932D01*
G37*
G36*
X+2865561Y+3284849D02*
X+2697225Y+3284849D01*
X+2578194Y+3403880D01*
X+2578194Y+3572216D01*
X+2697225Y+3691247D01*
X+2865561Y+3691247D01*
X+2984592Y+3572216D01*
X+2984592Y+3403880D01*
X+2865561Y+3284849D01*
G37*
G36*
X-2120806Y+2641880D02*
X-2120806Y+2810216D01*
X-2001775Y+2929247D01*
X-1833439Y+2929247D01*
X-1714408Y+2810216D01*
X-1714408Y+2641880D01*
X-1833439Y+2522849D01*
X-2001775Y+2522849D01*
X-2120806Y+2641880D01*
G37*
G36*
X+9143159Y-1067236D02*
X+9143159Y-709522D01*
X+9396101Y-456580D01*
X+9753815Y-456580D01*
X+10006757Y-709522D01*
X+10006757Y-1067236D01*
X+9753815Y-1320178D01*
X+9396101Y-1320178D01*
X+9143159Y-1067236D01*
G37*
G36*
X+6454141Y+3023294D02*
X+6454141Y+3381008D01*
X+6707083Y+3633950D01*
X+7064797Y+3633950D01*
X+7317739Y+3381008D01*
X+7317739Y+3023294D01*
X+7064797Y+2770352D01*
X+6707083Y+2770352D01*
X+6454141Y+3023294D01*
G37*
G36*
X+5283201Y+4459183D02*
X+5283201Y+4816897D01*
X+5536143Y+5069839D01*
X+5893857Y+5069839D01*
X+6146799Y+4816897D01*
X+6146799Y+4459183D01*
X+5893857Y+4206241D01*
X+5536143Y+4206241D01*
X+5283201Y+4459183D01*
G37*
G36*
X-8766841Y+6432764D02*
X-8766841Y+6790478D01*
X-8513899Y+7043420D01*
X-8156185Y+7043420D01*
X-7903243Y+6790478D01*
X-7903243Y+6432764D01*
X-8156185Y+6179822D01*
X-8513899Y+6179822D01*
X-8766841Y+6432764D01*
G37*
G36*
X-8688101Y-1022136D02*
X-8688101Y-664422D01*
X-8435159Y-411480D01*
X-8077445Y-411480D01*
X-7824503Y-664422D01*
X-7824503Y-1022136D01*
X-8077445Y-1275078D01*
X-8435159Y-1275078D01*
X-8688101Y-1022136D01*
G37*
G36*
X+5303521Y+1411183D02*
X+5303521Y+1768897D01*
X+5556463Y+2021839D01*
X+5914177Y+2021839D01*
X+6167119Y+1768897D01*
X+6167119Y+1411183D01*
X+5914177Y+1158241D01*
X+5556463Y+1158241D01*
X+5303521Y+1411183D01*
G37*
G36*
X+7609841Y+1449283D02*
X+7609841Y+1806997D01*
X+7862783Y+2059939D01*
X+8220497Y+2059939D01*
X+8473439Y+1806997D01*
X+8473439Y+1449283D01*
X+8220497Y+1196341D01*
X+7862783Y+1196341D01*
X+7609841Y+1449283D01*
G37*
G36*
X-1940754Y+4573959D02*
X-1793046Y+4573959D01*
X-1688601Y+4469514D01*
X-1688601Y+4321806D01*
X-1793046Y+4217361D01*
X-1940754Y+4217361D01*
X-2045199Y+4321806D01*
X-2045199Y+4469514D01*
X-1940754Y+4573959D01*
G37*
%LPD*%
G36*
X-647607Y+1583048D02*
X-627853Y+1650046D01*
X-750880Y+1686321D01*
X-714605Y+1563294D01*
X-647607Y+1583048D01*
G37*
G36*
X-393607Y+1583048D02*
X-381038Y+1584862D01*
X-393607Y+1671948D01*
X-406176Y+1584862D01*
X-393607Y+1583048D01*
G37*
G36*
X+980393Y+1710048D02*
X+981542Y+1711300D01*
X+924143Y+1763941D01*
X+979191Y+1708847D01*
X+980393Y+1710048D01*
G37*
G36*
X+1638393Y+821048D02*
X+1653526Y+786083D01*
X+1752424Y+828885D01*
X+1648600Y+857755D01*
X+1638393Y+821048D01*
G37*
G36*
X+622393Y+1583048D02*
X+658314Y+1595747D01*
X+622393Y+1697348D01*
X+586472Y+1595748D01*
X+622393Y+1583048D01*
G37*
G36*
X+1892393Y+1583048D02*
X+1856472Y+1570348D01*
X+1892393Y+1468748D01*
X+1928314Y+1570349D01*
X+1892393Y+1583048D01*
G37*
G36*
X+2146393Y+2599048D02*
X+2158962Y+2600862D01*
X+2146393Y+2687948D01*
X+2133824Y+2600862D01*
X+2146393Y+2599048D01*
G37*
G36*
X+2394757Y+5084786D02*
X+2396571Y+5072217D01*
X+2483657Y+5084786D01*
X+2396571Y+5097355D01*
X+2394757Y+5084786D01*
G37*
G36*
X+2908393Y+948048D02*
X+2906579Y+960617D01*
X+2819493Y+948048D01*
X+2906579Y+935479D01*
X+2908393Y+948048D01*
G37*
G36*
X+2908393Y+948048D02*
X+2920962Y+949862D01*
X+2908393Y+1036948D01*
X+2895824Y+949862D01*
X+2908393Y+948048D01*
G37*
G36*
X+3416393Y+948048D02*
X+3418207Y+935479D01*
X+3505293Y+948048D01*
X+3418207Y+960617D01*
X+3416393Y+948048D01*
G37*
G36*
X+3162393Y+694048D02*
X+3149824Y+692234D01*
X+3162393Y+605148D01*
X+3174962Y+692234D01*
X+3162393Y+694048D01*
G37*
G36*
X+2781393Y+2980048D02*
X+2771222Y+2987653D01*
X+2718532Y+2917187D01*
X+2788998Y+2969877D01*
X+2781393Y+2980048D01*
G37*
G36*
X+3289393Y+2980048D02*
X+3279222Y+2987653D01*
X+3226532Y+2917187D01*
X+3296998Y+2969877D01*
X+3289393Y+2980048D01*
G37*
G36*
X+3289393Y+2980048D02*
X+3301962Y+2981862D01*
X+3289393Y+3068948D01*
X+3276824Y+2981862D01*
X+3289393Y+2980048D01*
G37*
G36*
X+3035393Y+2726048D02*
X+3045564Y+2718443D01*
X+3098254Y+2788909D01*
X+3027788Y+2736219D01*
X+3035393Y+2726048D01*
G37*
G36*
X-1133302Y+4243081D02*
X-1145871Y+4241267D01*
X-1133302Y+4154181D01*
X-1120733Y+4241267D01*
X-1133302Y+4243081D01*
G37*
G36*
X-1133302Y+4243081D02*
X-1120658Y+4244266D01*
X-1128869Y+4331870D01*
X-1145765Y+4245519D01*
X-1133302Y+4243081D01*
G37*
G36*
X-1917607Y+2726048D02*
X-1978950Y+2692642D01*
X-1917607Y+2579998D01*
X-1856264Y+2692642D01*
X-1917607Y+2726048D01*
G37*
G36*
X-1409607Y+2726048D02*
X-1397121Y+2728364D01*
X-1413172Y+2814876D01*
X-1422239Y+2727356D01*
X-1409607Y+2726048D01*
G37*
G36*
X-1409607Y+2726048D02*
X-1417212Y+2715877D01*
X-1346746Y+2663187D01*
X-1399436Y+2733653D01*
X-1409607Y+2726048D01*
G37*
G36*
X+3327493Y+5088248D02*
X+3363414Y+5100947D01*
X+3327493Y+5202548D01*
X+3291572Y+5100948D01*
X+3327493Y+5088248D01*
G37*
G36*
X+3327493Y+4072248D02*
X+3333843Y+4047655D01*
X+3429093Y+4072248D01*
X+3333843Y+4096841D01*
X+3327493Y+4072248D01*
G37*
G36*
X+3746593Y+5088248D02*
X+3765502Y+5041099D01*
X+3873535Y+5084425D01*
X+3768305Y+5134174D01*
X+3746593Y+5088248D01*
G37*
G36*
X+3746593Y+4072248D02*
X+3740244Y+4096841D01*
X+3644993Y+4072248D01*
X+3740243Y+4047655D01*
X+3746593Y+4072248D01*
G37*
G36*
X+114393Y+1710048D02*
X+126962Y+1711862D01*
X+114393Y+1798948D01*
X+101824Y+1711862D01*
X+114393Y+1710048D01*
G37*
G36*
X-1409607Y+5393048D02*
X-1385014Y+5399397D01*
X-1409607Y+5494648D01*
X-1434200Y+5399398D01*
X-1409607Y+5393048D01*
G37*
G36*
X+368393Y+5739611D02*
X+370207Y+5727042D01*
X+457293Y+5739611D01*
X+370207Y+5752180D01*
X+368393Y+5739611D01*
G37*
G36*
X+2400393Y+5647048D02*
X+2420180Y+5662972D01*
X+2358505Y+5739611D01*
X+2375370Y+5642694D01*
X+2400393Y+5647048D01*
G37*
G36*
X+9406260Y+2871861D02*
X+9418736Y+2874234D01*
X+9402291Y+2960672D01*
X+9393622Y+2873112D01*
X+9406260Y+2871861D01*
G37*
G36*
X+9406260Y+3887861D02*
X+9408074Y+3875292D01*
X+9495160Y+3887861D01*
X+9408074Y+3900430D01*
X+9406260Y+3887861D01*
G37*
G36*
X+9025260Y+3379861D02*
X+9031610Y+3355268D01*
X+9126860Y+3379861D01*
X+9031610Y+3404454D01*
X+9025260Y+3379861D01*
G37*
G36*
X+9025260Y+2236861D02*
X+9031610Y+2212268D01*
X+9126860Y+2236861D01*
X+9031610Y+2261454D01*
X+9025260Y+2236861D01*
G37*
G36*
X+9025260Y+4522861D02*
X+9027074Y+4510292D01*
X+9114160Y+4522861D01*
X+9027074Y+4535430D01*
X+9025260Y+4522861D01*
G37*
G36*
X+9025260Y+4776861D02*
X+9018368Y+4801307D01*
X+8923685Y+4774613D01*
X+9019456Y+4752134D01*
X+9025260Y+4776861D01*
G37*
G36*
X+4686393Y+4885048D02*
X+4698891Y+4887298D01*
X+4683298Y+4973894D01*
X+4673768Y+4886423D01*
X+4686393Y+4885048D01*
G37*
G36*
X+4686393Y+4631048D02*
X+4673694Y+4666969D01*
X+4572093Y+4631048D01*
X+4673693Y+4595127D01*
X+4686393Y+4631048D01*
G37*
G36*
X+7253778Y+6107441D02*
X+7233458Y+6153999D01*
X+7126779Y+6107441D01*
X+7233458Y+6060883D01*
X+7253778Y+6107441D01*
G37*
G36*
X+4099653Y+4456416D02*
X+4107258Y+4466587D01*
X+4036791Y+4519278D01*
X+4089482Y+4448811D01*
X+4099653Y+4456416D01*
G37*
G36*
X+9406260Y+2236861D02*
X+9404446Y+2249430D01*
X+9317360Y+2236861D01*
X+9404446Y+2224292D01*
X+9406260Y+2236861D01*
G37*
G36*
X+9406260Y+1220861D02*
X+9408074Y+1208292D01*
X+9495160Y+1220861D01*
X+9408074Y+1233430D01*
X+9406260Y+1220861D01*
G37*
G36*
X+9406260Y+5538861D02*
X+9408074Y+5526292D01*
X+9495160Y+5538861D01*
X+9408074Y+5551430D01*
X+9406260Y+5538861D01*
G37*
G36*
X+4305393Y+3107048D02*
X+4303579Y+3119617D01*
X+4216493Y+3107048D01*
X+4303579Y+3094479D01*
X+4305393Y+3107048D01*
G37*
G36*
X+4305393Y+1456048D02*
X+4317962Y+1457862D01*
X+4305393Y+1544947D01*
X+4292824Y+1457862D01*
X+4305393Y+1456048D01*
G37*
G36*
X+4686393Y+3742048D02*
X+4699085Y+3742489D01*
X+4696026Y+3830424D01*
X+4674094Y+3745213D01*
X+4686393Y+3742048D01*
G37*
G36*
X+4669161Y+2564611D02*
X+4672411Y+2576888D01*
X+4587353Y+2599405D01*
X+4662572Y+2553755D01*
X+4669161Y+2564611D01*
G37*
G36*
X+9008028Y+1059424D02*
X+9014378Y+1034831D01*
X+9109628Y+1059424D01*
X+9014378Y+1084017D01*
X+9008028Y+1059424D01*
G37*
G36*
X+4669161Y+1421611D02*
X+4662812Y+1446204D01*
X+4567561Y+1421611D01*
X+4662811Y+1397018D01*
X+4669161Y+1421611D01*
G37*
G36*
X+9643028Y+678424D02*
X+9650633Y+688595D01*
X+9580167Y+741285D01*
X+9632857Y+670819D01*
X+9643028Y+678424D01*
G37*
G36*
X+9643028Y+1694424D02*
X+9644842Y+1681855D01*
X+9731928Y+1694424D01*
X+9644842Y+1706993D01*
X+9643028Y+1694424D01*
G37*
G36*
X+4034161Y+786611D02*
X+4046675Y+788773D01*
X+4031692Y+875476D01*
X+4021546Y+788075D01*
X+4034161Y+786611D01*
G37*
G36*
X+4034161Y+1802611D02*
X+4035975Y+1790042D01*
X+4123061Y+1802611D01*
X+4035975Y+1815180D01*
X+4034161Y+1802611D01*
G37*
G36*
X-4181302Y+3735081D02*
X-4156215Y+3739054D01*
X-4171606Y+3836217D01*
X-4205177Y+3743749D01*
X-4181302Y+3735081D01*
G37*
G36*
X-4181302Y+3481081D02*
X-4187651Y+3505674D01*
X-4282902Y+3481081D01*
X-4187652Y+3456488D01*
X-4181302Y+3481081D01*
G37*
G36*
X-4181302Y+2719081D02*
X-4174952Y+2694488D01*
X-4079702Y+2719081D01*
X-4174952Y+2743674D01*
X-4181302Y+2719081D01*
G37*
G36*
X-4181302Y+2211081D02*
X-4174952Y+2186488D01*
X-4079702Y+2211081D01*
X-4174952Y+2235674D01*
X-4181302Y+2211081D01*
G37*
G36*
X-4181302Y+2211081D02*
X-4219505Y+2261803D01*
X-4318900Y+2186940D01*
X-4199957Y+2150384D01*
X-4181302Y+2211081D01*
G37*
G36*
X-3419302Y+433081D02*
X-3417488Y+420512D01*
X-3330402Y+433081D01*
X-3417488Y+445650D01*
X-3419302Y+433081D01*
G37*
G36*
X-3419302Y+687081D02*
X-3412952Y+662488D01*
X-3317702Y+687081D01*
X-3412952Y+711674D01*
X-3419302Y+687081D01*
G37*
G36*
X-3419302Y+687081D02*
X-3439622Y+733639D01*
X-3546302Y+687081D01*
X-3439622Y+640523D01*
X-3419302Y+687081D01*
G37*
G36*
X-3419302Y+1703081D02*
X-3412037Y+1678743D01*
X-3317774Y+1706880D01*
X-3413877Y+1727894D01*
X-3419302Y+1703081D01*
G37*
G36*
X-3419302Y+1703081D02*
X-3426973Y+1727294D01*
X-3520753Y+1697586D01*
X-3424312Y+1678181D01*
X-3419302Y+1703081D01*
G37*
G36*
X-3419302Y+1703081D02*
X-3427302Y+1727187D01*
X-3520668Y+1696201D01*
X-3423972Y+1678115D01*
X-3419302Y+1703081D01*
G37*
G36*
X-3419302Y+2719081D02*
X-3411622Y+2694871D01*
X-3317853Y+2724617D01*
X-3414302Y+2743983D01*
X-3419302Y+2719081D01*
G37*
G36*
X-5705302Y+1730081D02*
X-5717871Y+1728267D01*
X-5705302Y+1641181D01*
X-5692733Y+1728267D01*
X-5705302Y+1730081D01*
G37*
G36*
X-5451302Y+460081D02*
X-5439968Y+465809D01*
X-5479655Y+544339D01*
X-5463793Y+457792D01*
X-5451302Y+460081D01*
G37*
G36*
X-5578302Y+1349081D02*
X-5565402Y+1370961D01*
X-5650144Y+1420923D01*
X-5600182Y+1336181D01*
X-5578302Y+1349081D01*
G37*
G36*
X-5578302Y+1349081D02*
X-5572195Y+1324427D01*
X-5476707Y+1348081D01*
X-5571711Y+1373610D01*
X-5578302Y+1349081D01*
G37*
G36*
X-5578302Y+841081D02*
X-5602895Y+834731D01*
X-5578302Y+739481D01*
X-5553709Y+834732D01*
X-5578302Y+841081D01*
G37*
G36*
X-5578302Y+841081D02*
X-5571952Y+816488D01*
X-5476702Y+841081D01*
X-5571952Y+865674D01*
X-5578302Y+841081D01*
G37*
G36*
X-2403302Y+5386081D02*
X-2423622Y+5432639D01*
X-2530302Y+5386081D01*
X-2423622Y+5339523D01*
X-2403302Y+5386081D01*
G37*
G36*
X-1895302Y+5386081D02*
X-1931223Y+5373381D01*
X-1895302Y+5271781D01*
X-1859381Y+5373382D01*
X-1895302Y+5386081D01*
G37*
G36*
X-1895302Y+5386081D02*
X-1848744Y+5406401D01*
X-1895302Y+5513080D01*
X-1941860Y+5406401D01*
X-1895302Y+5386081D01*
G37*
G36*
X-2740660Y+4838700D02*
X-2737226Y+4842604D01*
X-2798218Y+4896258D01*
X-2744564Y+4835266D01*
X-2740660Y+4838700D01*
G37*
G36*
X-7229302Y+4243081D02*
X-7204709Y+4249430D01*
X-7229302Y+4344681D01*
X-7253895Y+4249431D01*
X-7229302Y+4243081D01*
G37*
G36*
X-2410602Y+3989081D02*
X-2387979Y+4000627D01*
X-2432698Y+4088249D01*
X-2435987Y+3989930D01*
X-2410602Y+3989081D01*
G37*
G36*
X-2410602Y+2973081D02*
X-2412416Y+2985650D01*
X-2499502Y+2973081D01*
X-2412416Y+2960512D01*
X-2410602Y+2973081D01*
G37*
G36*
X-6515562Y+6150621D02*
X-6509212Y+6126028D01*
X-6413962Y+6150621D01*
X-6509212Y+6175214D01*
X-6515562Y+6150621D01*
G37*
G36*
X-6515562Y+6404621D02*
X-6509212Y+6380028D01*
X-6413962Y+6404621D01*
X-6509212Y+6429214D01*
X-6515562Y+6404621D01*
G37*
G36*
X-6515562Y+6658621D02*
X-6509212Y+6634028D01*
X-6413962Y+6658621D01*
X-6509212Y+6683214D01*
X-6515562Y+6658621D01*
G37*
G36*
X-6514638Y+5411459D02*
X-6506011Y+5380904D01*
X-6406718Y+5408941D01*
X-6504595Y+5441578D01*
X-6514638Y+5411459D01*
G37*
G36*
X-6514638Y+5182859D02*
X-6511654Y+5138510D01*
X-6399744Y+5146040D01*
X-6486433Y+5217213D01*
X-6514638Y+5182859D01*
G37*
G36*
X-5832302Y+6424941D02*
X-5824697Y+6435112D01*
X-5895163Y+6487802D01*
X-5842473Y+6417336D01*
X-5832302Y+6424941D01*
G37*
G36*
X-5832302Y+5408941D02*
X-5838651Y+5433534D01*
X-5933901Y+5408941D01*
X-5838652Y+5384348D01*
X-5832302Y+5408941D01*
G37*
G36*
X-5832302Y+5408941D02*
X-5819733Y+5410755D01*
X-5832302Y+5497841D01*
X-5844871Y+5410755D01*
X-5832302Y+5408941D01*
G37*
G36*
X-5893262Y+2457461D02*
X-5890377Y+2445094D01*
X-5804690Y+2465081D01*
X-5892532Y+2470139D01*
X-5893262Y+2457461D01*
G37*
G36*
X-5893262Y+3473461D02*
X-5857341Y+3486160D01*
X-5893262Y+3587761D01*
X-5929183Y+3486161D01*
X-5893262Y+3473461D01*
G37*
G36*
X-4171606Y+4014481D02*
X-4207527Y+4001781D01*
X-4171606Y+3900181D01*
X-4135685Y+4001782D01*
X-4171606Y+4014481D01*
G37*
G36*
X-3155606Y+4014481D02*
X-3168305Y+4050402D01*
X-3269906Y+4014481D01*
X-3168306Y+3978560D01*
X-3155606Y+4014481D01*
G37*
G36*
X-3155606Y+4014481D02*
X-3126028Y+4038496D01*
X-3193953Y+4122156D01*
X-3193705Y+4014394D01*
X-3155606Y+4014481D01*
G37*
G36*
X-290022Y+6287781D02*
X-272118Y+6387790D01*
X-415745Y+6413504D01*
X-390031Y+6269877D01*
X-290022Y+6287781D01*
G37*
G36*
X-5085542Y+4156721D02*
X-4994015Y+4112617D01*
X-4930674Y+4244063D01*
X-5075932Y+4257865D01*
X-5085542Y+4156721D01*
G37*
G36*
X-2743200Y+2984500D02*
X-2745014Y+2997069D01*
X-2832099Y+2984500D01*
X-2745014Y+2971931D01*
X-2743200Y+2984500D01*
G37*
G36*
X-2743200Y+2984500D02*
X-2743016Y+2971802D01*
X-2655037Y+2973081D01*
X-2739787Y+2996732D01*
X-2743200Y+2984500D01*
G37*
G36*
X-2763520Y+1706880D02*
X-2783840Y+1753438D01*
X-2890520Y+1706880D01*
X-2783840Y+1660322D01*
X-2763520Y+1706880D01*
G37*
G36*
X-5054600Y+2186940D02*
X-5006731Y+2112029D01*
X-4889500Y+2186940D01*
X-5006731Y+2261851D01*
X-5054600Y+2186940D01*
G37*
G36*
X-2148840Y+1559560D02*
X-2102282Y+1579880D01*
X-2148840Y+1686560D01*
X-2195398Y+1579880D01*
X-2148840Y+1559560D01*
G37*
G36*
X-2148840Y+1559560D02*
X-2196534Y+1542071D01*
X-2156460Y+1432789D01*
X-2103585Y+1536484D01*
X-2148840Y+1559560D01*
G37*
G36*
X-1894840Y+1559560D02*
X-1873181Y+1513609D01*
X-1767894Y+1563236D01*
X-1875877Y+1606687D01*
X-1894840Y+1559560D01*
G37*
G36*
X-1793240Y+1115060D02*
X-1764377Y+1058500D01*
X-1653540Y+1115060D01*
X-1764377Y+1171620D01*
X-1793240Y+1115060D01*
G37*
G36*
X-2809240Y+1115060D02*
X-2780377Y+1058500D01*
X-2669540Y+1115060D01*
X-2780377Y+1171620D01*
X-2809240Y+1115060D01*
G37*
G36*
X-1435100Y+2252980D02*
X-1491660Y+2224117D01*
X-1435100Y+2113280D01*
X-1378540Y+2224117D01*
X-1435100Y+2252980D01*
G37*
G36*
X-2451100Y+2252980D02*
X-2394540Y+2281843D01*
X-2451100Y+2392680D01*
X-2507660Y+2281843D01*
X-2451100Y+2252980D01*
G37*
G36*
X-2451100Y+2252980D02*
X-2424120Y+2195497D01*
X-2311477Y+2248367D01*
X-2420385Y+2308556D01*
X-2451100Y+2252980D01*
G37*
G36*
X-1426424Y+177800D02*
X-1439123Y+213721D01*
X-1540723Y+177800D01*
X-1439124Y+141879D01*
X-1426424Y+177800D01*
G37*
G36*
X-1426424Y+177800D02*
X-1379880Y+220995D01*
X-1464524Y+312204D01*
X-1488712Y+190143D01*
X-1426424Y+177800D01*
G37*
G36*
X-918424Y+177800D02*
X-905725Y+141879D01*
X-804124Y+177800D01*
X-905725Y+213721D01*
X-918424Y+177800D01*
G37*
G36*
X-1435100Y+886460D02*
X-1399179Y+899159D01*
X-1435100Y+1000760D01*
X-1471021Y+899160D01*
X-1435100Y+886460D01*
G37*
G36*
X-1435100Y+1902460D02*
X-1399179Y+1915159D01*
X-1435100Y+2016760D01*
X-1471021Y+1915160D01*
X-1435100Y+1902460D01*
G37*
G36*
X-1435100Y+1902460D02*
X-1424824Y+1865773D01*
X-1321055Y+1894839D01*
X-1420034Y+1937454D01*
X-1435100Y+1902460D01*
G37*
G36*
X-1043412Y+1894839D02*
X-1056111Y+1930760D01*
X-1157712Y+1894839D01*
X-1056112Y+1858918D01*
X-1043412Y+1894839D01*
G37*
G36*
X-1866900Y+4895660D02*
X-1866437Y+4895848D01*
X-1895302Y+4966907D01*
X-1867365Y+4895478D01*
X-1866900Y+4895660D01*
G37*
G36*
X-4211320Y-71120D02*
X-4212549Y-58480D01*
X-4300124Y-66996D01*
X-4213715Y-83592D01*
X-4211320Y-71120D01*
G37*
G36*
X-4211320Y-579120D02*
X-4214300Y-566775D01*
X-4299831Y-587424D01*
X-4211952Y-591804D01*
X-4211320Y-579120D01*
G37*
G36*
X-3449320Y-71120D02*
X-3462019Y-35199D01*
X-3563620Y-71120D01*
X-3462020Y-107041D01*
X-3449320Y-71120D01*
G37*
G36*
X-3449320Y-579120D02*
X-3447506Y-591689D01*
X-3360420Y-579120D01*
X-3447506Y-566551D01*
X-3449320Y-579120D01*
G37*
G36*
X-243840Y-284480D02*
X-237490Y-309073D01*
X-142240Y-284480D01*
X-237490Y-259887D01*
X-243840Y-284480D01*
G37*
G36*
X-2862580Y+182880D02*
X-2838024Y+189371D01*
X-2863165Y+284478D01*
X-2887209Y+189088D01*
X-2862580Y+182880D01*
G37*
G36*
X-2862580Y-833120D02*
X-2908892Y-853996D01*
X-2861059Y-960110D01*
X-2815782Y-852880D01*
X-2862580Y-833120D01*
G37*
G36*
X-576580Y-284480D02*
X-589279Y-248559D01*
X-690880Y-284480D01*
X-589280Y-320401D01*
X-576580Y-284480D01*
G37*
G36*
X-1905000Y-812800D02*
X-1850280Y-780583D01*
X-1913413Y-673354D01*
X-1963196Y-787395D01*
X-1905000Y-812800D01*
G37*
G36*
X-2374900Y+203200D02*
X-2338961Y+215848D01*
X-2374736Y+317500D01*
X-2410802Y+215951D01*
X-2374900Y+203200D01*
G37*
G36*
X+281940Y-1046480D02*
X+257347Y-1052830D01*
X+281940Y-1148080D01*
X+306533Y-1052829D01*
X+281940Y-1046480D01*
G37*
G36*
X+789940Y-284480D02*
X+777371Y-286294D01*
X+789940Y-373380D01*
X+802509Y-286294D01*
X+789940Y-284480D01*
G37*
G36*
X+1729740Y-881380D02*
X+1710813Y-834238D01*
X+1602797Y-877607D01*
X+1708046Y-927314D01*
X+1729740Y-881380D01*
G37*
G36*
X-4993640Y-205740D02*
X-4984494Y-204749D01*
X-4993640Y-120340D01*
X-5002786Y-204749D01*
X-4993640Y-205740D01*
G37*
G36*
X-4739640Y-205740D02*
X-4748786Y-206731D01*
X-4739640Y-291140D01*
X-4730494Y-206731D01*
X-4739640Y-205740D01*
G37*
G36*
X-4739640Y+556260D02*
X-4707157Y+568174D01*
X-4743403Y+666996D01*
X-4772857Y+565942D01*
X-4739640Y+556260D01*
G37*
G36*
X-4993640Y+556260D02*
X-5002786Y+555269D01*
X-4993640Y+470860D01*
X-4984494Y+555269D01*
X-4993640Y+556260D01*
G37*
G36*
X+830862Y+4364347D02*
X+736692Y+4364347D01*
X+736692Y+4602213D01*
X+808360Y+4673881D01*
X+808360Y+5061779D01*
X+785431Y+5084708D01*
X+830862Y+5084708D01*
X+830862Y+4364347D01*
G37*
G36*
X-4374805Y+3930313D02*
X-4370072Y+3925580D01*
X-4422601Y+3925580D01*
X-4422601Y+3646180D01*
X-5457627Y+3646180D01*
X-5690063Y+3413744D01*
X-5690063Y+3557629D01*
X-5717029Y+3584595D01*
X-5728163Y+3616087D01*
X-5728163Y+4025933D01*
X-5592252Y+3890022D01*
X-5371312Y+3890022D01*
X-5283662Y+3977672D01*
X-5196012Y+3890022D01*
X-4975072Y+3890022D01*
X-4818843Y+4046251D01*
X-4818843Y+4078964D01*
X-4374805Y+4078964D01*
X-4374805Y+3930313D01*
G37*
G36*
X-7165801Y+3364734D02*
X-7800803Y+3999736D01*
X-7800803Y+4001782D01*
X-7165801Y+4001782D01*
X-7165801Y+3364734D01*
G37*
G36*
X+1869374Y+3111478D02*
X+1869374Y+3032571D01*
X+1955894Y+2946051D01*
X+1955894Y+2802247D01*
X+1841592Y+2802247D01*
X+1841592Y+3115821D01*
X+1832109Y+3119749D01*
X+1869374Y+3119749D01*
X+1869374Y+3111478D01*
G37*
G36*
X-4422601Y+1893580D02*
X-4838701Y+1893580D01*
X-4838701Y+2020582D01*
X-4422601Y+2020582D01*
X-4422601Y+1893580D01*
G37*
G36*
X-839240Y+1886275D02*
X-584106Y+1886275D01*
X-584106Y+1786247D01*
X-731775Y+1786247D01*
X-850806Y+1667216D01*
X-850806Y+1498880D01*
X-731775Y+1379849D01*
X-596806Y+1379849D01*
X-596806Y+1255248D01*
X-598034Y+1254020D01*
X-597116Y+1057382D01*
X-634472Y+1094738D01*
X-1132840Y+1094738D01*
X-1244426Y+983152D01*
X-1258867Y+997594D01*
X-1270001Y+1029086D01*
X-1270001Y+1496690D01*
X-1472572Y+1699261D01*
X-1350932Y+1699261D01*
X-1329045Y+1721148D01*
X-1298371Y+1729740D01*
X-1186035Y+1729740D01*
X-1154547Y+1718607D01*
X-1127580Y+1691640D01*
X-959244Y+1691640D01*
X-840213Y+1810671D01*
X-840213Y+1887248D01*
X-839240Y+1886275D01*
G37*
G36*
X+1181194Y+1532246D02*
X+825592Y+1532246D01*
X+825592Y+1543249D01*
X+1181194Y+1543249D01*
X+1181194Y+1532246D01*
G37*
G36*
X-2616199Y+2517959D02*
X-2616199Y+2432369D01*
X-2638291Y+2389077D01*
X-2679699Y+2347669D01*
X-2679699Y+2158291D01*
X-2545789Y+2024381D01*
X-2356411Y+2024381D01*
X-2317748Y+2063044D01*
X-2313939Y+2064832D01*
X-2313939Y+1721017D01*
X-2330378Y+1683349D01*
X-2364739Y+1648988D01*
X-2364739Y+1470132D01*
X-2335153Y+1440546D01*
X-2321559Y+1403474D01*
X-2321559Y+1348254D01*
X-2389654Y+1280159D01*
X-2629851Y+1280159D01*
X-2630555Y+1280518D01*
X-2547621Y+1363452D01*
X-2547621Y+1542308D01*
X-2585193Y+1579880D01*
X-2547621Y+1617452D01*
X-2547621Y+1796308D01*
X-2674092Y+1922779D01*
X-2852948Y+1922779D01*
X-2887309Y+1888418D01*
X-2924977Y+1871979D01*
X-3178003Y+1871979D01*
X-3178003Y+2559518D01*
X-2657758Y+2559518D01*
X-2616199Y+2517959D01*
G37*
G36*
X+165194Y+1506848D02*
X+165194Y+1498880D01*
X+165195Y+1278247D01*
X-190408Y+1278247D01*
X-190408Y+1379849D01*
X-55439Y+1379849D01*
X+63592Y+1498880D01*
X+63592Y+1506849D01*
X+165194Y+1506849D01*
X+165194Y+1506848D01*
G37*
G36*
X-328008Y-487679D02*
X-159672Y-487679D01*
X-139358Y-467365D01*
X-119659Y-462279D01*
X+355587Y-462279D01*
X+408940Y-408926D01*
X+462293Y-462279D01*
X+609587Y-462279D01*
X+624841Y-447025D01*
X+624841Y-718151D01*
X+775371Y-868681D01*
X+716293Y-868681D01*
X+662940Y-922034D01*
X+609587Y-868681D01*
X+462293Y-868681D01*
X+459739Y-871235D01*
X+459739Y-868681D01*
X+104141Y-868681D01*
X+104141Y-1049022D01*
X-2708660Y-1049022D01*
X-2708660Y-990964D01*
X-2690830Y-948737D01*
X-2659381Y-917288D01*
X-2659381Y-748952D01*
X-2735583Y-672750D01*
X-2522217Y-672750D01*
X-2578099Y-728632D01*
X-2578099Y-896968D01*
X-2459068Y-1015999D01*
X-2290732Y-1015999D01*
X-2171701Y-896968D01*
X-2171701Y-728632D01*
X-2227583Y-672750D01*
X-2080024Y-672750D01*
X-2069968Y-682806D01*
X-2075852Y-696285D01*
X-2108199Y-728632D01*
X-2108199Y-896968D01*
X-1989168Y-1015999D01*
X-1820832Y-1015999D01*
X-1701801Y-896968D01*
X-1701801Y-728632D01*
X-1743026Y-687407D01*
X-1773714Y-635284D01*
X-1773714Y-583932D01*
X-1908067Y-449579D01*
X-719203Y-449579D01*
X-687715Y-460712D01*
X-660748Y-487679D01*
X-492412Y-487679D01*
X-410210Y-405477D01*
X-328008Y-487679D01*
G37*
G36*
X+4328764Y+4505326D02*
X+4380841Y+4453249D01*
X+4470494Y+4453249D01*
X+4470494Y+4245314D01*
X+4389561Y+4326247D01*
X+4299988Y+4326247D01*
X+4299988Y+4367025D01*
X+4300312Y+4367349D01*
X+4300312Y+4369708D01*
X+4302852Y+4372248D01*
X+4302852Y+4379362D01*
X+4334497Y+4411007D01*
X+4302852Y+4487404D01*
X+4302852Y+4531238D01*
X+4328764Y+4505326D01*
G37*
G36*
X+4470494Y+3526149D02*
X+4470494Y+3229314D01*
X+4389561Y+3310247D01*
X+4306744Y+3310247D01*
X+4306744Y+3668927D01*
X+4353070Y+3649738D01*
X+4389695Y+3686363D01*
X+4470494Y+3686363D01*
X+4470494Y+3526149D01*
G37*
D10*
X+279493Y+3361048D02*
X+279493Y+2612375D01*
X+266166Y+2599048D01*
X+368393Y+2599048D01*
X-647607Y+2599048D02*
X-520607Y+2599048D01*
X-393607Y+2599048D01*
X+368393Y+1583048D02*
X+368393Y+2161082D01*
X+358202Y+2171273D01*
X+634545Y+2171273D01*
X+658063Y+2194791D01*
X+658063Y+2563378D01*
X+622393Y+2599048D01*
X+622393Y+2751164D01*
X+523950Y+2849607D01*
X+523950Y+3351505D01*
X+533493Y+3361048D01*
X+787493Y+3361048D02*
X+787493Y+2869599D01*
X+880393Y+2776699D01*
X+880393Y+2726048D01*
X+1041493Y+3361048D02*
X+1041493Y+2977894D01*
X+1043764Y+2975623D01*
X+1633968Y+2975623D01*
X+1638393Y+2980048D01*
X+1638393Y+2599048D01*
X+2146393Y+1583048D02*
X+2146393Y+1980136D01*
X+2146584Y+1980327D01*
X+2660472Y+1980327D01*
X+2665825Y+1974974D01*
X+2665825Y+1594480D01*
X+2654393Y+1583048D01*
X+2654393Y+2599048D02*
X+2654393Y+2853048D01*
X+2781393Y+2980048D01*
X+3289393Y+2980048D02*
X+3035393Y+2726048D01*
X+2781393Y+3234048D02*
X+2781393Y+3488048D01*
X+2908393Y+948048D02*
X+2908393Y+1202048D01*
X+3162393Y+3234048D02*
X+3289393Y+3234048D01*
X+3289393Y+2980048D01*
X+3162393Y+694048D02*
X+3162393Y+430165D01*
X+3536344Y+430165D01*
X+3537749Y+428760D01*
X+3537749Y+688404D01*
X+3543393Y+694048D01*
X+3543393Y+948048D02*
X+3416393Y+948048D01*
X+3543393Y+948048D02*
X+3543393Y+694048D01*
X+368393Y+1583048D02*
X+368393Y+1329048D01*
X+1384393Y+1329048D01*
X+1384393Y+1869685D01*
X+1383732Y+1870346D01*
X+1384393Y+1871007D01*
X+1384393Y+1964048D01*
X+1892393Y+1964048D01*
X+1892393Y+1583048D01*
X+2057493Y+4123048D02*
X+2781393Y+4123048D01*
X+2781393Y+3996048D01*
X+1384393Y+4758048D02*
X+1295493Y+4758048D01*
X+1295493Y+4123048D02*
X+1295493Y+4758048D01*
X+533493Y+4123048D02*
X+533493Y+4758048D01*
X-12607Y+1075048D02*
X+1638393Y+1075048D01*
X+1641921Y+1167816D01*
X+1641921Y+1579520D01*
X+1638393Y+1583048D01*
X-139607Y+1075048D02*
X-12607Y+1075048D01*
X+11067Y+4487873D02*
X+2323Y+4487873D01*
X+2908393Y+2091048D02*
X+2908393Y+1202048D01*
X+3327493Y+4072248D02*
X+3543393Y+4072248D01*
X+3746593Y+4072248D01*
X+279493Y+4123048D02*
X+279493Y+4480093D01*
X+277765Y+4481821D01*
X+5015Y+4481821D01*
X+2323Y+4481821D01*
X+11067Y+4487873D02*
X+5015Y+4481821D01*
X+2323Y+4479129D01*
X+2323Y+4481821D01*
X+2323Y+4487873D01*
X-85957Y+4487873D01*
D11*
X+622393Y+1583048D02*
X+622393Y+1790235D01*
X+620153Y+1792475D01*
X+895609Y+1792475D01*
X+927893Y+1760191D01*
X+980393Y+1710048D01*
D12*
X-901607Y+5393048D02*
X-647607Y+5393048D01*
D10*
X+1549493Y+3361048D02*
X+1549493Y+3824721D01*
X+1563134Y+3838362D01*
X+3289393Y+3234048D02*
X+3543393Y+3234048D01*
X+3543393Y+2373308D01*
X+3543393Y+948048D01*
X+1130393Y+2726048D02*
X+1130393Y+2345048D01*
X+1892393Y+2599048D02*
X+1892393Y+2345048D01*
X+1130393Y+2345048D02*
X+1892393Y+2345048D01*
X+3515133Y+2345048D01*
X+3543393Y+2373308D01*
X+1638393Y+3838362D02*
X+1798319Y+3838362D01*
X+1563134Y+3838362D02*
X+1638393Y+3838362D01*
X+2908393Y+3234048D02*
X+2781393Y+3234048D01*
X+2908393Y+3234048D02*
X+3162393Y+3234048D01*
X+2781393Y+3234048D02*
X+2395550Y+3234048D01*
X+2395550Y+3838362D01*
X+1798319Y+3838362D01*
X-520607Y+2599048D02*
X-520607Y+3361048D01*
X+25493Y+3361048D01*
X-139607Y+1075048D02*
X-393607Y+1075048D01*
D13*
X+114393Y+1710048D02*
X+114393Y+2599048D01*
D10*
X-139607Y+2599048D02*
X+114393Y+2599048D01*
X+266166Y+2599048D01*
D13*
X+2146393Y+2599048D02*
X+2146393Y+3024958D01*
X+2059873Y+3111478D01*
X+2059873Y+3358668D01*
X+2057493Y+3361048D01*
D10*
X+9406260Y+4522861D02*
X+9025260Y+4522861D01*
D13*
X+4305393Y+3107048D02*
X+4114880Y+3107048D01*
X+4116245Y+3169031D01*
X+4116245Y+3848315D01*
X+4109489Y+3855071D01*
X+4109489Y+4250048D01*
X+4109489Y+4377048D01*
X+9025260Y+2236861D02*
X+9406260Y+2236861D01*
X+9406260Y+5538861D02*
X+9807181Y+5538861D01*
X+9025260Y+3379861D02*
X+9382448Y+3379861D01*
X+9402291Y+3360018D01*
X+9402291Y+2875830D01*
X+9406260Y+2871861D01*
X+9406260Y+3887861D02*
X+9807181Y+3887861D01*
X+9807181Y+2856237D02*
X+9807181Y+3887861D01*
X+4114880Y+2472048D02*
X+4114880Y+2389789D01*
X+4114880Y+2234418D01*
X+4305393Y+2043905D01*
X+4114880Y+2472048D02*
X+4114880Y+3107048D01*
D10*
X+4305393Y+4123048D02*
X+4305393Y+3889427D01*
X+4305528Y+3889562D01*
X+4696026Y+3889562D01*
X+4696026Y+3751681D01*
X+4686393Y+3742048D01*
X+4305393Y+2472048D02*
X+4305393Y+2592889D01*
X+4311909Y+2599405D01*
X+4634367Y+2599405D01*
X+4669161Y+2564611D01*
X+800192Y+5287907D02*
X+1029689Y+5287907D01*
X+1034061Y+5283535D01*
X+1034061Y+4081299D01*
X+1055920Y+4059440D01*
X+1041493Y+4123048D01*
X+368393Y+4758048D02*
X+478161Y+4758048D01*
X+351161Y+5485611D02*
X+351161Y+5287907D01*
X+622393Y+5287907D01*
X+800192Y+5287907D01*
X+2323Y+4487873D02*
X+2323Y+5283535D01*
X+6695Y+5287907D01*
X+351161Y+5287907D01*
D12*
X-647607Y+5393048D02*
X-647607Y+5412953D01*
X-664839Y+5412953D01*
X-664839Y+5485611D01*
D10*
X+533493Y+4758048D02*
X+478161Y+4758048D01*
D13*
X+368393Y+5739611D02*
X+2400393Y+5739611D01*
X+2400393Y+5647048D01*
D10*
X+605161Y+4977611D02*
X+605161Y+4758048D01*
X+533493Y+4758048D01*
D13*
X+9807181Y+3887861D02*
X+9807181Y+5250424D01*
D14*
X+9025260Y+5030861D02*
X+8975720Y+5030861D01*
X+8804100Y+5202481D01*
X+9025260Y+5030861D02*
X+9025260Y+5077465D01*
X+9088459Y+5140664D01*
X+9025260Y+5030861D02*
X+9187461Y+5030861D01*
X+9213467Y+5056867D01*
X+4686393Y+4377048D02*
X+4720830Y+4342611D01*
X+4923161Y+4342611D01*
D10*
X+3543393Y+4072248D02*
X+3543393Y+3630081D01*
X+3786598Y+3386876D01*
X+3798812Y+3386876D01*
X+3798812Y+2216629D01*
X+3924393Y+2091048D01*
X+2908393Y+948048D02*
X+2388434Y+948048D01*
X+2388293Y+948189D01*
X+2388293Y+791743D01*
X+2383161Y+786611D01*
X+2280630Y+786611D01*
X+2059896Y+565877D01*
X+1067329Y+565877D01*
X+242564Y+565877D01*
X+114393Y+694048D01*
D13*
X+9643028Y+678424D02*
X+9262028Y+1059424D01*
X+9008028Y+1059424D01*
X+9643028Y+1694424D02*
X+9807181Y+1694424D01*
X+9406260Y+1220861D02*
X+9806350Y+1220861D01*
X+9807181Y+1220030D01*
X+9807181Y+1694424D01*
X+9807181Y+2856237D01*
X+4669161Y+1421611D02*
X+4558961Y+1421611D01*
X+4262891Y+1125541D01*
X+4231672Y+1125541D01*
X+4169339Y+1125541D01*
X+4031692Y+987894D01*
X+4031692Y+789080D01*
X+4034161Y+786611D01*
X+4034161Y+1802611D02*
X+4305393Y+1802611D01*
X+4305393Y+1456048D02*
X+4305393Y+1802611D01*
X+4305393Y+2043905D01*
X+9807181Y+5250424D02*
X+9807181Y+5538861D01*
D14*
X+4669161Y+913611D02*
X+5325605Y+913611D01*
X+5328391Y+910825D01*
X+9025260Y+3887861D02*
X+8853646Y+3887861D01*
X+8548531Y+3582746D01*
X+9008028Y+1567424D02*
X+8579081Y+1567424D01*
X+8577939Y+1568566D01*
D13*
X-5705302Y+1730081D02*
X-5705302Y+1476081D01*
X-5578302Y+1349081D01*
X-5578302Y+841081D02*
X-5578302Y+642986D01*
X-5451302Y+515986D01*
X-5451302Y+460081D01*
X-7991302Y+4243081D02*
X-7991302Y+3920829D01*
X-6808719Y+2738246D01*
X-5509133Y+2738246D01*
X-5274136Y+2973243D01*
X-4181464Y+2973243D01*
X-4181302Y+2973081D01*
X-4181302Y+2211081D02*
X-6965618Y+2211081D01*
X-8303405Y+3548868D01*
X-8303405Y+4745152D01*
X-8242502Y+4806055D01*
X-7792276Y+4806055D01*
X-7737302Y+4751081D01*
X-7737302Y+4243081D01*
X-1133302Y+4243081D02*
X-1133302Y+3735081D01*
X-79905Y+4481821D02*
X-1078065Y+4481821D01*
X-1128869Y+4431017D01*
X-1128869Y+4247514D01*
X-1133302Y+4243081D01*
D10*
X+2323Y+4481821D02*
X-79905Y+4481821D01*
X-85957Y+4487873D01*
D13*
X+25493Y+4123048D02*
X-819402Y+4123048D01*
X-907524Y+4034926D01*
X-907524Y+3699788D01*
X-1225024Y+3382288D01*
X-1413172Y+3382288D01*
X-1413172Y+2729613D01*
X-1409607Y+2726048D01*
X-4181302Y+1703081D02*
X-4891302Y+1703081D01*
X-5246302Y+1348081D01*
X-5577302Y+1348081D01*
X-5578302Y+1349081D01*
X-5578302Y+841081D02*
X-5333302Y+841081D01*
X-4726302Y+1448081D01*
X-4182302Y+1448081D01*
X-4181302Y+1449081D01*
X-393607Y+1528081D02*
X-393607Y+1583048D01*
X-393607Y+2071698D01*
X-398683Y+2076774D01*
X-760333Y+2076774D01*
X-1409607Y+2726048D01*
D10*
X-393607Y+1075048D02*
X-394259Y+1170429D01*
X-393607Y+1171081D01*
X-393607Y+1528081D01*
D13*
X-647607Y+5763927D02*
X-647607Y+5739611D01*
X-647607Y+5412953D02*
X-647607Y+5763927D01*
X-6515562Y+6658621D02*
X-6065982Y+6658621D01*
X-5832302Y+6424941D01*
X-6515562Y+6150621D02*
X-6165042Y+6150621D01*
X-5832302Y+5817881D01*
X-5832302Y+5408941D01*
X-4181302Y+2465081D02*
X-5885642Y+2465081D01*
X-5893262Y+2457461D01*
X-1409607Y+5393048D02*
X-1409607Y+5733142D01*
X-1710246Y+6033781D01*
X-5793785Y+6033781D01*
X-6164625Y+6404621D01*
X-6515562Y+6404621D01*
D11*
X-4171606Y+4014481D02*
X-4171606Y+3744777D01*
X-4181302Y+3735081D01*
X-4181302Y+2719081D02*
X-3917142Y+2719081D01*
X-3800302Y+2835921D01*
X-3800302Y+4149436D01*
X-3894929Y+4244063D01*
X-4998200Y+4244063D01*
X-5085542Y+4156721D01*
X-3155606Y+4014481D02*
X-3456090Y+4014481D01*
X-3666879Y+3803692D01*
X-3666879Y+2358417D01*
X-3814215Y+2211081D01*
D13*
X-4181302Y+3227081D02*
X-5328691Y+3227081D01*
X-5593504Y+2962268D01*
X-6600068Y+2962268D01*
X-6623659Y+2985859D01*
X-6975302Y+3337502D01*
X-6975302Y+4243081D01*
D11*
X-7229302Y+4243081D02*
X-7229302Y+4440526D01*
X-7150532Y+4519296D01*
X-6760597Y+4519296D01*
X-6566703Y+4519296D01*
X-6560758Y+4513351D01*
X-6560749Y+4513342D01*
X-6222607Y+4175200D01*
X-6222607Y+3268955D01*
X-6096787Y+3143135D01*
X-6057467Y+3143135D01*
X-5727188Y+3143135D01*
X-5719325Y+3150998D01*
X-5389242Y+3481081D01*
X-4181302Y+3481081D01*
X-2914577Y+6443955D02*
X-446196Y+6443955D01*
X-290022Y+6287781D01*
D12*
X-446196Y+6443955D02*
X-465282Y+6463041D01*
X-635462Y+6463041D01*
X-5794202Y+6463041D01*
X-5832302Y+6424941D01*
D11*
X-4181302Y+2211081D02*
X-4054302Y+2211081D01*
X-3879042Y+2211081D01*
X-3814215Y+2211081D02*
X-3879042Y+2211081D01*
D15*
X+7253778Y+6107441D02*
X+3809489Y+6107441D01*
X+3534594Y+5832546D01*
X+3534594Y+4564149D01*
X+3518866Y+4548421D01*
D10*
X+1384393Y+4758048D02*
X+1384393Y+5079150D01*
X+1378757Y+5084786D01*
D13*
X+4090884Y+4455704D02*
X+4098941Y+4455704D01*
X+4099653Y+4456416D01*
D15*
X+4090884Y+4455704D02*
X+4109813Y+4446256D01*
D13*
X+4109489Y+4455405D02*
X+4109788Y+4455704D01*
X+4109489Y+4455704D01*
X+4109489Y+4455405D02*
X+4109489Y+4455704D01*
X+4099653Y+4456416D02*
X+4100365Y+4455704D01*
X+4109489Y+4446580D01*
X+4109813Y+4446256D01*
X+4109489Y+4455704D02*
X+4100365Y+4455704D01*
X+4090884Y+4455704D01*
X+4109489Y+4377048D02*
X+4109489Y+4446580D01*
X+4109489Y+4455405D01*
D10*
X+4099653Y+5472416D02*
X+4602671Y+5472416D01*
X+4683298Y+5391789D01*
X+4683298Y+4888143D01*
X+4686393Y+4885048D01*
D13*
X+4099653Y+4456416D02*
X+4007648Y+4548421D01*
X+3518866Y+4548421D01*
X+3155267Y+4548421D01*
X+3141914Y+4561774D01*
X+2618902Y+5084786D01*
X+2394757Y+5084786D01*
X+2618902Y+5084786D02*
X+3141914Y+4561774D01*
X+3155267Y+4548421D01*
D16*
X+4686393Y+4631048D02*
X+4454486Y+4631048D01*
X+4001109Y+5084425D01*
X+3750416Y+5084425D01*
X+3746593Y+5088248D01*
D11*
X-2763520Y+1706880D02*
X-3415503Y+1706880D01*
X-3419302Y+1703081D01*
D13*
X-2743200Y+2984500D02*
X-3407883Y+2984500D01*
X-3419302Y+2973081D01*
X-2410602Y+2973081D02*
X-2731781Y+2973081D01*
X-2743200Y+2984500D01*
D11*
X-5893262Y+3473461D02*
X-5893262Y+5011882D01*
X-6027420Y+5146040D01*
X-6477819Y+5146040D01*
X-6514638Y+5182859D01*
X-1895302Y+5386081D02*
X-1895302Y+5615940D01*
X-1945390Y+5633720D01*
X-2960077Y+5633720D01*
X-3193953Y+5399844D01*
X-3193953Y+4052828D01*
X-3155606Y+4014481D01*
X-2451100Y+2252980D02*
X-2451100Y+2586344D01*
X-2589373Y+2724617D01*
X-3413766Y+2724617D01*
X-3419302Y+2719081D01*
X-1435100Y+2252980D02*
X-1435100Y+1902460D01*
X-1043412Y+1894839D02*
X-1366519Y+1894839D01*
X-1369060Y+1897380D01*
X-1435100Y+1902460D01*
X-2148840Y+1559560D02*
X-2148840Y+2158755D01*
X-2238452Y+2248367D01*
X-2446487Y+2248367D01*
X-2451100Y+2252980D01*
X-1435100Y+886460D02*
X-1435100Y+1428305D01*
X-1570031Y+1563236D01*
X-1891164Y+1563236D01*
X-1894840Y+1559560D01*
D17*
X-5054600Y+2186940D02*
X-4205443Y+2186940D01*
X-4181302Y+2211081D01*
D16*
X-2740660Y+4838700D02*
X-2562674Y+4838700D01*
X-2432698Y+4708724D01*
X-2432698Y+4011177D01*
X-2410602Y+3989081D01*
X-1895302Y+5386081D02*
X-1895302Y+4924062D01*
X-1866900Y+4895660D01*
D11*
X-2403302Y+5386081D02*
X-2871524Y+5386081D01*
X-2898850Y+5358755D01*
X-2898850Y+4996890D01*
X-2740660Y+4838700D01*
X+1892393Y+1583048D02*
X+1892393Y+914751D01*
X+1806527Y+828885D01*
X+1646230Y+828885D01*
X+1638393Y+821048D01*
D16*
X-3419302Y+433081D02*
X-2975361Y+433081D01*
X-2863165Y+320885D01*
X-2863165Y+183465D01*
X-2862580Y+182880D01*
D11*
X-2148840Y+1559560D02*
X-2156460Y+1559560D01*
X-2156460Y+1279869D01*
X-2321269Y+1115060D01*
X-2809240Y+1115060D01*
X-1793240Y+1115060D02*
X-1455420Y+1115060D01*
X-1455420Y+886460D01*
X-3419302Y+687081D02*
X-2521994Y+687081D01*
X-2374736Y+539823D01*
X-2374736Y+203364D01*
X-2374900Y+203200D01*
D12*
X-1043412Y+878839D02*
X-723899Y+878839D01*
X-576580Y+731520D01*
X-243840Y+731520D02*
X-576580Y+731520D01*
D16*
X-243840Y-284480D02*
X+281940Y-284480D01*
D11*
X-4993640Y-205740D02*
X-4993640Y-117865D01*
X-4942771Y-66996D01*
X-4215444Y-66996D01*
X-4211320Y-71120D01*
X-4739640Y-205740D02*
X-4739640Y-503155D01*
X-4655371Y-587424D01*
X-4219624Y-587424D01*
X-4211320Y-579120D01*
X-3449320Y-579120D02*
X-3264436Y-579120D01*
X-3187297Y-501981D01*
X-2969796Y-284480D01*
X-576580Y-284480D01*
D18*
X-3449320Y-71120D02*
X-3610871Y-71120D01*
X-3731028Y-191277D01*
X-3731028Y-672868D01*
X-3668888Y-735008D01*
X-3171762Y-735008D01*
X-2969805Y-533051D01*
X-2022159Y-533051D01*
X-1913413Y-641797D01*
X-1913413Y-804387D01*
X-1905000Y-812800D01*
D11*
X-4993640Y+556260D02*
X-4993640Y+348303D01*
X-4898755Y+253418D01*
X-4005483Y+253418D01*
X-3896737Y+362164D01*
X-3896737Y+1776348D01*
X-3835862Y+1837223D01*
X-3694840Y+1696201D01*
X-3546302Y+1696201D01*
X-3419302Y+1703081D01*
X-3879042Y+2211081D02*
X-3835862Y+2167901D01*
X-3835862Y+1837223D01*
X-3546302Y+1696201D02*
X-3426182Y+1696201D01*
X-3419302Y+1703081D01*
D18*
X-3419302Y+687081D02*
X-3633961Y+687081D01*
X-3710315Y+610727D01*
X-3710315Y+300023D01*
X-3920039Y+90299D01*
X-5061874Y+90299D01*
X-5155085Y+183510D01*
X-5155085Y+649566D01*
X-5077410Y+727241D01*
X-4774474Y+727241D01*
X-4743403Y+696170D01*
X-4743403Y+560023D01*
X-4739640Y+556260D01*
D15*
X+281940Y-1046480D02*
X+281940Y-1196166D01*
X+276685Y-1201421D01*
X-2845165Y-1201421D01*
X-2861059Y-1185527D01*
X-2861059Y-834641D01*
X-2862580Y-833120D01*
D10*
X+605161Y+5993611D02*
X+605161Y+6602748D01*
X+868681Y+6866268D01*
X+8488681Y+6866268D01*
X+9250681Y+6104268D01*
X+9250681Y+5889345D01*
X+9270219Y+5869807D01*
X+8298695Y+5869807D01*
X+8277719Y+5848831D01*
X+9406260Y+5538861D02*
X+9406260Y+5733766D01*
X+9270219Y+5869807D01*
D13*
X+3327493Y+5088248D02*
X+3327493Y+5892707D01*
X+3312160Y+5908040D01*
X+3722662Y+6318542D01*
X+3722662Y+6357229D01*
X+7630353Y+6357229D01*
X+7845277Y+6142305D01*
X+7845277Y+5184923D01*
X+7863840Y+5166360D01*
X+8351520Y+5166360D01*
X+8361679Y+5176519D01*
X+8763585Y+4774613D01*
X+9023012Y+4774613D01*
X+9025260Y+4776861D01*
D19*
X-1917607Y+2726048D02*
X-1917607Y+2105506D01*
X-1509926Y+1697825D01*
X-762384Y+1697825D01*
X-647607Y+1583048D01*
D17*
X-6512120Y+5408941D02*
X-6514638Y+5411459D01*
D13*
X-6515562Y+5408941D02*
X-6512120Y+5408941D01*
D16*
X-5832302Y+5408941D02*
X-6419388Y+5408941D01*
X-6514638Y+5411459D01*
D11*
X+789940Y-284480D02*
X+789940Y-649766D01*
X+1017781Y-877607D01*
X+1725967Y-877607D01*
X+1729740Y-881380D01*
D14*
X+8255000Y-187960D02*
X+7962900Y-175260D01*
X+1788160Y-175260D01*
X+1729740Y-177800D01*
X+1729740Y-373380D01*
D10*
X-1435100Y+886460D02*
X-1455420Y+886460D01*
X-1464524Y+886460D01*
X-1464524Y+215900D01*
X-1426424Y+177800D01*
D70*
X-109220Y+185420D02*
X+1005352Y+185420D01*
X+1199210Y-8438D01*
X+1199210Y-531190D01*
X+1300480Y-632460D01*
X+1490980Y-632460D01*
X+1501140Y-632460D01*
X+1666866Y-632460D01*
D17*
X+1724660Y-632460D01*
X+1729740Y-627380D01*
D70*
X+1300480Y-632460D02*
X+1501140Y-632460D01*
X+1648750Y-630314D01*
X+1490980Y-632460D01*
X+1539223Y-631434D01*
X-918424Y+177800D02*
X-116840Y+177800D01*
X-109220Y+185420D01*
X-243840Y+320040D01*
X-243840Y+369983D01*
X-243840Y+731520D01*
X-243840Y+369983D01*
X-243840Y+320040D01*
X-1426424Y+177800D02*
X-1879600Y+177800D01*
X-1905000Y+203200D01*
D13*
X+2057493Y+3361048D02*
X+2057493Y+3361048D01*
X+2057493Y+3361048D01*
X+25493Y+4123048D02*
X+25493Y+4123048D01*
X+25493Y+4123048D01*
D19*
X-647607Y+1583048D02*
X-627853Y+1650046D01*
X-750880Y+1686321D01*
X-714605Y+1563294D01*
X-647607Y+1583048D01*
D10*
X-647607Y+2599048D02*
X-647607Y+2599048D01*
X-647607Y+2599048D01*
X-393607Y+2599048D02*
X-393607Y+2599048D01*
X-393607Y+2599048D01*
D13*
X-393607Y+1583048D02*
X-381038Y+1584862D01*
X-393607Y+1671948D01*
X-406176Y+1584862D01*
X-393607Y+1583048D01*
D10*
X-139607Y+2599048D02*
X-139607Y+2599048D01*
X-139607Y+2599048D01*
X+1638393Y+2599048D02*
X+1638393Y+2599048D01*
X+1638393Y+2599048D01*
X+1638393Y+1583048D02*
X+1638393Y+1583048D01*
X+1638393Y+1583048D01*
D11*
X+980393Y+1710048D02*
X+981542Y+1711300D01*
X+924143Y+1763941D01*
X+979191Y+1708847D01*
X+980393Y+1710048D01*
X+1638393Y+821048D02*
X+1653526Y+786083D01*
X+1752424Y+828885D01*
X+1648600Y+857755D01*
X+1638393Y+821048D01*
D10*
X+368393Y+1583048D02*
X+368393Y+1583048D01*
X+368393Y+1583048D01*
X+368393Y+1583048D01*
X+368393Y+1583048D01*
X+368393Y+2599048D02*
X+368393Y+2599048D01*
X+368393Y+2599048D01*
X+622393Y+2599048D02*
X+622393Y+2599048D01*
X+622393Y+2599048D01*
X+622393Y+2599048D01*
X+622393Y+2599048D01*
D11*
X+622393Y+1583048D02*
X+658314Y+1595747D01*
X+622393Y+1697348D01*
X+586472Y+1595748D01*
X+622393Y+1583048D01*
X+1892393Y+1583048D02*
X+1856472Y+1570348D01*
X+1892393Y+1468748D01*
X+1928314Y+1570349D01*
X+1892393Y+1583048D01*
D10*
X+1892393Y+1583048D01*
X+1892393Y+1583048D01*
X+1892393Y+2599048D02*
X+1892393Y+2599048D01*
X+1892393Y+2599048D01*
D13*
X+2146393Y+2599048D02*
X+2158962Y+2600862D01*
X+2146393Y+2687948D01*
X+2133824Y+2600862D01*
X+2146393Y+2599048D01*
D10*
X+2146393Y+1583048D02*
X+2146393Y+1583048D01*
X+2146393Y+1583048D01*
X+2654393Y+1583048D02*
X+2654393Y+1583048D01*
X+2654393Y+1583048D01*
X+2654393Y+2599048D02*
X+2654393Y+2599048D01*
X+2654393Y+2599048D01*
D13*
X+2394757Y+5084786D02*
X+2396571Y+5072217D01*
X+2483657Y+5084786D01*
X+2396571Y+5097355D01*
X+2394757Y+5084786D01*
D10*
X+1378757Y+5084786D02*
X+1378757Y+5084786D01*
X+1378757Y+5084786D01*
X+1384393Y+4758048D02*
X+1384393Y+4758048D01*
X+1384393Y+4758048D01*
X+1384393Y+4758048D01*
X+1384393Y+4758048D01*
X+2908393Y+948048D02*
X+2906579Y+960617D01*
X+2819493Y+948048D01*
X+2906579Y+935479D01*
X+2908393Y+948048D01*
X+2920962Y+949862D01*
X+2908393Y+1036948D01*
X+2895824Y+949862D01*
X+2908393Y+948048D01*
X+3416393Y+948048D02*
X+3418207Y+935479D01*
X+3505293Y+948048D01*
X+3418207Y+960617D01*
X+3416393Y+948048D01*
X+3162393Y+694048D02*
X+3149824Y+692234D01*
X+3162393Y+605148D01*
X+3174962Y+692234D01*
X+3162393Y+694048D01*
X+2781393Y+2980048D02*
X+2771222Y+2987653D01*
X+2718532Y+2917187D01*
X+2788998Y+2969877D01*
X+2781393Y+2980048D01*
X+3289393Y+2980048D02*
X+3279222Y+2987653D01*
X+3226532Y+2917187D01*
X+3296998Y+2969877D01*
X+3289393Y+2980048D01*
X+3301962Y+2981862D01*
X+3289393Y+3068948D01*
X+3276824Y+2981862D01*
X+3289393Y+2980048D01*
X+3035393Y+2726048D02*
X+3045564Y+2718443D01*
X+3098254Y+2788909D01*
X+3027788Y+2736219D01*
X+3035393Y+2726048D01*
X+605161Y+5993611D02*
X+605161Y+5993611D01*
X+605161Y+5993611D01*
X+605161Y+4977611D02*
X+605161Y+4977611D01*
X+605161Y+4977611D01*
X+368393Y+4758048D02*
X+368393Y+4758048D01*
X+368393Y+4758048D01*
X+351161Y+5485611D02*
X+351161Y+5485611D01*
X+351161Y+5485611D01*
X+2781393Y+3488048D02*
X+2781393Y+3488048D01*
X+2781393Y+3488048D01*
X+2781393Y+3996048D02*
X+2781393Y+3996048D01*
X+2781393Y+3996048D01*
D13*
X-1133302Y+4243081D02*
X-1145871Y+4241267D01*
X-1133302Y+4154181D01*
X-1120733Y+4241267D01*
X-1133302Y+4243081D01*
X-1120658Y+4244266D01*
X-1128869Y+4331870D01*
X-1145765Y+4245519D01*
X-1133302Y+4243081D01*
D19*
X-1917607Y+2726048D02*
X-1978950Y+2692642D01*
X-1917607Y+2579998D01*
X-1856264Y+2692642D01*
X-1917607Y+2726048D01*
D13*
X-1409607Y+2726048D02*
X-1397121Y+2728364D01*
X-1413172Y+2814876D01*
X-1422239Y+2727356D01*
X-1409607Y+2726048D01*
X-1417212Y+2715877D01*
X-1346746Y+2663187D01*
X-1399436Y+2733653D01*
X-1409607Y+2726048D01*
D10*
X+2908393Y+2091048D02*
X+2908393Y+2091048D01*
X+2908393Y+2091048D01*
X+3924393Y+2091048D02*
X+3924393Y+2091048D01*
X+3924393Y+2091048D01*
D13*
X+3327493Y+5088248D02*
X+3363414Y+5100947D01*
X+3327493Y+5202548D01*
X+3291572Y+5100948D01*
X+3327493Y+5088248D01*
D10*
X+3327493Y+4072248D02*
X+3333843Y+4047655D01*
X+3429093Y+4072248D01*
X+3333843Y+4096841D01*
X+3327493Y+4072248D01*
D16*
X+3746593Y+5088248D02*
X+3765502Y+5041099D01*
X+3873535Y+5084425D01*
X+3768305Y+5134174D01*
X+3746593Y+5088248D01*
D10*
X+3746593Y+4072248D02*
X+3740244Y+4096841D01*
X+3644993Y+4072248D01*
X+3740243Y+4047655D01*
X+3746593Y+4072248D01*
D13*
X+114393Y+1710048D02*
X+126962Y+1711862D01*
X+114393Y+1798948D01*
X+101824Y+1711862D01*
X+114393Y+1710048D01*
D10*
X+114393Y+694048D02*
X+114393Y+694048D01*
X+114393Y+694048D01*
D13*
X-1409607Y+5393048D02*
X-1385014Y+5399397D01*
X-1409607Y+5494648D01*
X-1434200Y+5399398D01*
X-1409607Y+5393048D01*
D12*
X-901607Y+5393048D02*
X-901607Y+5393048D01*
X-901607Y+5393048D01*
D13*
X+368393Y+5739611D02*
X+370207Y+5727042D01*
X+457293Y+5739611D01*
X+370207Y+5752180D01*
X+368393Y+5739611D01*
X+2400393Y+5647048D02*
X+2420180Y+5662972D01*
X+2358505Y+5739611D01*
X+2375370Y+5642694D01*
X+2400393Y+5647048D01*
X+9406260Y+2871861D02*
X+9418736Y+2874234D01*
X+9402291Y+2960672D01*
X+9393622Y+2873112D01*
X+9406260Y+2871861D01*
X+9406260Y+3887861D02*
X+9408074Y+3875292D01*
X+9495160Y+3887861D01*
X+9408074Y+3900430D01*
X+9406260Y+3887861D01*
X+9025260Y+3379861D02*
X+9031610Y+3355268D01*
X+9126860Y+3379861D01*
X+9031610Y+3404454D01*
X+9025260Y+3379861D01*
X+9025260Y+2236861D02*
X+9031610Y+2212268D01*
X+9126860Y+2236861D01*
X+9031610Y+2261454D01*
X+9025260Y+2236861D01*
D10*
X+9025260Y+4522861D02*
X+9027074Y+4510292D01*
X+9114160Y+4522861D01*
X+9027074Y+4535430D01*
X+9025260Y+4522861D01*
D13*
X+9025260Y+4776861D02*
X+9018368Y+4801307D01*
X+8923685Y+4774613D01*
X+9019456Y+4752134D01*
X+9025260Y+4776861D01*
D10*
X+4686393Y+4885048D02*
X+4698891Y+4887298D01*
X+4683298Y+4973894D01*
X+4673768Y+4886423D01*
X+4686393Y+4885048D01*
D16*
X+4686393Y+4631048D02*
X+4673694Y+4666969D01*
X+4572093Y+4631048D01*
X+4673693Y+4595127D01*
X+4686393Y+4631048D01*
D15*
X+7253778Y+6107441D02*
X+7233458Y+6153999D01*
X+7126779Y+6107441D01*
X+7233458Y+6060883D01*
X+7253778Y+6107441D01*
D10*
X+4099653Y+5472416D02*
X+4099653Y+5472416D01*
X+4099653Y+5472416D01*
D13*
X+4099653Y+4456416D02*
X+4107258Y+4466587D01*
X+4036791Y+4519278D01*
X+4089482Y+4448811D01*
X+4099653Y+4456416D01*
X+9406260Y+2236861D02*
X+9404446Y+2249430D01*
X+9317360Y+2236861D01*
X+9404446Y+2224292D01*
X+9406260Y+2236861D01*
X+9406260Y+1220861D02*
X+9408074Y+1208292D01*
X+9495160Y+1220861D01*
X+9408074Y+1233430D01*
X+9406260Y+1220861D01*
D10*
X+9406260Y+4522861D02*
X+9406260Y+4522861D01*
X+9406260Y+4522861D01*
D13*
X+9406260Y+5538861D02*
X+9408074Y+5526292D01*
X+9495160Y+5538861D01*
X+9408074Y+5551430D01*
X+9406260Y+5538861D01*
D10*
X+9406260Y+5538861D01*
X+9406260Y+5538861D01*
X+4305393Y+4123048D02*
X+4305393Y+4123048D01*
X+4305393Y+4123048D01*
D13*
X+4305393Y+3107048D02*
X+4303579Y+3119617D01*
X+4216493Y+3107048D01*
X+4303579Y+3094479D01*
X+4305393Y+3107048D01*
D10*
X+4305393Y+2472048D02*
X+4305393Y+2472048D01*
X+4305393Y+2472048D01*
D13*
X+4305393Y+1456048D02*
X+4317962Y+1457862D01*
X+4305393Y+1544947D01*
X+4292824Y+1457862D01*
X+4305393Y+1456048D01*
D10*
X+4686393Y+3742048D02*
X+4699085Y+3742489D01*
X+4696026Y+3830424D01*
X+4674094Y+3745213D01*
X+4686393Y+3742048D01*
X+4669161Y+2564611D02*
X+4672411Y+2576888D01*
X+4587353Y+2599405D01*
X+4662572Y+2553755D01*
X+4669161Y+2564611D01*
D13*
X+9008028Y+1059424D02*
X+9014378Y+1034831D01*
X+9109628Y+1059424D01*
X+9014378Y+1084017D01*
X+9008028Y+1059424D01*
X+4669161Y+1421611D02*
X+4662812Y+1446204D01*
X+4567561Y+1421611D01*
X+4662811Y+1397018D01*
X+4669161Y+1421611D01*
X+9643028Y+678424D02*
X+9650633Y+688595D01*
X+9580167Y+741285D01*
X+9632857Y+670819D01*
X+9643028Y+678424D01*
X+9643028Y+1694424D02*
X+9644842Y+1681855D01*
X+9731928Y+1694424D01*
X+9644842Y+1706993D01*
X+9643028Y+1694424D01*
X+4034161Y+786611D02*
X+4046675Y+788773D01*
X+4031692Y+875476D01*
X+4021546Y+788075D01*
X+4034161Y+786611D01*
X+4034161Y+1802611D02*
X+4035975Y+1790042D01*
X+4123061Y+1802611D01*
X+4035975Y+1815180D01*
X+4034161Y+1802611D01*
D11*
X-4181302Y+3735081D02*
X-4156215Y+3739054D01*
X-4171606Y+3836217D01*
X-4205177Y+3743749D01*
X-4181302Y+3735081D01*
X-4181302Y+3481081D02*
X-4187651Y+3505674D01*
X-4282902Y+3481081D01*
X-4187652Y+3456488D01*
X-4181302Y+3481081D01*
D13*
X-4181302Y+3227081D02*
X-4181302Y+3227081D01*
X-4181302Y+3227081D01*
X-4181302Y+2973081D02*
X-4181302Y+2973081D01*
X-4181302Y+2973081D01*
D11*
X-4181302Y+2719081D02*
X-4174952Y+2694488D01*
X-4079702Y+2719081D01*
X-4174952Y+2743674D01*
X-4181302Y+2719081D01*
D13*
X-4181302Y+2465081D02*
X-4181302Y+2465081D01*
X-4181302Y+2465081D01*
D11*
X-4181302Y+2211081D02*
X-4174952Y+2186488D01*
X-4079702Y+2211081D01*
X-4174952Y+2235674D01*
X-4181302Y+2211081D01*
D13*
X-4181302Y+2211081D01*
X-4181302Y+2211081D01*
D17*
X-4219505Y+2261803D01*
X-4318900Y+2186940D01*
X-4199957Y+2150384D01*
X-4181302Y+2211081D01*
D13*
X-4181302Y+1703081D02*
X-4181302Y+1703081D01*
X-4181302Y+1703081D01*
X-4181302Y+1449081D02*
X-4181302Y+1449081D01*
X-4181302Y+1449081D01*
D16*
X-3419302Y+433081D02*
X-3417488Y+420512D01*
X-3330402Y+433081D01*
X-3417488Y+445650D01*
X-3419302Y+433081D01*
D11*
X-3419302Y+687081D02*
X-3412952Y+662488D01*
X-3317702Y+687081D01*
X-3412952Y+711674D01*
X-3419302Y+687081D01*
D18*
X-3439622Y+733639D01*
X-3546302Y+687081D01*
X-3439622Y+640523D01*
X-3419302Y+687081D01*
D11*
X-3419302Y+1703081D02*
X-3412037Y+1678743D01*
X-3317774Y+1706880D01*
X-3413877Y+1727894D01*
X-3419302Y+1703081D01*
X-3426973Y+1727294D01*
X-3520753Y+1697586D01*
X-3424312Y+1678181D01*
X-3419302Y+1703081D01*
X-3427302Y+1727187D01*
X-3520668Y+1696201D01*
X-3423972Y+1678115D01*
X-3419302Y+1703081D01*
X-3419302Y+2719081D02*
X-3411622Y+2694871D01*
X-3317853Y+2724617D01*
X-3414302Y+2743983D01*
X-3419302Y+2719081D01*
D13*
X-3419302Y+2973081D02*
X-3419302Y+2973081D01*
X-3419302Y+2973081D01*
X-5705302Y+1730081D02*
X-5717871Y+1728267D01*
X-5705302Y+1641181D01*
X-5692733Y+1728267D01*
X-5705302Y+1730081D01*
X-5451302Y+460081D02*
X-5439968Y+465809D01*
X-5479655Y+544339D01*
X-5463793Y+457792D01*
X-5451302Y+460081D01*
X-5578302Y+1349081D02*
X-5565402Y+1370961D01*
X-5650144Y+1420923D01*
X-5600182Y+1336181D01*
X-5578302Y+1349081D01*
X-5572195Y+1324427D01*
X-5476707Y+1348081D01*
X-5571711Y+1373610D01*
X-5578302Y+1349081D01*
X-5578302Y+841081D02*
X-5602895Y+834731D01*
X-5578302Y+739481D01*
X-5553709Y+834732D01*
X-5578302Y+841081D01*
X-5571952Y+816488D01*
X-5476702Y+841081D01*
X-5571952Y+865674D01*
X-5578302Y+841081D01*
D11*
X-2403302Y+5386081D02*
X-2423622Y+5432639D01*
X-2530302Y+5386081D01*
X-2423622Y+5339523D01*
X-2403302Y+5386081D01*
D16*
X-1895302Y+5386081D02*
X-1931223Y+5373381D01*
X-1895302Y+5271781D01*
X-1859381Y+5373382D01*
X-1895302Y+5386081D01*
D11*
X-1848744Y+5406401D01*
X-1895302Y+5513080D01*
X-1941860Y+5406401D01*
X-1895302Y+5386081D01*
X-2740660Y+4838700D02*
X-2737226Y+4842604D01*
X-2798218Y+4896258D01*
X-2744564Y+4835266D01*
X-2740660Y+4838700D01*
D13*
X-7991302Y+4243081D02*
X-7991302Y+4243081D01*
X-7991302Y+4243081D01*
X-7737302Y+4243081D02*
X-7737302Y+4243081D01*
X-7737302Y+4243081D01*
D11*
X-7229302Y+4243081D02*
X-7204709Y+4249430D01*
X-7229302Y+4344681D01*
X-7253895Y+4249431D01*
X-7229302Y+4243081D01*
D13*
X-6975302Y+4243081D02*
X-6975302Y+4243081D01*
X-6975302Y+4243081D01*
D16*
X-2410602Y+3989081D02*
X-2387979Y+4000627D01*
X-2432698Y+4088249D01*
X-2435987Y+3989930D01*
X-2410602Y+3989081D01*
D13*
X-2410602Y+2973081D02*
X-2412416Y+2985650D01*
X-2499502Y+2973081D01*
X-2412416Y+2960512D01*
X-2410602Y+2973081D01*
X-6515562Y+6150621D02*
X-6509212Y+6126028D01*
X-6413962Y+6150621D01*
X-6509212Y+6175214D01*
X-6515562Y+6150621D01*
X-6515562Y+6404621D02*
X-6509212Y+6380028D01*
X-6413962Y+6404621D01*
X-6509212Y+6429214D01*
X-6515562Y+6404621D01*
X-6515562Y+6658621D02*
X-6509212Y+6634028D01*
X-6413962Y+6658621D01*
X-6509212Y+6683214D01*
X-6515562Y+6658621D01*
D16*
X-6514638Y+5411459D02*
X-6506011Y+5380904D01*
X-6406718Y+5408941D01*
X-6504595Y+5441578D01*
X-6514638Y+5411459D01*
D11*
X-6514638Y+5182859D02*
X-6511654Y+5138510D01*
X-6399744Y+5146040D01*
X-6486433Y+5217213D01*
X-6514638Y+5182859D01*
D13*
X-5832302Y+6424941D02*
X-5824697Y+6435112D01*
X-5895163Y+6487802D01*
X-5842473Y+6417336D01*
X-5832302Y+6424941D01*
D16*
X-5832302Y+5408941D02*
X-5838651Y+5433534D01*
X-5933901Y+5408941D01*
X-5838652Y+5384348D01*
X-5832302Y+5408941D01*
D13*
X-5819733Y+5410755D01*
X-5832302Y+5497841D01*
X-5844871Y+5410755D01*
X-5832302Y+5408941D01*
X-5893262Y+2457461D02*
X-5890377Y+2445094D01*
X-5804690Y+2465081D01*
X-5892532Y+2470139D01*
X-5893262Y+2457461D01*
D11*
X-5893262Y+3473461D02*
X-5857341Y+3486160D01*
X-5893262Y+3587761D01*
X-5929183Y+3486161D01*
X-5893262Y+3473461D01*
X-4171606Y+4014481D02*
X-4207527Y+4001781D01*
X-4171606Y+3900181D01*
X-4135685Y+4001782D01*
X-4171606Y+4014481D01*
X-3155606Y+4014481D02*
X-3168305Y+4050402D01*
X-3269906Y+4014481D01*
X-3168306Y+3978560D01*
X-3155606Y+4014481D01*
X-3126028Y+4038496D01*
X-3193953Y+4122156D01*
X-3193705Y+4014394D01*
X-3155606Y+4014481D01*
X-290022Y+6287781D02*
X-272118Y+6387790D01*
X-415745Y+6413504D01*
X-390031Y+6269877D01*
X-290022Y+6287781D01*
X-5085542Y+4156721D02*
X-4994015Y+4112617D01*
X-4930674Y+4244063D01*
X-5075932Y+4257865D01*
X-5085542Y+4156721D01*
D13*
X-2743200Y+2984500D02*
X-2745014Y+2997069D01*
X-2832099Y+2984500D01*
X-2745014Y+2971931D01*
X-2743200Y+2984500D01*
X-2743016Y+2971802D01*
X-2655037Y+2973081D01*
X-2739787Y+2996732D01*
X-2743200Y+2984500D01*
D11*
X-2763520Y+1706880D02*
X-2783840Y+1753438D01*
X-2890520Y+1706880D01*
X-2783840Y+1660322D01*
X-2763520Y+1706880D01*
D17*
X-5054600Y+2186940D02*
X-5006731Y+2112029D01*
X-4889500Y+2186940D01*
X-5006731Y+2261851D01*
X-5054600Y+2186940D01*
D11*
X-2148840Y+1559560D02*
X-2102282Y+1579880D01*
X-2148840Y+1686560D01*
X-2195398Y+1579880D01*
X-2148840Y+1559560D01*
X-2196534Y+1542071D01*
X-2156460Y+1432789D01*
X-2103585Y+1536484D01*
X-2148840Y+1559560D01*
X-1894840Y+1559560D02*
X-1873181Y+1513609D01*
X-1767894Y+1563236D01*
X-1875877Y+1606687D01*
X-1894840Y+1559560D01*
X-1793240Y+1115060D02*
X-1764377Y+1058500D01*
X-1653540Y+1115060D01*
X-1764377Y+1171620D01*
X-1793240Y+1115060D01*
X-2809240Y+1115060D02*
X-2780377Y+1058500D01*
X-2669540Y+1115060D01*
X-2780377Y+1171620D01*
X-2809240Y+1115060D01*
X-1435100Y+2252980D02*
X-1491660Y+2224117D01*
X-1435100Y+2113280D01*
X-1378540Y+2224117D01*
X-1435100Y+2252980D01*
X-2451100Y+2252980D02*
X-2394540Y+2281843D01*
X-2451100Y+2392680D01*
X-2507660Y+2281843D01*
X-2451100Y+2252980D01*
X-2424120Y+2195497D01*
X-2311477Y+2248367D01*
X-2420385Y+2308556D01*
X-2451100Y+2252980D01*
D70*
X-1426424Y+177800D02*
X-1439123Y+213721D01*
X-1540723Y+177800D01*
X-1439124Y+141879D01*
X-1426424Y+177800D01*
D10*
X-1379880Y+220995D01*
X-1464524Y+312204D01*
X-1488712Y+190143D01*
X-1426424Y+177800D01*
D70*
X-918424Y+177800D02*
X-905725Y+141879D01*
X-804124Y+177800D01*
X-905725Y+213721D01*
X-918424Y+177800D01*
D11*
X-1435100Y+886460D02*
X-1399179Y+899159D01*
X-1435100Y+1000760D01*
X-1471021Y+899160D01*
X-1435100Y+886460D01*
X-1435100Y+1902460D02*
X-1399179Y+1915159D01*
X-1435100Y+2016760D01*
X-1471021Y+1915160D01*
X-1435100Y+1902460D01*
X-1424824Y+1865773D01*
X-1321055Y+1894839D01*
X-1420034Y+1937454D01*
X-1435100Y+1902460D01*
X-1043412Y+1894839D02*
X-1056111Y+1930760D01*
X-1157712Y+1894839D01*
X-1056112Y+1858918D01*
X-1043412Y+1894839D01*
D16*
X-1866900Y+4895660D02*
X-1866437Y+4895848D01*
X-1895302Y+4966907D01*
X-1867365Y+4895478D01*
X-1866900Y+4895660D01*
D11*
X-4211320Y-71120D02*
X-4212549Y-58480D01*
X-4300124Y-66996D01*
X-4213715Y-83592D01*
X-4211320Y-71120D01*
X-4211320Y-579120D02*
X-4214300Y-566775D01*
X-4299831Y-587424D01*
X-4211952Y-591804D01*
X-4211320Y-579120D01*
D18*
X-3449320Y-71120D02*
X-3462019Y-35199D01*
X-3563620Y-71120D01*
X-3462020Y-107041D01*
X-3449320Y-71120D01*
D11*
X-3449320Y-579120D02*
X-3447506Y-591689D01*
X-3360420Y-579120D01*
X-3447506Y-566551D01*
X-3449320Y-579120D01*
D16*
X-243840Y-284480D02*
X-237490Y-309073D01*
X-142240Y-284480D01*
X-237490Y-259887D01*
X-243840Y-284480D01*
X-2862580Y+182880D02*
X-2838024Y+189371D01*
X-2863165Y+284478D01*
X-2887209Y+189088D01*
X-2862580Y+182880D01*
D15*
X-2862580Y-833120D02*
X-2908892Y-853996D01*
X-2861059Y-960110D01*
X-2815782Y-852880D01*
X-2862580Y-833120D01*
D11*
X-576580Y-284480D02*
X-589279Y-248559D01*
X-690880Y-284480D01*
X-589280Y-320401D01*
X-576580Y-284480D01*
D18*
X-1905000Y-812800D02*
X-1850280Y-780583D01*
X-1913413Y-673354D01*
X-1963196Y-787395D01*
X-1905000Y-812800D01*
D11*
X-2374900Y+203200D02*
X-2338961Y+215848D01*
X-2374736Y+317500D01*
X-2410802Y+215951D01*
X-2374900Y+203200D01*
D15*
X+281940Y-1046480D02*
X+257347Y-1052830D01*
X+281940Y-1148080D01*
X+306533Y-1052829D01*
X+281940Y-1046480D01*
D11*
X+789940Y-284480D02*
X+777371Y-286294D01*
X+789940Y-373380D01*
X+802509Y-286294D01*
X+789940Y-284480D01*
D16*
X+281940Y-284480D02*
X+281940Y-284480D01*
X+281940Y-284480D01*
D11*
X+1729740Y-881380D02*
X+1710813Y-834238D01*
X+1602797Y-877607D01*
X+1708046Y-927314D01*
X+1729740Y-881380D01*
X-4993640Y-205740D02*
X-4984494Y-204749D01*
X-4993640Y-120340D01*
X-5002786Y-204749D01*
X-4993640Y-205740D01*
X-4739640Y-205740D02*
X-4748786Y-206731D01*
X-4739640Y-291140D01*
X-4730494Y-206731D01*
X-4739640Y-205740D01*
D18*
X-4739640Y+556260D02*
X-4707157Y+568174D01*
X-4743403Y+666996D01*
X-4772857Y+565942D01*
X-4739640Y+556260D01*
D11*
X-4993640Y+556260D02*
X-5002786Y+555269D01*
X-4993640Y+470860D01*
X-4984494Y+555269D01*
X-4993640Y+556260D01*
D71*
X-2898850Y+5358755D03*
X-2914577Y+6443955D03*
D15*
X+10097148Y+7000087D02*
X+9893815Y+7203420D01*
X+9536101Y+7203420D01*
X+9283159Y+6950478D01*
X+9283159Y+6592764D01*
X+9536101Y+6339822D01*
X+9893815Y+6339822D01*
X+10097148Y+6543155D01*
X+10097148Y-1412352D01*
X-8789632Y-1412352D01*
X-8789632Y+7290428D01*
X+10097148Y+7290428D01*
X+10097148Y+7000087D01*
X+9394364Y+6247951D02*
X+9453880Y+6188435D01*
X+9453880Y+5973513D01*
X+9473418Y+5953974D01*
X+9609459Y+5817933D01*
X+9609459Y+5729359D01*
X+9728274Y+5729360D01*
X+9886088Y+5729360D01*
X+9997680Y+5617768D01*
X+9997680Y+1092743D01*
X+9762484Y+995321D01*
X+9727443Y+1030362D01*
X+9560496Y+1030362D01*
X+9705202Y+885656D01*
X+9710596Y+881623D01*
X+9727196Y+881623D01*
X+9846227Y+762592D01*
X+9846227Y+594256D01*
X+9727196Y+475225D01*
X+9558860Y+475225D01*
X+9439829Y+594256D01*
X+9439829Y+610856D01*
X+9435796Y+616250D01*
X+9208521Y+843525D01*
X+8792129Y+843525D01*
X+8792129Y+1783323D01*
X+9223927Y+1783323D01*
X+9223927Y+1325895D01*
X+9322092Y+1424060D01*
X+9490428Y+1424060D01*
X+9502166Y+1412322D01*
X+9508833Y+1411360D01*
X+9616682Y+1411360D01*
X+9616682Y+1491225D01*
X+9558860Y+1491225D01*
X+9439829Y+1610256D01*
X+9439829Y+1778592D01*
X+9558860Y+1897623D01*
X+9616682Y+1897623D01*
X+9616682Y+3697363D01*
X+9606721Y+3697363D01*
X+9508836Y+3697362D01*
X+9502166Y+3696400D01*
X+9490428Y+3684662D01*
X+9322092Y+3684662D01*
X+9241159Y+3765595D01*
X+9241159Y+3570360D01*
X+9461355Y+3570360D01*
X+9592790Y+3438925D01*
X+9592790Y+2978631D01*
X+9594184Y+2971304D01*
X+9609459Y+2956029D01*
X+9609459Y+2787693D01*
X+9490428Y+2668662D01*
X+9322092Y+2668662D01*
X+9241159Y+2749595D01*
X+9241159Y+2427360D01*
X+9303687Y+2427360D01*
X+9310354Y+2428322D01*
X+9322092Y+2440060D01*
X+9490428Y+2440060D01*
X+9609459Y+2321029D01*
X+9609459Y+2152693D01*
X+9490428Y+2033662D01*
X+9322092Y+2033662D01*
X+9310354Y+2045400D01*
X+9303687Y+2046362D01*
X+9241159Y+2046362D01*
X+9241159Y+2020962D01*
X+8809361Y+2020962D01*
X+8809361Y+2960760D01*
X+9207792Y+2960760D01*
X+9211208Y+2964176D01*
X+9211792Y+2970077D01*
X+9211792Y+3163962D01*
X+8809361Y+3163962D01*
X+8809361Y+4103760D01*
X+9241159Y+4103760D01*
X+9241159Y+4010127D01*
X+9322092Y+4091060D01*
X+9490428Y+4091060D01*
X+9502166Y+4079322D01*
X+9508836Y+4078360D01*
X+9616682Y+4078359D01*
X+9616682Y+5348363D01*
X+9606721Y+5348363D01*
X+9508836Y+5348362D01*
X+9502166Y+5347400D01*
X+9490428Y+5335662D01*
X+9322092Y+5335662D01*
X+9203061Y+5454693D01*
X+9203061Y+5649599D01*
X+9186052Y+5666608D01*
X+8382863Y+5666608D01*
X+8361887Y+5645632D01*
X+8193551Y+5645632D01*
X+8074520Y+5764663D01*
X+8074520Y+5932999D01*
X+8115686Y+5974166D01*
X+8066579Y+6023273D01*
X+8066579Y+6191609D01*
X+8185610Y+6310640D01*
X+8353946Y+6310640D01*
X+8472977Y+6191609D01*
X+8472977Y+6073006D01*
X+8994577Y+6073006D01*
X+8404514Y+6663069D01*
X+952848Y+6663069D01*
X+808360Y+6518581D01*
X+808360Y+5930110D01*
X+2479300Y+5930110D01*
X+2546463Y+5862947D01*
X+2870292Y+5862947D01*
X+2870292Y+5431149D01*
X+2184494Y+5431149D01*
X+2184494Y+5549112D01*
X+554360Y+5549112D01*
X+554360Y+5491106D01*
X+1113856Y+5491106D01*
X+1237260Y+5367702D01*
X+1237260Y+5230656D01*
X+1294589Y+5287985D01*
X+1462925Y+5287985D01*
X+1587592Y+5163317D01*
X+1587592Y+4673880D01*
X+1498692Y+4584980D01*
X+1498692Y+4364347D01*
X+2247992Y+4364347D01*
X+2247992Y+4326247D01*
X+2865560Y+4326247D01*
X+2984591Y+4207216D01*
X+2984591Y+4080217D01*
X+2984592Y+4080216D01*
X+2984592Y+3911880D01*
X+2865561Y+3792849D01*
X+2697225Y+3792849D01*
X+2578194Y+3911880D01*
X+2578194Y+3919849D01*
X+2247992Y+3919849D01*
X+2247992Y+3881749D01*
X+1154487Y+3881749D01*
X+1020292Y+3807702D01*
X+946245Y+3881749D01*
X-165006Y+3881749D01*
X-165006Y+3932549D01*
X-717025Y+3932549D01*
X-717025Y+3620881D01*
X-1146117Y+3191789D01*
X-1222673Y+3191789D01*
X-1222673Y+2832396D01*
X-1221326Y+2825134D01*
X-1206408Y+2810216D01*
X-1206408Y+2793616D01*
X-1202375Y+2788222D01*
X-681426Y+2267273D01*
X-319776Y+2267273D01*
X-203108Y+2150605D01*
X-203108Y+1786247D01*
X-88806Y+1786247D01*
X-88806Y+1794216D01*
X-77068Y+1805954D01*
X-76106Y+1812621D01*
X-76106Y+2395849D01*
X-223775Y+2395849D01*
X-266607Y+2438681D01*
X-309439Y+2395849D01*
X-731775Y+2395849D01*
X-850806Y+2514880D01*
X-850806Y+2683216D01*
X-731775Y+2802247D01*
X-723806Y+2802247D01*
X-723806Y+3445215D01*
X-604774Y+3564247D01*
X-165006Y+3564247D01*
X-165006Y+3602347D01*
X+2247992Y+3602347D01*
X+2247992Y+3439955D01*
X+2250372Y+3437575D01*
X+2250372Y+3190385D01*
X+2336892Y+3103865D01*
X+2336892Y+2701621D01*
X+2337854Y+2694954D01*
X+2349592Y+2683216D01*
X+2349592Y+2514880D01*
X+2230561Y+2395849D01*
X+2062225Y+2395849D01*
X+2019393Y+2438681D01*
X+1976561Y+2395849D01*
X+1808225Y+2395849D01*
X+1765393Y+2438681D01*
X+1722561Y+2395849D01*
X+1554225Y+2395849D01*
X+1435194Y+2514880D01*
X+1435194Y+2772424D01*
X+1300692Y+2772424D01*
X+1300692Y+2655508D01*
X+1200933Y+2555749D01*
X+1059853Y+2555749D01*
X+1050692Y+2564910D01*
X+1050692Y+2555749D01*
X+997461Y+2555749D01*
X+964561Y+2522849D01*
X+861262Y+2522849D01*
X+861262Y+2110624D01*
X+718712Y+1968074D01*
X+571592Y+1968074D01*
X+571592Y+1957574D01*
X+963994Y+1957574D01*
X+1038363Y+1883205D01*
X+1043246Y+1878727D01*
X+1046151Y+1876847D01*
X+1180533Y+1876847D01*
X+1180533Y+1954513D01*
X+1181194Y+1955174D01*
X+1181194Y+2048215D01*
X+1300225Y+2167246D01*
X+1976561Y+2167246D01*
X+2011349Y+2132458D01*
X+2062416Y+2183525D01*
X+2713503Y+2183525D01*
X+2824225Y+2294247D01*
X+2992561Y+2294247D01*
X+3111592Y+2175216D01*
X+3111592Y+1117880D01*
X+3111591Y+1051539D01*
X+3111821Y+1049947D01*
X+3124292Y+1037476D01*
X+3124292Y+909947D01*
X+3200494Y+909947D01*
X+3200494Y+1037476D01*
X+3326965Y+1163947D01*
X+3505821Y+1163947D01*
X+3632292Y+1037476D01*
X+3632292Y+858620D01*
X+3505821Y+732149D01*
X+3378292Y+732149D01*
X+3378292Y+604620D01*
X+3251821Y+478149D01*
X+3072965Y+478149D01*
X+2946494Y+604620D01*
X+2946494Y+732149D01*
X+2818965Y+732149D01*
X+2806494Y+744620D01*
X+2804906Y+744849D01*
X+2591492Y+744849D01*
X+2591492Y+707576D01*
X+2586360Y+702443D01*
X+2553460Y+669543D01*
X+2553460Y+616312D01*
X+2544299Y+616312D01*
X+2553460Y+607151D01*
X+2553460Y+466071D01*
X+2453701Y+366312D01*
X+2312621Y+366312D01*
X+2230159Y+448774D01*
X+2144064Y+362679D01*
X+1841592Y+362679D01*
X+1841592Y+228880D01*
X+1722561Y+109849D01*
X+1554225Y+109849D01*
X+1435194Y+228880D01*
X+1435194Y+362679D01*
X+1151381Y+362679D01*
X+1233951Y+280109D01*
X+1233951Y+280107D01*
X+1293897Y+220161D01*
X+1293899Y+220161D01*
X+1427809Y+86251D01*
X+1427809Y-403516D01*
X+1458034Y-403185D01*
X+1444534Y-402835D01*
X+1488441Y-402835D01*
X+1488441Y-80909D01*
X+1622459Y+59063D01*
X+1782926Y+66039D01*
X+7968131Y+66039D01*
X+8354949Y+53339D01*
X+8380349Y+27939D01*
X+8470899Y+27939D01*
X+8470899Y-62611D01*
X+8496299Y-88011D01*
X+8496299Y-287909D01*
X+8470899Y-313309D01*
X+8470899Y-403859D01*
X+8380349Y-403859D01*
X+8354949Y-429259D01*
X+8155051Y-429259D01*
X+7955993Y-416559D01*
X+2370707Y-416559D01*
X+2506979Y-552831D01*
X+2506979Y-752729D01*
X+2365629Y-894079D01*
X+2165731Y-894079D01*
X+2024381Y-752729D01*
X+2024381Y-552831D01*
X+2160653Y-416559D01*
X+1971039Y-416559D01*
X+1971039Y-473329D01*
X+1945639Y-498729D01*
X+1945639Y-1097279D01*
X+1513841Y-1097279D01*
X+1513841Y-1042706D01*
X+967739Y-1042706D01*
X+967739Y-1120127D01*
X+863587Y-1224279D01*
X+716293Y-1224279D01*
X+662940Y-1170926D01*
X+609587Y-1224279D01*
X+462293Y-1224279D01*
X+459739Y-1221725D01*
X+459739Y-1224279D01*
X+434339Y-1224279D01*
X+434339Y-1259291D01*
X+339810Y-1353820D01*
X-2908290Y-1353820D01*
X-3013458Y-1248652D01*
X-3013458Y-992869D01*
X-3032548Y-950519D01*
X-3065779Y-917288D01*
X-3065779Y-826589D01*
X-3113897Y-874707D01*
X-3726753Y-874707D01*
X-3870727Y-730733D01*
X-3870727Y-133412D01*
X-3668736Y+68579D01*
X-3587586Y+68579D01*
X-3546564Y+83082D01*
X-3522967Y+106679D01*
X-3375673Y+106679D01*
X-3271521Y+2527D01*
X-3271521Y-144767D01*
X-3375673Y-248919D01*
X-3522967Y-248919D01*
X-3546563Y-225323D01*
X-3562039Y-219852D01*
X-3591329Y-249142D01*
X-3591329Y-469683D01*
X-3522967Y-401321D01*
X-3375673Y-401321D01*
X-3365402Y-411592D01*
X-3348573Y-414021D01*
X-3332821Y-414021D01*
X-3038181Y-119381D01*
X-719206Y-119381D01*
X-687714Y-108247D01*
X-660748Y-81281D01*
X-492412Y-81281D01*
X-410210Y-163483D01*
X-328008Y-81281D01*
X-159672Y-81281D01*
X-139358Y-101595D01*
X-119659Y-106681D01*
X+355587Y-106681D01*
X+408940Y-160034D01*
X+462293Y-106681D01*
X+609587Y-106681D01*
X+662940Y-160034D01*
X+716293Y-106681D01*
X+863587Y-106681D01*
X+967739Y-210833D01*
X+967739Y-358127D01*
X+957468Y-368398D01*
X+955039Y-385227D01*
X+955039Y-581381D01*
X+970611Y-596953D01*
X+970611Y-103125D01*
X+910665Y-43179D01*
X-14533Y-43179D01*
X-22153Y-50799D01*
X-764905Y-50799D01*
X-772561Y-53506D01*
X-807954Y-88899D01*
X-1028894Y-88899D01*
X-1172424Y+54631D01*
X-1315954Y-88899D01*
X-1536894Y-88899D01*
X-1572288Y-53505D01*
X-1579942Y-50799D01*
X-1974287Y-50799D01*
X-2133598Y+108512D01*
X-2133598Y+297888D01*
X-1999688Y+431798D01*
X-1810312Y+431798D01*
X-1784913Y+406399D01*
X-1667723Y+406399D01*
X-1667723Y+917289D01*
X-1698551Y+886461D01*
X-1887929Y+886461D01*
X-2021839Y+1020371D01*
X-2021839Y+1181006D01*
X-2252884Y+949961D01*
X-2629851Y+949961D01*
X-2673143Y+927869D01*
X-2714551Y+886461D01*
X-2903929Y+886461D01*
X-3037839Y+1020371D01*
X-3037839Y+1209749D01*
X-2931778Y+1315810D01*
X-2979419Y+1363452D01*
X-2979419Y+1541781D01*
X-3178003Y+1541781D01*
X-3178003Y+852180D01*
X-2453609Y+852180D01*
X-2209637Y+608208D01*
X-2209637Y+345702D01*
X-2198560Y+314227D01*
X-2171701Y+287368D01*
X-2171701Y+119032D01*
X-2290732Y+1D01*
X-2459068Y+1D01*
X-2578099Y+119032D01*
X-2578099Y+287368D01*
X-2551023Y+314444D01*
X-2539835Y+345946D01*
X-2539835Y+471438D01*
X-2590379Y+521982D01*
X-2812818Y+521982D01*
X-2685366Y+394530D01*
X-2685366Y+307579D01*
X-2680139Y+287806D01*
X-2659381Y+267048D01*
X-2659381Y+98712D01*
X-2778412Y-20319D01*
X-2946748Y-20319D01*
X-3065779Y+98712D01*
X-3065779Y+255282D01*
X-3178003Y+255282D01*
X-3178003Y+242582D01*
X-3570616Y+242582D01*
X-3570616Y+242158D01*
X-3862174Y-49400D01*
X-4033521Y-49400D01*
X-4033521Y-248919D01*
X-4389119Y-248919D01*
X-4389119Y-232095D01*
X-4565341Y-232095D01*
X-4565341Y-277937D01*
X-4572971Y-285567D01*
X-4574541Y-300055D01*
X-4574541Y-422325D01*
X-4319477Y-422325D01*
X-4301673Y-418027D01*
X-4284967Y-401321D01*
X-4137673Y-401321D01*
X-4033521Y-505473D01*
X-4033521Y-652767D01*
X-4137673Y-756919D01*
X-4284967Y-756919D01*
X-4288599Y-753287D01*
X-4303936Y-752523D01*
X-4723756Y-752523D01*
X-4904739Y-571540D01*
X-4904739Y-380039D01*
X-5167939Y-380039D01*
X-5167939Y-31441D01*
X-5140700Y-31441D01*
X-5139199Y-29940D01*
X-5294784Y+125645D01*
X-5294784Y+329232D01*
X-5367134Y+256882D01*
X-5535470Y+256882D01*
X-5578302Y+299714D01*
X-5621134Y+256882D01*
X-5789470Y+256882D01*
X-5908501Y+375913D01*
X-5908501Y+544249D01*
X-5789470Y+663280D01*
X-5768801Y+663280D01*
X-5768801Y+715286D01*
X-5772618Y+730070D01*
X-5794201Y+751653D01*
X-5794201Y+930509D01*
X-5667730Y+1056980D01*
X-5488874Y+1056980D01*
X-5467291Y+1035397D01*
X-5452507Y+1031580D01*
X-5412209Y+1031580D01*
X-5286207Y+1157582D01*
X-5453464Y+1157582D01*
X-5468099Y+1153957D01*
X-5488874Y+1133182D01*
X-5667730Y+1133182D01*
X-5794201Y+1259653D01*
X-5794201Y+1290176D01*
X-5801956Y+1303329D01*
X-5895801Y+1397174D01*
X-5895801Y+1627508D01*
X-5896763Y+1634175D01*
X-5908501Y+1645913D01*
X-5908501Y+1814249D01*
X-5789470Y+1933280D01*
X-5621134Y+1933280D01*
X-5578302Y+1890448D01*
X-5535470Y+1933280D01*
X-5367134Y+1933280D01*
X-5248103Y+1814249D01*
X-5248103Y+1645913D01*
X-5355436Y+1538580D01*
X-5325209Y+1538580D01*
X-5145388Y+1718401D01*
X-5270499Y+1843512D01*
X-5270499Y+2020582D01*
X-7044525Y+2020582D01*
X-8493904Y+3469961D01*
X-8493904Y+4824059D01*
X-8321409Y+4996554D01*
X-7713369Y+4996554D01*
X-7546803Y+4829988D01*
X-7546803Y+4484380D01*
X-7394401Y+4484380D01*
X-7394401Y+4508911D01*
X-7218918Y+4684395D01*
X-6498317Y+4684395D01*
X-6401604Y+4587681D01*
X-6058361Y+4244438D01*
X-6058361Y+4943497D01*
X-6095805Y+4980941D01*
X-6305089Y+4980941D01*
X-6305089Y+4973310D01*
X-6724187Y+4973310D01*
X-6724187Y+5849608D01*
X-6305089Y+5849608D01*
X-6305089Y+5586740D01*
X-6022801Y+5586740D01*
X-6022801Y+5738974D01*
X-6243949Y+5960122D01*
X-6299663Y+5960122D01*
X-6299663Y+5934722D01*
X-6731461Y+5934722D01*
X-6731461Y+6874520D01*
X-6299663Y+6874520D01*
X-6299663Y+6849120D01*
X-5987075Y+6849120D01*
X-5816895Y+6678940D01*
X-635462Y+6678940D01*
X-635462Y+6678939D01*
X-375854Y+6678939D01*
X-251395Y+6554480D01*
X-179552Y+6554480D01*
X-91902Y+6466830D01*
X-4252Y+6554480D01*
X+216688Y+6554480D01*
X+372917Y+6398251D01*
X+372917Y+6177311D01*
X+216688Y+6021082D01*
X-4252Y+6021082D01*
X-91902Y+6108732D01*
X-179552Y+6021082D01*
X-400492Y+6021082D01*
X-556721Y+6177311D01*
X-556721Y+6247143D01*
X-635462Y+6247143D01*
X-635462Y+6247142D01*
X-5704775Y+6247142D01*
X-5721258Y+6230660D01*
X-5714878Y+6224280D01*
X-1631339Y+6224280D01*
X-1219108Y+5812049D01*
X-1219108Y+5608947D01*
X-846830Y+5608947D01*
X-838106Y+5617671D01*
X-838106Y+5642743D01*
X-850806Y+5655443D01*
X-850806Y+5823779D01*
X-838106Y+5836479D01*
X-838106Y+5842834D01*
X-726514Y+5954426D01*
X-568700Y+5954426D01*
X-457108Y+5842834D01*
X-457108Y+5836479D01*
X-444408Y+5823779D01*
X-444408Y+5655443D01*
X-457108Y+5642743D01*
X-457108Y+5583207D01*
X-448940Y+5575039D01*
X-448940Y+5519613D01*
X-431708Y+5502381D01*
X-431708Y+5303620D01*
X-558179Y+5177149D01*
X-1625506Y+5177149D01*
X-1625506Y+5608947D01*
X-1600106Y+5608947D01*
X-1600106Y+5654235D01*
X-1789153Y+5843282D01*
X-5641803Y+5843282D01*
X-5641803Y+5511514D01*
X-5640841Y+5504847D01*
X-5629103Y+5493109D01*
X-5629103Y+5324773D01*
X-5748134Y+5205742D01*
X-5853638Y+5205742D01*
X-5728163Y+5080267D01*
X-5728163Y+4287509D01*
X-5592252Y+4423420D01*
X-5371312Y+4423420D01*
X-5283662Y+4335770D01*
X-5196012Y+4423420D01*
X-4975072Y+4423420D01*
X-4964799Y+4413147D01*
X-4922857Y+4409162D01*
X-3826544Y+4409162D01*
X-3635203Y+4217821D01*
X-3635203Y+4068852D01*
X-3524475Y+4179580D01*
X-3359052Y+4179580D01*
X-3359052Y+5468229D01*
X-3028462Y+5798819D01*
X-1916957Y+5798819D01*
X-1878541Y+5785182D01*
X-1790677Y+5753993D01*
X-1730203Y+5668355D01*
X-1730203Y+5601980D01*
X-1679403Y+5601980D01*
X-1679403Y+5170182D01*
X-1717503Y+5170182D01*
X-1717503Y+5073959D01*
X-1688601Y+5073959D01*
X-1688601Y+4717361D01*
X-2045199Y+4717361D01*
X-2045199Y+4822515D01*
X-2073101Y+4850417D01*
X-2073101Y+5170182D01*
X-2619201Y+5170182D01*
X-2619201Y+5220982D01*
X-2733751Y+5220982D01*
X-2733751Y+5065275D01*
X-2685215Y+5016739D01*
X-2684942Y+5016498D01*
X-2489028Y+5016498D01*
X-2254899Y+4782369D01*
X-2254899Y+4130996D01*
X-2244214Y+4110060D01*
X-2207403Y+4073249D01*
X-2207403Y+3904913D01*
X-2326434Y+3785882D01*
X-2494770Y+3785882D01*
X-2582610Y+3873722D01*
X-2659032Y+3797301D01*
X-2827368Y+3797301D01*
X-2946399Y+3916332D01*
X-2946399Y+4084668D01*
X-2827368Y+4203699D01*
X-2659032Y+4203699D01*
X-2610497Y+4155164D01*
X-2610497Y+4478024D01*
X-2670120Y+4418401D01*
X-2811200Y+4418401D01*
X-2910959Y+4518160D01*
X-2910959Y+4659240D01*
X-2901798Y+4668401D01*
X-2910959Y+4668401D01*
X-2910959Y+4757553D01*
X-2918459Y+4765053D01*
X-2918459Y+4782982D01*
X-2918699Y+4783255D01*
X-3028854Y+4893409D01*
X-3028854Y+4180740D01*
X-3004491Y+4150733D01*
X-2952407Y+4098649D01*
X-2952407Y+3930313D01*
X-3071438Y+3811282D01*
X-3178003Y+3811282D01*
X-3178003Y+3174999D01*
X-2845773Y+3174999D01*
X-2839106Y+3175961D01*
X-2827368Y+3187699D01*
X-2659032Y+3187699D01*
X-2637219Y+3165886D01*
X-2628955Y+3163580D01*
X-2513175Y+3163580D01*
X-2506508Y+3164542D01*
X-2494770Y+3176280D01*
X-2326434Y+3176280D01*
X-2207403Y+3057249D01*
X-2207403Y+2888913D01*
X-2326434Y+2769882D01*
X-2401154Y+2769882D01*
X-2286001Y+2654729D01*
X-2286001Y+2432369D01*
X-2279286Y+2419210D01*
X-2268892Y+2413466D01*
X-2170067Y+2413466D01*
X-1983741Y+2227140D01*
X-1983741Y+1775459D01*
X-1805412Y+1775459D01*
X-1773347Y+1743394D01*
X-1735923Y+1728335D01*
X-1548342Y+1728335D01*
X-1638299Y+1818292D01*
X-1638299Y+1986628D01*
X-1611332Y+2013595D01*
X-1600199Y+2045083D01*
X-1600199Y+2073591D01*
X-1622291Y+2116883D01*
X-1663699Y+2158291D01*
X-1663699Y+2347669D01*
X-1529789Y+2481579D01*
X-1434544Y+2481579D01*
X-1471781Y+2518816D01*
X-1477175Y+2522849D01*
X-1493775Y+2522849D01*
X-1612806Y+2641880D01*
X-1612806Y+2810216D01*
X-1604290Y+2818732D01*
X-1603671Y+2824709D01*
X-1603671Y+3461195D01*
X-1492079Y+3572787D01*
X-1461847Y+3572787D01*
X-1553601Y+3664541D01*
X-1553601Y+3805621D01*
X-1453842Y+3905380D01*
X-1323801Y+3905380D01*
X-1323801Y+4140508D01*
X-1324763Y+4147175D01*
X-1336501Y+4158913D01*
X-1336501Y+4327249D01*
X-1320814Y+4342936D01*
X-1319368Y+4350327D01*
X-1319368Y+4509924D01*
X-1249440Y+4579852D01*
X-1336501Y+4666913D01*
X-1336501Y+4835249D01*
X-1217470Y+4954280D01*
X-1049134Y+4954280D01*
X-930103Y+4835249D01*
X-930103Y+4672320D01*
X-849246Y+4672320D01*
X-850806Y+4673880D01*
X-850806Y+4842216D01*
X-731775Y+4961247D01*
X-563439Y+4961247D01*
X-444408Y+4842216D01*
X-444408Y+4673880D01*
X-445968Y+4672320D01*
X-200876Y+4672320D01*
X-200876Y+5367702D01*
X-77472Y+5491106D01*
X+147962Y+5491106D01*
X+147962Y+5569779D01*
X+199410Y+5621227D01*
X+165194Y+5655443D01*
X+165194Y+5823779D01*
X+284225Y+5942810D01*
X+401962Y+5942810D01*
X+401962Y+6686915D01*
X+784514Y+7069467D01*
X+8572848Y+7069467D01*
X+9394364Y+6247951D01*
X+3505292Y+3069476D02*
X+3505292Y+2890620D01*
X+3378821Y+2764149D01*
X+3251292Y+2764149D01*
X+3251292Y+2636620D01*
X+3124821Y+2510149D01*
X+2945965Y+2510149D01*
X+2857592Y+2598522D01*
X+2857592Y+2514880D01*
X+2738561Y+2395849D01*
X+2570225Y+2395849D01*
X+2451194Y+2514880D01*
X+2451194Y+2683216D01*
X+2451195Y+2937216D01*
X+2564535Y+3050556D01*
X+2565494Y+3051838D01*
X+2565494Y+3069476D01*
X+2691965Y+3195947D01*
X+2870821Y+3195947D01*
X+2997292Y+3069476D01*
X+2997292Y+2941947D01*
X+3073494Y+2941947D01*
X+3073494Y+3069476D01*
X+3199965Y+3195947D01*
X+3378821Y+3195947D01*
X+3505292Y+3069476D01*
X+7765056Y+6491932D02*
X+8035776Y+6221212D01*
X+8035776Y+5356859D01*
X+8272613Y+5356859D01*
X+8282772Y+5367018D01*
X+8440586Y+5367018D01*
X+8809361Y+4998243D01*
X+8809361Y+5246760D01*
X+9241159Y+5246760D01*
X+9241159Y+4726060D01*
X+9490428Y+4726060D01*
X+9609459Y+4607029D01*
X+9609459Y+4438693D01*
X+9490428Y+4319662D01*
X+9241159Y+4319662D01*
X+9241159Y+4306962D01*
X+8809361Y+4306962D01*
X+8809361Y+4584114D01*
X+8684678Y+4584114D01*
X+8549639Y+4719153D01*
X+8549639Y+4479503D01*
X+8296697Y+4226561D01*
X+7938983Y+4226561D01*
X+7686041Y+4479503D01*
X+7686041Y+4837217D01*
X+7824685Y+4975861D01*
X+7784933Y+4975861D01*
X+7654778Y+5106016D01*
X+7654778Y+6063398D01*
X+7551446Y+6166730D01*
X+7456977Y+6166730D01*
X+7456977Y+6023273D01*
X+7415810Y+5982106D01*
X+7464918Y+5932999D01*
X+7464918Y+5764663D01*
X+7345887Y+5645632D01*
X+7177551Y+5645632D01*
X+7058520Y+5764663D01*
X+7058520Y+5932999D01*
X+7080563Y+5955042D01*
X+3872614Y+5955042D01*
X+3686993Y+5769421D01*
X+3686993Y+5316847D01*
X+3841282Y+5316847D01*
X+3880178Y+5277951D01*
X+3913443Y+5262224D01*
X+4074754Y+5262224D01*
X+4470494Y+4866484D01*
X+4470494Y+5100947D01*
X+4480099Y+5100947D01*
X+4480099Y+5269217D01*
X+4015485Y+5269217D01*
X+3896454Y+5388248D01*
X+3896454Y+5556584D01*
X+4015485Y+5675615D01*
X+4686838Y+5675615D01*
X+4886497Y+5475956D01*
X+4886497Y+5100947D01*
X+4902292Y+5100947D01*
X+4902292Y+4161149D01*
X+4508592Y+4161149D01*
X+4508592Y+4092761D01*
X+4780193Y+4092761D01*
X+4899225Y+3973729D01*
X+4899225Y+3957947D01*
X+4902292Y+3957947D01*
X+4902292Y+3018149D01*
X+4503861Y+3018149D01*
X+4389561Y+2903849D01*
X+4305379Y+2903849D01*
X+4305379Y+2802604D01*
X+4718534Y+2802604D01*
X+4740628Y+2780510D01*
X+4885060Y+2780510D01*
X+4885060Y+1840712D01*
X+4495892Y+1840712D01*
X+4495892Y+1637510D01*
X+4885060Y+1637510D01*
X+4885060Y+697712D01*
X+4453262Y+697712D01*
X+4453262Y+1046506D01*
X+4341798Y+935042D01*
X+4248246Y+935042D01*
X+4222191Y+908987D01*
X+4222191Y+891810D01*
X+4223416Y+884723D01*
X+4237360Y+870779D01*
X+4237360Y+702443D01*
X+4118329Y+583412D01*
X+3949993Y+583412D01*
X+3830962Y+702443D01*
X+3830962Y+870779D01*
X+3840473Y+880290D01*
X+3841193Y+886493D01*
X+3841193Y+1066801D01*
X+4090432Y+1316040D01*
X+4158034Y+1316040D01*
X+4102194Y+1371880D01*
X+4102194Y+1540216D01*
X+4113932Y+1551954D01*
X+4114894Y+1558621D01*
X+4114894Y+1599412D01*
X+3949993Y+1599412D01*
X+3830962Y+1718443D01*
X+3830962Y+1886779D01*
X+3836128Y+1891946D01*
X+3595613Y+2132462D01*
X+3595613Y+3290495D01*
X+3340194Y+3545914D01*
X+3340194Y+3843649D01*
X+3232804Y+3843649D01*
X+3098894Y+3977559D01*
X+3098894Y+4166937D01*
X+3232804Y+4300847D01*
X+3422182Y+4300847D01*
X+3445036Y+4277993D01*
X+3454898Y+4275447D01*
X+3619188Y+4275447D01*
X+3629050Y+4277993D01*
X+3651904Y+4300847D01*
X+3841282Y+4300847D01*
X+3918990Y+4223139D01*
X+3918990Y+4349712D01*
X+3910780Y+4357922D01*
X+3076360Y+4357922D01*
X+2603592Y+4830690D01*
X+2603592Y+4673880D01*
X+2484561Y+4554849D01*
X+2316225Y+4554849D01*
X+2197194Y+4673880D01*
X+2197194Y+4842216D01*
X+2273577Y+4918599D01*
X+2191558Y+5000618D01*
X+2191558Y+5168954D01*
X+2310589Y+5287985D01*
X+2478925Y+5287985D01*
X+2490663Y+5276247D01*
X+2497330Y+5275285D01*
X+2697809Y+5275285D01*
X+3234174Y+4738920D01*
X+3382195Y+4738920D01*
X+3382195Y+4859649D01*
X+3232804Y+4859649D01*
X+3098894Y+4993559D01*
X+3098894Y+5182937D01*
X+3129231Y+5213274D01*
X+3136994Y+5235231D01*
X+3136994Y+5813800D01*
X+3121661Y+5829133D01*
X+3121661Y+5986947D01*
X+3532163Y+6397449D01*
X+3532163Y+6436136D01*
X+3643755Y+6547728D01*
X+7709260Y+6547728D01*
X+7765056Y+6491932D01*
X+2865561Y+3284849D02*
X+2697225Y+3284849D01*
X+2578194Y+3403880D01*
X+2578194Y+3572216D01*
X+2697225Y+3691247D01*
X+2865561Y+3691247D01*
X+2984592Y+3572216D01*
X+2984592Y+3403880D01*
X+2865561Y+3284849D01*
X-2120806Y+2641880D02*
X-2120806Y+2810216D01*
X-2001775Y+2929247D01*
X-1833439Y+2929247D01*
X-1714408Y+2810216D01*
X-1714408Y+2641880D01*
X-1833439Y+2522849D01*
X-2001775Y+2522849D01*
X-2120806Y+2641880D01*
X+9143159Y-1067236D02*
X+9143159Y-709522D01*
X+9396101Y-456580D01*
X+9753815Y-456580D01*
X+10006757Y-709522D01*
X+10006757Y-1067236D01*
X+9753815Y-1320178D01*
X+9396101Y-1320178D01*
X+9143159Y-1067236D01*
X+6454141Y+3023294D02*
X+6454141Y+3381008D01*
X+6707083Y+3633950D01*
X+7064797Y+3633950D01*
X+7317739Y+3381008D01*
X+7317739Y+3023294D01*
X+7064797Y+2770352D01*
X+6707083Y+2770352D01*
X+6454141Y+3023294D01*
X+5283201Y+4459183D02*
X+5283201Y+4816897D01*
X+5536143Y+5069839D01*
X+5893857Y+5069839D01*
X+6146799Y+4816897D01*
X+6146799Y+4459183D01*
X+5893857Y+4206241D01*
X+5536143Y+4206241D01*
X+5283201Y+4459183D01*
X-8766841Y+6432764D02*
X-8766841Y+6790478D01*
X-8513899Y+7043420D01*
X-8156185Y+7043420D01*
X-7903243Y+6790478D01*
X-7903243Y+6432764D01*
X-8156185Y+6179822D01*
X-8513899Y+6179822D01*
X-8766841Y+6432764D01*
X-8688101Y-1022136D02*
X-8688101Y-664422D01*
X-8435159Y-411480D01*
X-8077445Y-411480D01*
X-7824503Y-664422D01*
X-7824503Y-1022136D01*
X-8077445Y-1275078D01*
X-8435159Y-1275078D01*
X-8688101Y-1022136D01*
X+5303521Y+1411183D02*
X+5303521Y+1768897D01*
X+5556463Y+2021839D01*
X+5914177Y+2021839D01*
X+6167119Y+1768897D01*
X+6167119Y+1411183D01*
X+5914177Y+1158241D01*
X+5556463Y+1158241D01*
X+5303521Y+1411183D01*
X+7609841Y+1449283D02*
X+7609841Y+1806997D01*
X+7862783Y+2059939D01*
X+8220497Y+2059939D01*
X+8473439Y+1806997D01*
X+8473439Y+1449283D01*
X+8220497Y+1196341D01*
X+7862783Y+1196341D01*
X+7609841Y+1449283D01*
X-1940754Y+4573959D02*
X-1793046Y+4573959D01*
X-1688601Y+4469514D01*
X-1688601Y+4321806D01*
X-1793046Y+4217361D01*
X-1940754Y+4217361D01*
X-2045199Y+4321806D01*
X-2045199Y+4469514D01*
X-1940754Y+4573959D01*
X+830862Y+4364347D02*
X+736692Y+4364347D01*
X+736692Y+4602213D01*
X+808360Y+4673881D01*
X+808360Y+5061779D01*
X+785431Y+5084708D01*
X+830862Y+5084708D01*
X+830862Y+4364347D01*
X-4374805Y+3930313D02*
X-4370072Y+3925580D01*
X-4422601Y+3925580D01*
X-4422601Y+3646180D01*
X-5457627Y+3646180D01*
X-5690063Y+3413744D01*
X-5690063Y+3557629D01*
X-5717029Y+3584595D01*
X-5728163Y+3616087D01*
X-5728163Y+4025933D01*
X-5592252Y+3890022D01*
X-5371312Y+3890022D01*
X-5283662Y+3977672D01*
X-5196012Y+3890022D01*
X-4975072Y+3890022D01*
X-4818843Y+4046251D01*
X-4818843Y+4078964D01*
X-4374805Y+4078964D01*
X-4374805Y+3930313D01*
X-7165801Y+3364734D02*
X-7800803Y+3999736D01*
X-7800803Y+4001782D01*
X-7165801Y+4001782D01*
X-7165801Y+3364734D01*
X+1869374Y+3111478D02*
X+1869374Y+3032571D01*
X+1955894Y+2946051D01*
X+1955894Y+2802247D01*
X+1841592Y+2802247D01*
X+1841592Y+3115821D01*
X+1832109Y+3119749D01*
X+1869374Y+3119749D01*
X+1869374Y+3111478D01*
X-4422601Y+1893580D02*
X-4838701Y+1893580D01*
X-4838701Y+2020582D01*
X-4422601Y+2020582D01*
X-4422601Y+1893580D01*
X-839240Y+1886275D02*
X-584106Y+1886275D01*
X-584106Y+1786247D01*
X-731775Y+1786247D01*
X-850806Y+1667216D01*
X-850806Y+1498880D01*
X-731775Y+1379849D01*
X-596806Y+1379849D01*
X-596806Y+1255248D01*
X-598034Y+1254020D01*
X-597116Y+1057382D01*
X-634472Y+1094738D01*
X-1132840Y+1094738D01*
X-1244426Y+983152D01*
X-1258867Y+997594D01*
X-1270001Y+1029086D01*
X-1270001Y+1496690D01*
X-1472572Y+1699261D01*
X-1350932Y+1699261D01*
X-1329045Y+1721148D01*
X-1298371Y+1729740D01*
X-1186035Y+1729740D01*
X-1154547Y+1718607D01*
X-1127580Y+1691640D01*
X-959244Y+1691640D01*
X-840213Y+1810671D01*
X-840213Y+1887248D01*
X-839240Y+1886275D01*
X+1181194Y+1532246D02*
X+825592Y+1532246D01*
X+825592Y+1543249D01*
X+1181194Y+1543249D01*
X+1181194Y+1532246D01*
X-2616199Y+2517959D02*
X-2616199Y+2432369D01*
X-2638291Y+2389077D01*
X-2679699Y+2347669D01*
X-2679699Y+2158291D01*
X-2545789Y+2024381D01*
X-2356411Y+2024381D01*
X-2317748Y+2063044D01*
X-2313939Y+2064832D01*
X-2313939Y+1721017D01*
X-2330378Y+1683349D01*
X-2364739Y+1648988D01*
X-2364739Y+1470132D01*
X-2335153Y+1440546D01*
X-2321559Y+1403474D01*
X-2321559Y+1348254D01*
X-2389654Y+1280159D01*
X-2629851Y+1280159D01*
X-2630555Y+1280518D01*
X-2547621Y+1363452D01*
X-2547621Y+1542308D01*
X-2585193Y+1579880D01*
X-2547621Y+1617452D01*
X-2547621Y+1796308D01*
X-2674092Y+1922779D01*
X-2852948Y+1922779D01*
X-2887309Y+1888418D01*
X-2924977Y+1871979D01*
X-3178003Y+1871979D01*
X-3178003Y+2559518D01*
X-2657758Y+2559518D01*
X-2616199Y+2517959D01*
X+165194Y+1506848D02*
X+165194Y+1498880D01*
X+165195Y+1278247D01*
X-190408Y+1278247D01*
X-190408Y+1379849D01*
X-55439Y+1379849D01*
X+63592Y+1498880D01*
X+63592Y+1506849D01*
X+165194Y+1506849D01*
X+165194Y+1506848D01*
X-328008Y-487679D02*
X-159672Y-487679D01*
X-139358Y-467365D01*
X-119659Y-462279D01*
X+355587Y-462279D01*
X+408940Y-408926D01*
X+462293Y-462279D01*
X+609587Y-462279D01*
X+624841Y-447025D01*
X+624841Y-718151D01*
X+775371Y-868681D01*
X+716293Y-868681D01*
X+662940Y-922034D01*
X+609587Y-868681D01*
X+462293Y-868681D01*
X+459739Y-871235D01*
X+459739Y-868681D01*
X+104141Y-868681D01*
X+104141Y-1049022D01*
X-2708660Y-1049022D01*
X-2708660Y-990964D01*
X-2690830Y-948737D01*
X-2659381Y-917288D01*
X-2659381Y-748952D01*
X-2735583Y-672750D01*
X-2522217Y-672750D01*
X-2578099Y-728632D01*
X-2578099Y-896968D01*
X-2459068Y-1015999D01*
X-2290732Y-1015999D01*
X-2171701Y-896968D01*
X-2171701Y-728632D01*
X-2227583Y-672750D01*
X-2080024Y-672750D01*
X-2069968Y-682806D01*
X-2075852Y-696285D01*
X-2108199Y-728632D01*
X-2108199Y-896968D01*
X-1989168Y-1015999D01*
X-1820832Y-1015999D01*
X-1701801Y-896968D01*
X-1701801Y-728632D01*
X-1743026Y-687407D01*
X-1773714Y-635284D01*
X-1773714Y-583932D01*
X-1908067Y-449579D01*
X-719203Y-449579D01*
X-687715Y-460712D01*
X-660748Y-487679D01*
X-492412Y-487679D01*
X-410210Y-405477D01*
X-328008Y-487679D01*
X+4328764Y+4505326D02*
X+4380841Y+4453249D01*
X+4470494Y+4453249D01*
X+4470494Y+4245314D01*
X+4389561Y+4326247D01*
X+4299988Y+4326247D01*
X+4299988Y+4367025D01*
X+4300312Y+4367349D01*
X+4300312Y+4369708D01*
X+4302852Y+4372248D01*
X+4302852Y+4379362D01*
X+4334497Y+4411007D01*
X+4302852Y+4487404D01*
X+4302852Y+4531238D01*
X+4328764Y+4505326D01*
X+4470494Y+3526149D02*
X+4470494Y+3229314D01*
X+4389561Y+3310247D01*
X+4306744Y+3310247D01*
X+4306744Y+3668927D01*
X+4353070Y+3649738D01*
X+4389695Y+3686363D01*
X+4470494Y+3686363D01*
X+4470494Y+3526149D01*
X+1549493Y+3602347D02*
X+1549493Y+3361048D01*
X+1803493Y+3881749D02*
X+1803493Y+4123048D01*
X+1803493Y+4364347D02*
X+1803493Y+4123048D01*
X+787493Y+3881749D02*
X+787493Y+4123048D01*
X+787493Y+4364347D02*
X+787493Y+4123048D01*
X-647607Y+1379849D02*
X-647607Y+1583048D01*
X-647607Y+1786247D02*
X-647607Y+1583048D01*
X-850806Y+1583048D02*
X-647607Y+1583048D01*
X-139607Y+1786247D02*
X-139607Y+1583048D01*
X-139607Y+1379849D02*
X-139607Y+1583048D01*
X+1130393Y+1543249D02*
X+1130393Y+1710048D01*
X+1130393Y+1876847D02*
X+1130393Y+1710048D01*
X+1638393Y+109849D02*
X+1638393Y+313048D01*
X+1435194Y+313048D02*
X+1638393Y+313048D01*
X+1841592Y+313048D02*
X+1638393Y+313048D01*
X+1892393Y+2395849D02*
X+1892393Y+2599048D01*
X+1892393Y+2802247D02*
X+1892393Y+2599048D01*
X+2197194Y+4758048D02*
X+2400393Y+4758048D01*
X+2603592Y+4758048D02*
X+2400393Y+4758048D01*
X+2400393Y+4554849D02*
X+2400393Y+4758048D01*
X+3200494Y+948048D02*
X+3416393Y+948048D01*
X+3632292Y+948048D02*
X+3416393Y+948048D01*
X+3416393Y+732149D02*
X+3416393Y+948048D01*
X+3416393Y+1163947D02*
X+3416393Y+948048D01*
X+2946494Y+694048D02*
X+3162393Y+694048D01*
X+3378292Y+694048D02*
X+3162393Y+694048D01*
X+3162393Y+478149D02*
X+3162393Y+694048D01*
X+3162393Y+909947D02*
X+3162393Y+694048D01*
X+3073494Y+2980048D02*
X+3289393Y+2980048D01*
X+3505292Y+2980048D02*
X+3289393Y+2980048D01*
X+3289393Y+2764149D02*
X+3289393Y+2980048D01*
X+3289393Y+3195947D02*
X+3289393Y+2980048D01*
X+3251292Y+2726048D02*
X+3035393Y+2726048D01*
X+3035393Y+2510149D02*
X+3035393Y+2726048D01*
X+3035393Y+2941947D02*
X+3035393Y+2726048D01*
X+1300692Y+2726048D02*
X+1130393Y+2726048D01*
X+1130393Y+2555749D02*
X+1130393Y+2726048D01*
X-444408Y+4758048D02*
X-647607Y+4758048D01*
X-850806Y+4758048D02*
X-647607Y+4758048D01*
X-647607Y+4961247D02*
X-647607Y+4758048D01*
X+2781393Y+3284849D02*
X+2781393Y+3488048D01*
X+2781393Y+3691247D02*
X+2781393Y+3488048D01*
X+2984592Y+3488048D02*
X+2781393Y+3488048D01*
X+2578194Y+3488048D02*
X+2781393Y+3488048D01*
X-1553601Y+3735081D02*
X-1383302Y+3735081D01*
X-1383302Y+3905380D02*
X-1383302Y+3735081D01*
X-1133302Y+4954280D02*
X-1133302Y+4751081D01*
X-930103Y+4751081D02*
X-1133302Y+4751081D01*
X-1336501Y+4751081D02*
X-1133302Y+4751081D01*
X-2120806Y+2726048D02*
X-1917607Y+2726048D01*
X-1714408Y+2726048D02*
X-1917607Y+2726048D01*
X-1917607Y+2522849D02*
X-1917607Y+2726048D01*
X-1917607Y+2929247D02*
X-1917607Y+2726048D01*
X+2383161Y+366312D02*
X+2383161Y+536611D01*
X+2553460Y+536611D02*
X+2383161Y+536611D01*
X-1155607Y+5177149D02*
X-1155607Y+5393048D01*
X-1155607Y+5608947D02*
X-1155607Y+5393048D01*
X+2870292Y+5647048D02*
X+2654393Y+5647048D01*
X+2654393Y+5431149D02*
X+2654393Y+5647048D01*
X+2654393Y+5862947D02*
X+2654393Y+5647048D01*
X+9025260Y+4103760D02*
X+9025260Y+3887861D01*
X+8809361Y+3887861D02*
X+9025260Y+3887861D01*
X+9025260Y+2960760D02*
X+9025260Y+2744861D01*
X+9241159Y+2744861D02*
X+9025260Y+2744861D01*
X+8809361Y+2744861D02*
X+9025260Y+2744861D01*
X+9025260Y+5246760D02*
X+9025260Y+5030861D01*
X+9241159Y+5030861D02*
X+9025260Y+5030861D01*
X+8809361Y+5030861D02*
X+9025260Y+5030861D01*
X+4686393Y+4161149D02*
X+4686393Y+4377048D01*
X+4470494Y+4377048D02*
X+4686393Y+4377048D01*
X+4902292Y+4377048D02*
X+4686393Y+4377048D01*
X+8472977Y+6107441D02*
X+8269778Y+6107441D01*
X+8066579Y+6107441D02*
X+8269778Y+6107441D01*
X+8269778Y+6310640D02*
X+8269778Y+6107441D01*
X+7058520Y+5848831D02*
X+7261719Y+5848831D01*
X+7464918Y+5848831D02*
X+7261719Y+5848831D01*
X+7261719Y+5645632D02*
X+7261719Y+5848831D01*
X+4686393Y+3018149D02*
X+4686393Y+3234048D01*
X+4470494Y+3234048D02*
X+4686393Y+3234048D01*
X+4902292Y+3234048D02*
X+4686393Y+3234048D01*
X+4669161Y+1840712D02*
X+4669161Y+2056611D01*
X+4885060Y+2056611D02*
X+4669161Y+2056611D01*
X+6454141Y+3202151D02*
X+6885940Y+3202151D01*
X+7317739Y+3202151D02*
X+6885940Y+3202151D01*
X+6885940Y+2770352D02*
X+6885940Y+3202151D01*
X+6885940Y+3633950D02*
X+6885940Y+3202151D01*
X+9008028Y+1783323D02*
X+9008028Y+1567424D01*
X+9223927Y+1567424D02*
X+9008028Y+1567424D01*
X+8792129Y+1567424D02*
X+9008028Y+1567424D01*
X+4669161Y+697712D02*
X+4669161Y+913611D01*
X+4453262Y+913611D02*
X+4669161Y+913611D01*
X+4885060Y+913611D02*
X+4669161Y+913611D01*
X-4422601Y+1957081D02*
X-4181302Y+1957081D01*
X-3178003Y+2211081D02*
X-3419302Y+2211081D01*
X-5248103Y+1730081D02*
X-5451302Y+1730081D01*
X-5451302Y+1933280D02*
X-5451302Y+1730081D01*
X-5908501Y+460081D02*
X-5705302Y+460081D01*
X-5705302Y+256882D02*
X-5705302Y+460081D01*
X-2149302Y+5170182D02*
X-2149302Y+5386081D01*
X-2740660Y+4418401D02*
X-2740660Y+4588700D01*
X-2910959Y+4588700D02*
X-2740660Y+4588700D01*
X-7483302Y+4001782D02*
X-7483302Y+4243081D01*
X-7483302Y+4484380D02*
X-7483302Y+4243081D01*
X-6514638Y+5849608D02*
X-6514638Y+5640059D01*
X-6724187Y+5640059D02*
X-6514638Y+5640059D01*
X-6305089Y+5640059D02*
X-6514638Y+5640059D01*
X+372917Y+6287781D02*
X+106218Y+6287781D01*
X+106218Y+6021082D02*
X+106218Y+6287781D01*
X+106218Y+6554480D02*
X+106218Y+6287781D01*
X-5481782Y+3890022D02*
X-5481782Y+4156721D01*
X-5481782Y+4423420D02*
X-5481782Y+4156721D01*
X-2743200Y+3797301D02*
X-2743200Y+4000500D01*
X-2743200Y+4203699D02*
X-2743200Y+4000500D01*
X-2946399Y+4000500D02*
X-2743200Y+4000500D01*
X-2979419Y+1452880D02*
X-2763520Y+1452880D01*
X-2547621Y+1452880D02*
X-2763520Y+1452880D01*
X-5270499Y+1932940D02*
X-5054600Y+1932940D01*
X-4838701Y+1932940D02*
X-5054600Y+1932940D01*
X-1866900Y+4573959D02*
X-1866900Y+4395660D01*
X-1866900Y+4217361D02*
X-1866900Y+4395660D01*
X-2045199Y+4395660D02*
X-1866900Y+4395660D01*
X-1688601Y+4395660D02*
X-1866900Y+4395660D01*
X-2374900Y-1015999D02*
X-2374900Y-812800D01*
X-2578099Y-812800D02*
X-2374900Y-812800D01*
X-2171701Y-812800D02*
X-2374900Y-812800D01*
X+535940Y-1224279D02*
X+535940Y-1046480D01*
X+535940Y-868681D02*
X+535940Y-1046480D01*
D20*
X+25493Y+3361048D03*
X+279493Y+3361048D03*
X+533493Y+3361048D03*
X+787493Y+3361048D03*
X+1041493Y+3361048D03*
X+1295493Y+3361048D03*
X+1549493Y+3361048D03*
X+1803493Y+3361048D03*
X+2057493Y+3361048D03*
X+2057493Y+4123048D03*
X+1803493Y+4123048D03*
X+1549493Y+4123048D03*
X+1295493Y+4123048D03*
X+1041493Y+4123048D03*
X+787493Y+4123048D03*
X+533493Y+4123048D03*
X+279493Y+4123048D03*
X+25493Y+4123048D03*
D21*
X-647607Y+1583048D03*
X-647607Y+2599048D03*
X-393607Y+2599048D03*
X-393607Y+1583048D03*
X-139607Y+2599048D03*
X-139607Y+1583048D03*
X+1638393Y+2599048D03*
X+1638393Y+1583048D03*
D22*
X+980393Y+1710048D03*
D23*
X+1130393Y+1710048D03*
D21*
X+1638393Y+821048D03*
X+1638393Y+313048D03*
X+368393Y+1583048D03*
X+368393Y+2599048D03*
X+622393Y+2599048D03*
X+622393Y+1583048D03*
X+1892393Y+1583048D03*
X+1892393Y+2599048D03*
X+2146393Y+2599048D03*
X+2146393Y+1583048D03*
X+2654393Y+1583048D03*
X+2654393Y+2599048D03*
X+2394757Y+5084786D03*
X+1378757Y+5084786D03*
X+1384393Y+4758048D03*
X+2400393Y+4758048D03*
D24*
X+2908393Y+948048D03*
X+3416393Y+948048D03*
X+3162393Y+694048D03*
X+2781393Y+2980048D03*
X+3289393Y+2980048D03*
X+3035393Y+2726048D03*
D25*
X+880393Y+2726048D03*
D26*
X+1130393Y+2726048D03*
D21*
X+605161Y+5993611D03*
X+605161Y+4977611D03*
X+368393Y+4758048D03*
X-647607Y+4758048D03*
X-664839Y+5485611D03*
X+351161Y+5485611D03*
X+2781393Y+3488048D03*
X+2781393Y+3996048D03*
D25*
X-1133302Y+3735081D03*
D26*
X-1383302Y+3735081D03*
D21*
X-1133302Y+4243081D03*
X-1133302Y+4751081D03*
X-1917607Y+2726048D03*
X-1409607Y+2726048D03*
D25*
X+2383161Y+786611D03*
D26*
X+2383161Y+536611D03*
D21*
X+2908393Y+2091048D03*
X+3924393Y+2091048D03*
D27*
X+3327493Y+5088248D03*
X+3327493Y+4072248D03*
X+3746593Y+5088248D03*
X+3746593Y+4072248D03*
D21*
X+114393Y+1710048D03*
X+114393Y+694048D03*
D28*
X-1409607Y+5393048D03*
X-1155607Y+5393048D03*
X-901607Y+5393048D03*
D21*
X-647607Y+5739611D03*
X+368393Y+5739611D03*
D28*
X+2400393Y+5647048D03*
X+2654393Y+5647048D03*
D29*
X+9714958Y+6771621D03*
X+9574958Y-888379D03*
D21*
X+9406260Y+2871861D03*
X+9406260Y+3887861D03*
D28*
X+9025260Y+3379861D03*
X+9025260Y+3633861D03*
X+9025260Y+3887861D03*
X+9025260Y+2236861D03*
X+9025260Y+2490861D03*
X+9025260Y+2744861D03*
X+9025260Y+4522861D03*
X+9025260Y+4776861D03*
X+9025260Y+5030861D03*
X+4686393Y+4885048D03*
X+4686393Y+4631048D03*
X+4686393Y+4377048D03*
D21*
X+8269778Y+6107441D03*
X+7253778Y+6107441D03*
X+4099653Y+5472416D03*
X+4099653Y+4456416D03*
X+7261719Y+5848831D03*
X+8277719Y+5848831D03*
X+9406260Y+2236861D03*
X+9406260Y+1220861D03*
X+9406260Y+4522861D03*
X+9406260Y+5538861D03*
X+4305393Y+4123048D03*
X+4305393Y+3107048D03*
X+4305393Y+2472048D03*
X+4305393Y+1456048D03*
D28*
X+4686393Y+3742048D03*
X+4686393Y+3488048D03*
X+4686393Y+3234048D03*
X+4669161Y+2564611D03*
X+4669161Y+2310611D03*
X+4669161Y+2056611D03*
D29*
X+6885940Y+3202151D03*
X+5715000Y+4638040D03*
X+8117840Y+4658360D03*
D28*
X+9008028Y+1059424D03*
X+9008028Y+1313424D03*
X+9008028Y+1567424D03*
X+4669161Y+1421611D03*
X+4669161Y+1167611D03*
X+4669161Y+913611D03*
D21*
X+9643028Y+678424D03*
X+9643028Y+1694424D03*
X+4034161Y+786611D03*
X+4034161Y+1802611D03*
D72*
X-4181302Y+3735081D03*
X-4181302Y+3481081D03*
X-4181302Y+3227081D03*
X-4181302Y+2973081D03*
X-4181302Y+2719081D03*
X-4181302Y+2465081D03*
X-4181302Y+2211081D03*
X-4181302Y+1957081D03*
X-4181302Y+1703081D03*
X-4181302Y+1449081D03*
X-4181302Y+1195081D03*
X-4181302Y+941081D03*
X-4181302Y+687081D03*
X-4181302Y+433081D03*
X-3419302Y+433081D03*
X-3419302Y+687081D03*
X-3419302Y+941081D03*
X-3419302Y+1195081D03*
X-3419302Y+1449081D03*
X-3419302Y+1703081D03*
X-3419302Y+1957081D03*
X-3419302Y+2211081D03*
X-3419302Y+2465081D03*
X-3419302Y+2719081D03*
X-3419302Y+2973081D03*
X-3419302Y+3227081D03*
X-3419302Y+3481081D03*
X-3419302Y+3733081D03*
D21*
X-5705302Y+1730081D03*
X-5451302Y+1730081D03*
X-5451302Y+460081D03*
X-5705302Y+460081D03*
D24*
X-5578302Y+1349081D03*
X-5578302Y+841081D03*
D28*
X-2403302Y+5386081D03*
X-2149302Y+5386081D03*
X-1895302Y+5386081D03*
D25*
X-2740660Y+4838700D03*
D26*
X-2740660Y+4588700D03*
D20*
X-7991302Y+4243081D03*
X-7737302Y+4243081D03*
X-7483302Y+4243081D03*
X-7229302Y+4243081D03*
X-6975302Y+4243081D03*
X-6721302Y+4243081D03*
D21*
X-2410602Y+3989081D03*
X-2410602Y+2973081D03*
D29*
X-8335042Y+6611621D03*
D28*
X-6515562Y+6150621D03*
X-6515562Y+6404621D03*
X-6515562Y+6658621D03*
D73*
X-6514638Y+5640059D03*
X-6514638Y+5411459D03*
X-6514638Y+5182859D03*
D21*
X-5832302Y+6424941D03*
X-5832302Y+5408941D03*
X-5893262Y+2457461D03*
X-5893262Y+3473461D03*
X-4171606Y+4014481D03*
X-3155606Y+4014481D03*
D30*
X-290022Y+6287781D03*
X+106218Y+6287781D03*
X-5481782Y+4156721D03*
X-5085542Y+4156721D03*
D21*
X-2743200Y+2984500D03*
X-2743200Y+4000500D03*
D24*
X-2763520Y+1706880D03*
X-2763520Y+1452880D03*
X-5054600Y+2186940D03*
X-5054600Y+1932940D03*
D29*
X-8256302Y-843279D03*
X+5735320Y+1590040D03*
X+8041640Y+1628140D03*
D24*
X-2148840Y+1559560D03*
X-1894840Y+1559560D03*
D27*
X-1793240Y+1115060D03*
X-2809240Y+1115060D03*
X-1435100Y+2252980D03*
X-2451100Y+2252980D03*
D30*
X-1426424Y+177800D03*
X-918424Y+177800D03*
D21*
X-1435100Y+886460D03*
X-1435100Y+1902460D03*
X-1043412Y+878839D03*
X-1043412Y+1894839D03*
D31*
X-1866900Y+4895660D03*
D32*
X-1866900Y+4395660D03*
D33*
X-4211320Y-71120D03*
D34*
X-4211320Y-579120D03*
X-3449320Y-71120D03*
X-3449320Y-579120D03*
D21*
X-243840Y-284480D03*
X-243840Y+731520D03*
X-2862580Y+182880D03*
X-2862580Y-833120D03*
X-576580Y+731520D03*
X-576580Y-284480D03*
X-1905000Y+203200D03*
X-1905000Y-812800D03*
X-2374900Y+203200D03*
X-2374900Y-812800D03*
D33*
X+281940Y-1046480D03*
D34*
X+535940Y-1046480D03*
X+789940Y-1046480D03*
X+789940Y-284480D03*
X+535940Y-284480D03*
X+281940Y-284480D03*
D28*
X+1729740Y-373380D03*
X+1729740Y-627380D03*
X+1729740Y-881380D03*
D35*
X-4993640Y-205740D03*
D36*
X-4739640Y-205740D03*
X-4739640Y+556260D03*
X-4993640Y+556260D03*
D28*
X+8255000Y-187960D03*
D37*
X+2265680Y-652780D03*
D38*
X-8914092Y-1536812D02*
X+10221608Y-1536812D01*
X+10221608Y+7414888D01*
X-8914092Y+7414888D01*
X-8914092Y-1536812D01*
M02*
