G04 PROTEUS GERBER X2 FILE*
%TF.GenerationSoftware,Labcenter,Proteus,8.9-SP2-Build28501*%
%TF.CreationDate,2020-09-19T11:29:23+00:00*%
%TF.FileFunction,Plated,0,1,PTH*%
%TF.FilePolarity,Positive*%
%TF.Part,Single*%
%TF.SameCoordinates,{772acfa9-d1b3-496f-bd10-68e06d5fd469}*%
%FSLAX45Y45*%
%MOMM*%
G01*
%TA.AperFunction,ViaDrill*%
%ADD105C,0.381000*%
%TA.AperFunction,ComponentDrill*%
%ADD106C,0.762000*%
%TA.AperFunction,ComponentDrill*%
%ADD107C,0.700000*%
%ADD108C,0.750000*%
%ADD109C,1.016000*%
%TA.AperFunction,OtherDrill,Unknown*%
%ADD110C,4.000000*%
%TA.AperFunction,ComponentDrill*%
%ADD111C,1.000000*%
%TA.AperFunction,ComponentDrill*%
%ADD112C,1.778000*%
%ADD113C,1.524000*%
%ADD114C,0.850000*%
%TA.AperFunction,ComponentDrill*%
%ADD115C,0.800000*%
%TA.AperFunction,OtherDrill,Unknown*%
%ADD116C,1.524000*%
%TD.AperFunction*%
D105*
X-2898850Y+5358755D03*
X-2914577Y+6443955D03*
D106*
X+25493Y+3361048D03*
X+279493Y+3361048D03*
X+533493Y+3361048D03*
X+787493Y+3361048D03*
X+1041493Y+3361048D03*
X+1295493Y+3361048D03*
X+1549493Y+3361048D03*
X+1803493Y+3361048D03*
X+2057493Y+3361048D03*
X+2057493Y+4123048D03*
X+1803493Y+4123048D03*
X+1549493Y+4123048D03*
X+1295493Y+4123048D03*
X+1041493Y+4123048D03*
X+787493Y+4123048D03*
X+533493Y+4123048D03*
X+279493Y+4123048D03*
X+25493Y+4123048D03*
X-647607Y+1583048D03*
X-647607Y+2599048D03*
X-393607Y+2599048D03*
X-393607Y+1583048D03*
X-139607Y+2599048D03*
X-139607Y+1583048D03*
X+1638393Y+2599048D03*
X+1638393Y+1583048D03*
D107*
X+980393Y+1710048D03*
X+1130393Y+1710048D03*
D106*
X+1638393Y+821048D03*
X+1638393Y+313048D03*
X+368393Y+1583048D03*
X+368393Y+2599048D03*
X+622393Y+2599048D03*
X+622393Y+1583048D03*
X+1892393Y+1583048D03*
X+1892393Y+2599048D03*
X+2146393Y+2599048D03*
X+2146393Y+1583048D03*
X+2654393Y+1583048D03*
X+2654393Y+2599048D03*
X+2394757Y+5084786D03*
X+1378757Y+5084786D03*
X+1384393Y+4758048D03*
X+2400393Y+4758048D03*
X+2908393Y+948048D03*
X+3416393Y+948048D03*
X+3162393Y+694048D03*
X+2781393Y+2980048D03*
X+3289393Y+2980048D03*
X+3035393Y+2726048D03*
D108*
X+880393Y+2726048D03*
X+1130393Y+2726048D03*
D106*
X+605161Y+5993611D03*
X+605161Y+4977611D03*
X+368393Y+4758048D03*
X-647607Y+4758048D03*
X-664839Y+5485611D03*
X+351161Y+5485611D03*
X+2781393Y+3488048D03*
X+2781393Y+3996048D03*
D108*
X-1133302Y+3735081D03*
X-1383302Y+3735081D03*
D106*
X-1133302Y+4243081D03*
X-1133302Y+4751081D03*
X-1917607Y+2726048D03*
X-1409607Y+2726048D03*
D108*
X+2383161Y+786611D03*
X+2383161Y+536611D03*
D106*
X+2908393Y+2091048D03*
X+3924393Y+2091048D03*
D109*
X+3327493Y+5088248D03*
X+3327493Y+4072248D03*
X+3746593Y+5088248D03*
X+3746593Y+4072248D03*
D106*
X+114393Y+1710048D03*
X+114393Y+694048D03*
D109*
X-1409607Y+5393048D03*
X-1155607Y+5393048D03*
X-901607Y+5393048D03*
D106*
X-647607Y+5739611D03*
X+368393Y+5739611D03*
D109*
X+2400393Y+5647048D03*
X+2654393Y+5647048D03*
D110*
X+9714958Y+6771621D03*
X+9574958Y-888379D03*
D106*
X+9406260Y+2871861D03*
X+9406260Y+3887861D03*
D109*
X+9025260Y+3379861D03*
X+9025260Y+3633861D03*
X+9025260Y+3887861D03*
X+9025260Y+2236861D03*
X+9025260Y+2490861D03*
X+9025260Y+2744861D03*
X+9025260Y+4522861D03*
X+9025260Y+4776861D03*
X+9025260Y+5030861D03*
X+4686393Y+4885048D03*
X+4686393Y+4631048D03*
X+4686393Y+4377048D03*
D106*
X+8269778Y+6107441D03*
X+7253778Y+6107441D03*
X+4099653Y+5472416D03*
X+4099653Y+4456416D03*
X+7261719Y+5848831D03*
X+8277719Y+5848831D03*
X+9406260Y+2236861D03*
X+9406260Y+1220861D03*
X+9406260Y+4522861D03*
X+9406260Y+5538861D03*
X+4305393Y+4123048D03*
X+4305393Y+3107048D03*
X+4305393Y+2472048D03*
X+4305393Y+1456048D03*
D109*
X+4686393Y+3742048D03*
X+4686393Y+3488048D03*
X+4686393Y+3234048D03*
X+4669161Y+2564611D03*
X+4669161Y+2310611D03*
X+4669161Y+2056611D03*
D110*
X+6885940Y+3202151D03*
X+5715000Y+4638040D03*
X+8117840Y+4658360D03*
D109*
X+9008028Y+1059424D03*
X+9008028Y+1313424D03*
X+9008028Y+1567424D03*
X+4669161Y+1421611D03*
X+4669161Y+1167611D03*
X+4669161Y+913611D03*
D106*
X+9643028Y+678424D03*
X+9643028Y+1694424D03*
X+4034161Y+786611D03*
X+4034161Y+1802611D03*
D111*
X-4181302Y+3735081D03*
X-4181302Y+3481081D03*
X-4181302Y+3227081D03*
X-4181302Y+2973081D03*
X-4181302Y+2719081D03*
X-4181302Y+2465081D03*
X-4181302Y+2211081D03*
X-4181302Y+1957081D03*
X-4181302Y+1703081D03*
X-4181302Y+1449081D03*
X-4181302Y+1195081D03*
X-4181302Y+941081D03*
X-4181302Y+687081D03*
X-4181302Y+433081D03*
X-3419302Y+433081D03*
X-3419302Y+687081D03*
X-3419302Y+941081D03*
X-3419302Y+1195081D03*
X-3419302Y+1449081D03*
X-3419302Y+1703081D03*
X-3419302Y+1957081D03*
X-3419302Y+2211081D03*
X-3419302Y+2465081D03*
X-3419302Y+2719081D03*
X-3419302Y+2973081D03*
X-3419302Y+3227081D03*
X-3419302Y+3481081D03*
X-3419302Y+3733081D03*
D106*
X-5705302Y+1730081D03*
X-5451302Y+1730081D03*
X-5451302Y+460081D03*
X-5705302Y+460081D03*
X-5578302Y+1349081D03*
X-5578302Y+841081D03*
D109*
X-2403302Y+5386081D03*
X-2149302Y+5386081D03*
X-1895302Y+5386081D03*
D108*
X-2740660Y+4838700D03*
X-2740660Y+4588700D03*
D111*
X-7991302Y+4243081D03*
X-7737302Y+4243081D03*
X-7483302Y+4243081D03*
X-7229302Y+4243081D03*
X-6975302Y+4243081D03*
X-6721302Y+4243081D03*
D106*
X-2410602Y+3989081D03*
X-2410602Y+2973081D03*
D110*
X-8335042Y+6611621D03*
D109*
X-6515562Y+6150621D03*
X-6515562Y+6404621D03*
X-6515562Y+6658621D03*
X-6514638Y+5640059D03*
X-6514638Y+5411459D03*
X-6514638Y+5182859D03*
D106*
X-5832302Y+6424941D03*
X-5832302Y+5408941D03*
X-5893262Y+2457461D03*
X-5893262Y+3473461D03*
X-4171606Y+4014481D03*
X-3155606Y+4014481D03*
D112*
X-290022Y+6287781D03*
X+106218Y+6287781D03*
X-5481782Y+4156721D03*
X-5085542Y+4156721D03*
D106*
X-2743200Y+2984500D03*
X-2743200Y+4000500D03*
X-2763520Y+1706880D03*
X-2763520Y+1452880D03*
X-5054600Y+2186940D03*
X-5054600Y+1932940D03*
D110*
X-8256302Y-843279D03*
X+5735320Y+1590040D03*
X+8041640Y+1628140D03*
D106*
X-2148840Y+1559560D03*
X-1894840Y+1559560D03*
D109*
X-1793240Y+1115060D03*
X-2809240Y+1115060D03*
X-1435100Y+2252980D03*
X-2451100Y+2252980D03*
D113*
X-1426424Y+177800D03*
X-918424Y+177800D03*
D106*
X-1435100Y+886460D03*
X-1435100Y+1902460D03*
X-1043412Y+878839D03*
X-1043412Y+1894839D03*
D114*
X-1866900Y+4895660D03*
X-1866900Y+4395660D03*
D106*
X-4211320Y-71120D03*
X-4211320Y-579120D03*
X-3449320Y-71120D03*
X-3449320Y-579120D03*
X-243840Y-284480D03*
X-243840Y+731520D03*
X-2862580Y+182880D03*
X-2862580Y-833120D03*
X-576580Y+731520D03*
X-576580Y-284480D03*
X-1905000Y+203200D03*
X-1905000Y-812800D03*
X-2374900Y+203200D03*
X-2374900Y-812800D03*
X+281940Y-1046480D03*
X+535940Y-1046480D03*
X+789940Y-1046480D03*
X+789940Y-284480D03*
X+535940Y-284480D03*
X+281940Y-284480D03*
D109*
X+1729740Y-373380D03*
X+1729740Y-627380D03*
X+1729740Y-881380D03*
D115*
X-4993640Y-205740D03*
X-4739640Y-205740D03*
X-4739640Y+556260D03*
X-4993640Y+556260D03*
D109*
X+8255000Y-187960D03*
D116*
X+2265680Y-652780D03*
M02*
