G04 PROTEUS GERBER X2 FILE*
%TF.GenerationSoftware,Labcenter,Proteus,8.9-SP2-Build28501*%
%TF.CreationDate,2020-09-19T11:29:23+00:00*%
%TF.FileFunction,Soldermask,Bot*%
%TF.FilePolarity,Negative*%
%TF.Part,Single*%
%TF.SameCoordinates,{772acfa9-d1b3-496f-bd10-68e06d5fd469}*%
%FSLAX45Y45*%
%MOMM*%
G01*
%TA.AperFunction,Material*%
%ADD42C,1.016000*%
%AMPPAD037*
4,1,8,
-0.509800,1.397000,
0.509800,1.397000,
0.889000,1.017800,
0.889000,-1.017800,
0.509800,-1.397000,
-0.509800,-1.397000,
-0.889000,-1.017800,
-0.889000,1.017800,
-0.509800,1.397000,
0*%
%TA.AperFunction,Material*%
%ADD43PPAD037*%
%TA.AperFunction,Material*%
%ADD44C,2.032000*%
%AMPPAD039*
4,1,4,
-0.525000,0.525000,
0.525000,0.525000,
0.525000,-0.525000,
-0.525000,-0.525000,
-0.525000,0.525000,
0*%
%ADD45PPAD039*%
%ADD46C,1.050000*%
%TA.AperFunction,Material*%
%ADD47C,2.286000*%
%AMPPAD042*
4,1,4,
-0.560000,0.560000,
0.560000,0.560000,
0.560000,-0.560000,
-0.560000,-0.560000,
-0.560000,0.560000,
0*%
%TA.AperFunction,Material*%
%ADD48PPAD042*%
%ADD49C,1.120000*%
%ADD50C,2.540000*%
%AMPPAD045*
4,1,36,
-1.016000,1.143000,
1.016000,1.143000,
1.041970,1.140470,
1.065980,1.133200,
1.087580,1.121650,
1.106290,1.106290,
1.121650,1.087570,
1.133200,1.065980,
1.140470,1.041970,
1.143000,1.016000,
1.143000,-1.016000,
1.140470,-1.041970,
1.133200,-1.065980,
1.121650,-1.087570,
1.106290,-1.106290,
1.087580,-1.121650,
1.065980,-1.133200,
1.041970,-1.140470,
1.016000,-1.143000,
-1.016000,-1.143000,
-1.041970,-1.140470,
-1.065980,-1.133200,
-1.087580,-1.121650,
-1.106290,-1.106290,
-1.121650,-1.087570,
-1.133200,-1.065980,
-1.140470,-1.041970,
-1.143000,-1.016000,
-1.143000,1.016000,
-1.140470,1.041970,
-1.133200,1.065980,
-1.121650,1.087570,
-1.106290,1.106290,
-1.087580,1.121650,
-1.065980,1.133200,
-1.041970,1.140470,
-1.016000,1.143000,
0*%
%TA.AperFunction,Material*%
%ADD51PPAD045*%
%TA.AperFunction,Material*%
%ADD52C,6.604000*%
%AMPPAD047*
4,1,36,
-1.143000,-1.016000,
-1.143000,1.016000,
-1.140470,1.041970,
-1.133200,1.065980,
-1.121650,1.087580,
-1.106290,1.106290,
-1.087570,1.121650,
-1.065980,1.133200,
-1.041970,1.140470,
-1.016000,1.143000,
1.016000,1.143000,
1.041970,1.140470,
1.065980,1.133200,
1.087570,1.121650,
1.106290,1.106290,
1.121650,1.087580,
1.133200,1.065980,
1.140470,1.041970,
1.143000,1.016000,
1.143000,-1.016000,
1.140470,-1.041970,
1.133200,-1.065980,
1.121650,-1.087580,
1.106290,-1.106290,
1.087570,-1.121650,
1.065980,-1.133200,
1.041970,-1.140470,
1.016000,-1.143000,
-1.016000,-1.143000,
-1.041970,-1.140470,
-1.065980,-1.133200,
-1.087570,-1.121650,
-1.106290,-1.106290,
-1.121650,-1.087580,
-1.133200,-1.065980,
-1.140470,-1.041970,
-1.143000,-1.016000,
0*%
%TA.AperFunction,Material*%
%ADD53PPAD047*%
%AMPPAD048*
4,1,8,
1.397000,0.509800,
1.397000,-0.509800,
1.017800,-0.889000,
-1.017800,-0.889000,
-1.397000,-0.509800,
-1.397000,0.509800,
-1.017800,0.889000,
1.017800,0.889000,
1.397000,0.509800,
0*%
%TA.AperFunction,Material*%
%ADD54PPAD048*%
%AMPPAD049*
4,1,36,
1.079500,0.952500,
1.079500,-0.952500,
1.076970,-0.978470,
1.069700,-1.002480,
1.058150,-1.024080,
1.042790,-1.042790,
1.024070,-1.058150,
1.002480,-1.069700,
0.978470,-1.076970,
0.952500,-1.079500,
-0.952500,-1.079500,
-0.978470,-1.076970,
-1.002480,-1.069700,
-1.024070,-1.058150,
-1.042790,-1.042790,
-1.058150,-1.024080,
-1.069700,-1.002480,
-1.076970,-0.978470,
-1.079500,-0.952500,
-1.079500,0.952500,
-1.076970,0.978470,
-1.069700,1.002480,
-1.058150,1.024080,
-1.042790,1.042790,
-1.024070,1.058150,
-1.002480,1.069700,
-0.978470,1.076970,
-0.952500,1.079500,
0.952500,1.079500,
0.978470,1.076970,
1.002480,1.069700,
1.024070,1.058150,
1.042790,1.042790,
1.058150,1.024080,
1.069700,1.002480,
1.076970,0.978470,
1.079500,0.952500,
0*%
%TA.AperFunction,Material*%
%ADD55PPAD049*%
%TA.AperFunction,Material*%
%ADD56C,3.302000*%
%AMPPAD051*
4,1,4,
0.640000,0.640000,
0.640000,-0.640000,
-0.640000,-0.640000,
-0.640000,0.640000,
0.640000,0.640000,
0*%
%ADD57PPAD051*%
%ADD58C,1.280000*%
%AMPPAD053*
4,1,36,
0.762000,0.635000,
0.762000,-0.635000,
0.759470,-0.660970,
0.752200,-0.684980,
0.740650,-0.706580,
0.725290,-0.725290,
0.706570,-0.740650,
0.684980,-0.752200,
0.660970,-0.759470,
0.635000,-0.762000,
-0.635000,-0.762000,
-0.660970,-0.759470,
-0.684980,-0.752200,
-0.706570,-0.740650,
-0.725290,-0.725290,
-0.740650,-0.706580,
-0.752200,-0.684980,
-0.759470,-0.660970,
-0.762000,-0.635000,
-0.762000,0.635000,
-0.759470,0.660970,
-0.752200,0.684980,
-0.740650,0.706580,
-0.725290,0.725290,
-0.706570,0.740650,
-0.684980,0.752200,
-0.660970,0.759470,
-0.635000,0.762000,
0.635000,0.762000,
0.660970,0.759470,
0.684980,0.752200,
0.706570,0.740650,
0.725290,0.725290,
0.740650,0.706580,
0.752200,0.684980,
0.759470,0.660970,
0.762000,0.635000,
0*%
%TA.AperFunction,Material*%
%ADD59PPAD053*%
%ADD60C,1.524000*%
%AMPPAD055*
4,1,36,
-0.635000,0.762000,
0.635000,0.762000,
0.660970,0.759470,
0.684980,0.752200,
0.706580,0.740650,
0.725290,0.725290,
0.740650,0.706570,
0.752200,0.684980,
0.759470,0.660970,
0.762000,0.635000,
0.762000,-0.635000,
0.759470,-0.660970,
0.752200,-0.684980,
0.740650,-0.706570,
0.725290,-0.725290,
0.706580,-0.740650,
0.684980,-0.752200,
0.660970,-0.759470,
0.635000,-0.762000,
-0.635000,-0.762000,
-0.660970,-0.759470,
-0.684980,-0.752200,
-0.706580,-0.740650,
-0.725290,-0.725290,
-0.740650,-0.706570,
-0.752200,-0.684980,
-0.759470,-0.660970,
-0.762000,-0.635000,
-0.762000,0.635000,
-0.759470,0.660970,
-0.752200,0.684980,
-0.740650,0.706570,
-0.725290,0.725290,
-0.706580,0.740650,
-0.684980,0.752200,
-0.660970,0.759470,
-0.635000,0.762000,
0*%
%TA.AperFunction,Material*%
%ADD61PPAD055*%
%AMPPAD056*
4,1,4,
-0.600000,-0.600000,
-0.600000,0.600000,
0.600000,0.600000,
0.600000,-0.600000,
-0.600000,-0.600000,
0*%
%TA.AperFunction,Material*%
%ADD62PPAD056*%
%ADD63C,1.200000*%
%TA.AperFunction,Material*%
%ADD64C,2.794000*%
%TA.AperFunction,Profile*%
%ADD38C,0.203200*%
%TD.AperFunction*%
D42*
X-2898850Y+5358755D03*
X-2914577Y+6443955D03*
D43*
X+25493Y+3361048D03*
X+279493Y+3361048D03*
X+533493Y+3361048D03*
X+787493Y+3361048D03*
X+1041493Y+3361048D03*
X+1295493Y+3361048D03*
X+1549493Y+3361048D03*
X+1803493Y+3361048D03*
X+2057493Y+3361048D03*
X+2057493Y+4123048D03*
X+1803493Y+4123048D03*
X+1549493Y+4123048D03*
X+1295493Y+4123048D03*
X+1041493Y+4123048D03*
X+787493Y+4123048D03*
X+533493Y+4123048D03*
X+279493Y+4123048D03*
X+25493Y+4123048D03*
D44*
X-647607Y+1583048D03*
X-647607Y+2599048D03*
X-393607Y+2599048D03*
X-393607Y+1583048D03*
X-139607Y+2599048D03*
X-139607Y+1583048D03*
X+1638393Y+2599048D03*
X+1638393Y+1583048D03*
D45*
X+980393Y+1710048D03*
D46*
X+1130393Y+1710048D03*
D44*
X+1638393Y+821048D03*
X+1638393Y+313048D03*
X+368393Y+1583048D03*
X+368393Y+2599048D03*
X+622393Y+2599048D03*
X+622393Y+1583048D03*
X+1892393Y+1583048D03*
X+1892393Y+2599048D03*
X+2146393Y+2599048D03*
X+2146393Y+1583048D03*
X+2654393Y+1583048D03*
X+2654393Y+2599048D03*
X+2394757Y+5084786D03*
X+1378757Y+5084786D03*
X+1384393Y+4758048D03*
X+2400393Y+4758048D03*
D47*
X+2908393Y+948048D03*
X+3416393Y+948048D03*
X+3162393Y+694048D03*
X+2781393Y+2980048D03*
X+3289393Y+2980048D03*
X+3035393Y+2726048D03*
D48*
X+880393Y+2726048D03*
D49*
X+1130393Y+2726048D03*
D44*
X+605161Y+5993611D03*
X+605161Y+4977611D03*
X+368393Y+4758048D03*
X-647607Y+4758048D03*
X-664839Y+5485611D03*
X+351161Y+5485611D03*
X+2781393Y+3488048D03*
X+2781393Y+3996048D03*
D48*
X-1133302Y+3735081D03*
D49*
X-1383302Y+3735081D03*
D44*
X-1133302Y+4243081D03*
X-1133302Y+4751081D03*
X-1917607Y+2726048D03*
X-1409607Y+2726048D03*
D48*
X+2383161Y+786611D03*
D49*
X+2383161Y+536611D03*
D44*
X+2908393Y+2091048D03*
X+3924393Y+2091048D03*
D50*
X+3327493Y+5088248D03*
X+3327493Y+4072248D03*
X+3746593Y+5088248D03*
X+3746593Y+4072248D03*
D44*
X+114393Y+1710048D03*
X+114393Y+694048D03*
D51*
X-1409607Y+5393048D03*
X-1155607Y+5393048D03*
X-901607Y+5393048D03*
D44*
X-647607Y+5739611D03*
X+368393Y+5739611D03*
D51*
X+2400393Y+5647048D03*
X+2654393Y+5647048D03*
D52*
X+9714958Y+6771621D03*
X+9574958Y-888379D03*
D44*
X+9406260Y+2871861D03*
X+9406260Y+3887861D03*
D53*
X+9025260Y+3379861D03*
X+9025260Y+3633861D03*
X+9025260Y+3887861D03*
X+9025260Y+2236861D03*
X+9025260Y+2490861D03*
X+9025260Y+2744861D03*
X+9025260Y+4522861D03*
X+9025260Y+4776861D03*
X+9025260Y+5030861D03*
X+4686393Y+4885048D03*
X+4686393Y+4631048D03*
X+4686393Y+4377048D03*
D44*
X+8269778Y+6107441D03*
X+7253778Y+6107441D03*
X+4099653Y+5472416D03*
X+4099653Y+4456416D03*
X+7261719Y+5848831D03*
X+8277719Y+5848831D03*
X+9406260Y+2236861D03*
X+9406260Y+1220861D03*
X+9406260Y+4522861D03*
X+9406260Y+5538861D03*
X+4305393Y+4123048D03*
X+4305393Y+3107048D03*
X+4305393Y+2472048D03*
X+4305393Y+1456048D03*
D53*
X+4686393Y+3742048D03*
X+4686393Y+3488048D03*
X+4686393Y+3234048D03*
X+4669161Y+2564611D03*
X+4669161Y+2310611D03*
X+4669161Y+2056611D03*
D52*
X+6885940Y+3202151D03*
X+5715000Y+4638040D03*
X+8117840Y+4658360D03*
D53*
X+9008028Y+1059424D03*
X+9008028Y+1313424D03*
X+9008028Y+1567424D03*
X+4669161Y+1421611D03*
X+4669161Y+1167611D03*
X+4669161Y+913611D03*
D44*
X+9643028Y+678424D03*
X+9643028Y+1694424D03*
X+4034161Y+786611D03*
X+4034161Y+1802611D03*
D54*
X-4181302Y+3735081D03*
X-4181302Y+3481081D03*
X-4181302Y+3227081D03*
X-4181302Y+2973081D03*
X-4181302Y+2719081D03*
X-4181302Y+2465081D03*
X-4181302Y+2211081D03*
X-4181302Y+1957081D03*
X-4181302Y+1703081D03*
X-4181302Y+1449081D03*
X-4181302Y+1195081D03*
X-4181302Y+941081D03*
X-4181302Y+687081D03*
X-4181302Y+433081D03*
X-3419302Y+433081D03*
X-3419302Y+687081D03*
X-3419302Y+941081D03*
X-3419302Y+1195081D03*
X-3419302Y+1449081D03*
X-3419302Y+1703081D03*
X-3419302Y+1957081D03*
X-3419302Y+2211081D03*
X-3419302Y+2465081D03*
X-3419302Y+2719081D03*
X-3419302Y+2973081D03*
X-3419302Y+3227081D03*
X-3419302Y+3481081D03*
X-3419302Y+3733081D03*
D44*
X-5705302Y+1730081D03*
X-5451302Y+1730081D03*
X-5451302Y+460081D03*
X-5705302Y+460081D03*
D47*
X-5578302Y+1349081D03*
X-5578302Y+841081D03*
D51*
X-2403302Y+5386081D03*
X-2149302Y+5386081D03*
X-1895302Y+5386081D03*
D48*
X-2740660Y+4838700D03*
D49*
X-2740660Y+4588700D03*
D43*
X-7991302Y+4243081D03*
X-7737302Y+4243081D03*
X-7483302Y+4243081D03*
X-7229302Y+4243081D03*
X-6975302Y+4243081D03*
X-6721302Y+4243081D03*
D44*
X-2410602Y+3989081D03*
X-2410602Y+2973081D03*
D52*
X-8335042Y+6611621D03*
D53*
X-6515562Y+6150621D03*
X-6515562Y+6404621D03*
X-6515562Y+6658621D03*
D55*
X-6514638Y+5640059D03*
X-6514638Y+5411459D03*
X-6514638Y+5182859D03*
D44*
X-5832302Y+6424941D03*
X-5832302Y+5408941D03*
X-5893262Y+2457461D03*
X-5893262Y+3473461D03*
X-4171606Y+4014481D03*
X-3155606Y+4014481D03*
D56*
X-290022Y+6287781D03*
X+106218Y+6287781D03*
X-5481782Y+4156721D03*
X-5085542Y+4156721D03*
D44*
X-2743200Y+2984500D03*
X-2743200Y+4000500D03*
D47*
X-2763520Y+1706880D03*
X-2763520Y+1452880D03*
X-5054600Y+2186940D03*
X-5054600Y+1932940D03*
D52*
X-8256302Y-843279D03*
X+5735320Y+1590040D03*
X+8041640Y+1628140D03*
D47*
X-2148840Y+1559560D03*
X-1894840Y+1559560D03*
D50*
X-1793240Y+1115060D03*
X-2809240Y+1115060D03*
X-1435100Y+2252980D03*
X-2451100Y+2252980D03*
D56*
X-1426424Y+177800D03*
X-918424Y+177800D03*
D44*
X-1435100Y+886460D03*
X-1435100Y+1902460D03*
X-1043412Y+878839D03*
X-1043412Y+1894839D03*
D57*
X-1866900Y+4895660D03*
D58*
X-1866900Y+4395660D03*
D59*
X-4211320Y-71120D03*
D60*
X-4211320Y-579120D03*
X-3449320Y-71120D03*
X-3449320Y-579120D03*
D44*
X-243840Y-284480D03*
X-243840Y+731520D03*
X-2862580Y+182880D03*
X-2862580Y-833120D03*
X-576580Y+731520D03*
X-576580Y-284480D03*
X-1905000Y+203200D03*
X-1905000Y-812800D03*
X-2374900Y+203200D03*
X-2374900Y-812800D03*
D61*
X+281940Y-1046480D03*
D60*
X+535940Y-1046480D03*
X+789940Y-1046480D03*
X+789940Y-284480D03*
X+535940Y-284480D03*
X+281940Y-284480D03*
D53*
X+1729740Y-373380D03*
X+1729740Y-627380D03*
X+1729740Y-881380D03*
D62*
X-4993640Y-205740D03*
D63*
X-4739640Y-205740D03*
X-4739640Y+556260D03*
X-4993640Y+556260D03*
D51*
X+8255000Y-187960D03*
D64*
X+2265680Y-652780D03*
D38*
X-8914092Y-1536812D02*
X+10221608Y-1536812D01*
X+10221608Y+7414888D01*
X-8914092Y+7414888D01*
X-8914092Y-1536812D01*
M02*
