G04 PROTEUS GERBER X2 FILE*
%TF.GenerationSoftware,Labcenter,Proteus,8.9-SP2-Build28501*%
%TF.CreationDate,2020-09-19T11:29:23+00:00*%
%TF.FileFunction,AssemblyDrawing,Top*%
%TF.FilePolarity,Positive*%
%TF.Part,Single*%
%TF.SameCoordinates,{772acfa9-d1b3-496f-bd10-68e06d5fd469}*%
%FSLAX45Y45*%
%MOMM*%
G01*
%TA.AperFunction,Profile*%
%ADD38C,0.203200*%
%TA.AperFunction,Material*%
%ADD39C,0.203200*%
%ADD66C,1.016000*%
%ADD67C,0.533400*%
%ADD68C,0.711200*%
%ADD69C,0.106680*%
%ADD74C,0.050000*%
%ADD75C,0.420000*%
%ADD76C,0.151660*%
%ADD77C,0.164590*%
%ADD78C,0.812800*%
%ADD79C,0.259080*%
%ADD80C,0.448000*%
%ADD81C,0.228330*%
%ADD82C,0.914400*%
%ADD83C,0.172210*%
%ADD84C,0.240790*%
%ADD85C,0.197270*%
%ADD86C,0.195580*%
%ADD87C,0.132080*%
%ADD88C,0.316990*%
%ADD89C,0.762000*%
%ADD90C,0.182880*%
%ADD91C,1.219200*%
%ADD92C,0.101030*%
%ADD93C,0.069940*%
%ADD94C,0.050800*%
%ADD95C,0.143260*%
%ADD96C,0.172720*%
%ADD97C,0.512000*%
%ADD98C,0.263750*%
%ADD99C,0.222250*%
%ADD100C,0.508000*%
%ADD101C,0.296330*%
%ADD102C,0.480000*%
%ADD103C,0.312330*%
%ADD104C,0.015240*%
%TD.AperFunction*%
D38*
X-8914092Y-1536812D02*
X+10221608Y-1536812D01*
X+10221608Y+7414888D01*
X-8914092Y+7414888D01*
X-8914092Y-1536812D01*
D39*
X-111667Y+3297548D02*
X+2194653Y+3297548D01*
X+2194653Y+4186548D01*
X-111667Y+4186548D01*
X-111667Y+3297548D01*
D66*
X+25493Y+3361048D02*
X+25493Y+3361048D01*
D67*
X+614773Y+3902068D02*
X+614773Y+3635368D01*
X+668113Y+3582028D01*
X+881473Y+3582028D01*
X+934813Y+3635368D01*
X+934813Y+3902068D01*
X+1094833Y+3848728D02*
X+1148173Y+3902068D01*
X+1308193Y+3902068D01*
X+1361533Y+3848728D01*
X+1361533Y+3795388D01*
X+1308193Y+3742048D01*
X+1361533Y+3688708D01*
X+1361533Y+3635368D01*
X+1308193Y+3582028D01*
X+1148173Y+3582028D01*
X+1094833Y+3635368D01*
X+1201513Y+3742048D02*
X+1308193Y+3742048D01*
D39*
X-736507Y+1494148D02*
X-558707Y+1494148D01*
X-558707Y+2687948D01*
X-736507Y+2687948D01*
X-736507Y+1494148D01*
D68*
X-647607Y+1583048D02*
X-647607Y+1583048D01*
D69*
X-615603Y+2005704D02*
X-679611Y+2005704D01*
X-679611Y+2059044D01*
X-668943Y+2069712D01*
X-658275Y+2069712D01*
X-647607Y+2059044D01*
X-647607Y+2005704D01*
X-647607Y+2059044D02*
X-636939Y+2069712D01*
X-615603Y+2069712D01*
X-658275Y+2112384D02*
X-679611Y+2133720D01*
X-615603Y+2133720D01*
D39*
X-482507Y+1494148D02*
X-304707Y+1494148D01*
X-304707Y+2687948D01*
X-482507Y+2687948D01*
X-482507Y+1494148D01*
D68*
X-393607Y+2599048D02*
X-393607Y+2599048D01*
D69*
X-361603Y+2005704D02*
X-425611Y+2005704D01*
X-425611Y+2059044D01*
X-414943Y+2069712D01*
X-404275Y+2069712D01*
X-393607Y+2059044D01*
X-393607Y+2005704D01*
X-393607Y+2059044D02*
X-382939Y+2069712D01*
X-361603Y+2069712D01*
X-414943Y+2101716D02*
X-425611Y+2112384D01*
X-425611Y+2144388D01*
X-414943Y+2155056D01*
X-404275Y+2155056D01*
X-393607Y+2144388D01*
X-393607Y+2112384D01*
X-382939Y+2101716D01*
X-361603Y+2101716D01*
X-361603Y+2155056D01*
D39*
X-228507Y+1494148D02*
X-50707Y+1494148D01*
X-50707Y+2687948D01*
X-228507Y+2687948D01*
X-228507Y+1494148D01*
D68*
X-139607Y+2599048D02*
X-139607Y+2599048D01*
D69*
X-107603Y+2005704D02*
X-171611Y+2005704D01*
X-171611Y+2059044D01*
X-160943Y+2069712D01*
X-150275Y+2069712D01*
X-139607Y+2059044D01*
X-139607Y+2005704D01*
X-139607Y+2059044D02*
X-128939Y+2069712D01*
X-107603Y+2069712D01*
X-160943Y+2101716D02*
X-171611Y+2112384D01*
X-171611Y+2144388D01*
X-160943Y+2155056D01*
X-150275Y+2155056D01*
X-139607Y+2144388D01*
X-128939Y+2155056D01*
X-118271Y+2155056D01*
X-107603Y+2144388D01*
X-107603Y+2112384D01*
X-118271Y+2101716D01*
X-139607Y+2123052D02*
X-139607Y+2144388D01*
D39*
X+1549493Y+1494148D02*
X+1727293Y+1494148D01*
X+1727293Y+2687948D01*
X+1549493Y+2687948D01*
X+1549493Y+1494148D01*
D68*
X+1638393Y+2599048D02*
X+1638393Y+2599048D01*
D69*
X+1670397Y+2005704D02*
X+1606389Y+2005704D01*
X+1606389Y+2059044D01*
X+1617057Y+2069712D01*
X+1627725Y+2069712D01*
X+1638393Y+2059044D01*
X+1638393Y+2005704D01*
X+1638393Y+2059044D02*
X+1649061Y+2069712D01*
X+1670397Y+2069712D01*
X+1649061Y+2155056D02*
X+1649061Y+2091048D01*
X+1606389Y+2133720D01*
X+1670397Y+2133720D01*
D74*
X+1080393Y+1710048D02*
X+1080307Y+1712124D01*
X+1079605Y+1716277D01*
X+1078135Y+1720430D01*
X+1075733Y+1724583D01*
X+1072060Y+1728682D01*
X+1067907Y+1731691D01*
X+1063754Y+1733608D01*
X+1059601Y+1734691D01*
X+1055448Y+1735048D01*
X+1055393Y+1735048D01*
X+1030393Y+1710048D02*
X+1030479Y+1712124D01*
X+1031181Y+1716277D01*
X+1032651Y+1720430D01*
X+1035053Y+1724583D01*
X+1038726Y+1728682D01*
X+1042879Y+1731691D01*
X+1047032Y+1733608D01*
X+1051185Y+1734691D01*
X+1055338Y+1735048D01*
X+1055393Y+1735048D01*
X+1030393Y+1710048D02*
X+1030479Y+1707972D01*
X+1031181Y+1703819D01*
X+1032651Y+1699666D01*
X+1035053Y+1695513D01*
X+1038726Y+1691414D01*
X+1042879Y+1688405D01*
X+1047032Y+1686488D01*
X+1051185Y+1685405D01*
X+1055338Y+1685048D01*
X+1055393Y+1685048D01*
X+1080393Y+1710048D02*
X+1080307Y+1707972D01*
X+1079605Y+1703819D01*
X+1078135Y+1699666D01*
X+1075733Y+1695513D01*
X+1072060Y+1691414D01*
X+1067907Y+1688405D01*
X+1063754Y+1686488D01*
X+1059601Y+1685405D01*
X+1055448Y+1685048D01*
X+1055393Y+1685048D01*
X+1090393Y+1710048D02*
X+1020393Y+1710048D01*
X+1055393Y+1745048D02*
X+1055393Y+1675048D01*
X+830393Y+1935048D02*
X+830393Y+1710048D01*
X+834870Y+1664043D01*
X+847751Y+1621498D01*
X+868213Y+1583239D01*
X+895432Y+1550087D01*
X+928583Y+1522869D01*
X+966843Y+1502406D01*
X+1009388Y+1489525D01*
X+1055393Y+1485048D01*
X+1101398Y+1489525D01*
X+1143943Y+1502406D01*
X+1182203Y+1522869D01*
X+1215354Y+1550087D01*
X+1242573Y+1583239D01*
X+1263035Y+1621498D01*
X+1275916Y+1664043D01*
X+1280393Y+1710048D01*
X+1275916Y+1756053D01*
X+1263035Y+1798598D01*
X+1242573Y+1836857D01*
X+1215354Y+1870009D01*
X+1182203Y+1897227D01*
X+1143943Y+1917690D01*
X+1101398Y+1930571D01*
X+1055393Y+1935048D01*
X+830393Y+1935048D01*
D75*
X+1130393Y+1710048D02*
X+1130393Y+1710048D01*
D76*
X+1025060Y+1679714D02*
X+1009893Y+1664548D01*
X+964394Y+1664548D01*
X+934061Y+1694881D01*
X+934061Y+1725214D01*
X+964394Y+1755547D01*
X+1009893Y+1755547D01*
X+1025060Y+1740381D01*
X+1070559Y+1740381D02*
X+1085726Y+1755547D01*
X+1131225Y+1755547D01*
X+1146392Y+1740381D01*
X+1146392Y+1725214D01*
X+1131225Y+1710048D01*
X+1085726Y+1710048D01*
X+1070559Y+1694881D01*
X+1070559Y+1664548D01*
X+1146392Y+1664548D01*
D39*
X+1501233Y+175888D02*
X+1775553Y+175888D01*
X+1775553Y+958208D01*
X+1501233Y+958208D01*
X+1501233Y+175888D01*
D68*
X+1638393Y+821048D02*
X+1638393Y+821048D01*
D77*
X+1671312Y+534129D02*
X+1687771Y+517670D01*
X+1687771Y+468293D01*
X+1654853Y+435375D01*
X+1621934Y+435375D01*
X+1589016Y+468293D01*
X+1589016Y+517670D01*
X+1605475Y+534129D01*
X+1605475Y+583507D02*
X+1589016Y+599966D01*
X+1589016Y+649343D01*
X+1605475Y+665802D01*
X+1621934Y+665802D01*
X+1638393Y+649343D01*
X+1654853Y+665802D01*
X+1671312Y+665802D01*
X+1687771Y+649343D01*
X+1687771Y+599966D01*
X+1671312Y+583507D01*
X+1638393Y+616425D02*
X+1638393Y+649343D01*
D39*
X+279493Y+1494148D02*
X+457293Y+1494148D01*
X+457293Y+2687948D01*
X+279493Y+2687948D01*
X+279493Y+1494148D01*
D68*
X+368393Y+1583048D02*
X+368393Y+1583048D01*
D69*
X+400397Y+2005704D02*
X+336389Y+2005704D01*
X+336389Y+2059044D01*
X+347057Y+2069712D01*
X+357725Y+2069712D01*
X+368393Y+2059044D01*
X+368393Y+2005704D01*
X+368393Y+2059044D02*
X+379061Y+2069712D01*
X+400397Y+2069712D01*
X+347057Y+2155056D02*
X+336389Y+2144388D01*
X+336389Y+2112384D01*
X+347057Y+2101716D01*
X+389729Y+2101716D01*
X+400397Y+2112384D01*
X+400397Y+2144388D01*
X+389729Y+2155056D01*
X+379061Y+2155056D01*
X+368393Y+2144388D01*
X+368393Y+2101716D01*
D39*
X+533493Y+1494148D02*
X+711293Y+1494148D01*
X+711293Y+2687948D01*
X+533493Y+2687948D01*
X+533493Y+1494148D01*
D68*
X+622393Y+2599048D02*
X+622393Y+2599048D01*
D69*
X+654397Y+2005704D02*
X+590389Y+2005704D01*
X+590389Y+2059044D01*
X+601057Y+2069712D01*
X+611725Y+2069712D01*
X+622393Y+2059044D01*
X+622393Y+2005704D01*
X+622393Y+2059044D02*
X+633061Y+2069712D01*
X+654397Y+2069712D01*
X+590389Y+2101716D02*
X+590389Y+2155056D01*
X+601057Y+2155056D01*
X+654397Y+2101716D01*
D39*
X+1803493Y+1494148D02*
X+1981293Y+1494148D01*
X+1981293Y+2687948D01*
X+1803493Y+2687948D01*
X+1803493Y+1494148D01*
D68*
X+1892393Y+1583048D02*
X+1892393Y+1583048D01*
D69*
X+1924397Y+2005704D02*
X+1860389Y+2005704D01*
X+1860389Y+2059044D01*
X+1871057Y+2069712D01*
X+1881725Y+2069712D01*
X+1892393Y+2059044D01*
X+1892393Y+2005704D01*
X+1892393Y+2059044D02*
X+1903061Y+2069712D01*
X+1924397Y+2069712D01*
X+1892393Y+2112384D02*
X+1881725Y+2101716D01*
X+1871057Y+2101716D01*
X+1860389Y+2112384D01*
X+1860389Y+2144388D01*
X+1871057Y+2155056D01*
X+1881725Y+2155056D01*
X+1892393Y+2144388D01*
X+1892393Y+2112384D01*
X+1903061Y+2101716D01*
X+1913729Y+2101716D01*
X+1924397Y+2112384D01*
X+1924397Y+2144388D01*
X+1913729Y+2155056D01*
X+1903061Y+2155056D01*
X+1892393Y+2144388D01*
D39*
X+2057493Y+1494148D02*
X+2235293Y+1494148D01*
X+2235293Y+2687948D01*
X+2057493Y+2687948D01*
X+2057493Y+1494148D01*
D68*
X+2146393Y+2599048D02*
X+2146393Y+2599048D01*
D69*
X+2178397Y+2005704D02*
X+2114389Y+2005704D01*
X+2114389Y+2059044D01*
X+2125057Y+2069712D01*
X+2135725Y+2069712D01*
X+2146393Y+2059044D01*
X+2146393Y+2005704D01*
X+2146393Y+2059044D02*
X+2157061Y+2069712D01*
X+2178397Y+2069712D01*
X+2135725Y+2155056D02*
X+2146393Y+2144388D01*
X+2146393Y+2112384D01*
X+2135725Y+2101716D01*
X+2125057Y+2101716D01*
X+2114389Y+2112384D01*
X+2114389Y+2144388D01*
X+2125057Y+2155056D01*
X+2167729Y+2155056D01*
X+2178397Y+2144388D01*
X+2178397Y+2112384D01*
D39*
X+2565493Y+1494148D02*
X+2743293Y+1494148D01*
X+2743293Y+2687948D01*
X+2565493Y+2687948D01*
X+2565493Y+1494148D01*
D68*
X+2654393Y+1583048D02*
X+2654393Y+1583048D01*
D69*
X+2686397Y+1963032D02*
X+2622389Y+1963032D01*
X+2622389Y+2016372D01*
X+2633057Y+2027040D01*
X+2643725Y+2027040D01*
X+2654393Y+2016372D01*
X+2654393Y+1963032D01*
X+2654393Y+2016372D02*
X+2665061Y+2027040D01*
X+2686397Y+2027040D01*
X+2643725Y+2069712D02*
X+2622389Y+2091048D01*
X+2686397Y+2091048D01*
X+2675729Y+2133720D02*
X+2633057Y+2133720D01*
X+2622389Y+2144388D01*
X+2622389Y+2187060D01*
X+2633057Y+2197728D01*
X+2675729Y+2197728D01*
X+2686397Y+2187060D01*
X+2686397Y+2144388D01*
X+2675729Y+2133720D01*
X+2686397Y+2133720D02*
X+2622389Y+2197728D01*
D39*
X+1289857Y+4995886D02*
X+2483657Y+4995886D01*
X+2483657Y+5173686D01*
X+1289857Y+5173686D01*
X+1289857Y+4995886D01*
D68*
X+2394757Y+5084786D02*
X+2394757Y+5084786D01*
D69*
X+1758741Y+5052782D02*
X+1758741Y+5116790D01*
X+1812081Y+5116790D01*
X+1822749Y+5106122D01*
X+1822749Y+5095454D01*
X+1812081Y+5084786D01*
X+1758741Y+5084786D01*
X+1812081Y+5084786D02*
X+1822749Y+5074118D01*
X+1822749Y+5052782D01*
X+1865421Y+5095454D02*
X+1886757Y+5116790D01*
X+1886757Y+5052782D01*
X+1950765Y+5095454D02*
X+1972101Y+5116790D01*
X+1972101Y+5052782D01*
D39*
X+1295493Y+4669148D02*
X+2489293Y+4669148D01*
X+2489293Y+4846948D01*
X+1295493Y+4846948D01*
X+1295493Y+4669148D01*
D68*
X+1384393Y+4758048D02*
X+1384393Y+4758048D01*
D69*
X+1764377Y+4726044D02*
X+1764377Y+4790052D01*
X+1817717Y+4790052D01*
X+1828385Y+4779384D01*
X+1828385Y+4768716D01*
X+1817717Y+4758048D01*
X+1764377Y+4758048D01*
X+1817717Y+4758048D02*
X+1828385Y+4747380D01*
X+1828385Y+4726044D01*
X+1871057Y+4768716D02*
X+1892393Y+4790052D01*
X+1892393Y+4726044D01*
X+1945733Y+4779384D02*
X+1956401Y+4790052D01*
X+1988405Y+4790052D01*
X+1999073Y+4779384D01*
X+1999073Y+4768716D01*
X+1988405Y+4758048D01*
X+1956401Y+4758048D01*
X+1945733Y+4747380D01*
X+1945733Y+4726044D01*
X+1999073Y+4726044D01*
D39*
X+2644233Y+493388D02*
X+3680553Y+493388D01*
X+3680553Y+1529708D01*
X+2644233Y+1529708D01*
X+2644233Y+493388D01*
D78*
X+2908393Y+948048D02*
X+2908393Y+948048D01*
D79*
X+2851497Y+933824D02*
X+2851497Y+1089272D01*
X+2981037Y+1089272D01*
X+3006945Y+1063364D01*
X+3006945Y+1037456D01*
X+2981037Y+1011548D01*
X+2851497Y+1011548D01*
X+2981037Y+1011548D02*
X+3006945Y+985640D01*
X+3006945Y+933824D01*
X+3058761Y+1089272D02*
X+3058761Y+1011548D01*
X+3136485Y+933824D01*
X+3214209Y+1011548D01*
X+3214209Y+1089272D01*
X+3317841Y+1037456D02*
X+3369657Y+1089272D01*
X+3369657Y+933824D01*
D39*
X+2517233Y+2525388D02*
X+3553553Y+2525388D01*
X+3553553Y+3561708D01*
X+2517233Y+3561708D01*
X+2517233Y+2525388D01*
D78*
X+2781393Y+2980048D02*
X+2781393Y+2980048D01*
D79*
X+2724497Y+2965824D02*
X+2724497Y+3121272D01*
X+2854037Y+3121272D01*
X+2879945Y+3095364D01*
X+2879945Y+3069456D01*
X+2854037Y+3043548D01*
X+2724497Y+3043548D01*
X+2854037Y+3043548D02*
X+2879945Y+3017640D01*
X+2879945Y+2965824D01*
X+2931761Y+3121272D02*
X+2931761Y+3043548D01*
X+3009485Y+2965824D01*
X+3087209Y+3043548D01*
X+3087209Y+3121272D01*
X+3164933Y+3095364D02*
X+3190841Y+3121272D01*
X+3268565Y+3121272D01*
X+3294473Y+3095364D01*
X+3294473Y+3069456D01*
X+3268565Y+3043548D01*
X+3190841Y+3043548D01*
X+3164933Y+3017640D01*
X+3164933Y+2965824D01*
X+3294473Y+2965824D01*
D74*
X+1030393Y+2726048D02*
X+1030307Y+2728124D01*
X+1029605Y+2732277D01*
X+1028135Y+2736430D01*
X+1025733Y+2740583D01*
X+1022060Y+2744682D01*
X+1017907Y+2747691D01*
X+1013754Y+2749608D01*
X+1009601Y+2750691D01*
X+1005448Y+2751048D01*
X+1005393Y+2751048D01*
X+980393Y+2726048D02*
X+980479Y+2728124D01*
X+981181Y+2732277D01*
X+982651Y+2736430D01*
X+985053Y+2740583D01*
X+988726Y+2744682D01*
X+992879Y+2747691D01*
X+997032Y+2749608D01*
X+1001185Y+2750691D01*
X+1005338Y+2751048D01*
X+1005393Y+2751048D01*
X+980393Y+2726048D02*
X+980479Y+2723972D01*
X+981181Y+2719819D01*
X+982651Y+2715666D01*
X+985053Y+2711513D01*
X+988726Y+2707414D01*
X+992879Y+2704405D01*
X+997032Y+2702488D01*
X+1001185Y+2701405D01*
X+1005338Y+2701048D01*
X+1005393Y+2701048D01*
X+1030393Y+2726048D02*
X+1030307Y+2723972D01*
X+1029605Y+2719819D01*
X+1028135Y+2715666D01*
X+1025733Y+2711513D01*
X+1022060Y+2707414D01*
X+1017907Y+2704405D01*
X+1013754Y+2702488D01*
X+1009601Y+2701405D01*
X+1005448Y+2701048D01*
X+1005393Y+2701048D01*
X+1040393Y+2726048D02*
X+970393Y+2726048D01*
X+1005393Y+2761048D02*
X+1005393Y+2691048D01*
X+665393Y+3066048D02*
X+665393Y+2726048D01*
X+672158Y+2656529D01*
X+691623Y+2592239D01*
X+722544Y+2534424D01*
X+763674Y+2484329D01*
X+813769Y+2443199D01*
X+871584Y+2412278D01*
X+935874Y+2392813D01*
X+1005393Y+2386048D01*
X+1074912Y+2392813D01*
X+1139202Y+2412278D01*
X+1197017Y+2443199D01*
X+1247112Y+2484329D01*
X+1288242Y+2534424D01*
X+1319163Y+2592239D01*
X+1338628Y+2656529D01*
X+1345393Y+2726048D01*
X+1338628Y+2795567D01*
X+1319163Y+2859857D01*
X+1288242Y+2917672D01*
X+1247112Y+2967767D01*
X+1197017Y+3008897D01*
X+1139202Y+3039818D01*
X+1074912Y+3059283D01*
X+1005393Y+3066048D01*
X+665393Y+3066048D01*
D80*
X+1130393Y+2726048D02*
X+1130393Y+2726048D01*
D81*
X+959726Y+2680381D02*
X+936893Y+2657548D01*
X+868393Y+2657548D01*
X+822727Y+2703215D01*
X+822727Y+2748881D01*
X+868393Y+2794548D01*
X+936893Y+2794548D01*
X+959726Y+2771715D01*
X+1142392Y+2703215D02*
X+1005393Y+2703215D01*
X+1096726Y+2794548D01*
X+1096726Y+2657548D01*
D39*
X+516261Y+4888711D02*
X+694061Y+4888711D01*
X+694061Y+6082511D01*
X+516261Y+6082511D01*
X+516261Y+4888711D01*
D68*
X+605161Y+5993611D02*
X+605161Y+5993611D01*
D69*
X+637165Y+5357595D02*
X+573157Y+5357595D01*
X+573157Y+5410935D01*
X+583825Y+5421603D01*
X+594493Y+5421603D01*
X+605161Y+5410935D01*
X+605161Y+5357595D01*
X+605161Y+5410935D02*
X+615829Y+5421603D01*
X+637165Y+5421603D01*
X+594493Y+5464275D02*
X+573157Y+5485611D01*
X+637165Y+5485611D01*
X+583825Y+5538951D02*
X+573157Y+5549619D01*
X+573157Y+5581623D01*
X+583825Y+5592291D01*
X+594493Y+5592291D01*
X+605161Y+5581623D01*
X+615829Y+5592291D01*
X+626497Y+5592291D01*
X+637165Y+5581623D01*
X+637165Y+5549619D01*
X+626497Y+5538951D01*
X+605161Y+5560287D02*
X+605161Y+5581623D01*
D39*
X-736507Y+4669148D02*
X+457293Y+4669148D01*
X+457293Y+4846948D01*
X-736507Y+4846948D01*
X-736507Y+4669148D01*
D68*
X+368393Y+4758048D02*
X+368393Y+4758048D01*
D69*
X-267623Y+4726044D02*
X-267623Y+4790052D01*
X-214283Y+4790052D01*
X-203615Y+4779384D01*
X-203615Y+4768716D01*
X-214283Y+4758048D01*
X-267623Y+4758048D01*
X-214283Y+4758048D02*
X-203615Y+4747380D01*
X-203615Y+4726044D01*
X-160943Y+4768716D02*
X-139607Y+4790052D01*
X-139607Y+4726044D01*
X-32927Y+4747380D02*
X-96935Y+4747380D01*
X-54263Y+4790052D01*
X-54263Y+4726044D01*
D39*
X-753739Y+5396711D02*
X+440061Y+5396711D01*
X+440061Y+5574511D01*
X-753739Y+5574511D01*
X-753739Y+5396711D01*
D68*
X-664839Y+5485611D02*
X-664839Y+5485611D01*
D69*
X-284855Y+5453607D02*
X-284855Y+5517615D01*
X-231515Y+5517615D01*
X-220847Y+5506947D01*
X-220847Y+5496279D01*
X-231515Y+5485611D01*
X-284855Y+5485611D01*
X-231515Y+5485611D02*
X-220847Y+5474943D01*
X-220847Y+5453607D01*
X-178175Y+5496279D02*
X-156839Y+5517615D01*
X-156839Y+5453607D01*
X-50159Y+5517615D02*
X-103499Y+5517615D01*
X-103499Y+5496279D01*
X-60827Y+5496279D01*
X-50159Y+5485611D01*
X-50159Y+5464275D01*
X-60827Y+5453607D01*
X-92831Y+5453607D01*
X-103499Y+5464275D01*
D39*
X+2644233Y+3350888D02*
X+2918553Y+3350888D01*
X+2918553Y+4133208D01*
X+2644233Y+4133208D01*
X+2644233Y+3350888D01*
D68*
X+2781393Y+3488048D02*
X+2781393Y+3488048D01*
D77*
X+2814312Y+3709129D02*
X+2830771Y+3692670D01*
X+2830771Y+3643293D01*
X+2797853Y+3610375D01*
X+2764934Y+3610375D01*
X+2732016Y+3643293D01*
X+2732016Y+3692670D01*
X+2748475Y+3709129D01*
X+2732016Y+3840802D02*
X+2732016Y+3758507D01*
X+2764934Y+3758507D01*
X+2764934Y+3824343D01*
X+2781393Y+3840802D01*
X+2814312Y+3840802D01*
X+2830771Y+3824343D01*
X+2830771Y+3774966D01*
X+2814312Y+3758507D01*
D74*
X-1233302Y+3735081D02*
X-1233388Y+3737157D01*
X-1234090Y+3741310D01*
X-1235560Y+3745463D01*
X-1237962Y+3749616D01*
X-1241635Y+3753715D01*
X-1245788Y+3756724D01*
X-1249941Y+3758641D01*
X-1254094Y+3759724D01*
X-1258247Y+3760081D01*
X-1258302Y+3760081D01*
X-1283302Y+3735081D02*
X-1283216Y+3737157D01*
X-1282514Y+3741310D01*
X-1281044Y+3745463D01*
X-1278642Y+3749616D01*
X-1274969Y+3753715D01*
X-1270816Y+3756724D01*
X-1266663Y+3758641D01*
X-1262510Y+3759724D01*
X-1258357Y+3760081D01*
X-1258302Y+3760081D01*
X-1283302Y+3735081D02*
X-1283216Y+3733005D01*
X-1282514Y+3728852D01*
X-1281044Y+3724699D01*
X-1278642Y+3720546D01*
X-1274969Y+3716447D01*
X-1270816Y+3713438D01*
X-1266663Y+3711521D01*
X-1262510Y+3710438D01*
X-1258357Y+3710081D01*
X-1258302Y+3710081D01*
X-1233302Y+3735081D02*
X-1233388Y+3733005D01*
X-1234090Y+3728852D01*
X-1235560Y+3724699D01*
X-1237962Y+3720546D01*
X-1241635Y+3716447D01*
X-1245788Y+3713438D01*
X-1249941Y+3711521D01*
X-1254094Y+3710438D01*
X-1258247Y+3710081D01*
X-1258302Y+3710081D01*
X-1293302Y+3735081D02*
X-1223302Y+3735081D01*
X-1258302Y+3700081D02*
X-1258302Y+3770081D01*
X-918302Y+3395081D02*
X-918302Y+3735081D01*
X-925067Y+3804600D01*
X-944532Y+3868890D01*
X-975453Y+3926705D01*
X-1016583Y+3976800D01*
X-1066678Y+4017930D01*
X-1124493Y+4048851D01*
X-1188783Y+4068316D01*
X-1258302Y+4075081D01*
X-1327821Y+4068316D01*
X-1392111Y+4048851D01*
X-1449926Y+4017930D01*
X-1500021Y+3976800D01*
X-1541151Y+3926705D01*
X-1572072Y+3868890D01*
X-1591537Y+3804600D01*
X-1598302Y+3735081D01*
X-1591537Y+3665562D01*
X-1572072Y+3601272D01*
X-1541151Y+3543457D01*
X-1500021Y+3493362D01*
X-1449926Y+3452232D01*
X-1392111Y+3421311D01*
X-1327821Y+3401846D01*
X-1258302Y+3395081D01*
X-918302Y+3395081D01*
D80*
X-1383302Y+3735081D02*
X-1383302Y+3735081D01*
D81*
X-1303969Y+3689414D02*
X-1326802Y+3666581D01*
X-1395302Y+3666581D01*
X-1440968Y+3712248D01*
X-1440968Y+3757914D01*
X-1395302Y+3803581D01*
X-1326802Y+3803581D01*
X-1303969Y+3780748D01*
X-1121303Y+3780748D02*
X-1144136Y+3803581D01*
X-1212636Y+3803581D01*
X-1235469Y+3780748D01*
X-1235469Y+3689414D01*
X-1212636Y+3666581D01*
X-1144136Y+3666581D01*
X-1121303Y+3689414D01*
X-1121303Y+3712248D01*
X-1144136Y+3735081D01*
X-1235469Y+3735081D01*
D39*
X-1270462Y+4105921D02*
X-996142Y+4105921D01*
X-996142Y+4888241D01*
X-1270462Y+4888241D01*
X-1270462Y+4105921D01*
D68*
X-1133302Y+4243081D02*
X-1133302Y+4243081D01*
D77*
X-1100383Y+4464162D02*
X-1083924Y+4447703D01*
X-1083924Y+4398326D01*
X-1116842Y+4365408D01*
X-1149761Y+4365408D01*
X-1182679Y+4398326D01*
X-1182679Y+4447703D01*
X-1166220Y+4464162D01*
X-1182679Y+4513540D02*
X-1182679Y+4595835D01*
X-1166220Y+4595835D01*
X-1083924Y+4513540D01*
D39*
X-2054767Y+2588888D02*
X-1272447Y+2588888D01*
X-1272447Y+2863208D01*
X-2054767Y+2863208D01*
X-2054767Y+2588888D01*
D68*
X-1917607Y+2726048D02*
X-1917607Y+2726048D01*
D77*
X-1696526Y+2693129D02*
X-1712985Y+2676670D01*
X-1762362Y+2676670D01*
X-1795280Y+2709588D01*
X-1795280Y+2742507D01*
X-1762362Y+2775425D01*
X-1712985Y+2775425D01*
X-1696526Y+2758966D01*
X-1630689Y+2726048D02*
X-1647148Y+2742507D01*
X-1647148Y+2758966D01*
X-1630689Y+2775425D01*
X-1581312Y+2775425D01*
X-1564853Y+2758966D01*
X-1564853Y+2742507D01*
X-1581312Y+2726048D01*
X-1630689Y+2726048D01*
X-1647148Y+2709588D01*
X-1647148Y+2693129D01*
X-1630689Y+2676670D01*
X-1581312Y+2676670D01*
X-1564853Y+2693129D01*
X-1564853Y+2709588D01*
X-1581312Y+2726048D01*
D74*
X+2408161Y+661611D02*
X+2408075Y+663687D01*
X+2407373Y+667840D01*
X+2405903Y+671993D01*
X+2403501Y+676146D01*
X+2399828Y+680245D01*
X+2395675Y+683254D01*
X+2391522Y+685171D01*
X+2387369Y+686254D01*
X+2383216Y+686611D01*
X+2383161Y+686611D01*
X+2358161Y+661611D02*
X+2358247Y+663687D01*
X+2358949Y+667840D01*
X+2360419Y+671993D01*
X+2362821Y+676146D01*
X+2366494Y+680245D01*
X+2370647Y+683254D01*
X+2374800Y+685171D01*
X+2378953Y+686254D01*
X+2383106Y+686611D01*
X+2383161Y+686611D01*
X+2358161Y+661611D02*
X+2358247Y+659535D01*
X+2358949Y+655382D01*
X+2360419Y+651229D01*
X+2362821Y+647076D01*
X+2366494Y+642977D01*
X+2370647Y+639968D01*
X+2374800Y+638051D01*
X+2378953Y+636968D01*
X+2383106Y+636611D01*
X+2383161Y+636611D01*
X+2408161Y+661611D02*
X+2408075Y+659535D01*
X+2407373Y+655382D01*
X+2405903Y+651229D01*
X+2403501Y+647076D01*
X+2399828Y+642977D01*
X+2395675Y+639968D01*
X+2391522Y+638051D01*
X+2387369Y+636968D01*
X+2383216Y+636611D01*
X+2383161Y+636611D01*
X+2383161Y+626611D02*
X+2383161Y+696611D01*
X+2418161Y+661611D02*
X+2348161Y+661611D01*
X+2723161Y+1001611D02*
X+2383161Y+1001611D01*
X+2313642Y+994846D01*
X+2249352Y+975381D01*
X+2191537Y+944460D01*
X+2141442Y+903330D01*
X+2100312Y+853235D01*
X+2069391Y+795420D01*
X+2049926Y+731130D01*
X+2043161Y+661611D01*
X+2049926Y+592092D01*
X+2069391Y+527802D01*
X+2100312Y+469987D01*
X+2141442Y+419892D01*
X+2191537Y+378762D01*
X+2249352Y+347841D01*
X+2313642Y+328376D01*
X+2383161Y+321611D01*
X+2452680Y+328376D01*
X+2516970Y+347841D01*
X+2574785Y+378762D01*
X+2624880Y+419892D01*
X+2666010Y+469987D01*
X+2696931Y+527802D01*
X+2716396Y+592092D01*
X+2723161Y+661611D01*
X+2723161Y+1001611D01*
D80*
X+2383161Y+536611D02*
X+2383161Y+536611D01*
D81*
X+2428828Y+615944D02*
X+2451661Y+593111D01*
X+2451661Y+524611D01*
X+2405994Y+478945D01*
X+2360328Y+478945D01*
X+2314661Y+524611D01*
X+2314661Y+593111D01*
X+2337494Y+615944D01*
X+2360328Y+707277D02*
X+2314661Y+752944D01*
X+2451661Y+752944D01*
D39*
X+2819493Y+2002148D02*
X+4013293Y+2002148D01*
X+4013293Y+2179948D01*
X+2819493Y+2179948D01*
X+2819493Y+2002148D01*
D68*
X+2908393Y+2091048D02*
X+2908393Y+2091048D01*
D69*
X+3288377Y+2059044D02*
X+3288377Y+2123052D01*
X+3341717Y+2123052D01*
X+3352385Y+2112384D01*
X+3352385Y+2101716D01*
X+3341717Y+2091048D01*
X+3288377Y+2091048D01*
X+3341717Y+2091048D02*
X+3352385Y+2080380D01*
X+3352385Y+2059044D01*
X+3395057Y+2101716D02*
X+3416393Y+2123052D01*
X+3416393Y+2059044D01*
X+3523073Y+2112384D02*
X+3512405Y+2123052D01*
X+3480401Y+2123052D01*
X+3469733Y+2112384D01*
X+3469733Y+2069712D01*
X+3480401Y+2059044D01*
X+3512405Y+2059044D01*
X+3523073Y+2069712D01*
X+3523073Y+2080380D01*
X+3512405Y+2091048D01*
X+3469733Y+2091048D01*
D39*
X+3182713Y+3957948D02*
X+3469733Y+3957948D01*
X+3469733Y+5202548D01*
X+3182713Y+5202548D01*
X+3182713Y+3957948D01*
D82*
X+3327493Y+4072248D02*
X+3327493Y+4072248D01*
D83*
X+3377887Y+4442479D02*
X+3274560Y+4442479D01*
X+3274560Y+4511363D01*
X+3309002Y+4545805D01*
X+3343445Y+4545805D01*
X+3377887Y+4511363D01*
X+3377887Y+4442479D01*
X+3309002Y+4614690D02*
X+3274560Y+4649132D01*
X+3377887Y+4649132D01*
D39*
X+3601813Y+3957948D02*
X+3888833Y+3957948D01*
X+3888833Y+5202548D01*
X+3601813Y+5202548D01*
X+3601813Y+3957948D01*
D82*
X+3746593Y+4072248D02*
X+3746593Y+4072248D01*
D83*
X+3796987Y+4442479D02*
X+3693660Y+4442479D01*
X+3693660Y+4511363D01*
X+3728102Y+4545805D01*
X+3762545Y+4545805D01*
X+3796987Y+4511363D01*
X+3796987Y+4442479D01*
X+3710881Y+4597469D02*
X+3693660Y+4614690D01*
X+3693660Y+4666353D01*
X+3710881Y+4683574D01*
X+3728102Y+4683574D01*
X+3745323Y+4666353D01*
X+3745323Y+4614690D01*
X+3762545Y+4597469D01*
X+3796987Y+4597469D01*
X+3796987Y+4683574D01*
D39*
X+25493Y+605148D02*
X+203293Y+605148D01*
X+203293Y+1798948D01*
X+25493Y+1798948D01*
X+25493Y+605148D01*
D68*
X+114393Y+1710048D02*
X+114393Y+1710048D01*
D69*
X+146397Y+1116704D02*
X+82389Y+1116704D01*
X+82389Y+1170044D01*
X+93057Y+1180712D01*
X+103725Y+1180712D01*
X+114393Y+1170044D01*
X+114393Y+1116704D01*
X+114393Y+1170044D02*
X+125061Y+1180712D01*
X+146397Y+1180712D01*
X+82389Y+1266056D02*
X+82389Y+1212716D01*
X+103725Y+1212716D01*
X+103725Y+1255388D01*
X+114393Y+1266056D01*
X+135729Y+1266056D01*
X+146397Y+1255388D01*
X+146397Y+1223384D01*
X+135729Y+1212716D01*
D39*
X-1546767Y+5255888D02*
X-764447Y+5255888D01*
X-764447Y+5657208D01*
X-1546767Y+5657208D01*
X-1546767Y+5255888D01*
D78*
X-1409607Y+5393048D02*
X-1409607Y+5393048D01*
D84*
X-1348240Y+5528785D02*
X-1348240Y+5408389D01*
X-1324161Y+5384310D01*
X-1227845Y+5384310D01*
X-1203766Y+5408389D01*
X-1203766Y+5528785D01*
X-1107449Y+5480627D02*
X-1059291Y+5528785D01*
X-1059291Y+5384310D01*
D39*
X-736507Y+5650711D02*
X+457293Y+5650711D01*
X+457293Y+5828511D01*
X-736507Y+5828511D01*
X-736507Y+5650711D01*
D68*
X-647607Y+5739611D02*
X-647607Y+5739611D01*
D69*
X-267623Y+5707607D02*
X-267623Y+5771615D01*
X-214283Y+5771615D01*
X-203615Y+5760947D01*
X-203615Y+5750279D01*
X-214283Y+5739611D01*
X-267623Y+5739611D01*
X-214283Y+5739611D02*
X-203615Y+5728943D01*
X-203615Y+5707607D01*
X-171611Y+5760947D02*
X-160943Y+5771615D01*
X-128939Y+5771615D01*
X-118271Y+5760947D01*
X-118271Y+5750279D01*
X-128939Y+5739611D01*
X-160943Y+5739611D01*
X-171611Y+5728943D01*
X-171611Y+5707607D01*
X-118271Y+5707607D01*
X-75599Y+5750279D02*
X-54263Y+5771615D01*
X-54263Y+5707607D01*
D39*
X+2199733Y+5382888D02*
X+2791553Y+5382888D01*
X+2791553Y+5974708D01*
X+2199733Y+5974708D01*
X+2199733Y+5382888D01*
D78*
X+2654393Y+5647048D02*
X+2654393Y+5647048D01*
D85*
X+2337825Y+5619616D02*
X+2337825Y+5737980D01*
X+2416734Y+5737980D01*
X+2456188Y+5698525D01*
X+2456188Y+5659071D01*
X+2416734Y+5619616D01*
X+2337825Y+5619616D01*
X+2614006Y+5718253D02*
X+2594279Y+5737980D01*
X+2535097Y+5737980D01*
X+2515370Y+5718253D01*
X+2515370Y+5639343D01*
X+2535097Y+5619616D01*
X+2594279Y+5619616D01*
X+2614006Y+5639343D01*
X+2614006Y+5659071D01*
X+2594279Y+5678798D01*
X+2515370Y+5678798D01*
D39*
X+9317360Y+2782961D02*
X+9495160Y+2782961D01*
X+9495160Y+3976761D01*
X+9317360Y+3976761D01*
X+9317360Y+2782961D01*
D68*
X+9406260Y+2871861D02*
X+9406260Y+2871861D01*
D69*
X+9438264Y+3251845D02*
X+9374256Y+3251845D01*
X+9374256Y+3305185D01*
X+9384924Y+3315853D01*
X+9395592Y+3315853D01*
X+9406260Y+3305185D01*
X+9406260Y+3251845D01*
X+9406260Y+3305185D02*
X+9416928Y+3315853D01*
X+9438264Y+3315853D01*
X+9384924Y+3347857D02*
X+9374256Y+3358525D01*
X+9374256Y+3390529D01*
X+9384924Y+3401197D01*
X+9395592Y+3401197D01*
X+9406260Y+3390529D01*
X+9406260Y+3358525D01*
X+9416928Y+3347857D01*
X+9438264Y+3347857D01*
X+9438264Y+3401197D01*
X+9384924Y+3433201D02*
X+9374256Y+3443869D01*
X+9374256Y+3475873D01*
X+9384924Y+3486541D01*
X+9395592Y+3486541D01*
X+9406260Y+3475873D01*
X+9406260Y+3443869D01*
X+9416928Y+3433201D01*
X+9438264Y+3433201D01*
X+9438264Y+3486541D01*
D39*
X+8761100Y+3242701D02*
X+9162420Y+3242701D01*
X+9162420Y+4025021D01*
X+8761100Y+4025021D01*
X+8761100Y+3242701D01*
D78*
X+9025260Y+3379861D02*
X+9025260Y+3379861D01*
D84*
X+8937681Y+3441228D02*
X+8889523Y+3489386D01*
X+8889523Y+3537544D01*
X+8937681Y+3585702D01*
X+8985840Y+3585702D01*
X+9033998Y+3537544D01*
X+9033998Y+3489386D01*
X+8985840Y+3441228D01*
X+8937681Y+3441228D01*
X+8985840Y+3537544D02*
X+9033998Y+3585702D01*
X+8985840Y+3778335D02*
X+8985840Y+3633861D01*
X+8889523Y+3730177D01*
X+9033998Y+3730177D01*
D39*
X+8761100Y+2099701D02*
X+9162420Y+2099701D01*
X+9162420Y+2882021D01*
X+8761100Y+2882021D01*
X+8761100Y+2099701D01*
D78*
X+9025260Y+2236861D02*
X+9025260Y+2236861D01*
D84*
X+8937681Y+2298228D02*
X+8889523Y+2346386D01*
X+8889523Y+2394544D01*
X+8937681Y+2442702D01*
X+8985840Y+2442702D01*
X+9033998Y+2394544D01*
X+9033998Y+2346386D01*
X+8985840Y+2298228D01*
X+8937681Y+2298228D01*
X+8985840Y+2394544D02*
X+9033998Y+2442702D01*
X+8889523Y+2635335D02*
X+8889523Y+2514940D01*
X+8937681Y+2514940D01*
X+8937681Y+2611256D01*
X+8961760Y+2635335D01*
X+9009919Y+2635335D01*
X+9033998Y+2611256D01*
X+9033998Y+2539019D01*
X+9009919Y+2514940D01*
D39*
X+8761100Y+4385701D02*
X+9162420Y+4385701D01*
X+9162420Y+5168021D01*
X+8761100Y+5168021D01*
X+8761100Y+4385701D01*
D78*
X+9025260Y+4522861D02*
X+9025260Y+4522861D01*
D84*
X+8937681Y+4584228D02*
X+8889523Y+4632386D01*
X+8889523Y+4680544D01*
X+8937681Y+4728702D01*
X+8985840Y+4728702D01*
X+9033998Y+4680544D01*
X+9033998Y+4632386D01*
X+8985840Y+4584228D01*
X+8937681Y+4584228D01*
X+8985840Y+4680544D02*
X+9033998Y+4728702D01*
X+8913602Y+4921335D02*
X+8889523Y+4897256D01*
X+8889523Y+4825019D01*
X+8913602Y+4800940D01*
X+9009919Y+4800940D01*
X+9033998Y+4825019D01*
X+9033998Y+4897256D01*
X+9009919Y+4921335D01*
X+8985840Y+4921335D01*
X+8961760Y+4897256D01*
X+8961760Y+4800940D01*
D39*
X+4549233Y+4239888D02*
X+4950553Y+4239888D01*
X+4950553Y+5022208D01*
X+4549233Y+5022208D01*
X+4549233Y+4239888D01*
D78*
X+4686393Y+4885048D02*
X+4686393Y+4885048D01*
D84*
X+4725814Y+4438415D02*
X+4677656Y+4486573D01*
X+4677656Y+4534731D01*
X+4725814Y+4582889D01*
X+4773973Y+4582889D01*
X+4822131Y+4534731D01*
X+4822131Y+4486573D01*
X+4773973Y+4438415D01*
X+4725814Y+4438415D01*
X+4773973Y+4534731D02*
X+4822131Y+4582889D01*
X+4749893Y+4679206D02*
X+4725814Y+4655127D01*
X+4701735Y+4655127D01*
X+4677656Y+4679206D01*
X+4677656Y+4751443D01*
X+4701735Y+4775522D01*
X+4725814Y+4775522D01*
X+4749893Y+4751443D01*
X+4749893Y+4679206D01*
X+4773973Y+4655127D01*
X+4798052Y+4655127D01*
X+4822131Y+4679206D01*
X+4822131Y+4751443D01*
X+4798052Y+4775522D01*
X+4773973Y+4775522D01*
X+4749893Y+4751443D01*
D39*
X+7164878Y+6018541D02*
X+8358678Y+6018541D01*
X+8358678Y+6196341D01*
X+7164878Y+6196341D01*
X+7164878Y+6018541D01*
D68*
X+8269778Y+6107441D02*
X+8269778Y+6107441D01*
D69*
X+7633762Y+6075437D02*
X+7633762Y+6139445D01*
X+7687102Y+6139445D01*
X+7697770Y+6128777D01*
X+7697770Y+6118109D01*
X+7687102Y+6107441D01*
X+7633762Y+6107441D01*
X+7687102Y+6107441D02*
X+7697770Y+6096773D01*
X+7697770Y+6075437D01*
X+7729774Y+6128777D02*
X+7740442Y+6139445D01*
X+7772446Y+6139445D01*
X+7783114Y+6128777D01*
X+7783114Y+6118109D01*
X+7772446Y+6107441D01*
X+7783114Y+6096773D01*
X+7783114Y+6086105D01*
X+7772446Y+6075437D01*
X+7740442Y+6075437D01*
X+7729774Y+6086105D01*
X+7751110Y+6107441D02*
X+7772446Y+6107441D01*
X+7825786Y+6118109D02*
X+7847122Y+6139445D01*
X+7847122Y+6075437D01*
D39*
X+4010753Y+4367516D02*
X+4188553Y+4367516D01*
X+4188553Y+5561316D01*
X+4010753Y+5561316D01*
X+4010753Y+4367516D01*
D68*
X+4099653Y+5472416D02*
X+4099653Y+5472416D01*
D69*
X+4131657Y+4836400D02*
X+4067649Y+4836400D01*
X+4067649Y+4889740D01*
X+4078317Y+4900408D01*
X+4088985Y+4900408D01*
X+4099653Y+4889740D01*
X+4099653Y+4836400D01*
X+4099653Y+4889740D02*
X+4110321Y+4900408D01*
X+4131657Y+4900408D01*
X+4078317Y+4932412D02*
X+4067649Y+4943080D01*
X+4067649Y+4975084D01*
X+4078317Y+4985752D01*
X+4088985Y+4985752D01*
X+4099653Y+4975084D01*
X+4099653Y+4943080D01*
X+4110321Y+4932412D01*
X+4131657Y+4932412D01*
X+4131657Y+4985752D01*
X+4067649Y+5017756D02*
X+4067649Y+5071096D01*
X+4078317Y+5071096D01*
X+4131657Y+5017756D01*
D39*
X+7172819Y+5759931D02*
X+8366619Y+5759931D01*
X+8366619Y+5937731D01*
X+7172819Y+5937731D01*
X+7172819Y+5759931D01*
D68*
X+7261719Y+5848831D02*
X+7261719Y+5848831D01*
D69*
X+7641703Y+5816827D02*
X+7641703Y+5880835D01*
X+7695043Y+5880835D01*
X+7705711Y+5870167D01*
X+7705711Y+5859499D01*
X+7695043Y+5848831D01*
X+7641703Y+5848831D01*
X+7695043Y+5848831D02*
X+7705711Y+5838163D01*
X+7705711Y+5816827D01*
X+7737715Y+5870167D02*
X+7748383Y+5880835D01*
X+7780387Y+5880835D01*
X+7791055Y+5870167D01*
X+7791055Y+5859499D01*
X+7780387Y+5848831D01*
X+7748383Y+5848831D01*
X+7737715Y+5838163D01*
X+7737715Y+5816827D01*
X+7791055Y+5816827D01*
X+7876399Y+5870167D02*
X+7865731Y+5880835D01*
X+7833727Y+5880835D01*
X+7823059Y+5870167D01*
X+7823059Y+5827495D01*
X+7833727Y+5816827D01*
X+7865731Y+5816827D01*
X+7876399Y+5827495D01*
X+7876399Y+5838163D01*
X+7865731Y+5848831D01*
X+7823059Y+5848831D01*
D39*
X+9317360Y+1131961D02*
X+9495160Y+1131961D01*
X+9495160Y+2325761D01*
X+9317360Y+2325761D01*
X+9317360Y+1131961D01*
D68*
X+9406260Y+2236861D02*
X+9406260Y+2236861D01*
D69*
X+9438264Y+1600845D02*
X+9374256Y+1600845D01*
X+9374256Y+1654185D01*
X+9384924Y+1664853D01*
X+9395592Y+1664853D01*
X+9406260Y+1654185D01*
X+9406260Y+1600845D01*
X+9406260Y+1654185D02*
X+9416928Y+1664853D01*
X+9438264Y+1664853D01*
X+9384924Y+1696857D02*
X+9374256Y+1707525D01*
X+9374256Y+1739529D01*
X+9384924Y+1750197D01*
X+9395592Y+1750197D01*
X+9406260Y+1739529D01*
X+9406260Y+1707525D01*
X+9416928Y+1696857D01*
X+9438264Y+1696857D01*
X+9438264Y+1750197D01*
X+9384924Y+1782201D02*
X+9374256Y+1792869D01*
X+9374256Y+1824873D01*
X+9384924Y+1835541D01*
X+9395592Y+1835541D01*
X+9406260Y+1824873D01*
X+9416928Y+1835541D01*
X+9427596Y+1835541D01*
X+9438264Y+1824873D01*
X+9438264Y+1792869D01*
X+9427596Y+1782201D01*
X+9406260Y+1803537D02*
X+9406260Y+1824873D01*
D39*
X+9317360Y+4433961D02*
X+9495160Y+4433961D01*
X+9495160Y+5627761D01*
X+9317360Y+5627761D01*
X+9317360Y+4433961D01*
D68*
X+9406260Y+4522861D02*
X+9406260Y+4522861D01*
D69*
X+9438264Y+4902845D02*
X+9374256Y+4902845D01*
X+9374256Y+4956185D01*
X+9384924Y+4966853D01*
X+9395592Y+4966853D01*
X+9406260Y+4956185D01*
X+9406260Y+4902845D01*
X+9406260Y+4956185D02*
X+9416928Y+4966853D01*
X+9438264Y+4966853D01*
X+9384924Y+4998857D02*
X+9374256Y+5009525D01*
X+9374256Y+5041529D01*
X+9384924Y+5052197D01*
X+9395592Y+5052197D01*
X+9406260Y+5041529D01*
X+9406260Y+5009525D01*
X+9416928Y+4998857D01*
X+9438264Y+4998857D01*
X+9438264Y+5052197D01*
X+9416928Y+5137541D02*
X+9416928Y+5073533D01*
X+9374256Y+5116205D01*
X+9438264Y+5116205D01*
D39*
X+4216493Y+3018148D02*
X+4394293Y+3018148D01*
X+4394293Y+4211948D01*
X+4216493Y+4211948D01*
X+4216493Y+3018148D01*
D68*
X+4305393Y+4123048D02*
X+4305393Y+4123048D01*
D69*
X+4337397Y+3487032D02*
X+4273389Y+3487032D01*
X+4273389Y+3540372D01*
X+4284057Y+3551040D01*
X+4294725Y+3551040D01*
X+4305393Y+3540372D01*
X+4305393Y+3487032D01*
X+4305393Y+3540372D02*
X+4316061Y+3551040D01*
X+4337397Y+3551040D01*
X+4284057Y+3583044D02*
X+4273389Y+3593712D01*
X+4273389Y+3625716D01*
X+4284057Y+3636384D01*
X+4294725Y+3636384D01*
X+4305393Y+3625716D01*
X+4305393Y+3593712D01*
X+4316061Y+3583044D01*
X+4337397Y+3583044D01*
X+4337397Y+3636384D01*
X+4305393Y+3679056D02*
X+4294725Y+3668388D01*
X+4284057Y+3668388D01*
X+4273389Y+3679056D01*
X+4273389Y+3711060D01*
X+4284057Y+3721728D01*
X+4294725Y+3721728D01*
X+4305393Y+3711060D01*
X+4305393Y+3679056D01*
X+4316061Y+3668388D01*
X+4326729Y+3668388D01*
X+4337397Y+3679056D01*
X+4337397Y+3711060D01*
X+4326729Y+3721728D01*
X+4316061Y+3721728D01*
X+4305393Y+3711060D01*
D39*
X+4216493Y+1367148D02*
X+4394293Y+1367148D01*
X+4394293Y+2560948D01*
X+4216493Y+2560948D01*
X+4216493Y+1367148D01*
D68*
X+4305393Y+2472048D02*
X+4305393Y+2472048D01*
D69*
X+4337397Y+1836032D02*
X+4273389Y+1836032D01*
X+4273389Y+1889372D01*
X+4284057Y+1900040D01*
X+4294725Y+1900040D01*
X+4305393Y+1889372D01*
X+4305393Y+1836032D01*
X+4305393Y+1889372D02*
X+4316061Y+1900040D01*
X+4337397Y+1900040D01*
X+4284057Y+1932044D02*
X+4273389Y+1942712D01*
X+4273389Y+1974716D01*
X+4284057Y+1985384D01*
X+4294725Y+1985384D01*
X+4305393Y+1974716D01*
X+4305393Y+1942712D01*
X+4316061Y+1932044D01*
X+4337397Y+1932044D01*
X+4337397Y+1985384D01*
X+4294725Y+2070728D02*
X+4305393Y+2060060D01*
X+4305393Y+2028056D01*
X+4294725Y+2017388D01*
X+4284057Y+2017388D01*
X+4273389Y+2028056D01*
X+4273389Y+2060060D01*
X+4284057Y+2070728D01*
X+4326729Y+2070728D01*
X+4337397Y+2060060D01*
X+4337397Y+2028056D01*
D39*
X+4549233Y+3096888D02*
X+4950553Y+3096888D01*
X+4950553Y+3879208D01*
X+4549233Y+3879208D01*
X+4549233Y+3096888D01*
D78*
X+4686393Y+3742048D02*
X+4686393Y+3742048D01*
D84*
X+4725814Y+3295415D02*
X+4677656Y+3343573D01*
X+4677656Y+3391731D01*
X+4725814Y+3439889D01*
X+4773973Y+3439889D01*
X+4822131Y+3391731D01*
X+4822131Y+3343573D01*
X+4773973Y+3295415D01*
X+4725814Y+3295415D01*
X+4773973Y+3391731D02*
X+4822131Y+3439889D01*
X+4725814Y+3632522D02*
X+4749893Y+3608443D01*
X+4749893Y+3536206D01*
X+4725814Y+3512127D01*
X+4701735Y+3512127D01*
X+4677656Y+3536206D01*
X+4677656Y+3608443D01*
X+4701735Y+3632522D01*
X+4798052Y+3632522D01*
X+4822131Y+3608443D01*
X+4822131Y+3536206D01*
D39*
X+4532001Y+1919451D02*
X+4933321Y+1919451D01*
X+4933321Y+2701771D01*
X+4532001Y+2701771D01*
X+4532001Y+1919451D01*
D78*
X+4669161Y+2564611D02*
X+4669161Y+2564611D01*
D86*
X+4713103Y+2075915D02*
X+4673987Y+2115031D01*
X+4673987Y+2154147D01*
X+4713103Y+2193263D01*
X+4752219Y+2193263D01*
X+4791335Y+2154147D01*
X+4791335Y+2115031D01*
X+4752219Y+2075915D01*
X+4713103Y+2075915D01*
X+4752219Y+2154147D02*
X+4791335Y+2193263D01*
X+4713103Y+2271495D02*
X+4673987Y+2310611D01*
X+4791335Y+2310611D01*
X+4771777Y+2388843D02*
X+4693545Y+2388843D01*
X+4673987Y+2408401D01*
X+4673987Y+2486633D01*
X+4693545Y+2506191D01*
X+4771777Y+2506191D01*
X+4791335Y+2486633D01*
X+4791335Y+2408401D01*
X+4771777Y+2388843D01*
X+4791335Y+2388843D02*
X+4673987Y+2506191D01*
D39*
X+8743868Y+922264D02*
X+9145188Y+922264D01*
X+9145188Y+1704584D01*
X+8743868Y+1704584D01*
X+8743868Y+922264D01*
D78*
X+9008028Y+1059424D02*
X+9008028Y+1059424D01*
D84*
X+8920449Y+1120791D02*
X+8872291Y+1168949D01*
X+8872291Y+1217107D01*
X+8920449Y+1265265D01*
X+8968608Y+1265265D01*
X+9016766Y+1217107D01*
X+9016766Y+1168949D01*
X+8968608Y+1120791D01*
X+8920449Y+1120791D01*
X+8968608Y+1217107D02*
X+9016766Y+1265265D01*
X+8872291Y+1337503D02*
X+8872291Y+1457898D01*
X+8896370Y+1457898D01*
X+9016766Y+1337503D01*
D39*
X+4532001Y+776451D02*
X+4933321Y+776451D01*
X+4933321Y+1558771D01*
X+4532001Y+1558771D01*
X+4532001Y+776451D01*
D78*
X+4669161Y+1421611D02*
X+4669161Y+1421611D01*
D86*
X+4713103Y+932915D02*
X+4673987Y+972031D01*
X+4673987Y+1011147D01*
X+4713103Y+1050263D01*
X+4752219Y+1050263D01*
X+4791335Y+1011147D01*
X+4791335Y+972031D01*
X+4752219Y+932915D01*
X+4713103Y+932915D01*
X+4752219Y+1011147D02*
X+4791335Y+1050263D01*
X+4713103Y+1128495D02*
X+4673987Y+1167611D01*
X+4791335Y+1167611D01*
X+4713103Y+1284959D02*
X+4673987Y+1324075D01*
X+4791335Y+1324075D01*
D39*
X+9554128Y+589524D02*
X+9731928Y+589524D01*
X+9731928Y+1783324D01*
X+9554128Y+1783324D01*
X+9554128Y+589524D01*
D68*
X+9643028Y+678424D02*
X+9643028Y+678424D01*
D69*
X+9675032Y+1058408D02*
X+9611024Y+1058408D01*
X+9611024Y+1111748D01*
X+9621692Y+1122416D01*
X+9632360Y+1122416D01*
X+9643028Y+1111748D01*
X+9643028Y+1058408D01*
X+9643028Y+1111748D02*
X+9653696Y+1122416D01*
X+9675032Y+1122416D01*
X+9621692Y+1154420D02*
X+9611024Y+1165088D01*
X+9611024Y+1197092D01*
X+9621692Y+1207760D01*
X+9632360Y+1207760D01*
X+9643028Y+1197092D01*
X+9643028Y+1165088D01*
X+9653696Y+1154420D01*
X+9675032Y+1154420D01*
X+9675032Y+1207760D01*
X+9611024Y+1293104D02*
X+9611024Y+1239764D01*
X+9632360Y+1239764D01*
X+9632360Y+1282436D01*
X+9643028Y+1293104D01*
X+9664364Y+1293104D01*
X+9675032Y+1282436D01*
X+9675032Y+1250432D01*
X+9664364Y+1239764D01*
D39*
X+3945261Y+697711D02*
X+4123061Y+697711D01*
X+4123061Y+1891511D01*
X+3945261Y+1891511D01*
X+3945261Y+697711D01*
D68*
X+4034161Y+786611D02*
X+4034161Y+786611D01*
D69*
X+4066165Y+1166595D02*
X+4002157Y+1166595D01*
X+4002157Y+1219935D01*
X+4012825Y+1230603D01*
X+4023493Y+1230603D01*
X+4034161Y+1219935D01*
X+4034161Y+1166595D01*
X+4034161Y+1219935D02*
X+4044829Y+1230603D01*
X+4066165Y+1230603D01*
X+4012825Y+1262607D02*
X+4002157Y+1273275D01*
X+4002157Y+1305279D01*
X+4012825Y+1315947D01*
X+4023493Y+1315947D01*
X+4034161Y+1305279D01*
X+4044829Y+1315947D01*
X+4055497Y+1315947D01*
X+4066165Y+1305279D01*
X+4066165Y+1273275D01*
X+4055497Y+1262607D01*
X+4034161Y+1283943D02*
X+4034161Y+1305279D01*
X+4055497Y+1337283D02*
X+4012825Y+1337283D01*
X+4002157Y+1347951D01*
X+4002157Y+1390623D01*
X+4012825Y+1401291D01*
X+4055497Y+1401291D01*
X+4066165Y+1390623D01*
X+4066165Y+1347951D01*
X+4055497Y+1337283D01*
X+4066165Y+1337283D02*
X+4002157Y+1401291D01*
D39*
X-4244802Y+357421D02*
X-3355802Y+357421D01*
X-3355802Y+3806741D01*
X-4244802Y+3806741D01*
X-4244802Y+357421D01*
D66*
X-4181302Y+3735081D02*
X-4181302Y+3735081D01*
D67*
X-3960322Y+1655361D02*
X-3693622Y+1655361D01*
X-3640282Y+1708701D01*
X-3640282Y+1922061D01*
X-3693622Y+1975401D01*
X-3960322Y+1975401D01*
X-3960322Y+2402121D02*
X-3960322Y+2135421D01*
X-3853642Y+2135421D01*
X-3853642Y+2348781D01*
X-3800302Y+2402121D01*
X-3693622Y+2402121D01*
X-3640282Y+2348781D01*
X-3640282Y+2188761D01*
X-3693622Y+2135421D01*
D39*
X-5842462Y+1592921D02*
X-5314142Y+1592921D01*
X-5314142Y+1867241D01*
X-5842462Y+1867241D01*
X-5842462Y+1592921D01*
D68*
X-5705302Y+1730081D02*
X-5705302Y+1730081D01*
D87*
X-5657550Y+1703665D02*
X-5670758Y+1690457D01*
X-5710382Y+1690457D01*
X-5736798Y+1716873D01*
X-5736798Y+1743289D01*
X-5710382Y+1769705D01*
X-5670758Y+1769705D01*
X-5657550Y+1756497D01*
X-5604718Y+1743289D02*
X-5578302Y+1769705D01*
X-5578302Y+1690457D01*
X-5512262Y+1756497D02*
X-5499054Y+1769705D01*
X-5459430Y+1769705D01*
X-5446222Y+1756497D01*
X-5446222Y+1743289D01*
X-5459430Y+1730081D01*
X-5499054Y+1730081D01*
X-5512262Y+1716873D01*
X-5512262Y+1690457D01*
X-5446222Y+1690457D01*
D39*
X-5842462Y+322921D02*
X-5314142Y+322921D01*
X-5314142Y+597241D01*
X-5842462Y+597241D01*
X-5842462Y+322921D01*
D68*
X-5451302Y+460081D02*
X-5451302Y+460081D01*
D87*
X-5657550Y+433665D02*
X-5670758Y+420457D01*
X-5710382Y+420457D01*
X-5736798Y+446873D01*
X-5736798Y+473289D01*
X-5710382Y+499705D01*
X-5670758Y+499705D01*
X-5657550Y+486497D01*
X-5604718Y+473289D02*
X-5578302Y+499705D01*
X-5578302Y+420457D01*
X-5512262Y+486497D02*
X-5499054Y+499705D01*
X-5459430Y+499705D01*
X-5446222Y+486497D01*
X-5446222Y+473289D01*
X-5459430Y+460081D01*
X-5446222Y+446873D01*
X-5446222Y+433665D01*
X-5459430Y+420457D01*
X-5499054Y+420457D01*
X-5512262Y+433665D01*
X-5485846Y+460081D02*
X-5459430Y+460081D01*
D39*
X-5842462Y+576921D02*
X-5314142Y+576921D01*
X-5314142Y+1613241D01*
X-5842462Y+1613241D01*
X-5842462Y+576921D01*
D78*
X-5578302Y+1349081D02*
X-5578302Y+1349081D01*
D88*
X-5673399Y+841488D02*
X-5483204Y+1031682D01*
X-5483204Y+841488D02*
X-5673399Y+1031682D01*
X-5610001Y+1158479D02*
X-5673399Y+1221877D01*
X-5483204Y+1221877D01*
D39*
X-2540462Y+5248921D02*
X-1758142Y+5248921D01*
X-1758142Y+5650241D01*
X-2540462Y+5650241D01*
X-2540462Y+5248921D01*
D78*
X-2403302Y+5386081D02*
X-2403302Y+5386081D01*
D84*
X-2341935Y+5521818D02*
X-2341935Y+5401422D01*
X-2317856Y+5377343D01*
X-2221540Y+5377343D01*
X-2197461Y+5401422D01*
X-2197461Y+5521818D01*
X-2004828Y+5497739D02*
X-2028907Y+5521818D01*
X-2101144Y+5521818D01*
X-2125223Y+5497739D01*
X-2125223Y+5401422D01*
X-2101144Y+5377343D01*
X-2028907Y+5377343D01*
X-2004828Y+5401422D01*
X-2004828Y+5425501D01*
X-2028907Y+5449581D01*
X-2125223Y+5449581D01*
D74*
X-2715660Y+4713700D02*
X-2715746Y+4715776D01*
X-2716448Y+4719929D01*
X-2717918Y+4724082D01*
X-2720320Y+4728235D01*
X-2723993Y+4732334D01*
X-2728146Y+4735343D01*
X-2732299Y+4737260D01*
X-2736452Y+4738343D01*
X-2740605Y+4738700D01*
X-2740660Y+4738700D01*
X-2765660Y+4713700D02*
X-2765574Y+4715776D01*
X-2764872Y+4719929D01*
X-2763402Y+4724082D01*
X-2761000Y+4728235D01*
X-2757327Y+4732334D01*
X-2753174Y+4735343D01*
X-2749021Y+4737260D01*
X-2744868Y+4738343D01*
X-2740715Y+4738700D01*
X-2740660Y+4738700D01*
X-2765660Y+4713700D02*
X-2765574Y+4711624D01*
X-2764872Y+4707471D01*
X-2763402Y+4703318D01*
X-2761000Y+4699165D01*
X-2757327Y+4695066D01*
X-2753174Y+4692057D01*
X-2749021Y+4690140D01*
X-2744868Y+4689057D01*
X-2740715Y+4688700D01*
X-2740660Y+4688700D01*
X-2715660Y+4713700D02*
X-2715746Y+4711624D01*
X-2716448Y+4707471D01*
X-2717918Y+4703318D01*
X-2720320Y+4699165D01*
X-2723993Y+4695066D01*
X-2728146Y+4692057D01*
X-2732299Y+4690140D01*
X-2736452Y+4689057D01*
X-2740605Y+4688700D01*
X-2740660Y+4688700D01*
X-2740660Y+4678700D02*
X-2740660Y+4748700D01*
X-2705660Y+4713700D02*
X-2775660Y+4713700D01*
X-2400660Y+5053700D02*
X-2740660Y+5053700D01*
X-2810179Y+5046935D01*
X-2874469Y+5027470D01*
X-2932284Y+4996549D01*
X-2982379Y+4955419D01*
X-3023509Y+4905324D01*
X-3054430Y+4847509D01*
X-3073895Y+4783219D01*
X-3080660Y+4713700D01*
X-3073895Y+4644181D01*
X-3054430Y+4579891D01*
X-3023509Y+4522076D01*
X-2982379Y+4471981D01*
X-2932284Y+4430851D01*
X-2874469Y+4399930D01*
X-2810179Y+4380465D01*
X-2740660Y+4373700D01*
X-2671141Y+4380465D01*
X-2606851Y+4399930D01*
X-2549036Y+4430851D01*
X-2498941Y+4471981D01*
X-2457811Y+4522076D01*
X-2426890Y+4579891D01*
X-2407425Y+4644181D01*
X-2400660Y+4713700D01*
X-2400660Y+5053700D01*
D80*
X-2740660Y+4588700D02*
X-2740660Y+4588700D01*
D81*
X-2694993Y+4668033D02*
X-2672160Y+4645200D01*
X-2672160Y+4576700D01*
X-2717827Y+4531034D01*
X-2763493Y+4531034D01*
X-2809160Y+4576700D01*
X-2809160Y+4645200D01*
X-2786327Y+4668033D01*
X-2763493Y+4850699D02*
X-2740660Y+4827866D01*
X-2740660Y+4759366D01*
X-2763493Y+4736533D01*
X-2786327Y+4736533D01*
X-2809160Y+4759366D01*
X-2809160Y+4827866D01*
X-2786327Y+4850699D01*
X-2694993Y+4850699D01*
X-2672160Y+4827866D01*
X-2672160Y+4759366D01*
D39*
X-8128462Y+4042421D02*
X-6584142Y+4042421D01*
X-6584142Y+4443741D01*
X-8128462Y+4443741D01*
X-8128462Y+4042421D01*
D66*
X-7991302Y+4243081D02*
X-7991302Y+4243081D01*
D84*
X-7548935Y+4219001D02*
X-7548935Y+4194922D01*
X-7524856Y+4170843D01*
X-7428540Y+4170843D01*
X-7404461Y+4194922D01*
X-7404461Y+4315318D01*
X-7332223Y+4291239D02*
X-7308144Y+4315318D01*
X-7235907Y+4315318D01*
X-7211828Y+4291239D01*
X-7211828Y+4267160D01*
X-7235907Y+4243081D01*
X-7308144Y+4243081D01*
X-7332223Y+4219001D01*
X-7332223Y+4170843D01*
X-7211828Y+4170843D01*
D39*
X-2499502Y+2884181D02*
X-2321702Y+2884181D01*
X-2321702Y+4077981D01*
X-2499502Y+4077981D01*
X-2499502Y+2884181D01*
D68*
X-2410602Y+3989081D02*
X-2410602Y+3989081D01*
D69*
X-2378598Y+3353065D02*
X-2442606Y+3353065D01*
X-2442606Y+3406405D01*
X-2431938Y+3417073D01*
X-2421270Y+3417073D01*
X-2410602Y+3406405D01*
X-2410602Y+3353065D01*
X-2410602Y+3406405D02*
X-2399934Y+3417073D01*
X-2378598Y+3417073D01*
X-2431938Y+3449077D02*
X-2442606Y+3459745D01*
X-2442606Y+3491749D01*
X-2431938Y+3502417D01*
X-2421270Y+3502417D01*
X-2410602Y+3491749D01*
X-2410602Y+3459745D01*
X-2399934Y+3449077D01*
X-2378598Y+3449077D01*
X-2378598Y+3502417D01*
X-2389266Y+3523753D02*
X-2431938Y+3523753D01*
X-2442606Y+3534421D01*
X-2442606Y+3577093D01*
X-2431938Y+3587761D01*
X-2389266Y+3587761D01*
X-2378598Y+3577093D01*
X-2378598Y+3534421D01*
X-2389266Y+3523753D01*
X-2378598Y+3523753D02*
X-2442606Y+3587761D01*
D39*
X-6779722Y+6013461D02*
X-6378402Y+6013461D01*
X-6378402Y+6795781D01*
X-6779722Y+6795781D01*
X-6779722Y+6013461D01*
D78*
X-6515562Y+6150621D02*
X-6515562Y+6150621D01*
D86*
X-6598620Y+6169925D02*
X-6637736Y+6209041D01*
X-6637736Y+6248157D01*
X-6598620Y+6287273D01*
X-6559504Y+6287273D01*
X-6520388Y+6248157D01*
X-6520388Y+6209041D01*
X-6559504Y+6169925D01*
X-6598620Y+6169925D01*
X-6559504Y+6248157D02*
X-6520388Y+6287273D01*
X-6598620Y+6365505D02*
X-6637736Y+6404621D01*
X-6520388Y+6404621D01*
X-6618178Y+6502411D02*
X-6637736Y+6521969D01*
X-6637736Y+6580643D01*
X-6618178Y+6600201D01*
X-6598620Y+6600201D01*
X-6579062Y+6580643D01*
X-6579062Y+6521969D01*
X-6559504Y+6502411D01*
X-6520388Y+6502411D01*
X-6520388Y+6600201D01*
D39*
X-6651798Y+5045699D02*
X-6250478Y+5045699D01*
X-6250478Y+5777219D01*
X-6651798Y+5777219D01*
X-6651798Y+5045699D01*
D89*
X-6514638Y+5640059D02*
X-6514638Y+5640059D01*
D90*
X-6469426Y+5192003D02*
X-6506002Y+5228579D01*
X-6506002Y+5265155D01*
X-6469426Y+5301731D01*
X-6432850Y+5301731D01*
X-6396274Y+5265155D01*
X-6396274Y+5228579D01*
X-6432850Y+5192003D01*
X-6469426Y+5192003D01*
X-6432850Y+5265155D02*
X-6396274Y+5301731D01*
X-6469426Y+5374883D02*
X-6506002Y+5411459D01*
X-6396274Y+5411459D01*
X-6487714Y+5502899D02*
X-6506002Y+5521187D01*
X-6506002Y+5576051D01*
X-6487714Y+5594339D01*
X-6469426Y+5594339D01*
X-6451138Y+5576051D01*
X-6432850Y+5594339D01*
X-6414562Y+5594339D01*
X-6396274Y+5576051D01*
X-6396274Y+5521187D01*
X-6414562Y+5502899D01*
X-6451138Y+5539475D02*
X-6451138Y+5576051D01*
D39*
X-5921202Y+5320041D02*
X-5743402Y+5320041D01*
X-5743402Y+6513841D01*
X-5921202Y+6513841D01*
X-5921202Y+5320041D01*
D68*
X-5832302Y+6424941D02*
X-5832302Y+6424941D01*
D69*
X-5800298Y+5788925D02*
X-5864306Y+5788925D01*
X-5864306Y+5842265D01*
X-5853638Y+5852933D01*
X-5842970Y+5852933D01*
X-5832302Y+5842265D01*
X-5832302Y+5788925D01*
X-5832302Y+5842265D02*
X-5821634Y+5852933D01*
X-5800298Y+5852933D01*
X-5842970Y+5895605D02*
X-5864306Y+5916941D01*
X-5800298Y+5916941D01*
X-5864306Y+5970281D02*
X-5864306Y+6023621D01*
X-5853638Y+6023621D01*
X-5800298Y+5970281D01*
D39*
X-5982162Y+2368561D02*
X-5804362Y+2368561D01*
X-5804362Y+3562361D01*
X-5982162Y+3562361D01*
X-5982162Y+2368561D01*
D68*
X-5893262Y+2457461D02*
X-5893262Y+2457461D01*
D69*
X-5861258Y+2837445D02*
X-5925266Y+2837445D01*
X-5925266Y+2890785D01*
X-5914598Y+2901453D01*
X-5903930Y+2901453D01*
X-5893262Y+2890785D01*
X-5893262Y+2837445D01*
X-5893262Y+2890785D02*
X-5882594Y+2901453D01*
X-5861258Y+2901453D01*
X-5914598Y+2933457D02*
X-5925266Y+2944125D01*
X-5925266Y+2976129D01*
X-5914598Y+2986797D01*
X-5903930Y+2986797D01*
X-5893262Y+2976129D01*
X-5882594Y+2986797D01*
X-5871926Y+2986797D01*
X-5861258Y+2976129D01*
X-5861258Y+2944125D01*
X-5871926Y+2933457D01*
X-5893262Y+2954793D02*
X-5893262Y+2976129D01*
X-5882594Y+3072141D02*
X-5882594Y+3008133D01*
X-5925266Y+3050805D01*
X-5861258Y+3050805D01*
D39*
X-4260506Y+3925581D02*
X-3066706Y+3925581D01*
X-3066706Y+4103381D01*
X-4260506Y+4103381D01*
X-4260506Y+3925581D01*
D68*
X-4171606Y+4014481D02*
X-4171606Y+4014481D01*
D69*
X-3791622Y+3982477D02*
X-3791622Y+4046485D01*
X-3738282Y+4046485D01*
X-3727614Y+4035817D01*
X-3727614Y+4025149D01*
X-3738282Y+4014481D01*
X-3791622Y+4014481D01*
X-3738282Y+4014481D02*
X-3727614Y+4003813D01*
X-3727614Y+3982477D01*
X-3684942Y+4025149D02*
X-3663606Y+4046485D01*
X-3663606Y+3982477D01*
X-3599598Y+4014481D02*
X-3610266Y+4025149D01*
X-3610266Y+4035817D01*
X-3599598Y+4046485D01*
X-3567594Y+4046485D01*
X-3556926Y+4035817D01*
X-3556926Y+4025149D01*
X-3567594Y+4014481D01*
X-3599598Y+4014481D01*
X-3610266Y+4003813D01*
X-3610266Y+3993145D01*
X-3599598Y+3982477D01*
X-3567594Y+3982477D01*
X-3556926Y+3993145D01*
X-3556926Y+4003813D01*
X-3567594Y+4014481D01*
D39*
X-541482Y+5990601D02*
X+367838Y+5990601D01*
X+367838Y+6772921D01*
X-541482Y+6772921D01*
X-541482Y+5990601D01*
D91*
X-290022Y+6287781D02*
X-290022Y+6287781D01*
D92*
X-410134Y+6351451D02*
X-410134Y+6412072D01*
X-359617Y+6412072D01*
X-349513Y+6401968D01*
X-349513Y+6391865D01*
X-359617Y+6381761D01*
X-410134Y+6381761D01*
X-329306Y+6391865D02*
X-309099Y+6412072D01*
X-288892Y+6412072D01*
X-268685Y+6391865D01*
X-268685Y+6371658D01*
X-288892Y+6351451D01*
X-309099Y+6351451D01*
X-329306Y+6371658D01*
X-329306Y+6391865D01*
X-248478Y+6412072D02*
X-248478Y+6351451D01*
X-218168Y+6381761D01*
X-187857Y+6351451D01*
X-187857Y+6412072D01*
X-107029Y+6351451D02*
X-167650Y+6351451D01*
X-167650Y+6412072D01*
X-107029Y+6412072D01*
X-167650Y+6381761D02*
X-127236Y+6381761D01*
X-86822Y+6351451D02*
X-86822Y+6412072D01*
X-36305Y+6412072D01*
X-26201Y+6401968D01*
X-26201Y+6391865D01*
X-36305Y+6381761D01*
X-86822Y+6381761D01*
X-36305Y+6381761D02*
X-26201Y+6371658D01*
X-26201Y+6351451D01*
X+84937Y+6412072D02*
X+125351Y+6412072D01*
X+105144Y+6412072D02*
X+105144Y+6351451D01*
X+84937Y+6351451D02*
X+125351Y+6351451D01*
X+155662Y+6351451D02*
X+155662Y+6412072D01*
X+216283Y+6351451D01*
X+216283Y+6412072D01*
D39*
X-5733242Y+3859541D02*
X-4823922Y+3859541D01*
X-4823922Y+4641861D01*
X-5733242Y+4641861D01*
X-5733242Y+3859541D01*
D91*
X-5481782Y+4156721D02*
X-5481782Y+4156721D01*
D93*
X-5614324Y+4229717D02*
X-5614324Y+4271685D01*
X-5579351Y+4271685D01*
X-5572357Y+4264690D01*
X-5572357Y+4257696D01*
X-5579351Y+4250701D01*
X-5614324Y+4250701D01*
X-5558367Y+4257696D02*
X-5544378Y+4271685D01*
X-5530389Y+4271685D01*
X-5516400Y+4257696D01*
X-5516400Y+4243706D01*
X-5530389Y+4229717D01*
X-5544378Y+4229717D01*
X-5558367Y+4243706D01*
X-5558367Y+4257696D01*
X-5502410Y+4271685D02*
X-5502410Y+4229717D01*
X-5481427Y+4250701D01*
X-5460443Y+4229717D01*
X-5460443Y+4271685D01*
X-5404486Y+4229717D02*
X-5446453Y+4229717D01*
X-5446453Y+4271685D01*
X-5404486Y+4271685D01*
X-5446453Y+4250701D02*
X-5418475Y+4250701D01*
X-5390496Y+4229717D02*
X-5390496Y+4271685D01*
X-5355523Y+4271685D01*
X-5348529Y+4264690D01*
X-5348529Y+4257696D01*
X-5355523Y+4250701D01*
X-5390496Y+4250701D01*
X-5355523Y+4250701D02*
X-5348529Y+4243706D01*
X-5348529Y+4229717D01*
X-5327545Y+4250701D02*
X-5292572Y+4250701D01*
X-5278582Y+4229717D02*
X-5278582Y+4271685D01*
X-5243609Y+4271685D01*
X-5236615Y+4264690D01*
X-5236615Y+4257696D01*
X-5243609Y+4250701D01*
X-5236615Y+4243706D01*
X-5236615Y+4236712D01*
X-5243609Y+4229717D01*
X-5278582Y+4229717D01*
X-5278582Y+4250701D02*
X-5243609Y+4250701D01*
X-5222625Y+4271685D02*
X-5222625Y+4236712D01*
X-5215631Y+4229717D01*
X-5187652Y+4229717D01*
X-5180658Y+4236712D01*
X-5180658Y+4271685D01*
X-5166668Y+4271685D02*
X-5124701Y+4271685D01*
X-5145685Y+4271685D02*
X-5145685Y+4229717D01*
X-5110711Y+4271685D02*
X-5068744Y+4271685D01*
X-5089728Y+4271685D02*
X-5089728Y+4229717D01*
X-5054754Y+4257696D02*
X-5040765Y+4271685D01*
X-5026776Y+4271685D01*
X-5012787Y+4257696D01*
X-5012787Y+4243706D01*
X-5026776Y+4229717D01*
X-5040765Y+4229717D01*
X-5054754Y+4243706D01*
X-5054754Y+4257696D01*
X-4998797Y+4229717D02*
X-4998797Y+4271685D01*
X-4956830Y+4229717D01*
X-4956830Y+4271685D01*
D39*
X-2832100Y+2895600D02*
X-2654300Y+2895600D01*
X-2654300Y+4089400D01*
X-2832100Y+4089400D01*
X-2832100Y+2895600D01*
D68*
X-2743200Y+2984500D02*
X-2743200Y+2984500D01*
D69*
X-2711196Y+3364484D02*
X-2775204Y+3364484D01*
X-2775204Y+3417824D01*
X-2764536Y+3428492D01*
X-2753868Y+3428492D01*
X-2743200Y+3417824D01*
X-2743200Y+3364484D01*
X-2743200Y+3417824D02*
X-2732532Y+3428492D01*
X-2711196Y+3428492D01*
X-2764536Y+3460496D02*
X-2775204Y+3471164D01*
X-2775204Y+3503168D01*
X-2764536Y+3513836D01*
X-2753868Y+3513836D01*
X-2743200Y+3503168D01*
X-2732532Y+3513836D01*
X-2721864Y+3513836D01*
X-2711196Y+3503168D01*
X-2711196Y+3471164D01*
X-2721864Y+3460496D01*
X-2743200Y+3481832D02*
X-2743200Y+3503168D01*
X-2764536Y+3545840D02*
X-2775204Y+3556508D01*
X-2775204Y+3588512D01*
X-2764536Y+3599180D01*
X-2753868Y+3599180D01*
X-2743200Y+3588512D01*
X-2743200Y+3556508D01*
X-2732532Y+3545840D01*
X-2711196Y+3545840D01*
X-2711196Y+3599180D01*
D94*
X-2479540Y+1580800D02*
X-2480458Y+1603614D01*
X-2487911Y+1649243D01*
X-2503458Y+1694872D01*
X-2528700Y+1740501D01*
X-2567242Y+1786031D01*
X-2612871Y+1821527D01*
X-2658500Y+1844647D01*
X-2704129Y+1858500D01*
X-2749758Y+1864446D01*
X-2763520Y+1864780D01*
X-3047500Y+1580800D02*
X-3046582Y+1603614D01*
X-3039129Y+1649243D01*
X-3023582Y+1694872D01*
X-2998340Y+1740501D01*
X-2959798Y+1786031D01*
X-2914169Y+1821527D01*
X-2868540Y+1844647D01*
X-2822911Y+1858500D01*
X-2777282Y+1864446D01*
X-2763520Y+1864780D01*
X-3047500Y+1580800D02*
X-3046582Y+1557986D01*
X-3039129Y+1512357D01*
X-3023582Y+1466728D01*
X-2998340Y+1421099D01*
X-2959798Y+1375569D01*
X-2914169Y+1340073D01*
X-2868540Y+1316953D01*
X-2822911Y+1303100D01*
X-2777282Y+1297154D01*
X-2763520Y+1296820D01*
X-2479540Y+1580800D02*
X-2480458Y+1557986D01*
X-2487911Y+1512357D01*
X-2503458Y+1466728D01*
X-2528700Y+1421099D01*
X-2567242Y+1375569D01*
X-2612871Y+1340073D01*
X-2658500Y+1316953D01*
X-2704129Y+1303100D01*
X-2749758Y+1297154D01*
X-2763520Y+1296820D01*
D78*
X-2763520Y+1452880D02*
X-2763520Y+1452880D01*
D95*
X-2734868Y+1494844D02*
X-2720542Y+1480518D01*
X-2720542Y+1437540D01*
X-2749194Y+1408888D01*
X-2777846Y+1408888D01*
X-2806498Y+1437540D01*
X-2806498Y+1480518D01*
X-2792172Y+1494844D01*
X-2777846Y+1552148D02*
X-2806498Y+1580800D01*
X-2720542Y+1580800D01*
X-2749194Y+1724060D02*
X-2749194Y+1638104D01*
X-2806498Y+1695408D01*
X-2720542Y+1695408D01*
D94*
X-4770620Y+2060860D02*
X-4771538Y+2083674D01*
X-4778991Y+2129303D01*
X-4794538Y+2174932D01*
X-4819780Y+2220561D01*
X-4858322Y+2266091D01*
X-4903951Y+2301587D01*
X-4949580Y+2324707D01*
X-4995209Y+2338560D01*
X-5040838Y+2344506D01*
X-5054600Y+2344840D01*
X-5338580Y+2060860D02*
X-5337662Y+2083674D01*
X-5330209Y+2129303D01*
X-5314662Y+2174932D01*
X-5289420Y+2220561D01*
X-5250878Y+2266091D01*
X-5205249Y+2301587D01*
X-5159620Y+2324707D01*
X-5113991Y+2338560D01*
X-5068362Y+2344506D01*
X-5054600Y+2344840D01*
X-5338580Y+2060860D02*
X-5337662Y+2038046D01*
X-5330209Y+1992417D01*
X-5314662Y+1946788D01*
X-5289420Y+1901159D01*
X-5250878Y+1855629D01*
X-5205249Y+1820133D01*
X-5159620Y+1797013D01*
X-5113991Y+1783160D01*
X-5068362Y+1777214D01*
X-5054600Y+1776880D01*
X-4770620Y+2060860D02*
X-4771538Y+2038046D01*
X-4778991Y+1992417D01*
X-4794538Y+1946788D01*
X-4819780Y+1901159D01*
X-4858322Y+1855629D01*
X-4903951Y+1820133D01*
X-4949580Y+1797013D01*
X-4995209Y+1783160D01*
X-5040838Y+1777214D01*
X-5054600Y+1776880D01*
D78*
X-5054600Y+1932940D02*
X-5054600Y+1932940D01*
D95*
X-5025948Y+1974904D02*
X-5011622Y+1960578D01*
X-5011622Y+1917600D01*
X-5040274Y+1888948D01*
X-5068926Y+1888948D01*
X-5097578Y+1917600D01*
X-5097578Y+1960578D01*
X-5083252Y+1974904D01*
X-5068926Y+2032208D02*
X-5097578Y+2060860D01*
X-5011622Y+2060860D01*
X-5083252Y+2204120D02*
X-5097578Y+2189794D01*
X-5097578Y+2146816D01*
X-5083252Y+2132490D01*
X-5025948Y+2132490D01*
X-5011622Y+2146816D01*
X-5011622Y+2189794D01*
X-5025948Y+2204120D01*
X-5040274Y+2204120D01*
X-5054600Y+2189794D01*
X-5054600Y+2132490D01*
D94*
X-1738780Y+1559560D02*
X-1739698Y+1582374D01*
X-1747151Y+1628003D01*
X-1762698Y+1673632D01*
X-1787940Y+1719261D01*
X-1826482Y+1764791D01*
X-1872111Y+1800287D01*
X-1917740Y+1823407D01*
X-1963369Y+1837260D01*
X-2008998Y+1843206D01*
X-2022760Y+1843540D01*
X-2306740Y+1559560D02*
X-2305822Y+1582374D01*
X-2298369Y+1628003D01*
X-2282822Y+1673632D01*
X-2257580Y+1719261D01*
X-2219038Y+1764791D01*
X-2173409Y+1800287D01*
X-2127780Y+1823407D01*
X-2082151Y+1837260D01*
X-2036522Y+1843206D01*
X-2022760Y+1843540D01*
X-2306740Y+1559560D02*
X-2305822Y+1536746D01*
X-2298369Y+1491117D01*
X-2282822Y+1445488D01*
X-2257580Y+1399859D01*
X-2219038Y+1354329D01*
X-2173409Y+1318833D01*
X-2127780Y+1295713D01*
X-2082151Y+1281860D01*
X-2036522Y+1275914D01*
X-2022760Y+1275580D01*
X-1738780Y+1559560D02*
X-1739698Y+1536746D01*
X-1747151Y+1491117D01*
X-1762698Y+1445488D01*
X-1787940Y+1399859D01*
X-1826482Y+1354329D01*
X-1872111Y+1318833D01*
X-1917740Y+1295713D01*
X-1963369Y+1281860D01*
X-2008998Y+1275914D01*
X-2022760Y+1275580D01*
D78*
X-1894840Y+1559560D02*
X-1894840Y+1559560D01*
D95*
X-2108716Y+1530908D02*
X-2123042Y+1516582D01*
X-2166020Y+1516582D01*
X-2194672Y+1545234D01*
X-2194672Y+1573886D01*
X-2166020Y+1602538D01*
X-2123042Y+1602538D01*
X-2108716Y+1588212D01*
X-2051412Y+1573886D02*
X-2022760Y+1602538D01*
X-2022760Y+1516582D01*
X-1965456Y+1530908D02*
X-1965456Y+1588212D01*
X-1951130Y+1602538D01*
X-1893826Y+1602538D01*
X-1879500Y+1588212D01*
X-1879500Y+1530908D01*
X-1893826Y+1516582D01*
X-1951130Y+1516582D01*
X-1965456Y+1530908D01*
X-1965456Y+1516582D02*
X-1879500Y+1602538D01*
D39*
X-2923540Y+972820D02*
X-1678940Y+972820D01*
X-1678940Y+1259840D01*
X-2923540Y+1259840D01*
X-2923540Y+972820D01*
D82*
X-2809240Y+1115060D02*
X-2809240Y+1115060D01*
D83*
X-2439009Y+1064666D02*
X-2439009Y+1167993D01*
X-2370125Y+1167993D01*
X-2335683Y+1133551D01*
X-2335683Y+1099108D01*
X-2370125Y+1064666D01*
X-2439009Y+1064666D01*
X-2284019Y+1150772D02*
X-2266798Y+1167993D01*
X-2215135Y+1167993D01*
X-2197914Y+1150772D01*
X-2197914Y+1133551D01*
X-2215135Y+1116330D01*
X-2197914Y+1099108D01*
X-2197914Y+1081887D01*
X-2215135Y+1064666D01*
X-2266798Y+1064666D01*
X-2284019Y+1081887D01*
X-2249577Y+1116330D02*
X-2215135Y+1116330D01*
D39*
X-2565400Y+2110740D02*
X-1320800Y+2110740D01*
X-1320800Y+2397760D01*
X-2565400Y+2397760D01*
X-2565400Y+2110740D01*
D82*
X-2451100Y+2252980D02*
X-2451100Y+2252980D01*
D83*
X-2080869Y+2202586D02*
X-2080869Y+2305913D01*
X-2011985Y+2305913D01*
X-1977543Y+2271471D01*
X-1977543Y+2237028D01*
X-2011985Y+2202586D01*
X-2080869Y+2202586D01*
X-1839774Y+2305913D02*
X-1925879Y+2305913D01*
X-1925879Y+2271471D01*
X-1856995Y+2271471D01*
X-1839774Y+2254250D01*
X-1839774Y+2219807D01*
X-1856995Y+2202586D01*
X-1908658Y+2202586D01*
X-1925879Y+2219807D01*
D39*
X-1690584Y-340360D02*
X-654264Y-340360D01*
X-654264Y+695960D01*
X-1690584Y+695960D01*
X-1690584Y-340360D01*
D91*
X-1426424Y+177800D02*
X-1426424Y+177800D01*
D96*
X-1517864Y+125984D02*
X-1517864Y+195072D01*
X-1483320Y+229616D01*
X-1448776Y+229616D01*
X-1414232Y+195072D01*
X-1414232Y+125984D01*
X-1517864Y+160528D02*
X-1414232Y+160528D01*
X-1276056Y+143256D02*
X-1293328Y+125984D01*
X-1345144Y+125984D01*
X-1379688Y+160528D01*
X-1379688Y+195072D01*
X-1345144Y+229616D01*
X-1293328Y+229616D01*
X-1276056Y+212344D01*
X-1086064Y+229616D02*
X-1016976Y+229616D01*
X-1051520Y+229616D02*
X-1051520Y+125984D01*
X-1086064Y+125984D02*
X-1016976Y+125984D01*
X-965160Y+125984D02*
X-965160Y+229616D01*
X-861528Y+125984D01*
X-861528Y+229616D01*
D39*
X-1524000Y+797560D02*
X-1346200Y+797560D01*
X-1346200Y+1991360D01*
X-1524000Y+1991360D01*
X-1524000Y+797560D01*
D68*
X-1435100Y+886460D02*
X-1435100Y+886460D01*
D69*
X-1403096Y+1266444D02*
X-1467104Y+1266444D01*
X-1467104Y+1319784D01*
X-1456436Y+1330452D01*
X-1445768Y+1330452D01*
X-1435100Y+1319784D01*
X-1435100Y+1266444D01*
X-1435100Y+1319784D02*
X-1424432Y+1330452D01*
X-1403096Y+1330452D01*
X-1445768Y+1373124D02*
X-1467104Y+1394460D01*
X-1403096Y+1394460D01*
X-1445768Y+1501140D02*
X-1435100Y+1490472D01*
X-1435100Y+1458468D01*
X-1445768Y+1447800D01*
X-1456436Y+1447800D01*
X-1467104Y+1458468D01*
X-1467104Y+1490472D01*
X-1456436Y+1501140D01*
X-1413764Y+1501140D01*
X-1403096Y+1490472D01*
X-1403096Y+1458468D01*
D39*
X-1132312Y+789939D02*
X-954512Y+789939D01*
X-954512Y+1983739D01*
X-1132312Y+1983739D01*
X-1132312Y+789939D01*
D68*
X-1043412Y+878839D02*
X-1043412Y+878839D01*
D69*
X-1011408Y+1258823D02*
X-1075416Y+1258823D01*
X-1075416Y+1312163D01*
X-1064748Y+1322831D01*
X-1054080Y+1322831D01*
X-1043412Y+1312163D01*
X-1043412Y+1258823D01*
X-1043412Y+1312163D02*
X-1032744Y+1322831D01*
X-1011408Y+1322831D01*
X-1064748Y+1354835D02*
X-1075416Y+1365503D01*
X-1075416Y+1397507D01*
X-1064748Y+1408175D01*
X-1054080Y+1408175D01*
X-1043412Y+1397507D01*
X-1032744Y+1408175D01*
X-1022076Y+1408175D01*
X-1011408Y+1397507D01*
X-1011408Y+1365503D01*
X-1022076Y+1354835D01*
X-1043412Y+1376171D02*
X-1043412Y+1397507D01*
X-1064748Y+1440179D02*
X-1075416Y+1450847D01*
X-1075416Y+1482851D01*
X-1064748Y+1493519D01*
X-1054080Y+1493519D01*
X-1043412Y+1482851D01*
X-1032744Y+1493519D01*
X-1022076Y+1493519D01*
X-1011408Y+1482851D01*
X-1011408Y+1450847D01*
X-1022076Y+1440179D01*
X-1043412Y+1461515D02*
X-1043412Y+1482851D01*
D74*
X-1841900Y+4645660D02*
X-1841986Y+4647736D01*
X-1842688Y+4651889D01*
X-1844158Y+4656042D01*
X-1846560Y+4660195D01*
X-1850233Y+4664294D01*
X-1854386Y+4667303D01*
X-1858539Y+4669220D01*
X-1862692Y+4670303D01*
X-1866845Y+4670660D01*
X-1866900Y+4670660D01*
X-1891900Y+4645660D02*
X-1891814Y+4647736D01*
X-1891112Y+4651889D01*
X-1889642Y+4656042D01*
X-1887240Y+4660195D01*
X-1883567Y+4664294D01*
X-1879414Y+4667303D01*
X-1875261Y+4669220D01*
X-1871108Y+4670303D01*
X-1866955Y+4670660D01*
X-1866900Y+4670660D01*
X-1891900Y+4645660D02*
X-1891814Y+4643584D01*
X-1891112Y+4639431D01*
X-1889642Y+4635278D01*
X-1887240Y+4631125D01*
X-1883567Y+4627026D01*
X-1879414Y+4624017D01*
X-1875261Y+4622100D01*
X-1871108Y+4621017D01*
X-1866955Y+4620660D01*
X-1866900Y+4620660D01*
X-1841900Y+4645660D02*
X-1841986Y+4643584D01*
X-1842688Y+4639431D01*
X-1844158Y+4635278D01*
X-1846560Y+4631125D01*
X-1850233Y+4627026D01*
X-1854386Y+4624017D01*
X-1858539Y+4622100D01*
X-1862692Y+4621017D01*
X-1866845Y+4620660D01*
X-1866900Y+4620660D01*
X-1866900Y+4610660D02*
X-1866900Y+4680660D01*
X-1831900Y+4645660D02*
X-1901900Y+4645660D01*
X-1341900Y+5170660D02*
X-1866900Y+5170660D01*
X-1921462Y+5168008D01*
X-1974245Y+5160214D01*
X-2025010Y+5147517D01*
X-2073516Y+5130157D01*
X-2119522Y+5108375D01*
X-2162789Y+5082412D01*
X-2203076Y+5052508D01*
X-2240142Y+5018902D01*
X-2273748Y+4981836D01*
X-2303652Y+4941549D01*
X-2329615Y+4898282D01*
X-2351397Y+4852276D01*
X-2368757Y+4803770D01*
X-2381454Y+4753005D01*
X-2389248Y+4700222D01*
X-2391900Y+4645660D01*
X-2389248Y+4591098D01*
X-2381454Y+4538315D01*
X-2368757Y+4487550D01*
X-2351397Y+4439044D01*
X-2329615Y+4393038D01*
X-2303652Y+4349771D01*
X-2273748Y+4309484D01*
X-2240142Y+4272418D01*
X-2203076Y+4238812D01*
X-2162789Y+4208908D01*
X-2119522Y+4182945D01*
X-2073516Y+4161163D01*
X-2025010Y+4143803D01*
X-1974245Y+4131106D01*
X-1921462Y+4123312D01*
X-1866900Y+4120660D01*
X-1812338Y+4123312D01*
X-1759555Y+4131106D01*
X-1708790Y+4143803D01*
X-1660284Y+4161163D01*
X-1614278Y+4182945D01*
X-1571011Y+4208908D01*
X-1530724Y+4238812D01*
X-1493658Y+4272418D01*
X-1460052Y+4309484D01*
X-1430148Y+4349771D01*
X-1404185Y+4393038D01*
X-1382403Y+4439044D01*
X-1365043Y+4487550D01*
X-1352346Y+4538315D01*
X-1344552Y+4591098D01*
X-1341900Y+4645660D01*
X-1341900Y+5170660D01*
D97*
X-1866900Y+4395660D02*
X-1866900Y+4395660D01*
D98*
X-1814150Y+4487410D02*
X-1787775Y+4461035D01*
X-1787775Y+4381910D01*
X-1840525Y+4329160D01*
X-1893275Y+4329160D01*
X-1946025Y+4381910D01*
X-1946025Y+4461035D01*
X-1919650Y+4487410D01*
X-1893275Y+4592910D02*
X-1946025Y+4645660D01*
X-1787775Y+4645660D01*
X-1893275Y+4803910D02*
X-1946025Y+4856660D01*
X-1787775Y+4856660D01*
D39*
X-4274820Y-716280D02*
X-3385820Y-716280D01*
X-3385820Y+66040D01*
X-4274820Y+66040D01*
X-4274820Y-716280D01*
D99*
X-4097020Y-391795D02*
X-4097020Y-258445D01*
X-3985895Y-258445D01*
X-3963670Y-280670D01*
X-3963670Y-302895D01*
X-3985895Y-325120D01*
X-3963670Y-347345D01*
X-3963670Y-369570D01*
X-3985895Y-391795D01*
X-4097020Y-391795D01*
X-4097020Y-325120D02*
X-3985895Y-325120D01*
X-3919220Y-391795D02*
X-3919220Y-258445D01*
X-3808095Y-258445D01*
X-3785870Y-280670D01*
X-3785870Y-302895D01*
X-3808095Y-325120D01*
X-3919220Y-325120D01*
X-3808095Y-325120D02*
X-3785870Y-347345D01*
X-3785870Y-391795D01*
X-3696970Y-302895D02*
X-3652520Y-258445D01*
X-3652520Y-391795D01*
D39*
X-332740Y-373380D02*
X-154940Y-373380D01*
X-154940Y+820420D01*
X-332740Y+820420D01*
X-332740Y-373380D01*
D68*
X-243840Y-284480D02*
X-243840Y-284480D01*
D69*
X-211836Y+95504D02*
X-275844Y+95504D01*
X-275844Y+148844D01*
X-265176Y+159512D01*
X-254508Y+159512D01*
X-243840Y+148844D01*
X-243840Y+95504D01*
X-243840Y+148844D02*
X-233172Y+159512D01*
X-211836Y+159512D01*
X-265176Y+191516D02*
X-275844Y+202184D01*
X-275844Y+234188D01*
X-265176Y+244856D01*
X-254508Y+244856D01*
X-243840Y+234188D01*
X-233172Y+244856D01*
X-222504Y+244856D01*
X-211836Y+234188D01*
X-211836Y+202184D01*
X-222504Y+191516D01*
X-243840Y+212852D02*
X-243840Y+234188D01*
X-275844Y+330200D02*
X-275844Y+276860D01*
X-254508Y+276860D01*
X-254508Y+319532D01*
X-243840Y+330200D01*
X-222504Y+330200D01*
X-211836Y+319532D01*
X-211836Y+287528D01*
X-222504Y+276860D01*
D39*
X-2951480Y-922020D02*
X-2773680Y-922020D01*
X-2773680Y+271780D01*
X-2951480Y+271780D01*
X-2951480Y-922020D01*
D68*
X-2862580Y+182880D02*
X-2862580Y+182880D01*
D69*
X-2830576Y-453136D02*
X-2894584Y-453136D01*
X-2894584Y-399796D01*
X-2883916Y-389128D01*
X-2873248Y-389128D01*
X-2862580Y-399796D01*
X-2862580Y-453136D01*
X-2862580Y-399796D02*
X-2851912Y-389128D01*
X-2830576Y-389128D01*
X-2883916Y-357124D02*
X-2894584Y-346456D01*
X-2894584Y-314452D01*
X-2883916Y-303784D01*
X-2873248Y-303784D01*
X-2862580Y-314452D01*
X-2851912Y-303784D01*
X-2841244Y-303784D01*
X-2830576Y-314452D01*
X-2830576Y-346456D01*
X-2841244Y-357124D01*
X-2862580Y-335788D02*
X-2862580Y-314452D01*
X-2883916Y-218440D02*
X-2894584Y-229108D01*
X-2894584Y-261112D01*
X-2883916Y-271780D01*
X-2841244Y-271780D01*
X-2830576Y-261112D01*
X-2830576Y-229108D01*
X-2841244Y-218440D01*
X-2851912Y-218440D01*
X-2862580Y-229108D01*
X-2862580Y-271780D01*
D39*
X-665480Y-373380D02*
X-487680Y-373380D01*
X-487680Y+820420D01*
X-665480Y+820420D01*
X-665480Y-373380D01*
D68*
X-576580Y+731520D02*
X-576580Y+731520D01*
D69*
X-544576Y+95504D02*
X-608584Y+95504D01*
X-608584Y+148844D01*
X-597916Y+159512D01*
X-587248Y+159512D01*
X-576580Y+148844D01*
X-576580Y+95504D01*
X-576580Y+148844D02*
X-565912Y+159512D01*
X-544576Y+159512D01*
X-597916Y+191516D02*
X-608584Y+202184D01*
X-608584Y+234188D01*
X-597916Y+244856D01*
X-587248Y+244856D01*
X-576580Y+234188D01*
X-565912Y+244856D01*
X-555244Y+244856D01*
X-544576Y+234188D01*
X-544576Y+202184D01*
X-555244Y+191516D01*
X-576580Y+212852D02*
X-576580Y+234188D01*
X-608584Y+276860D02*
X-608584Y+330200D01*
X-597916Y+330200D01*
X-544576Y+276860D01*
D39*
X-1993900Y-901700D02*
X-1816100Y-901700D01*
X-1816100Y+292100D01*
X-1993900Y+292100D01*
X-1993900Y-901700D01*
D68*
X-1905000Y+203200D02*
X-1905000Y+203200D01*
D69*
X-1872996Y-432816D02*
X-1937004Y-432816D01*
X-1937004Y-379476D01*
X-1926336Y-368808D01*
X-1915668Y-368808D01*
X-1905000Y-379476D01*
X-1905000Y-432816D01*
X-1905000Y-379476D02*
X-1894332Y-368808D01*
X-1872996Y-368808D01*
X-1926336Y-336804D02*
X-1937004Y-326136D01*
X-1937004Y-294132D01*
X-1926336Y-283464D01*
X-1915668Y-283464D01*
X-1905000Y-294132D01*
X-1894332Y-283464D01*
X-1883664Y-283464D01*
X-1872996Y-294132D01*
X-1872996Y-326136D01*
X-1883664Y-336804D01*
X-1905000Y-315468D02*
X-1905000Y-294132D01*
X-1905000Y-240792D02*
X-1915668Y-251460D01*
X-1926336Y-251460D01*
X-1937004Y-240792D01*
X-1937004Y-208788D01*
X-1926336Y-198120D01*
X-1915668Y-198120D01*
X-1905000Y-208788D01*
X-1905000Y-240792D01*
X-1894332Y-251460D01*
X-1883664Y-251460D01*
X-1872996Y-240792D01*
X-1872996Y-208788D01*
X-1883664Y-198120D01*
X-1894332Y-198120D01*
X-1905000Y-208788D01*
D39*
X-2463800Y-901700D02*
X-2286000Y-901700D01*
X-2286000Y+292100D01*
X-2463800Y+292100D01*
X-2463800Y-901700D01*
D68*
X-2374900Y+203200D02*
X-2374900Y+203200D01*
D69*
X-2342896Y-432816D02*
X-2406904Y-432816D01*
X-2406904Y-379476D01*
X-2396236Y-368808D01*
X-2385568Y-368808D01*
X-2374900Y-379476D01*
X-2374900Y-432816D01*
X-2374900Y-379476D02*
X-2364232Y-368808D01*
X-2342896Y-368808D01*
X-2396236Y-336804D02*
X-2406904Y-326136D01*
X-2406904Y-294132D01*
X-2396236Y-283464D01*
X-2385568Y-283464D01*
X-2374900Y-294132D01*
X-2364232Y-283464D01*
X-2353564Y-283464D01*
X-2342896Y-294132D01*
X-2342896Y-326136D01*
X-2353564Y-336804D01*
X-2374900Y-315468D02*
X-2374900Y-294132D01*
X-2385568Y-198120D02*
X-2374900Y-208788D01*
X-2374900Y-240792D01*
X-2385568Y-251460D01*
X-2396236Y-251460D01*
X-2406904Y-240792D01*
X-2406904Y-208788D01*
X-2396236Y-198120D01*
X-2353564Y-198120D01*
X-2342896Y-208788D01*
X-2342896Y-240792D01*
D39*
X+144780Y-1109980D02*
X+927100Y-1109980D01*
X+927100Y-220980D01*
X+144780Y-220980D01*
X+144780Y-1109980D01*
D100*
X+281940Y-1046480D02*
X+281940Y-1046480D01*
D101*
X+447040Y-902546D02*
X+595207Y-902546D01*
X+624840Y-872913D01*
X+624840Y-754380D01*
X+595207Y-724747D01*
X+447040Y-724747D01*
X+476673Y-635847D02*
X+447040Y-606214D01*
X+447040Y-517314D01*
X+476673Y-487681D01*
X+506307Y-487681D01*
X+535940Y-517314D01*
X+535940Y-606214D01*
X+565573Y-635847D01*
X+624840Y-635847D01*
X+624840Y-487681D01*
D39*
X+1592580Y-1018540D02*
X+1993900Y-1018540D01*
X+1993900Y-236220D01*
X+1592580Y-236220D01*
X+1592580Y-1018540D01*
D78*
X+1729740Y-373380D02*
X+1729740Y-373380D01*
D84*
X+1721003Y-820013D02*
X+1841399Y-820013D01*
X+1865478Y-795934D01*
X+1865478Y-699618D01*
X+1841399Y-675539D01*
X+1721003Y-675539D01*
X+1817320Y-482906D02*
X+1817320Y-627380D01*
X+1721003Y-531064D01*
X+1865478Y-531064D01*
D74*
X-5135640Y-290740D02*
X-4597640Y-290740D01*
X-4597640Y+641260D01*
X-5135640Y+641260D01*
X-5135640Y-290740D01*
D102*
X-4993640Y-205740D02*
X-4993640Y-205740D01*
D103*
X-4960340Y-74606D02*
X-4804173Y-74606D01*
X-4772940Y-43373D01*
X-4772940Y+81560D01*
X-4804173Y+112793D01*
X-4960340Y+112793D01*
X-4960340Y+206493D02*
X-4960340Y+362659D01*
X-4929107Y+362659D01*
X-4772940Y+206493D01*
D39*
X+8117840Y-325120D02*
X+8392160Y-325120D01*
X+8392160Y-50800D01*
X+8117840Y-50800D01*
X+8117840Y-325120D01*
D104*
X+8160512Y-191008D02*
X+8158988Y-192532D01*
X+8154416Y-192532D01*
X+8151368Y-189484D01*
X+8151368Y-186436D01*
X+8154416Y-183388D01*
X+8158988Y-183388D01*
X+8160512Y-184912D01*
X+8163560Y-186436D02*
X+8166608Y-183388D01*
X+8169656Y-183388D01*
X+8172704Y-186436D01*
X+8172704Y-189484D01*
X+8169656Y-192532D01*
X+8166608Y-192532D01*
X+8163560Y-189484D01*
X+8163560Y-186436D01*
X+8175752Y-192532D02*
X+8175752Y-183388D01*
X+8184896Y-192532D01*
X+8184896Y-183388D01*
X+8187944Y-183388D02*
X+8197088Y-183388D01*
X+8192516Y-183388D02*
X+8192516Y-192532D01*
X+8200136Y-192532D02*
X+8200136Y-183388D01*
X+8207756Y-183388D01*
X+8209280Y-184912D01*
X+8209280Y-186436D01*
X+8207756Y-187960D01*
X+8200136Y-187960D01*
X+8207756Y-187960D02*
X+8209280Y-189484D01*
X+8209280Y-192532D01*
X+8212328Y-186436D02*
X+8215376Y-183388D01*
X+8218424Y-183388D01*
X+8221472Y-186436D01*
X+8221472Y-189484D01*
X+8218424Y-192532D01*
X+8215376Y-192532D01*
X+8212328Y-189484D01*
X+8212328Y-186436D01*
X+8224520Y-183388D02*
X+8224520Y-192532D01*
X+8233664Y-192532D01*
X+8236712Y-183388D02*
X+8236712Y-192532D01*
X+8245856Y-192532D01*
X+8258048Y-192532D02*
X+8248904Y-192532D01*
X+8248904Y-183388D01*
X+8258048Y-183388D01*
X+8248904Y-187960D02*
X+8255000Y-187960D01*
X+8261096Y-192532D02*
X+8261096Y-183388D01*
X+8267192Y-183388D01*
X+8270240Y-186436D01*
X+8270240Y-189484D01*
X+8267192Y-192532D01*
X+8261096Y-192532D01*
X+8285480Y-192532D02*
X+8285480Y-186436D01*
X+8288528Y-183388D01*
X+8291576Y-183388D01*
X+8294624Y-186436D01*
X+8294624Y-192532D01*
X+8285480Y-189484D02*
X+8294624Y-189484D01*
X+8306816Y-191008D02*
X+8305292Y-192532D01*
X+8300720Y-192532D01*
X+8297672Y-189484D01*
X+8297672Y-186436D01*
X+8300720Y-183388D01*
X+8305292Y-183388D01*
X+8306816Y-184912D01*
X+8322056Y-186436D02*
X+8325104Y-183388D01*
X+8328152Y-183388D01*
X+8331200Y-186436D01*
X+8331200Y-189484D01*
X+8328152Y-192532D01*
X+8325104Y-192532D01*
X+8322056Y-189484D01*
X+8322056Y-186436D01*
X+8334248Y-183388D02*
X+8334248Y-191008D01*
X+8335772Y-192532D01*
X+8341868Y-192532D01*
X+8343392Y-191008D01*
X+8343392Y-183388D01*
X+8346440Y-183388D02*
X+8355584Y-183388D01*
X+8351012Y-183388D02*
X+8351012Y-192532D01*
M02*
