G04 PROTEUS GERBER X2 FILE*
%TF.GenerationSoftware,Labcenter,Proteus,8.9-SP2-Build28501*%
%TF.CreationDate,2020-08-30T08:39:24+00:00*%
%TF.FileFunction,Plated,0,1,PTH*%
%TF.FilePolarity,Positive*%
%TF.Part,Single*%
%TF.SameCoordinates,{24fd5519-b3b9-43f5-8aa4-1ba1546d9b62}*%
%FSLAX45Y45*%
%MOMM*%
G01*
%TA.AperFunction,ViaDrill*%
%ADD68C,0.381000*%
%TA.AperFunction,ComponentDrill*%
%ADD69C,0.762000*%
%TA.AperFunction,ComponentDrill*%
%ADD74C,1.016000*%
%TA.AperFunction,ComponentDrill*%
%ADD75C,1.524000*%
%TA.AperFunction,OtherDrill,Unknown*%
%ADD76C,4.000000*%
%TA.AperFunction,ComponentDrill*%
%ADD77C,0.508000*%
%TA.AperFunction,ComponentDrill*%
%ADD78C,2.311400*%
%TA.AperFunction,OtherDrill,Unknown*%
%ADD79C,0.762000*%
%TD.AperFunction*%
D68*
X-5110480Y+4445000D03*
X-4706620Y+4445000D03*
D69*
X-2580640Y+6715760D03*
X-2580640Y+6461760D03*
X-2580640Y+6207760D03*
X-2580640Y+5953760D03*
X-2580640Y+5699760D03*
X-2580640Y+5445760D03*
X-2580640Y+5191760D03*
X-2580640Y+4937760D03*
X-2580640Y+4683760D03*
X-2580640Y+4429760D03*
X-2580640Y+4175760D03*
X-2580640Y+3921760D03*
X-2580640Y+3667760D03*
X-2580640Y+3413760D03*
X-1818640Y+3413760D03*
X-1818640Y+3667760D03*
X-1818640Y+3921760D03*
X-1818640Y+4175760D03*
X-1818640Y+4429760D03*
X-1818640Y+4683760D03*
X-1818640Y+4937760D03*
X-1818640Y+5191760D03*
X-1818640Y+5445760D03*
X-1818640Y+5699760D03*
X-1818640Y+5953760D03*
X-1818640Y+6207760D03*
X-1818640Y+6461760D03*
X-1818640Y+6713760D03*
D74*
X-1722120Y+7056119D03*
X-1722120Y+7310119D03*
X-1722120Y+7564119D03*
D75*
X-289560Y+7729220D03*
X+218440Y+7729220D03*
D74*
X-789051Y+8008620D03*
X-789051Y+6992620D03*
D69*
X-4091940Y+3710940D03*
X-3583940Y+3710940D03*
X-4091940Y+4218940D03*
X-3583940Y+4218940D03*
X-3583940Y+3202940D03*
X-4091940Y+3202940D03*
D76*
X-4927600Y+1348740D03*
D77*
X-2946450Y+2337458D03*
X-2946450Y+2227458D03*
D69*
X-2590850Y+2671958D03*
X-2590850Y+2417958D03*
X-2590850Y+2163958D03*
X-2590850Y+1909958D03*
X-1828850Y+1909958D03*
X-1828850Y+2163958D03*
X-1828850Y+2417958D03*
X-1828850Y+2671958D03*
D74*
X-1205611Y+8008620D03*
X-1205611Y+6992620D03*
X-3644900Y+4919980D03*
X-3898900Y+4919980D03*
X-4152900Y+4919980D03*
X-4406900Y+4919980D03*
X-3530600Y+7335520D03*
X-3784600Y+7335520D03*
X-4038600Y+7335520D03*
X-4292600Y+7335520D03*
X-4546600Y+7335520D03*
X-5052060Y+6687820D03*
X-5052060Y+5671820D03*
D69*
X-1325880Y+3746500D03*
X-1122680Y+3746500D03*
X-919480Y+3746500D03*
X-3238500Y+6741160D03*
X-3238500Y+5725160D03*
X-2681427Y+3167380D03*
X-1665427Y+3167380D03*
D74*
X-2331720Y+1115060D03*
X-2077720Y+1115060D03*
D75*
X-985520Y+5026660D03*
X+214480Y+5026660D03*
X-385520Y+4626660D03*
X+214480Y+6426660D03*
X-985520Y+6426660D03*
D69*
X-3070860Y+2948940D03*
X-4086860Y+2948940D03*
X-2844800Y+5958840D03*
X-2844800Y+6974840D03*
D74*
X-2760980Y+8041640D03*
X-2506980Y+8041640D03*
D69*
X-3053080Y+5951220D03*
X-3053080Y+6967220D03*
D74*
X-3068320Y+8036560D03*
X-3322320Y+8036560D03*
D76*
X+35560Y+1361440D03*
D74*
X-1135380Y+2674620D03*
X-3554740Y+1800440D03*
X-3804740Y+1800440D03*
X-3804740Y+1600440D03*
X-3554740Y+1600440D03*
D78*
X-4277360Y+1325880D03*
X-3073400Y+1325880D03*
D79*
X-5110480Y+4445000D03*
X-4706620Y+4445000D03*
M02*
