G04 PROTEUS GERBER X2 FILE*
%TF.GenerationSoftware,Labcenter,Proteus,8.9-SP2-Build28501*%
%TF.CreationDate,2020-10-27T15:50:31+00:00*%
%TF.FileFunction,Soldermask,Bot*%
%TF.FilePolarity,Negative*%
%TF.Part,Single*%
%TF.SameCoordinates,{225bdc91-fef2-4dc2-86f1-5788f1725188}*%
%FSLAX45Y45*%
%MOMM*%
G01*
%AMPPAD037*
4,1,8,
1.397000,0.509800,
1.397000,-0.509800,
1.017800,-0.889000,
-1.017800,-0.889000,
-1.397000,-0.509800,
-1.397000,0.509800,
-1.017800,0.889000,
1.017800,0.889000,
1.397000,0.509800,
0*%
%TA.AperFunction,Material*%
%ADD43PPAD037*%
%AMPPAD038*
4,1,36,
1.016000,-1.143000,
-1.016000,-1.143000,
-1.041970,-1.140470,
-1.065980,-1.133200,
-1.087580,-1.121650,
-1.106290,-1.106290,
-1.121650,-1.087570,
-1.133200,-1.065980,
-1.140470,-1.041970,
-1.143000,-1.016000,
-1.143000,1.016000,
-1.140470,1.041970,
-1.133200,1.065980,
-1.121650,1.087570,
-1.106290,1.106290,
-1.087580,1.121650,
-1.065980,1.133200,
-1.041970,1.140470,
-1.016000,1.143000,
1.016000,1.143000,
1.041970,1.140470,
1.065980,1.133200,
1.087580,1.121650,
1.106290,1.106290,
1.121650,1.087570,
1.133200,1.065980,
1.140470,1.041970,
1.143000,1.016000,
1.143000,-1.016000,
1.140470,-1.041970,
1.133200,-1.065980,
1.121650,-1.087570,
1.106290,-1.106290,
1.087580,-1.121650,
1.065980,-1.133200,
1.041970,-1.140470,
1.016000,-1.143000,
0*%
%TA.AperFunction,Material*%
%ADD44PPAD038*%
%TA.AperFunction,Material*%
%ADD45C,3.302000*%
%ADD46C,2.540000*%
%ADD47C,2.286000*%
%ADD48C,2.032000*%
%TA.AperFunction,Material*%
%ADD49C,6.604000*%
%TA.AperFunction,Material*%
%ADD50C,0.460000*%
%TA.AperFunction,Material*%
%ADD51C,1.778000*%
%AMPPAD046*
4,1,36,
-1.016000,-1.397000,
1.016000,-1.397000,
1.041970,-1.394470,
1.065980,-1.387200,
1.087580,-1.375650,
1.106290,-1.360290,
1.121650,-1.341570,
1.133200,-1.319980,
1.140470,-1.295970,
1.143000,-1.270000,
1.143000,1.270000,
1.140470,1.295970,
1.133200,1.319980,
1.121650,1.341570,
1.106290,1.360290,
1.087580,1.375650,
1.065980,1.387200,
1.041970,1.394470,
1.016000,1.397000,
-1.016000,1.397000,
-1.041970,1.394470,
-1.065980,1.387200,
-1.087580,1.375650,
-1.106290,1.360290,
-1.121650,1.341570,
-1.133200,1.319980,
-1.140470,1.295970,
-1.143000,1.270000,
-1.143000,-1.270000,
-1.140470,-1.295970,
-1.133200,-1.319980,
-1.121650,-1.341570,
-1.106290,-1.360290,
-1.087580,-1.375650,
-1.065980,-1.387200,
-1.041970,-1.394470,
-1.016000,-1.397000,
0*%
%TA.AperFunction,Material*%
%ADD52PPAD046*%
%TA.AperFunction,Material*%
%ADD53C,2.794000*%
%AMPPAD048*
4,1,36,
1.016000,1.143000,
-1.016000,1.143000,
-1.041970,1.140470,
-1.065980,1.133200,
-1.087580,1.121650,
-1.106290,1.106290,
-1.121650,1.087570,
-1.133200,1.065980,
-1.140470,1.041970,
-1.143000,1.016000,
-1.143000,-1.016000,
-1.140470,-1.041970,
-1.133200,-1.065980,
-1.121650,-1.087570,
-1.106290,-1.106290,
-1.087580,-1.121650,
-1.065980,-1.133200,
-1.041970,-1.140470,
-1.016000,-1.143000,
1.016000,-1.143000,
1.041970,-1.140470,
1.065980,-1.133200,
1.087580,-1.121650,
1.106290,-1.106290,
1.121650,-1.087570,
1.133200,-1.065980,
1.140470,-1.041970,
1.143000,-1.016000,
1.143000,1.016000,
1.140470,1.041970,
1.133200,1.065980,
1.121650,1.087570,
1.106290,1.106290,
1.087580,1.121650,
1.065980,1.133200,
1.041970,1.140470,
1.016000,1.143000,
0*%
%TA.AperFunction,Material*%
%ADD54PPAD048*%
%AMPPAD049*
4,1,4,
0.525000,0.525000,
0.525000,-0.525000,
-0.525000,-0.525000,
-0.525000,0.525000,
0.525000,0.525000,
0*%
%TA.AperFunction,Material*%
%ADD55PPAD049*%
%ADD56C,1.050000*%
%TA.AperFunction,Profile*%
%ADD37C,0.203200*%
%TD.AperFunction*%
D43*
X-2580640Y+6715760D03*
X-2580640Y+6461760D03*
X-2580640Y+6207760D03*
X-2580640Y+5953760D03*
X-2580640Y+5699760D03*
X-2580640Y+5445760D03*
X-2580640Y+5191760D03*
X-2580640Y+4937760D03*
X-2580640Y+4683760D03*
X-2580640Y+4429760D03*
X-2580640Y+4175760D03*
X-2580640Y+3921760D03*
X-2580640Y+3667760D03*
X-2580640Y+3413760D03*
X-1818640Y+3413760D03*
X-1818640Y+3667760D03*
X-1818640Y+3921760D03*
X-1818640Y+4175760D03*
X-1818640Y+4429760D03*
X-1818640Y+4683760D03*
X-1818640Y+4937760D03*
X-1818640Y+5191760D03*
X-1818640Y+5445760D03*
X-1818640Y+5699760D03*
X-1818640Y+5953760D03*
X-1818640Y+6207760D03*
X-1818640Y+6461760D03*
X-1818640Y+6713760D03*
D44*
X+238760Y+7015480D03*
X-15240Y+7015480D03*
X-269240Y+7015480D03*
D45*
X-289560Y+7729220D03*
X+218440Y+7729220D03*
D46*
X-789051Y+8008620D03*
X-789051Y+6992620D03*
D47*
X-4091940Y+3710940D03*
X-3583940Y+3710940D03*
D48*
X-4091940Y+4218940D03*
X-3583940Y+4218940D03*
X-3583940Y+3202940D03*
X-4091940Y+3202940D03*
D49*
X-4927600Y+1348740D03*
X-5026659Y+7967980D03*
D50*
X-2946450Y+2337458D03*
X-2946450Y+2227458D03*
D43*
X-2590850Y+2671958D03*
X-2590850Y+2417958D03*
X-2590850Y+2163958D03*
X-2590850Y+1909958D03*
X-1828850Y+1909958D03*
X-1828850Y+2163958D03*
X-1828850Y+2417958D03*
X-1828850Y+2671958D03*
D46*
X-1205611Y+8008620D03*
X-1205611Y+6992620D03*
D44*
X-3644900Y+4919980D03*
X-3898900Y+4919980D03*
X-4152900Y+4919980D03*
X-4406900Y+4919980D03*
D46*
X-5052060Y+6687820D03*
X-5052060Y+5671820D03*
D51*
X-599440Y+4117340D03*
X-802640Y+4117340D03*
X-1005840Y+4117340D03*
D52*
X-2131060Y+8028940D03*
X-1572260Y+8028940D03*
D48*
X-2681427Y+3167380D03*
X-1665427Y+3167380D03*
D47*
X-2331720Y+1115060D03*
X-2077720Y+1115060D03*
D53*
X-985520Y+5026660D03*
X+214480Y+5026660D03*
X-385520Y+4626660D03*
X+214480Y+6426660D03*
X-985520Y+6426660D03*
D48*
X-3070860Y+2948940D03*
X-4086860Y+2948940D03*
X-2844800Y+5958840D03*
X-2844800Y+6974840D03*
D44*
X-2760980Y+8041640D03*
X-2506980Y+8041640D03*
D48*
X-3053080Y+5951220D03*
X-3053080Y+6967220D03*
D44*
X-3068320Y+8036560D03*
X-3322320Y+8036560D03*
D49*
X+35560Y+1361440D03*
D54*
X-1135380Y+2674620D03*
D48*
X-3608080Y+1792820D03*
X-3858080Y+1792820D03*
X-3858080Y+1592820D03*
X-3608080Y+1592820D03*
D45*
X-4330700Y+1318260D03*
X-3126740Y+1318260D03*
D44*
X-5199380Y+4462780D03*
X-4696460Y+4462780D03*
D55*
X-5278120Y+5356860D03*
D56*
X-5278120Y+5156860D03*
D55*
X-1399540Y+3467100D03*
D56*
X-1199540Y+3467100D03*
D44*
X-3398520Y+7327900D03*
X-3652520Y+7327900D03*
X-3906520Y+7327900D03*
X-4160520Y+7327900D03*
X-4414520Y+7327900D03*
X-4668520Y+7327900D03*
D43*
X-2514600Y-2608580D03*
X-2514600Y-2862580D03*
X-2514600Y-3116580D03*
X-2514600Y-3370580D03*
X-2514600Y-3624580D03*
X-2514600Y-3878580D03*
X-2514600Y-4132580D03*
X-2514600Y-4386580D03*
X-2514600Y-4640580D03*
X-2514600Y-4894580D03*
X-2514600Y-5148580D03*
X-2514600Y-5402580D03*
X-2514600Y-5656580D03*
X-2514600Y-5910580D03*
X-1752600Y-5910580D03*
X-1752600Y-5656580D03*
X-1752600Y-5402580D03*
X-1752600Y-5148580D03*
X-1752600Y-4894580D03*
X-1752600Y-4640580D03*
X-1752600Y-4386580D03*
X-1752600Y-4132580D03*
X-1752600Y-3878580D03*
X-1752600Y-3624580D03*
X-1752600Y-3370580D03*
X-1752600Y-3116580D03*
X-1752600Y-2862580D03*
X-1752600Y-2610580D03*
D44*
X+304800Y-2308860D03*
X+50800Y-2308860D03*
X-203200Y-2308860D03*
D45*
X-223520Y-1595120D03*
X+284480Y-1595120D03*
D46*
X-723011Y-1315720D03*
X-723011Y-2331720D03*
D47*
X-4025900Y-5613400D03*
X-3517900Y-5613400D03*
D48*
X-4025900Y-5105400D03*
X-3517900Y-5105400D03*
X-3517900Y-6121400D03*
X-4025900Y-6121400D03*
D49*
X-4861560Y-7975600D03*
X-4960619Y-1356360D03*
D50*
X-2880410Y-6986882D03*
X-2880410Y-7096882D03*
D43*
X-2524810Y-6652382D03*
X-2524810Y-6906382D03*
X-2524810Y-7160382D03*
X-2524810Y-7414382D03*
X-1762810Y-7414382D03*
X-1762810Y-7160382D03*
X-1762810Y-6906382D03*
X-1762810Y-6652382D03*
D46*
X-1139571Y-1315720D03*
X-1139571Y-2331720D03*
D44*
X-3578860Y-4404360D03*
X-3832860Y-4404360D03*
X-4086860Y-4404360D03*
X-4340860Y-4404360D03*
D46*
X-4986020Y-2636520D03*
X-4986020Y-3652520D03*
D51*
X-533400Y-5207000D03*
X-736600Y-5207000D03*
X-939800Y-5207000D03*
D52*
X-2065020Y-1295400D03*
X-1506220Y-1295400D03*
D48*
X-2615387Y-6156960D03*
X-1599387Y-6156960D03*
D47*
X-2265680Y-8209280D03*
X-2011680Y-8209280D03*
D53*
X-919480Y-4297680D03*
X+280520Y-4297680D03*
X-319480Y-4697680D03*
X+280520Y-2897680D03*
X-919480Y-2897680D03*
D48*
X-3004820Y-6375400D03*
X-4020820Y-6375400D03*
X-2778760Y-3365500D03*
X-2778760Y-2349500D03*
D44*
X-2694940Y-1282700D03*
X-2440940Y-1282700D03*
D48*
X-2987040Y-3373120D03*
X-2987040Y-2357120D03*
D44*
X-3002280Y-1287780D03*
X-3256280Y-1287780D03*
D49*
X+101600Y-7962900D03*
D54*
X-1069340Y-6649720D03*
D48*
X-3542040Y-7531520D03*
X-3792040Y-7531520D03*
X-3792040Y-7731520D03*
X-3542040Y-7731520D03*
D45*
X-4264660Y-8006080D03*
X-3060700Y-8006080D03*
D44*
X-5133340Y-4861560D03*
X-4630420Y-4861560D03*
D55*
X-5212080Y-3967480D03*
D56*
X-5212080Y-4167480D03*
D55*
X-1333500Y-5857240D03*
D56*
X-1133500Y-5857240D03*
D44*
X-3332480Y-1996440D03*
X-3586480Y-1996440D03*
X-3840480Y-1996440D03*
X-4094480Y-1996440D03*
X-4348480Y-1996440D03*
X-4602480Y-1996440D03*
D43*
X+4737100Y-2608580D03*
X+4737100Y-2862580D03*
X+4737100Y-3116580D03*
X+4737100Y-3370580D03*
X+4737100Y-3624580D03*
X+4737100Y-3878580D03*
X+4737100Y-4132580D03*
X+4737100Y-4386580D03*
X+4737100Y-4640580D03*
X+4737100Y-4894580D03*
X+4737100Y-5148580D03*
X+4737100Y-5402580D03*
X+4737100Y-5656580D03*
X+4737100Y-5910580D03*
X+5499100Y-5910580D03*
X+5499100Y-5656580D03*
X+5499100Y-5402580D03*
X+5499100Y-5148580D03*
X+5499100Y-4894580D03*
X+5499100Y-4640580D03*
X+5499100Y-4386580D03*
X+5499100Y-4132580D03*
X+5499100Y-3878580D03*
X+5499100Y-3624580D03*
X+5499100Y-3370580D03*
X+5499100Y-3116580D03*
X+5499100Y-2862580D03*
X+5499100Y-2610580D03*
D44*
X+7556500Y-2308860D03*
X+7302500Y-2308860D03*
X+7048500Y-2308860D03*
D45*
X+7028180Y-1595120D03*
X+7536180Y-1595120D03*
D46*
X+6528689Y-1315720D03*
X+6528689Y-2331720D03*
D47*
X+3225800Y-5613400D03*
X+3733800Y-5613400D03*
D48*
X+3225800Y-5105400D03*
X+3733800Y-5105400D03*
X+3733800Y-6121400D03*
X+3225800Y-6121400D03*
D49*
X+2390140Y-7975600D03*
X+2291081Y-1356360D03*
D50*
X+4371290Y-6986882D03*
X+4371290Y-7096882D03*
D43*
X+4726890Y-6652382D03*
X+4726890Y-6906382D03*
X+4726890Y-7160382D03*
X+4726890Y-7414382D03*
X+5488890Y-7414382D03*
X+5488890Y-7160382D03*
X+5488890Y-6906382D03*
X+5488890Y-6652382D03*
D46*
X+6112129Y-1315720D03*
X+6112129Y-2331720D03*
D44*
X+3672840Y-4404360D03*
X+3418840Y-4404360D03*
X+3164840Y-4404360D03*
X+2910840Y-4404360D03*
D46*
X+2265680Y-2636520D03*
X+2265680Y-3652520D03*
D51*
X+6718300Y-5207000D03*
X+6515100Y-5207000D03*
X+6311900Y-5207000D03*
D52*
X+5186680Y-1295400D03*
X+5745480Y-1295400D03*
D48*
X+4636313Y-6156960D03*
X+5652313Y-6156960D03*
D47*
X+4986020Y-8209280D03*
X+5240020Y-8209280D03*
D53*
X+6332220Y-4297680D03*
X+7532220Y-4297680D03*
X+6932220Y-4697680D03*
X+7532220Y-2897680D03*
X+6332220Y-2897680D03*
D48*
X+4246880Y-6375400D03*
X+3230880Y-6375400D03*
X+4472940Y-3365500D03*
X+4472940Y-2349500D03*
D44*
X+4556760Y-1282700D03*
X+4810760Y-1282700D03*
D48*
X+4264660Y-3373120D03*
X+4264660Y-2357120D03*
D44*
X+4249420Y-1287780D03*
X+3995420Y-1287780D03*
D49*
X+7353300Y-7962900D03*
D54*
X+6182360Y-6649720D03*
D48*
X+3709660Y-7531520D03*
X+3459660Y-7531520D03*
X+3459660Y-7731520D03*
X+3709660Y-7731520D03*
D45*
X+2987040Y-8006080D03*
X+4191000Y-8006080D03*
D44*
X+2118360Y-4861560D03*
X+2621280Y-4861560D03*
D55*
X+2039620Y-3967480D03*
D56*
X+2039620Y-4167480D03*
D55*
X+5918200Y-5857240D03*
D56*
X+6118200Y-5857240D03*
D44*
X+3919220Y-1996440D03*
X+3665220Y-1996440D03*
X+3411220Y-1996440D03*
X+3157220Y-1996440D03*
X+2903220Y-1996440D03*
X+2649220Y-1996440D03*
D43*
X+4704080Y+6715760D03*
X+4704080Y+6461760D03*
X+4704080Y+6207760D03*
X+4704080Y+5953760D03*
X+4704080Y+5699760D03*
X+4704080Y+5445760D03*
X+4704080Y+5191760D03*
X+4704080Y+4937760D03*
X+4704080Y+4683760D03*
X+4704080Y+4429760D03*
X+4704080Y+4175760D03*
X+4704080Y+3921760D03*
X+4704080Y+3667760D03*
X+4704080Y+3413760D03*
X+5466080Y+3413760D03*
X+5466080Y+3667760D03*
X+5466080Y+3921760D03*
X+5466080Y+4175760D03*
X+5466080Y+4429760D03*
X+5466080Y+4683760D03*
X+5466080Y+4937760D03*
X+5466080Y+5191760D03*
X+5466080Y+5445760D03*
X+5466080Y+5699760D03*
X+5466080Y+5953760D03*
X+5466080Y+6207760D03*
X+5466080Y+6461760D03*
X+5466080Y+6713760D03*
D44*
X+7523480Y+7015480D03*
X+7269480Y+7015480D03*
X+7015480Y+7015480D03*
D45*
X+6995160Y+7729220D03*
X+7503160Y+7729220D03*
D46*
X+6495669Y+8008620D03*
X+6495669Y+6992620D03*
D47*
X+3192780Y+3710940D03*
X+3700780Y+3710940D03*
D48*
X+3192780Y+4218940D03*
X+3700780Y+4218940D03*
X+3700780Y+3202940D03*
X+3192780Y+3202940D03*
D49*
X+2357120Y+1348740D03*
X+2258061Y+7967980D03*
D50*
X+4338270Y+2337458D03*
X+4338270Y+2227458D03*
D43*
X+4693870Y+2671958D03*
X+4693870Y+2417958D03*
X+4693870Y+2163958D03*
X+4693870Y+1909958D03*
X+5455870Y+1909958D03*
X+5455870Y+2163958D03*
X+5455870Y+2417958D03*
X+5455870Y+2671958D03*
D46*
X+6079109Y+8008620D03*
X+6079109Y+6992620D03*
D44*
X+3639820Y+4919980D03*
X+3385820Y+4919980D03*
X+3131820Y+4919980D03*
X+2877820Y+4919980D03*
D46*
X+2232660Y+6687820D03*
X+2232660Y+5671820D03*
D51*
X+6685280Y+4117340D03*
X+6482080Y+4117340D03*
X+6278880Y+4117340D03*
D52*
X+5153660Y+8028940D03*
X+5712460Y+8028940D03*
D48*
X+4603293Y+3167380D03*
X+5619293Y+3167380D03*
D47*
X+4953000Y+1115060D03*
X+5207000Y+1115060D03*
D53*
X+6299200Y+5026660D03*
X+7499200Y+5026660D03*
X+6899200Y+4626660D03*
X+7499200Y+6426660D03*
X+6299200Y+6426660D03*
D48*
X+4213860Y+2948940D03*
X+3197860Y+2948940D03*
X+4439920Y+5958840D03*
X+4439920Y+6974840D03*
D44*
X+4523740Y+8041640D03*
X+4777740Y+8041640D03*
D48*
X+4231640Y+5951220D03*
X+4231640Y+6967220D03*
D44*
X+4216400Y+8036560D03*
X+3962400Y+8036560D03*
D49*
X+7320280Y+1361440D03*
D54*
X+6149340Y+2674620D03*
D48*
X+3676640Y+1792820D03*
X+3426640Y+1792820D03*
X+3426640Y+1592820D03*
X+3676640Y+1592820D03*
D45*
X+2954020Y+1318260D03*
X+4157980Y+1318260D03*
D44*
X+2085340Y+4462780D03*
X+2588260Y+4462780D03*
D55*
X+2006600Y+5356860D03*
D56*
X+2006600Y+5156860D03*
D55*
X+5885180Y+3467100D03*
D56*
X+6085180Y+3467100D03*
D44*
X+3886200Y+7327900D03*
X+3632200Y+7327900D03*
X+3378200Y+7327900D03*
X+3124200Y+7327900D03*
X+2870200Y+7327900D03*
X+2616200Y+7327900D03*
D37*
X-5463540Y+746760D02*
X+604520Y+746760D01*
X+604520Y+8399780D01*
X-5463540Y+8399780D01*
X-5463540Y+746760D01*
X-5397500Y-8577580D02*
X+670560Y-8577580D01*
X+670560Y-924560D01*
X-5397500Y-924560D01*
X-5397500Y-8577580D01*
X+1854200Y-8577580D02*
X+7922260Y-8577580D01*
X+7922260Y-924560D01*
X+1854200Y-924560D01*
X+1854200Y-8577580D01*
X+1821180Y+746760D02*
X+7889240Y+746760D01*
X+7889240Y+8399780D01*
X+1821180Y+8399780D01*
X+1821180Y+746760D01*
M02*
