G04 PROTEUS GERBER X2 FILE*
%TF.GenerationSoftware,Labcenter,Proteus,8.9-SP2-Build28501*%
%TF.CreationDate,2020-10-27T15:50:31+00:00*%
%TF.FileFunction,Legend,Top*%
%TF.FilePolarity,Positive*%
%TF.Part,Single*%
%TF.SameCoordinates,{225bdc91-fef2-4dc2-86f1-5788f1725188}*%
%FSLAX45Y45*%
%MOMM*%
G01*
%TA.AperFunction,Profile*%
%ADD37C,0.203200*%
%TA.AperFunction,Material*%
%ADD38C,0.203200*%
%ADD39C,0.127000*%
%ADD40C,0.152400*%
%ADD41C,0.120000*%
%ADD42C,0.200000*%
%TD.AperFunction*%
D37*
X-5463540Y+746760D02*
X+604520Y+746760D01*
X+604520Y+8399780D01*
X-5463540Y+8399780D01*
X-5463540Y+746760D01*
D38*
X-2453640Y+6777260D02*
X-2453640Y+3348260D01*
X-1945640Y+3348260D01*
X-1945640Y+6777260D01*
X-2453640Y+6777260D02*
X-2326640Y+6777260D01*
X-1945640Y+6777260D02*
X-2072640Y+6777260D01*
X-2326640Y+6777260D02*
X-2324113Y+6751292D01*
X-2316842Y+6727278D01*
X-2305292Y+6705683D01*
X-2289929Y+6686971D01*
X-2271217Y+6671607D01*
X-2249621Y+6660058D01*
X-2225607Y+6652787D01*
X-2199640Y+6650260D01*
X-2072640Y+6777260D02*
X-2075167Y+6751292D01*
X-2082438Y+6727278D01*
X-2093988Y+6705683D01*
X-2109351Y+6686971D01*
X-2128063Y+6671607D01*
X-2149658Y+6660058D01*
X-2173672Y+6652787D01*
X-2199640Y+6650260D01*
X-2405816Y+6726460D02*
X-2405841Y+6727057D01*
X-2406043Y+6728253D01*
X-2406467Y+6729449D01*
X-2407161Y+6730645D01*
X-2408221Y+6731824D01*
X-2409417Y+6732687D01*
X-2410613Y+6733236D01*
X-2411809Y+6733545D01*
X-2413000Y+6733644D01*
X-2420184Y+6726460D02*
X-2420159Y+6727057D01*
X-2419957Y+6728253D01*
X-2419533Y+6729449D01*
X-2418839Y+6730645D01*
X-2417779Y+6731824D01*
X-2416583Y+6732687D01*
X-2415387Y+6733236D01*
X-2414191Y+6733545D01*
X-2413000Y+6733644D01*
X-2420184Y+6726460D02*
X-2420159Y+6725863D01*
X-2419957Y+6724667D01*
X-2419533Y+6723471D01*
X-2418839Y+6722275D01*
X-2417779Y+6721096D01*
X-2416583Y+6720233D01*
X-2415387Y+6719684D01*
X-2414191Y+6719375D01*
X-2413000Y+6719276D01*
X-2405816Y+6726460D02*
X-2405841Y+6725863D01*
X-2406043Y+6724667D01*
X-2406467Y+6723471D01*
X-2407161Y+6722275D01*
X-2408221Y+6721096D01*
X-2409417Y+6720233D01*
X-2410613Y+6719684D01*
X-2411809Y+6719375D01*
X-2413000Y+6719276D01*
X-2326640Y+6909340D02*
X-2326640Y+6833140D01*
X-2310765Y+6817900D01*
X-2247265Y+6817900D01*
X-2231390Y+6833140D01*
X-2231390Y+6909340D01*
X-2167890Y+6878860D02*
X-2136140Y+6909340D01*
X-2136140Y+6817900D01*
X-396240Y+6888480D02*
X+365760Y+6888480D01*
X+365760Y+7142480D01*
X-396240Y+7142480D01*
X-396240Y+6888480D01*
X+365760Y+6888480D02*
X+365760Y+6761480D01*
X-396240Y+6761480D01*
X-396240Y+6888480D01*
X+365760Y+6888480D02*
X+238760Y+6761480D01*
X+238760Y+6888480D02*
X+111760Y+6761480D01*
X+111760Y+6888480D02*
X-15240Y+6761480D01*
X-15240Y+6888480D02*
X-142240Y+6761480D01*
X-142240Y+6888480D02*
X-269240Y+6761480D01*
X-269240Y+6888480D02*
X-396240Y+6761480D01*
X-240665Y+7292340D02*
X-161290Y+7292340D01*
X-161290Y+7277100D01*
X-240665Y+7200900D01*
X-97790Y+7246620D02*
X-113665Y+7261860D01*
X-113665Y+7277100D01*
X-97790Y+7292340D01*
X-50165Y+7292340D01*
X-34290Y+7277100D01*
X-34290Y+7261860D01*
X-50165Y+7246620D01*
X-97790Y+7246620D01*
X-113665Y+7231380D01*
X-113665Y+7216140D01*
X-97790Y+7200900D01*
X-50165Y+7200900D01*
X-34290Y+7216140D01*
X-34290Y+7231380D01*
X-50165Y+7246620D01*
X-2540Y+7216140D02*
X-2540Y+7277100D01*
X+13335Y+7292340D01*
X+76835Y+7292340D01*
X+92710Y+7277100D01*
X+92710Y+7216140D01*
X+76835Y+7200900D01*
X+13335Y+7200900D01*
X-2540Y+7216140D01*
X-2540Y+7200900D02*
X+92710Y+7292340D01*
X+219710Y+7292340D02*
X+140335Y+7292340D01*
X+140335Y+7261860D01*
X+203835Y+7261860D01*
X+219710Y+7246620D01*
X+219710Y+7216140D01*
X+203835Y+7200900D01*
X+156210Y+7200900D01*
X+140335Y+7216140D01*
X-543560Y+8237220D02*
X-543560Y+7221220D01*
X+472440Y+8237220D02*
X+472440Y+7221220D01*
X-543560Y+7221220D02*
X+472440Y+7221220D01*
X-543560Y+8237220D02*
X+472440Y+8237220D01*
X-327660Y+7056120D02*
X-327660Y+7147560D01*
X-248285Y+7147560D01*
X-232410Y+7132320D01*
X-232410Y+7117080D01*
X-248285Y+7101840D01*
X-327660Y+7101840D01*
X-200660Y+7117080D02*
X-168910Y+7147560D01*
X-137160Y+7147560D01*
X-105410Y+7117080D01*
X-105410Y+7086600D01*
X-137160Y+7056120D01*
X-168910Y+7056120D01*
X-200660Y+7086600D01*
X-200660Y+7117080D01*
X-73660Y+7147560D02*
X-73660Y+7056120D01*
X-26035Y+7101840D01*
X+21590Y+7056120D01*
X+21590Y+7147560D01*
X+148590Y+7056120D02*
X+53340Y+7056120D01*
X+53340Y+7147560D01*
X+148590Y+7147560D01*
X+53340Y+7101840D02*
X+116840Y+7101840D01*
X+180340Y+7056120D02*
X+180340Y+7147560D01*
X+259715Y+7147560D01*
X+275590Y+7132320D01*
X+275590Y+7117080D01*
X+259715Y+7101840D01*
X+180340Y+7101840D01*
X+259715Y+7101840D02*
X+275590Y+7086600D01*
X+275590Y+7056120D01*
X-923671Y+7241540D02*
X-656971Y+7241540D01*
X-656971Y+7759700D01*
X-923671Y+7759700D01*
X-923671Y+7241540D01*
X-921131Y+7322820D02*
X-659511Y+7322820D01*
X-789051Y+7170420D02*
X-789051Y+7241540D01*
X-789051Y+7759700D02*
X-789051Y+7830820D01*
X-964311Y+7373620D02*
X-1055751Y+7373620D01*
X-1055751Y+7437120D01*
X-1025271Y+7468870D01*
X-994791Y+7468870D01*
X-964311Y+7437120D01*
X-964311Y+7373620D01*
X-1025271Y+7532370D02*
X-1055751Y+7564120D01*
X-964311Y+7564120D01*
X-4218940Y+3964940D02*
X-3456940Y+3964940D01*
X-3329940Y+3837940D01*
X-3329940Y+3583940D01*
X-3456940Y+3456940D01*
X-4218940Y+3456940D01*
X-4345940Y+3583940D01*
X-4345940Y+3837940D01*
X-4218940Y+3964940D01*
X-3964940Y+4097020D02*
X-3869690Y+4005580D01*
X-3964940Y+4005580D02*
X-3869690Y+4097020D01*
X-3806190Y+4066540D02*
X-3774440Y+4097020D01*
X-3774440Y+4005580D01*
X-4218940Y+4218940D02*
X-4211424Y+4244816D01*
X-4189770Y+4268788D01*
X-4155316Y+4290378D01*
X-4109402Y+4309110D01*
X-4053368Y+4324509D01*
X-3988554Y+4336098D01*
X-3916298Y+4343400D01*
X-3837940Y+4345940D01*
X-3456940Y+4218940D02*
X-3464560Y+4244816D01*
X-3486468Y+4268788D01*
X-3521234Y+4290378D01*
X-3567430Y+4309110D01*
X-3623628Y+4324509D01*
X-3688398Y+4336098D01*
X-3760311Y+4343400D01*
X-3837940Y+4345940D01*
X-3456940Y+4218940D02*
X-3464560Y+4193064D01*
X-3486468Y+4169092D01*
X-3521234Y+4147502D01*
X-3567430Y+4128770D01*
X-3623628Y+4113371D01*
X-3688398Y+4101782D01*
X-3760311Y+4094480D01*
X-3837940Y+4091940D01*
X-4218940Y+4218940D02*
X-4211424Y+4193064D01*
X-4189770Y+4169092D01*
X-4155316Y+4147502D01*
X-4109402Y+4128770D01*
X-4053368Y+4113371D01*
X-3988554Y+4101782D01*
X-3916298Y+4094480D01*
X-3837940Y+4091940D01*
X-3869690Y+4401820D02*
X-3885565Y+4386580D01*
X-3933190Y+4386580D01*
X-3964940Y+4417060D01*
X-3964940Y+4447540D01*
X-3933190Y+4478020D01*
X-3885565Y+4478020D01*
X-3869690Y+4462780D01*
X-3822065Y+4462780D02*
X-3806190Y+4478020D01*
X-3758565Y+4478020D01*
X-3742690Y+4462780D01*
X-3742690Y+4447540D01*
X-3758565Y+4432300D01*
X-3806190Y+4432300D01*
X-3822065Y+4417060D01*
X-3822065Y+4386580D01*
X-3742690Y+4386580D01*
X-3456940Y+3202940D02*
X-3464456Y+3177064D01*
X-3486110Y+3153092D01*
X-3520564Y+3131502D01*
X-3566478Y+3112770D01*
X-3622512Y+3097371D01*
X-3687326Y+3085782D01*
X-3759582Y+3078480D01*
X-3837940Y+3075940D01*
X-4218940Y+3202940D02*
X-4211320Y+3177064D01*
X-4189412Y+3153092D01*
X-4154646Y+3131502D01*
X-4108450Y+3112770D01*
X-4052252Y+3097371D01*
X-3987482Y+3085782D01*
X-3915569Y+3078480D01*
X-3837940Y+3075940D01*
X-4218940Y+3202940D02*
X-4211320Y+3228816D01*
X-4189412Y+3252788D01*
X-4154646Y+3274378D01*
X-4108450Y+3293110D01*
X-4052252Y+3308509D01*
X-3987482Y+3320098D01*
X-3915569Y+3327400D01*
X-3837940Y+3329940D01*
X-3456940Y+3202940D02*
X-3464456Y+3228816D01*
X-3486110Y+3252788D01*
X-3520564Y+3274378D01*
X-3566478Y+3293110D01*
X-3622512Y+3308509D01*
X-3687326Y+3320098D01*
X-3759582Y+3327400D01*
X-3837940Y+3329940D01*
X-3869690Y+2959100D02*
X-3885565Y+2943860D01*
X-3933190Y+2943860D01*
X-3964940Y+2974340D01*
X-3964940Y+3004820D01*
X-3933190Y+3035300D01*
X-3885565Y+3035300D01*
X-3869690Y+3020060D01*
X-3806190Y+3004820D02*
X-3774440Y+3035300D01*
X-3774440Y+2943860D01*
D39*
X-2786450Y+2282458D02*
X-2786984Y+2295516D01*
X-2791320Y+2321634D01*
X-2800379Y+2347752D01*
X-2815134Y+2373870D01*
X-2837706Y+2399824D01*
X-2863824Y+2419472D01*
X-2889942Y+2432147D01*
X-2916060Y+2439545D01*
X-2942178Y+2442401D01*
X-2946450Y+2442458D01*
X-3106450Y+2282458D02*
X-3105916Y+2295516D01*
X-3101580Y+2321634D01*
X-3092521Y+2347752D01*
X-3077766Y+2373870D01*
X-3055194Y+2399824D01*
X-3029076Y+2419472D01*
X-3002958Y+2432147D01*
X-2976840Y+2439545D01*
X-2950722Y+2442401D01*
X-2946450Y+2442458D01*
X-3106450Y+2282458D02*
X-3105916Y+2269400D01*
X-3101580Y+2243282D01*
X-3092521Y+2217164D01*
X-3077766Y+2191046D01*
X-3055194Y+2165092D01*
X-3029076Y+2145444D01*
X-3002958Y+2132769D01*
X-2976840Y+2125371D01*
X-2950722Y+2122515D01*
X-2946450Y+2122458D01*
X-2786450Y+2282458D02*
X-2786984Y+2269400D01*
X-2791320Y+2243282D01*
X-2800379Y+2217164D01*
X-2815134Y+2191046D01*
X-2837706Y+2165092D01*
X-2863824Y+2145444D01*
X-2889942Y+2132769D01*
X-2916060Y+2125371D01*
X-2942178Y+2122515D01*
X-2946450Y+2122458D01*
D38*
X-3196620Y+1755408D02*
X-3181380Y+1739533D01*
X-3181380Y+1691908D01*
X-3211860Y+1660158D01*
X-3242340Y+1660158D01*
X-3272820Y+1691908D01*
X-3272820Y+1739533D01*
X-3257580Y+1755408D01*
X-3181380Y+1787158D02*
X-3272820Y+1787158D01*
X-3272820Y+1866533D01*
X-3257580Y+1882408D01*
X-3242340Y+1882408D01*
X-3227100Y+1866533D01*
X-3227100Y+1787158D01*
X-3227100Y+1866533D02*
X-3211860Y+1882408D01*
X-3181380Y+1882408D01*
X-3272820Y+2009408D02*
X-3181380Y+1914158D01*
X-3272820Y+1914158D02*
X-3227100Y+1961783D01*
X-3196620Y+2041158D02*
X-3181380Y+2057033D01*
X-3181380Y+2120533D01*
X-3196620Y+2136408D01*
X-3211860Y+2136408D01*
X-3227100Y+2120533D01*
X-3227100Y+2057033D01*
X-3242340Y+2041158D01*
X-3257580Y+2041158D01*
X-3272820Y+2057033D01*
X-3272820Y+2120533D01*
X-3257580Y+2136408D01*
X-3272820Y+2168158D02*
X-3272820Y+2263408D01*
X-3272820Y+2215783D02*
X-3181380Y+2215783D01*
X-3181380Y+2295158D02*
X-3242340Y+2295158D01*
X-3272820Y+2326908D01*
X-3272820Y+2358658D01*
X-3242340Y+2390408D01*
X-3181380Y+2390408D01*
X-3211860Y+2295158D02*
X-3211860Y+2390408D01*
X-3272820Y+2422158D02*
X-3181380Y+2422158D01*
X-3181380Y+2517408D01*
X-2082850Y+2798958D02*
X-1955850Y+2798958D01*
X-1955850Y+1782958D01*
X-2463850Y+1782958D01*
X-2463850Y+2798958D01*
X-2336850Y+2798958D01*
X-2209850Y+2671958D02*
X-2183974Y+2674394D01*
X-2160002Y+2681443D01*
X-2138412Y+2692720D01*
X-2119680Y+2707836D01*
X-2104281Y+2726404D01*
X-2092692Y+2748039D01*
X-2085390Y+2772352D01*
X-2082850Y+2798958D01*
X-2209850Y+2671958D02*
X-2236456Y+2674394D01*
X-2260769Y+2681443D01*
X-2282404Y+2692720D01*
X-2300972Y+2707836D01*
X-2316088Y+2726404D01*
X-2327365Y+2748039D01*
X-2334414Y+2772352D01*
X-2336850Y+2798958D01*
X-2336850Y+2931038D02*
X-2336850Y+2854838D01*
X-2320975Y+2839598D01*
X-2257475Y+2839598D01*
X-2241600Y+2854838D01*
X-2241600Y+2931038D01*
X-2114600Y+2931038D02*
X-2193975Y+2931038D01*
X-2193975Y+2900558D01*
X-2130475Y+2900558D01*
X-2114600Y+2885318D01*
X-2114600Y+2854838D01*
X-2130475Y+2839598D01*
X-2178100Y+2839598D01*
X-2193975Y+2854838D01*
X-1340231Y+7241540D02*
X-1073531Y+7241540D01*
X-1073531Y+7759700D01*
X-1340231Y+7759700D01*
X-1340231Y+7241540D01*
X-1337691Y+7322820D02*
X-1076071Y+7322820D01*
X-1205611Y+7170420D02*
X-1205611Y+7241540D01*
X-1205611Y+7759700D02*
X-1205611Y+7830820D01*
X-1380871Y+7373620D02*
X-1472311Y+7373620D01*
X-1472311Y+7437120D01*
X-1441831Y+7468870D01*
X-1411351Y+7468870D01*
X-1380871Y+7437120D01*
X-1380871Y+7373620D01*
X-1457071Y+7595870D02*
X-1472311Y+7579995D01*
X-1472311Y+7532370D01*
X-1457071Y+7516495D01*
X-1396111Y+7516495D01*
X-1380871Y+7532370D01*
X-1380871Y+7579995D01*
X-1396111Y+7595870D01*
X-1411351Y+7595870D01*
X-1426591Y+7579995D01*
X-1426591Y+7516495D01*
X-4734920Y+4635140D02*
X-3334920Y+4635140D01*
X-3334920Y+7635140D01*
X-4734920Y+7635140D01*
X-4734920Y+4635140D01*
X-4533900Y+4792980D02*
X-3517900Y+4792980D01*
X-3517900Y+5046980D01*
X-4533900Y+5046980D01*
X-4533900Y+4792980D01*
X-4152900Y+4691380D02*
X-4152900Y+4676140D01*
X-4137025Y+4660900D01*
X-4073525Y+4660900D01*
X-4057650Y+4676140D01*
X-4057650Y+4752340D01*
X-4010025Y+4737100D02*
X-3994150Y+4752340D01*
X-3946525Y+4752340D01*
X-3930650Y+4737100D01*
X-3930650Y+4721860D01*
X-3946525Y+4706620D01*
X-3994150Y+4706620D01*
X-4010025Y+4691380D01*
X-4010025Y+4660900D01*
X-3930650Y+4660900D01*
X-5186680Y+5920740D02*
X-4919980Y+5920740D01*
X-4919980Y+6438900D01*
X-5186680Y+6438900D01*
X-5186680Y+5920740D01*
X-5184140Y+6002020D02*
X-4922520Y+6002020D01*
X-5052060Y+5849620D02*
X-5052060Y+5920740D01*
X-5052060Y+6438900D02*
X-5052060Y+6510020D01*
X-5227320Y+6052820D02*
X-5318760Y+6052820D01*
X-5318760Y+6116320D01*
X-5288280Y+6148070D01*
X-5257800Y+6148070D01*
X-5227320Y+6116320D01*
X-5227320Y+6052820D01*
X-5318760Y+6195695D02*
X-5318760Y+6275070D01*
X-5303520Y+6275070D01*
X-5227320Y+6195695D01*
X-548640Y+4282440D02*
X-1056640Y+4282440D01*
X-472440Y+4117340D02*
X-477202Y+4155638D01*
X-491490Y+4195128D01*
X-515302Y+4236998D01*
X-548640Y+4282440D01*
X-472440Y+4117340D02*
X-475071Y+4052422D01*
X-491552Y+3992387D01*
X-520479Y+3938398D01*
X-560447Y+3891618D01*
X-610052Y+3853209D01*
X-667889Y+3824335D01*
X-732553Y+3806157D01*
X-802640Y+3799840D01*
X-1132840Y+4117340D02*
X-1128078Y+4155638D01*
X-1113790Y+4195128D01*
X-1089978Y+4236998D01*
X-1056640Y+4282440D01*
X-1132840Y+4117340D02*
X-1130209Y+4052422D01*
X-1113728Y+3992387D01*
X-1084801Y+3938398D01*
X-1044833Y+3891618D01*
X-995228Y+3853209D01*
X-937391Y+3824335D01*
X-872727Y+3806157D01*
X-802640Y+3799840D01*
X-929640Y+3728720D02*
X-897890Y+3759200D01*
X-866140Y+3759200D01*
X-834390Y+3728720D01*
X-834390Y+3698240D01*
X-866140Y+3667760D01*
X-897890Y+3667760D01*
X-929640Y+3698240D01*
X-929640Y+3728720D01*
X-866140Y+3698240D02*
X-834390Y+3667760D01*
X-770890Y+3728720D02*
X-739140Y+3759200D01*
X-739140Y+3667760D01*
X-2554427Y+3167380D02*
X-2427427Y+3167380D01*
X-2427427Y+3103880D02*
X-1919427Y+3103880D01*
X-1919427Y+3230880D01*
X-2427427Y+3230880D01*
X-2427427Y+3103880D01*
X-1919427Y+3167380D02*
X-1792427Y+3167380D01*
X-2300427Y+3271520D02*
X-2300427Y+3362960D01*
X-2221052Y+3362960D01*
X-2205177Y+3347720D01*
X-2205177Y+3332480D01*
X-2221052Y+3317240D01*
X-2300427Y+3317240D01*
X-2221052Y+3317240D02*
X-2205177Y+3302000D01*
X-2205177Y+3271520D01*
X-2157552Y+3347720D02*
X-2141677Y+3362960D01*
X-2094052Y+3362960D01*
X-2078177Y+3347720D01*
X-2078177Y+3332480D01*
X-2094052Y+3317240D01*
X-2141677Y+3317240D01*
X-2157552Y+3302000D01*
X-2157552Y+3271520D01*
X-2078177Y+3271520D01*
X-2585720Y+861060D02*
X-1823720Y+861060D01*
X-1823720Y+1496060D01*
X-2585720Y+1496060D01*
X-2585720Y+861060D01*
X-2585720Y+1369060D02*
X-1823720Y+1369060D01*
X-2458720Y+1709420D02*
X-2458720Y+1617980D01*
X-2363470Y+1617980D01*
X-2331720Y+1678940D02*
X-2299970Y+1709420D01*
X-2268220Y+1709420D01*
X-2236470Y+1678940D01*
X-2236470Y+1648460D01*
X-2268220Y+1617980D01*
X-2299970Y+1617980D01*
X-2331720Y+1648460D01*
X-2331720Y+1678940D01*
X-2204720Y+1617980D02*
X-2204720Y+1678940D01*
X-2172970Y+1709420D01*
X-2141220Y+1709420D01*
X-2109470Y+1678940D01*
X-2109470Y+1617980D01*
X-2204720Y+1648460D02*
X-2109470Y+1648460D01*
X-2077720Y+1617980D02*
X-2077720Y+1709420D01*
X-2014220Y+1709420D01*
X-1982470Y+1678940D01*
X-1982470Y+1648460D01*
X-2014220Y+1617980D01*
X-2077720Y+1617980D01*
X-1205520Y+4426660D02*
X+444480Y+4426660D01*
X+444480Y+6676660D01*
X-1205520Y+6676660D01*
X-1205520Y+4426660D01*
X-1246160Y+5361160D02*
X-1337600Y+5361160D01*
X-1337600Y+5440535D01*
X-1322360Y+5456410D01*
X-1307120Y+5456410D01*
X-1291880Y+5440535D01*
X-1291880Y+5361160D01*
X-1291880Y+5440535D02*
X-1276640Y+5456410D01*
X-1246160Y+5456410D01*
X-1337600Y+5488160D02*
X-1246160Y+5488160D01*
X-1246160Y+5583410D01*
X-1307120Y+5646910D02*
X-1337600Y+5678660D01*
X-1246160Y+5678660D01*
X-3197860Y+2948940D02*
X-3324860Y+2948940D01*
X-3832860Y+2885440D02*
X-3324860Y+2885440D01*
X-3324860Y+3012440D01*
X-3832860Y+3012440D01*
X-3832860Y+2885440D01*
X-3832860Y+2948940D02*
X-3959860Y+2948940D01*
X-3705860Y+2753360D02*
X-3705860Y+2844800D01*
X-3626485Y+2844800D01*
X-3610610Y+2829560D01*
X-3610610Y+2814320D01*
X-3626485Y+2799080D01*
X-3705860Y+2799080D01*
X-3626485Y+2799080D02*
X-3610610Y+2783840D01*
X-3610610Y+2753360D01*
X-3562985Y+2829560D02*
X-3547110Y+2844800D01*
X-3499485Y+2844800D01*
X-3483610Y+2829560D01*
X-3483610Y+2814320D01*
X-3499485Y+2799080D01*
X-3483610Y+2783840D01*
X-3483610Y+2768600D01*
X-3499485Y+2753360D01*
X-3547110Y+2753360D01*
X-3562985Y+2768600D01*
X-3531235Y+2799080D02*
X-3499485Y+2799080D01*
X-2844800Y+6085840D02*
X-2844800Y+6212840D01*
X-2908300Y+6212840D02*
X-2781300Y+6212840D01*
X-2781300Y+6720840D01*
X-2908300Y+6720840D01*
X-2908300Y+6212840D01*
X-2844800Y+6720840D02*
X-2844800Y+6847840D01*
X-2948940Y+6339840D02*
X-3040380Y+6339840D01*
X-3040380Y+6419215D01*
X-3025140Y+6435090D01*
X-3009900Y+6435090D01*
X-2994660Y+6419215D01*
X-2994660Y+6339840D01*
X-2994660Y+6419215D02*
X-2979420Y+6435090D01*
X-2948940Y+6435090D01*
X-3025140Y+6562090D02*
X-3040380Y+6546215D01*
X-3040380Y+6498590D01*
X-3025140Y+6482715D01*
X-2964180Y+6482715D01*
X-2948940Y+6498590D01*
X-2948940Y+6546215D01*
X-2964180Y+6562090D01*
X-2979420Y+6562090D01*
X-2994660Y+6546215D01*
X-2994660Y+6482715D01*
X-2379980Y+8041640D02*
X-2380807Y+8062123D01*
X-2387525Y+8103090D01*
X-2401543Y+8144057D01*
X-2424321Y+8185024D01*
X-2459121Y+8225869D01*
X-2500088Y+8257485D01*
X-2541055Y+8278032D01*
X-2582022Y+8290269D01*
X-2622989Y+8295402D01*
X-2633980Y+8295640D01*
X-2887980Y+8041640D02*
X-2887153Y+8062123D01*
X-2880435Y+8103090D01*
X-2866417Y+8144057D01*
X-2843639Y+8185024D01*
X-2808839Y+8225869D01*
X-2767872Y+8257485D01*
X-2726905Y+8278032D01*
X-2685938Y+8290269D01*
X-2644971Y+8295402D01*
X-2633980Y+8295640D01*
X-2887980Y+8041640D02*
X-2887153Y+8021157D01*
X-2880435Y+7980190D01*
X-2866417Y+7939223D01*
X-2843639Y+7898256D01*
X-2808839Y+7857411D01*
X-2767872Y+7825795D01*
X-2726905Y+7805248D01*
X-2685938Y+7793011D01*
X-2644971Y+7787878D01*
X-2633980Y+7787640D01*
X-2379980Y+8041640D02*
X-2380807Y+8021157D01*
X-2387525Y+7980190D01*
X-2401543Y+7939223D01*
X-2424321Y+7898256D01*
X-2459121Y+7857411D01*
X-2500088Y+7825795D01*
X-2541055Y+7805248D01*
X-2582022Y+7793011D01*
X-2622989Y+7787878D01*
X-2633980Y+7787640D01*
X-2951480Y+8295640D02*
X-2824480Y+8295640D01*
X-2887980Y+8359140D02*
X-2887980Y+8232140D01*
X-2792730Y+8399780D02*
X-2792730Y+8491220D01*
X-2729230Y+8491220D01*
X-2697480Y+8460740D01*
X-2697480Y+8430260D01*
X-2729230Y+8399780D01*
X-2792730Y+8399780D01*
X-2570480Y+8491220D02*
X-2649855Y+8491220D01*
X-2649855Y+8460740D01*
X-2586355Y+8460740D01*
X-2570480Y+8445500D01*
X-2570480Y+8415020D01*
X-2586355Y+8399780D01*
X-2633980Y+8399780D01*
X-2649855Y+8415020D01*
X-3053080Y+6078220D02*
X-3053080Y+6205220D01*
X-3116580Y+6205220D02*
X-2989580Y+6205220D01*
X-2989580Y+6713220D01*
X-3116580Y+6713220D01*
X-3116580Y+6205220D01*
X-3053080Y+6713220D02*
X-3053080Y+6840220D01*
X-3157220Y+6332220D02*
X-3248660Y+6332220D01*
X-3248660Y+6411595D01*
X-3233420Y+6427470D01*
X-3218180Y+6427470D01*
X-3202940Y+6411595D01*
X-3202940Y+6332220D01*
X-3202940Y+6411595D02*
X-3187700Y+6427470D01*
X-3157220Y+6427470D01*
X-3248660Y+6554470D02*
X-3248660Y+6475095D01*
X-3218180Y+6475095D01*
X-3218180Y+6538595D01*
X-3202940Y+6554470D01*
X-3172460Y+6554470D01*
X-3157220Y+6538595D01*
X-3157220Y+6490970D01*
X-3172460Y+6475095D01*
X-2941320Y+8036560D02*
X-2942147Y+8057043D01*
X-2948865Y+8098010D01*
X-2962883Y+8138977D01*
X-2985661Y+8179944D01*
X-3020461Y+8220789D01*
X-3061428Y+8252405D01*
X-3102395Y+8272952D01*
X-3143362Y+8285189D01*
X-3184329Y+8290322D01*
X-3195320Y+8290560D01*
X-3449320Y+8036560D02*
X-3448493Y+8057043D01*
X-3441775Y+8098010D01*
X-3427757Y+8138977D01*
X-3404979Y+8179944D01*
X-3370179Y+8220789D01*
X-3329212Y+8252405D01*
X-3288245Y+8272952D01*
X-3247278Y+8285189D01*
X-3206311Y+8290322D01*
X-3195320Y+8290560D01*
X-3449320Y+8036560D02*
X-3448493Y+8016077D01*
X-3441775Y+7975110D01*
X-3427757Y+7934143D01*
X-3404979Y+7893176D01*
X-3370179Y+7852331D01*
X-3329212Y+7820715D01*
X-3288245Y+7800168D01*
X-3247278Y+7787931D01*
X-3206311Y+7782798D01*
X-3195320Y+7782560D01*
X-2941320Y+8036560D02*
X-2942147Y+8016077D01*
X-2948865Y+7975110D01*
X-2962883Y+7934143D01*
X-2985661Y+7893176D01*
X-3020461Y+7852331D01*
X-3061428Y+7820715D01*
X-3102395Y+7800168D01*
X-3143362Y+7787931D01*
X-3184329Y+7782798D01*
X-3195320Y+7782560D01*
X-2877820Y+7782560D02*
X-3004820Y+7782560D01*
X-2941320Y+7719060D02*
X-2941320Y+7846060D01*
X-3290570Y+7586980D02*
X-3290570Y+7678420D01*
X-3227070Y+7678420D01*
X-3195320Y+7647940D01*
X-3195320Y+7617460D01*
X-3227070Y+7586980D01*
X-3290570Y+7586980D01*
X-3068320Y+7617460D02*
X-3163570Y+7617460D01*
X-3100070Y+7678420D01*
X-3100070Y+7586980D01*
D40*
X-3632200Y+292100D02*
X-3568700Y+165100D01*
X-3505200Y+292100D02*
X-3568700Y+165100D01*
X-4328160Y+292100D02*
X-3129280Y+292100D01*
X-3129280Y+1943100D01*
X-4328160Y+1943100D01*
X-4328160Y+292100D01*
D38*
X-3919220Y+2072640D02*
X-3919220Y+1996440D01*
X-3903345Y+1981200D01*
X-3839845Y+1981200D01*
X-3823970Y+1996440D01*
X-3823970Y+2072640D01*
X-3792220Y+1996440D02*
X-3776345Y+1981200D01*
X-3712845Y+1981200D01*
X-3696970Y+1996440D01*
X-3696970Y+2011680D01*
X-3712845Y+2026920D01*
X-3776345Y+2026920D01*
X-3792220Y+2042160D01*
X-3792220Y+2057400D01*
X-3776345Y+2072640D01*
X-3712845Y+2072640D01*
X-3696970Y+2057400D01*
X-3665220Y+1981200D02*
X-3665220Y+2072640D01*
X-3585845Y+2072640D01*
X-3569970Y+2057400D01*
X-3569970Y+2042160D01*
X-3585845Y+2026920D01*
X-3569970Y+2011680D01*
X-3569970Y+1996440D01*
X-3585845Y+1981200D01*
X-3665220Y+1981200D01*
X-3665220Y+2026920D02*
X-3585845Y+2026920D01*
X-5326380Y+4335780D02*
X-5072380Y+4335780D01*
X-5072380Y+4589780D01*
X-5326380Y+4589780D01*
X-5326380Y+4335780D01*
X-5326380Y+4660900D02*
X-5326380Y+4645660D01*
X-5310505Y+4630420D01*
X-5247005Y+4630420D01*
X-5231130Y+4645660D01*
X-5231130Y+4721860D01*
X-5183505Y+4706620D02*
X-5167630Y+4721860D01*
X-5120005Y+4721860D01*
X-5104130Y+4706620D01*
X-5104130Y+4691380D01*
X-5120005Y+4676140D01*
X-5104130Y+4660900D01*
X-5104130Y+4645660D01*
X-5120005Y+4630420D01*
X-5167630Y+4630420D01*
X-5183505Y+4645660D01*
X-5151755Y+4676140D02*
X-5120005Y+4676140D01*
X-4823460Y+4335780D02*
X-4569460Y+4335780D01*
X-4569460Y+4589780D01*
X-4823460Y+4589780D01*
X-4823460Y+4335780D01*
X-4823460Y+4660900D02*
X-4823460Y+4645660D01*
X-4807585Y+4630420D01*
X-4744085Y+4630420D01*
X-4728210Y+4645660D01*
X-4728210Y+4721860D01*
X-4601210Y+4721860D02*
X-4680585Y+4721860D01*
X-4680585Y+4691380D01*
X-4617085Y+4691380D01*
X-4601210Y+4676140D01*
X-4601210Y+4645660D01*
X-4617085Y+4630420D01*
X-4664710Y+4630420D01*
X-4680585Y+4645660D01*
D41*
X-5028120Y+5256860D02*
X-5028935Y+5277031D01*
X-5035554Y+5317374D01*
X-5049367Y+5357717D01*
X-5071813Y+5398060D01*
X-5106110Y+5438278D01*
X-5146453Y+5469378D01*
X-5186796Y+5489583D01*
X-5227139Y+5501607D01*
X-5267482Y+5506634D01*
X-5278120Y+5506860D01*
X-5528120Y+5256860D02*
X-5527305Y+5277031D01*
X-5520686Y+5317374D01*
X-5506873Y+5357717D01*
X-5484427Y+5398060D01*
X-5450130Y+5438278D01*
X-5409787Y+5469378D01*
X-5369444Y+5489583D01*
X-5329101Y+5501607D01*
X-5288758Y+5506634D01*
X-5278120Y+5506860D01*
X-5528120Y+5256860D02*
X-5527305Y+5236689D01*
X-5520686Y+5196346D01*
X-5506873Y+5156003D01*
X-5484427Y+5115660D01*
X-5450130Y+5075442D01*
X-5409787Y+5044342D01*
X-5369444Y+5024137D01*
X-5329101Y+5012113D01*
X-5288758Y+5007086D01*
X-5278120Y+5006860D01*
X-5028120Y+5256860D02*
X-5028935Y+5236689D01*
X-5035554Y+5196346D01*
X-5049367Y+5156003D01*
X-5071813Y+5115660D01*
X-5106110Y+5075442D01*
X-5146453Y+5044342D01*
X-5186796Y+5024137D01*
X-5227139Y+5012113D01*
X-5267482Y+5007086D01*
X-5278120Y+5006860D01*
D42*
X-5069120Y+5455860D02*
X-5069155Y+5456691D01*
X-5069436Y+5458355D01*
X-5070026Y+5460019D01*
X-5070990Y+5461683D01*
X-5072465Y+5463324D01*
X-5074129Y+5464525D01*
X-5075793Y+5465290D01*
X-5077457Y+5465721D01*
X-5079120Y+5465860D01*
X-5089120Y+5455860D02*
X-5089085Y+5456691D01*
X-5088804Y+5458355D01*
X-5088214Y+5460019D01*
X-5087250Y+5461683D01*
X-5085775Y+5463324D01*
X-5084111Y+5464525D01*
X-5082447Y+5465290D01*
X-5080783Y+5465721D01*
X-5079120Y+5465860D01*
X-5089120Y+5455860D02*
X-5089085Y+5455029D01*
X-5088804Y+5453365D01*
X-5088214Y+5451701D01*
X-5087250Y+5450037D01*
X-5085775Y+5448396D01*
X-5084111Y+5447195D01*
X-5082447Y+5446430D01*
X-5080783Y+5445999D01*
X-5079120Y+5445860D01*
X-5069120Y+5455860D02*
X-5069155Y+5455029D01*
X-5069436Y+5453365D01*
X-5070026Y+5451701D01*
X-5070990Y+5450037D01*
X-5072465Y+5448396D01*
X-5074129Y+5447195D01*
X-5075793Y+5446430D01*
X-5077457Y+5445999D01*
X-5079120Y+5445860D01*
D38*
X-4915440Y+5225110D02*
X-4900200Y+5209235D01*
X-4900200Y+5161610D01*
X-4930680Y+5129860D01*
X-4961160Y+5129860D01*
X-4991640Y+5161610D01*
X-4991640Y+5209235D01*
X-4976400Y+5225110D01*
X-4976400Y+5272735D02*
X-4991640Y+5288610D01*
X-4991640Y+5336235D01*
X-4976400Y+5352110D01*
X-4961160Y+5352110D01*
X-4945920Y+5336235D01*
X-4930680Y+5352110D01*
X-4915440Y+5352110D01*
X-4900200Y+5336235D01*
X-4900200Y+5288610D01*
X-4915440Y+5272735D01*
X-4945920Y+5304485D02*
X-4945920Y+5336235D01*
D41*
X-1049540Y+3467100D02*
X-1050355Y+3487271D01*
X-1056974Y+3527614D01*
X-1070787Y+3567957D01*
X-1093233Y+3608300D01*
X-1127530Y+3648518D01*
X-1167873Y+3679618D01*
X-1208216Y+3699823D01*
X-1248559Y+3711847D01*
X-1288902Y+3716874D01*
X-1299540Y+3717100D01*
X-1549540Y+3467100D02*
X-1548725Y+3487271D01*
X-1542106Y+3527614D01*
X-1528293Y+3567957D01*
X-1505847Y+3608300D01*
X-1471550Y+3648518D01*
X-1431207Y+3679618D01*
X-1390864Y+3699823D01*
X-1350521Y+3711847D01*
X-1310178Y+3716874D01*
X-1299540Y+3717100D01*
X-1549540Y+3467100D02*
X-1548725Y+3446929D01*
X-1542106Y+3406586D01*
X-1528293Y+3366243D01*
X-1505847Y+3325900D01*
X-1471550Y+3285682D01*
X-1431207Y+3254582D01*
X-1390864Y+3234377D01*
X-1350521Y+3222353D01*
X-1310178Y+3217326D01*
X-1299540Y+3217100D01*
X-1049540Y+3467100D02*
X-1050355Y+3446929D01*
X-1056974Y+3406586D01*
X-1070787Y+3366243D01*
X-1093233Y+3325900D01*
X-1127530Y+3285682D01*
X-1167873Y+3254582D01*
X-1208216Y+3234377D01*
X-1248559Y+3222353D01*
X-1288902Y+3217326D01*
X-1299540Y+3217100D01*
D42*
X-1488540Y+3666100D02*
X-1488575Y+3666931D01*
X-1488856Y+3668595D01*
X-1489446Y+3670259D01*
X-1490410Y+3671923D01*
X-1491885Y+3673564D01*
X-1493549Y+3674765D01*
X-1495213Y+3675530D01*
X-1496877Y+3675961D01*
X-1498540Y+3676100D01*
X-1508540Y+3666100D02*
X-1508505Y+3666931D01*
X-1508224Y+3668595D01*
X-1507634Y+3670259D01*
X-1506670Y+3671923D01*
X-1505195Y+3673564D01*
X-1503531Y+3674765D01*
X-1501867Y+3675530D01*
X-1500203Y+3675961D01*
X-1498540Y+3676100D01*
X-1508540Y+3666100D02*
X-1508505Y+3665269D01*
X-1508224Y+3663605D01*
X-1507634Y+3661941D01*
X-1506670Y+3660277D01*
X-1505195Y+3658636D01*
X-1503531Y+3657435D01*
X-1501867Y+3656670D01*
X-1500203Y+3656239D01*
X-1498540Y+3656100D01*
X-1488540Y+3666100D02*
X-1488575Y+3665269D01*
X-1488856Y+3663605D01*
X-1489446Y+3661941D01*
X-1490410Y+3660277D01*
X-1491885Y+3658636D01*
X-1493549Y+3657435D01*
X-1495213Y+3656670D01*
X-1496877Y+3656239D01*
X-1498540Y+3656100D01*
D38*
X-1331290Y+3768820D02*
X-1347165Y+3753580D01*
X-1394790Y+3753580D01*
X-1426540Y+3784060D01*
X-1426540Y+3814540D01*
X-1394790Y+3845020D01*
X-1347165Y+3845020D01*
X-1331290Y+3829780D01*
X-1204290Y+3784060D02*
X-1299540Y+3784060D01*
X-1236040Y+3845020D01*
X-1236040Y+3753580D01*
X-4795520Y+7200900D02*
X-3271520Y+7200900D01*
X-3271520Y+7454900D01*
X-4795520Y+7454900D01*
X-4795520Y+7200900D01*
X-4160520Y+7099300D02*
X-4160520Y+7084060D01*
X-4144645Y+7068820D01*
X-4081145Y+7068820D01*
X-4065270Y+7084060D01*
X-4065270Y+7160260D01*
X-4001770Y+7129780D02*
X-3970020Y+7160260D01*
X-3970020Y+7068820D01*
D37*
X-5397500Y-8577580D02*
X+670560Y-8577580D01*
X+670560Y-924560D01*
X-5397500Y-924560D01*
X-5397500Y-8577580D01*
D38*
X-4668880Y-4689200D02*
X-3268880Y-4689200D01*
X-3268880Y-1689200D01*
X-4668880Y-1689200D01*
X-4668880Y-4689200D01*
D37*
X+1854200Y-8577580D02*
X+7922260Y-8577580D01*
X+7922260Y-924560D01*
X+1854200Y-924560D01*
X+1854200Y-8577580D01*
D38*
X+2582820Y-4689200D02*
X+3982820Y-4689200D01*
X+3982820Y-1689200D01*
X+2582820Y-1689200D01*
X+2582820Y-4689200D01*
D37*
X+1821180Y+746760D02*
X+7889240Y+746760D01*
X+7889240Y+8399780D01*
X+1821180Y+8399780D01*
X+1821180Y+746760D01*
D38*
X+2549800Y+4635140D02*
X+3949800Y+4635140D01*
X+3949800Y+7635140D01*
X+2549800Y+7635140D01*
X+2549800Y+4635140D01*
M02*
