G04 PROTEUS GERBER X2 FILE*
%TF.GenerationSoftware,Labcenter,Proteus,8.9-SP2-Build28501*%
%TF.CreationDate,2020-10-27T15:50:31+00:00*%
%TF.FileFunction,AssemblyDrawing,Bot*%
%TF.FilePolarity,Positive*%
%TF.Part,Single*%
%TF.SameCoordinates,{225bdc91-fef2-4dc2-86f1-5788f1725188}*%
%FSLAX45Y45*%
%MOMM*%
G01*
%TA.AperFunction,Profile*%
%ADD37C,0.203200*%
%TA.AperFunction,Material*%
%ADD38C,0.203200*%
%ADD58C,1.016000*%
%ADD68C,0.164590*%
%ADD84C,0.091440*%
%TD.AperFunction*%
D37*
X-5463540Y+746760D02*
X+604520Y+746760D01*
X+604520Y+8399780D01*
X-5463540Y+8399780D01*
X-5463540Y+746760D01*
D38*
X-2232660Y+7891780D02*
X-1470660Y+7891780D01*
X-1470660Y+8166100D01*
X-2232660Y+8166100D01*
X-2232660Y+7891780D01*
D58*
X-2131060Y+8028940D02*
X-2131060Y+8028940D01*
D68*
X-1719987Y+7979562D02*
X-1719987Y+8078317D01*
X-1802282Y+8078317D01*
X-1818741Y+8061858D01*
X-1818741Y+8045399D01*
X-1802282Y+8028940D01*
X-1719987Y+8028940D01*
X-1802282Y+8028940D02*
X-1818741Y+8012480D01*
X-1818741Y+7979562D01*
X-1884578Y+8045399D02*
X-1917496Y+8078317D01*
X-1917496Y+7979562D01*
D38*
X-1272540Y+2537460D02*
X-998220Y+2537460D01*
X-998220Y+2811780D01*
X-1272540Y+2811780D01*
X-1272540Y+2537460D01*
D84*
X-1062228Y+2665476D02*
X-1062228Y+2656332D01*
X-1071372Y+2647188D01*
X-1107948Y+2647188D01*
X-1117092Y+2656332D01*
X-1117092Y+2702052D01*
X-1190244Y+2665476D02*
X-1135380Y+2665476D01*
X-1171956Y+2702052D01*
X-1171956Y+2647188D01*
D37*
X-5397500Y-8577580D02*
X+670560Y-8577580D01*
X+670560Y-924560D01*
X-5397500Y-924560D01*
X-5397500Y-8577580D01*
X+1854200Y-8577580D02*
X+7922260Y-8577580D01*
X+7922260Y-924560D01*
X+1854200Y-924560D01*
X+1854200Y-8577580D01*
X+1821180Y+746760D02*
X+7889240Y+746760D01*
X+7889240Y+8399780D01*
X+1821180Y+8399780D01*
X+1821180Y+746760D01*
M02*
