G04 PROTEUS GERBER X2 FILE*
%TF.GenerationSoftware,Labcenter,Proteus,8.9-SP2-Build28501*%
%TF.CreationDate,2020-10-27T16:35:10+00:00*%
%TF.FileFunction,Soldermask,Bot*%
%TF.FilePolarity,Negative*%
%TF.Part,Single*%
%TF.SameCoordinates,{a35fc402-a4c1-442c-a2ba-c563a08446ad}*%
%FSLAX45Y45*%
%MOMM*%
G01*
%AMPPAD029*
4,1,8,
1.397000,0.509800,
1.397000,-0.509800,
1.017800,-0.889000,
-1.017800,-0.889000,
-1.397000,-0.509800,
-1.397000,0.509800,
-1.017800,0.889000,
1.017800,0.889000,
1.397000,0.509800,
0*%
%TA.AperFunction,Material*%
%ADD35PPAD029*%
%AMPPAD030*
4,1,36,
1.016000,-1.143000,
-1.016000,-1.143000,
-1.041970,-1.140470,
-1.065980,-1.133200,
-1.087580,-1.121650,
-1.106290,-1.106290,
-1.121650,-1.087570,
-1.133200,-1.065980,
-1.140470,-1.041970,
-1.143000,-1.016000,
-1.143000,1.016000,
-1.140470,1.041970,
-1.133200,1.065980,
-1.121650,1.087570,
-1.106290,1.106290,
-1.087580,1.121650,
-1.065980,1.133200,
-1.041970,1.140470,
-1.016000,1.143000,
1.016000,1.143000,
1.041970,1.140470,
1.065980,1.133200,
1.087580,1.121650,
1.106290,1.106290,
1.121650,1.087570,
1.133200,1.065980,
1.140470,1.041970,
1.143000,1.016000,
1.143000,-1.016000,
1.140470,-1.041970,
1.133200,-1.065980,
1.121650,-1.087570,
1.106290,-1.106290,
1.087580,-1.121650,
1.065980,-1.133200,
1.041970,-1.140470,
1.016000,-1.143000,
0*%
%TA.AperFunction,Material*%
%ADD36PPAD030*%
%TA.AperFunction,Material*%
%ADD37C,3.302000*%
%ADD38C,2.540000*%
%ADD39C,2.286000*%
%ADD40C,2.032000*%
%TA.AperFunction,Material*%
%ADD41C,6.604000*%
%TA.AperFunction,Material*%
%ADD42C,0.460000*%
%TA.AperFunction,Material*%
%ADD43C,1.778000*%
%AMPPAD038*
4,1,36,
-1.016000,-1.397000,
1.016000,-1.397000,
1.041970,-1.394470,
1.065980,-1.387200,
1.087580,-1.375650,
1.106290,-1.360290,
1.121650,-1.341570,
1.133200,-1.319980,
1.140470,-1.295970,
1.143000,-1.270000,
1.143000,1.270000,
1.140470,1.295970,
1.133200,1.319980,
1.121650,1.341570,
1.106290,1.360290,
1.087580,1.375650,
1.065980,1.387200,
1.041970,1.394470,
1.016000,1.397000,
-1.016000,1.397000,
-1.041970,1.394470,
-1.065980,1.387200,
-1.087580,1.375650,
-1.106290,1.360290,
-1.121650,1.341570,
-1.133200,1.319980,
-1.140470,1.295970,
-1.143000,1.270000,
-1.143000,-1.270000,
-1.140470,-1.295970,
-1.133200,-1.319980,
-1.121650,-1.341570,
-1.106290,-1.360290,
-1.087580,-1.375650,
-1.065980,-1.387200,
-1.041970,-1.394470,
-1.016000,-1.397000,
0*%
%TA.AperFunction,Material*%
%ADD44PPAD038*%
%TA.AperFunction,Material*%
%ADD45C,2.794000*%
%AMPPAD040*
4,1,36,
1.016000,1.143000,
-1.016000,1.143000,
-1.041970,1.140470,
-1.065980,1.133200,
-1.087580,1.121650,
-1.106290,1.106290,
-1.121650,1.087570,
-1.133200,1.065980,
-1.140470,1.041970,
-1.143000,1.016000,
-1.143000,-1.016000,
-1.140470,-1.041970,
-1.133200,-1.065980,
-1.121650,-1.087570,
-1.106290,-1.106290,
-1.087580,-1.121650,
-1.065980,-1.133200,
-1.041970,-1.140470,
-1.016000,-1.143000,
1.016000,-1.143000,
1.041970,-1.140470,
1.065980,-1.133200,
1.087580,-1.121650,
1.106290,-1.106290,
1.121650,-1.087570,
1.133200,-1.065980,
1.140470,-1.041970,
1.143000,-1.016000,
1.143000,1.016000,
1.140470,1.041970,
1.133200,1.065980,
1.121650,1.087570,
1.106290,1.106290,
1.087580,1.121650,
1.065980,1.133200,
1.041970,1.140470,
1.016000,1.143000,
0*%
%TA.AperFunction,Material*%
%ADD46PPAD040*%
%AMPPAD041*
4,1,4,
0.525000,0.525000,
0.525000,-0.525000,
-0.525000,-0.525000,
-0.525000,0.525000,
0.525000,0.525000,
0*%
%TA.AperFunction,Material*%
%ADD47PPAD041*%
%ADD48C,1.050000*%
%TA.AperFunction,Profile*%
%ADD73C,0.203200*%
%TD.AperFunction*%
D35*
X-2580640Y+6715760D03*
X-2580640Y+6461760D03*
X-2580640Y+6207760D03*
X-2580640Y+5953760D03*
X-2580640Y+5699760D03*
X-2580640Y+5445760D03*
X-2580640Y+5191760D03*
X-2580640Y+4937760D03*
X-2580640Y+4683760D03*
X-2580640Y+4429760D03*
X-2580640Y+4175760D03*
X-2580640Y+3921760D03*
X-2580640Y+3667760D03*
X-2580640Y+3413760D03*
X-1818640Y+3413760D03*
X-1818640Y+3667760D03*
X-1818640Y+3921760D03*
X-1818640Y+4175760D03*
X-1818640Y+4429760D03*
X-1818640Y+4683760D03*
X-1818640Y+4937760D03*
X-1818640Y+5191760D03*
X-1818640Y+5445760D03*
X-1818640Y+5699760D03*
X-1818640Y+5953760D03*
X-1818640Y+6207760D03*
X-1818640Y+6461760D03*
X-1818640Y+6713760D03*
D36*
X+238760Y+7015480D03*
X-15240Y+7015480D03*
X-269240Y+7015480D03*
D37*
X-289560Y+7729220D03*
X+218440Y+7729220D03*
D38*
X-789051Y+8008620D03*
X-789051Y+6992620D03*
D39*
X-4091940Y+3710940D03*
X-3583940Y+3710940D03*
D40*
X-4091940Y+4218940D03*
X-3583940Y+4218940D03*
X-3583940Y+3202940D03*
X-4091940Y+3202940D03*
D41*
X-4927600Y+1348740D03*
X-5026659Y+7967980D03*
D42*
X-2946450Y+2337458D03*
X-2946450Y+2227458D03*
D35*
X-2590850Y+2671958D03*
X-2590850Y+2417958D03*
X-2590850Y+2163958D03*
X-2590850Y+1909958D03*
X-1828850Y+1909958D03*
X-1828850Y+2163958D03*
X-1828850Y+2417958D03*
X-1828850Y+2671958D03*
D38*
X-1205611Y+8008620D03*
X-1205611Y+6992620D03*
D36*
X-3644900Y+4919980D03*
X-3898900Y+4919980D03*
X-4152900Y+4919980D03*
X-4406900Y+4919980D03*
D38*
X-5052060Y+6687820D03*
X-5052060Y+5671820D03*
D43*
X-599440Y+4117340D03*
X-802640Y+4117340D03*
X-1005840Y+4117340D03*
D44*
X-2131060Y+8028940D03*
X-1572260Y+8028940D03*
D40*
X-2681427Y+3167380D03*
X-1665427Y+3167380D03*
D39*
X-2331720Y+1115060D03*
X-2077720Y+1115060D03*
D45*
X-985520Y+5026660D03*
X+214480Y+5026660D03*
X-385520Y+4626660D03*
X+214480Y+6426660D03*
X-985520Y+6426660D03*
D40*
X-3070860Y+2948940D03*
X-4086860Y+2948940D03*
X-2844800Y+5958840D03*
X-2844800Y+6974840D03*
D36*
X-2760980Y+8041640D03*
X-2506980Y+8041640D03*
D40*
X-3053080Y+5951220D03*
X-3053080Y+6967220D03*
D36*
X-3068320Y+8036560D03*
X-3322320Y+8036560D03*
D41*
X+35560Y+1361440D03*
D46*
X-1135380Y+2674620D03*
D40*
X-3608080Y+1792820D03*
X-3858080Y+1792820D03*
X-3858080Y+1592820D03*
X-3608080Y+1592820D03*
D37*
X-4330700Y+1318260D03*
X-3126740Y+1318260D03*
D36*
X-5199380Y+4462780D03*
X-4696460Y+4462780D03*
D47*
X-5278120Y+5356860D03*
D48*
X-5278120Y+5156860D03*
D47*
X-1399540Y+3467100D03*
D48*
X-1199540Y+3467100D03*
D36*
X-3398520Y+7327900D03*
X-3652520Y+7327900D03*
X-3906520Y+7327900D03*
X-4160520Y+7327900D03*
X-4414520Y+7327900D03*
X-4668520Y+7327900D03*
D73*
X-5463540Y+746760D02*
X+604520Y+746760D01*
X+604520Y+8399780D01*
X-5463540Y+8399780D01*
X-5463540Y+746760D01*
M02*
