G04 PROTEUS GERBER X2 FILE*
%TF.GenerationSoftware,Labcenter,Proteus,8.9-SP2-Build28501*%
%TF.CreationDate,2022-01-08T14:05:16+00:00*%
%TF.FileFunction,Paste,Bot*%
%TF.FilePolarity,Positive*%
%TF.Part,Single*%
%TF.SameCoordinates,{ff1e4c48-526d-464f-ad3e-7719da6fb4b3}*%
%FSLAX45Y45*%
%MOMM*%
G01*
%TA.AperFunction,Material*%
%ADD75R,5.080000X2.540000*%
%ADD76R,2.540000X5.080000*%
%ADD77R,2.311400X2.260600*%
%ADD78R,4.572000X3.048000*%
%TA.AperFunction,Profile*%
%ADD34C,0.203200*%
%TD.AperFunction*%
D75*
X+4320000Y+2820000D03*
X+4290000Y+1650000D03*
X+8150377Y+1180000D03*
D76*
X+7900000Y+2230000D03*
D75*
X+8090000Y+3530000D03*
X+8082761Y+4680000D03*
X+4310000Y+3970000D03*
X+4280000Y+510000D03*
D76*
X+4470000Y+2920000D03*
X+4470000Y+3430000D03*
X+4470000Y+2420000D03*
X+4470000Y+1900000D03*
X+4470000Y+1390000D03*
X+4470000Y+880000D03*
X+4470000Y+3870000D03*
X+4470000Y+4380000D03*
X+7900000Y+4550000D03*
X+7900000Y+4060000D03*
X+7900000Y+3550000D03*
D75*
X+4580000Y+4820000D03*
X+5070000Y+4820000D03*
X+5550000Y+4820000D03*
X+6040000Y+4820000D03*
X+6530000Y+4820000D03*
X+7010000Y+4820000D03*
X+7520000Y+4820000D03*
X+7780000Y+4820000D03*
D76*
X+7900000Y+3050000D03*
X+7900000Y+2610000D03*
X+7900000Y+2010000D03*
X+7900000Y+1500000D03*
X+4470000Y+630000D03*
X+4470000Y+2070000D03*
X+6800000Y-1410000D03*
X+6800000Y-950000D03*
X+6800000Y-450000D03*
X+6800000Y-10000D03*
D75*
X+4830000Y+500000D03*
X+5310000Y+500000D03*
X+5810000Y+500000D03*
X+6100000Y+500000D03*
D76*
X+6980000Y+250000D03*
D75*
X+6570000Y+500000D03*
X+7060000Y+500000D03*
X+7560000Y+500000D03*
D76*
X+7900000Y+990000D03*
X+7900000Y+630000D03*
D77*
X+7910000Y+3780000D03*
D78*
X+8200000Y+2460000D03*
D76*
X+4470000Y+4690000D03*
X+6800000Y-1720000D03*
X+7020000Y-1370000D03*
X+7020000Y-910000D03*
X+7020000Y-410000D03*
X+7020000Y+90000D03*
X+6800000Y+240000D03*
X+7190000Y-1600000D03*
X+7190000Y-1140000D03*
X+7190000Y-640000D03*
X+7190000Y-150000D03*
X+7190000Y+170000D03*
D34*
X-12676272Y-2437610D02*
X+10155148Y-2437610D01*
X+10155148Y+6514090D01*
X-12676272Y+6514090D01*
X-12676272Y-2437610D01*
M02*
