G04 PROTEUS GERBER X2 FILE*
%TF.GenerationSoftware,Labcenter,Proteus,8.9-SP2-Build28501*%
%TF.CreationDate,2022-01-08T14:05:16+00:00*%
%TF.FileFunction,AssemblyDrawing,Top*%
%TF.FilePolarity,Positive*%
%TF.Part,Single*%
%TF.SameCoordinates,{ff1e4c48-526d-464f-ad3e-7719da6fb4b3}*%
%FSLAX45Y45*%
%MOMM*%
G01*
%TA.AperFunction,Profile*%
%ADD34C,0.203200*%
%TA.AperFunction,Material*%
%ADD39C,0.203200*%
%ADD79C,0.508000*%
%ADD80C,0.533400*%
%ADD81C,0.711200*%
%ADD82C,1.212190*%
%ADD83C,0.812800*%
%ADD84C,0.107520*%
%ADD85C,1.219200*%
%ADD86C,0.151550*%
%ADD87C,0.316990*%
%ADD88C,0.164590*%
%ADD89C,0.324330*%
%ADD90C,0.420050*%
%ADD91C,0.151350*%
%ADD92C,0.206390*%
%ADD93C,0.195580*%
%ADD94C,0.240790*%
%ADD95C,0.148040*%
%ADD96C,0.128270*%
%ADD97C,0.113660*%
%ADD98C,0.075470*%
%ADD99C,0.132080*%
%ADD100C,0.172720*%
%ADD101C,0.914400*%
%ADD102C,0.172210*%
%ADD103C,0.106680*%
%ADD104C,0.259080*%
%ADD105C,0.050000*%
%ADD106C,0.480000*%
%ADD107C,0.312330*%
%ADD108C,0.222250*%
%ADD109C,0.448000*%
%ADD110C,0.228330*%
%ADD111C,0.420000*%
%ADD112C,0.151660*%
%ADD113C,0.197270*%
%ADD114C,0.609600*%
%ADD115C,0.235370*%
%ADD116C,0.762000*%
%ADD117C,0.176530*%
%ADD118C,0.189190*%
%ADD119C,0.067910*%
%ADD120C,0.171250*%
%ADD121C,0.094210*%
%ADD122C,0.600000*%
%ADD123C,0.334140*%
%ADD124C,0.309420*%
%ADD125C,0.105660*%
%ADD126C,0.058700*%
%ADD127C,0.113750*%
%TD.AperFunction*%
D34*
X-12676272Y-2437610D02*
X+10155148Y-2437610D01*
X+10155148Y+6514090D01*
X-12676272Y+6514090D01*
X-12676272Y-2437610D01*
D39*
X-8353500Y+72340D02*
X-7464500Y+72340D01*
X-7464500Y+3521660D01*
X-8353500Y+3521660D01*
X-8353500Y+72340D01*
D79*
X-8290000Y+3450000D02*
X-8290000Y+3450000D01*
D80*
X-8069020Y+1370280D02*
X-7802320Y+1370280D01*
X-7748980Y+1423620D01*
X-7748980Y+1636980D01*
X-7802320Y+1690320D01*
X-8069020Y+1690320D01*
X-8015680Y+1850340D02*
X-8069020Y+1903680D01*
X-8069020Y+2063700D01*
X-8015680Y+2117040D01*
X-7962340Y+2117040D01*
X-7909000Y+2063700D01*
X-7855660Y+2117040D01*
X-7802320Y+2117040D01*
X-7748980Y+2063700D01*
X-7748980Y+1903680D01*
X-7802320Y+1850340D01*
X-7909000Y+1957020D02*
X-7909000Y+2063700D01*
D39*
X-11450000Y+4510000D02*
X-6950000Y+4510000D01*
X-6950000Y+6510000D01*
X-11450000Y+6510000D01*
X-11450000Y+4510000D01*
D81*
X-7150000Y+4670000D02*
X-7150000Y+4670000D01*
D82*
X-10169753Y+5873657D02*
X-10169753Y+5267561D01*
X-10048534Y+5146342D01*
X-9563658Y+5146342D01*
X-9442439Y+5267561D01*
X-9442439Y+5873657D01*
X-9078781Y+5752438D02*
X-8957562Y+5873657D01*
X-8593905Y+5873657D01*
X-8472686Y+5752438D01*
X-8472686Y+5631219D01*
X-8593905Y+5510000D01*
X-8957562Y+5510000D01*
X-9078781Y+5388780D01*
X-9078781Y+5146342D01*
X-8472686Y+5146342D01*
D39*
X-12356859Y+4956840D02*
X-12082539Y+4956840D01*
X-12082539Y+6247160D01*
X-12356859Y+6247160D01*
X-12356859Y+4956840D01*
D83*
X-12219699Y+5094000D02*
X-12219699Y+5094000D01*
D84*
X-12198193Y+5128890D02*
X-12187441Y+5139642D01*
X-12187441Y+5182652D01*
X-12198193Y+5193405D01*
X-12208946Y+5193405D01*
X-12219699Y+5182652D01*
X-12219699Y+5139642D01*
X-12230451Y+5128890D01*
X-12241204Y+5128890D01*
X-12251956Y+5139642D01*
X-12251956Y+5182652D01*
X-12241204Y+5193405D01*
X-12187441Y+5279425D02*
X-12187441Y+5214910D01*
X-12251956Y+5214910D01*
X-12251956Y+5279425D01*
X-12219699Y+5214910D02*
X-12219699Y+5257920D01*
X-12187441Y+5300930D02*
X-12251956Y+5300930D01*
X-12251956Y+5354692D01*
X-12241204Y+5365445D01*
X-12230451Y+5365445D01*
X-12219699Y+5354692D01*
X-12219699Y+5300930D01*
X-12219699Y+5354692D02*
X-12208946Y+5365445D01*
X-12187441Y+5365445D01*
X-12251956Y+5397702D02*
X-12251956Y+5440712D01*
X-12251956Y+5419207D02*
X-12187441Y+5419207D01*
X-12187441Y+5397702D02*
X-12187441Y+5440712D01*
X-12187441Y+5472970D02*
X-12230451Y+5472970D01*
X-12251956Y+5494475D01*
X-12251956Y+5515980D01*
X-12230451Y+5537485D01*
X-12187441Y+5537485D01*
X-12208946Y+5472970D02*
X-12208946Y+5537485D01*
X-12251956Y+5558990D02*
X-12187441Y+5558990D01*
X-12187441Y+5623505D01*
X-12187441Y+5731030D02*
X-12251956Y+5731030D01*
X-12251956Y+5784792D01*
X-12241204Y+5795545D01*
X-12230451Y+5795545D01*
X-12219699Y+5784792D01*
X-12219699Y+5731030D01*
X-12187441Y+5817050D02*
X-12251956Y+5817050D01*
X-12251956Y+5870812D01*
X-12241204Y+5881565D01*
X-12230451Y+5881565D01*
X-12219699Y+5870812D01*
X-12219699Y+5817050D01*
X-12219699Y+5870812D02*
X-12208946Y+5881565D01*
X-12187441Y+5881565D01*
X-12230451Y+5903070D02*
X-12251956Y+5924575D01*
X-12251956Y+5946080D01*
X-12230451Y+5967585D01*
X-12208946Y+5967585D01*
X-12187441Y+5946080D01*
X-12187441Y+5924575D01*
X-12208946Y+5903070D01*
X-12230451Y+5903070D01*
X-12208946Y+6032100D02*
X-12208946Y+6053605D01*
X-12187441Y+6053605D01*
X-12187441Y+6010595D01*
X-12208946Y+5989090D01*
X-12230451Y+5989090D01*
X-12251956Y+6010595D01*
X-12251956Y+6042852D01*
X-12241204Y+6053605D01*
D39*
X-12547180Y+3502140D02*
X-11764860Y+3502140D01*
X-11764860Y+4411460D01*
X-12547180Y+4411460D01*
X-12547180Y+3502140D01*
D85*
X-12250000Y+4160000D02*
X-12250000Y+4160000D01*
D86*
X-12110554Y+3653695D02*
X-12201486Y+3653695D01*
X-12201486Y+3729471D01*
X-12186331Y+3744626D01*
X-12171175Y+3744626D01*
X-12156020Y+3729471D01*
X-12156020Y+3653695D01*
X-12156020Y+3729471D02*
X-12140865Y+3744626D01*
X-12110554Y+3744626D01*
X-12110554Y+3865868D02*
X-12110554Y+3774937D01*
X-12201486Y+3774937D01*
X-12201486Y+3865868D01*
X-12156020Y+3774937D02*
X-12156020Y+3835558D01*
X-12125709Y+3896179D02*
X-12110554Y+3911334D01*
X-12110554Y+3971955D01*
X-12125709Y+3987110D01*
X-12140865Y+3987110D01*
X-12156020Y+3971955D01*
X-12156020Y+3911334D01*
X-12171175Y+3896179D01*
X-12186331Y+3896179D01*
X-12201486Y+3911334D01*
X-12201486Y+3971955D01*
X-12186331Y+3987110D01*
X-12110554Y+4108352D02*
X-12110554Y+4017421D01*
X-12201486Y+4017421D01*
X-12201486Y+4108352D01*
X-12156020Y+4017421D02*
X-12156020Y+4078042D01*
X-12201486Y+4138663D02*
X-12201486Y+4229594D01*
X-12201486Y+4184128D02*
X-12110554Y+4184128D01*
D39*
X-9364160Y+767840D02*
X-8835840Y+767840D01*
X-8835840Y+1804160D01*
X-9364160Y+1804160D01*
X-9364160Y+767840D01*
D83*
X-9100000Y+1032000D02*
X-9100000Y+1032000D01*
D87*
X-9195097Y+1032407D02*
X-9004902Y+1222601D01*
X-9004902Y+1032407D02*
X-9195097Y+1222601D01*
X-9131699Y+1349398D02*
X-9195097Y+1412796D01*
X-9004902Y+1412796D01*
D39*
X-9827160Y+712840D02*
X-9552840Y+712840D01*
X-9552840Y+1241160D01*
X-9827160Y+1241160D01*
X-9827160Y+712840D01*
D81*
X-9690000Y+1104000D02*
X-9690000Y+1104000D01*
D88*
X-9657081Y+944081D02*
X-9640622Y+927622D01*
X-9640622Y+878245D01*
X-9673540Y+845327D01*
X-9706459Y+845327D01*
X-9739377Y+878245D01*
X-9739377Y+927622D01*
X-9722918Y+944081D01*
X-9722918Y+993459D02*
X-9739377Y+1009918D01*
X-9739377Y+1059295D01*
X-9722918Y+1075754D01*
X-9706459Y+1075754D01*
X-9690000Y+1059295D01*
X-9690000Y+1009918D01*
X-9673540Y+993459D01*
X-9640622Y+993459D01*
X-9640622Y+1075754D01*
D39*
X-9817160Y+1352840D02*
X-9542840Y+1352840D01*
X-9542840Y+1881160D01*
X-9817160Y+1881160D01*
X-9817160Y+1352840D01*
D81*
X-9680000Y+1744000D02*
X-9680000Y+1744000D01*
D88*
X-9647081Y+1584081D02*
X-9630622Y+1567622D01*
X-9630622Y+1518245D01*
X-9663540Y+1485327D01*
X-9696459Y+1485327D01*
X-9729377Y+1518245D01*
X-9729377Y+1567622D01*
X-9712918Y+1584081D01*
X-9696459Y+1649918D02*
X-9729377Y+1682836D01*
X-9630622Y+1682836D01*
D39*
X-1230160Y-1190160D02*
X+1040160Y-1190160D01*
X+1040160Y+480160D01*
X-1230160Y+480160D01*
X-1230160Y-1190160D01*
D89*
X-873392Y-257701D02*
X-873392Y-452299D01*
X-678794Y-452299D01*
X-581495Y-257701D02*
X-451763Y-257701D01*
X-516629Y-257701D02*
X-516629Y-452299D01*
X-581495Y-452299D02*
X-451763Y-452299D01*
X-354464Y-452299D02*
X-354464Y-257701D01*
X-159866Y-452299D01*
X-159866Y-257701D01*
X+99598Y-452299D02*
X-95000Y-452299D01*
X-95000Y-257701D01*
X+99598Y-257701D01*
X-95000Y-355000D02*
X+34732Y-355000D01*
X+456361Y-290134D02*
X+488794Y-257701D01*
X+586093Y-257701D01*
X+618526Y-290134D01*
X+618526Y-322567D01*
X+586093Y-355000D01*
X+618526Y-387433D01*
X+618526Y-419866D01*
X+586093Y-452299D01*
X+488794Y-452299D01*
X+456361Y-419866D01*
X+521227Y-355000D02*
X+586093Y-355000D01*
D39*
X-12520000Y+190000D02*
X-10020000Y+190000D01*
X-10020000Y+2490000D01*
X-12520000Y+2490000D01*
X-12520000Y+190000D01*
D83*
X-10260000Y+880000D02*
X-10260000Y+880000D01*
D90*
X-12110105Y+1213984D02*
X-12110105Y+1466016D01*
X-11984090Y+1340000D01*
X-11858074Y+1466016D01*
X-11858074Y+1213984D01*
X-11774063Y+1382005D02*
X-11690053Y+1466016D01*
X-11606042Y+1466016D01*
X-11522032Y+1382005D01*
X-11522032Y+1297995D01*
X-11606042Y+1213984D01*
X-11690053Y+1213984D01*
X-11774063Y+1297995D01*
X-11774063Y+1382005D01*
X-11438021Y+1213984D02*
X-11438021Y+1466016D01*
X-11270000Y+1466016D01*
X-11185990Y+1382005D01*
X-11185990Y+1297995D01*
X-11270000Y+1213984D01*
X-11438021Y+1213984D01*
X-10849948Y+1213984D02*
X-11101979Y+1213984D01*
X-11101979Y+1466016D01*
X-10849948Y+1466016D01*
X-11101979Y+1340000D02*
X-10933958Y+1340000D01*
X-10765937Y+1213984D02*
X-10765937Y+1466016D01*
X-10639922Y+1340000D01*
X-10513906Y+1466016D01*
X-10513906Y+1213984D01*
D39*
X-5060160Y-1830160D02*
X-3389840Y-1830160D01*
X-3389840Y+440160D01*
X-5060160Y+440160D01*
X-5060160Y-1830160D01*
D91*
X-4179593Y-1542581D02*
X-4270406Y-1542581D01*
X-4270406Y-1466905D01*
X-4255270Y-1451769D01*
X-4240135Y-1451769D01*
X-4225000Y-1466905D01*
X-4209864Y-1451769D01*
X-4194729Y-1451769D01*
X-4179593Y-1466905D01*
X-4179593Y-1542581D01*
X-4225000Y-1542581D02*
X-4225000Y-1466905D01*
X-4179593Y-1421498D02*
X-4240135Y-1421498D01*
X-4270406Y-1391228D01*
X-4270406Y-1360957D01*
X-4240135Y-1330686D01*
X-4179593Y-1330686D01*
X-4209864Y-1421498D02*
X-4209864Y-1330686D01*
X-4270406Y-1300415D02*
X-4270406Y-1209603D01*
X-4270406Y-1255009D02*
X-4179593Y-1255009D01*
X-4270406Y-1179332D02*
X-4270406Y-1088520D01*
X-4270406Y-1133926D02*
X-4179593Y-1133926D01*
X-4179593Y-967437D02*
X-4179593Y-1058249D01*
X-4270406Y-1058249D01*
X-4270406Y-967437D01*
X-4225000Y-1058249D02*
X-4225000Y-997708D01*
X-4179593Y-937166D02*
X-4270406Y-937166D01*
X-4270406Y-861490D01*
X-4255270Y-846354D01*
X-4240135Y-846354D01*
X-4225000Y-861490D01*
X-4225000Y-937166D01*
X-4225000Y-861490D02*
X-4209864Y-846354D01*
X-4179593Y-846354D01*
X-4270406Y-725271D02*
X-4179593Y-816083D01*
X-4270406Y-816083D02*
X-4225000Y-770677D01*
X-4194729Y-483105D02*
X-4179593Y-498241D01*
X-4179593Y-543647D01*
X-4209864Y-573917D01*
X-4240135Y-573917D01*
X-4270406Y-543647D01*
X-4270406Y-498241D01*
X-4255270Y-483105D01*
X-4179593Y-452834D02*
X-4270406Y-452834D01*
X-4270406Y-362022D02*
X-4179593Y-362022D01*
X-4225000Y-452834D02*
X-4225000Y-362022D01*
X-4179593Y-331751D02*
X-4240135Y-331751D01*
X-4270406Y-301481D01*
X-4270406Y-271210D01*
X-4240135Y-240939D01*
X-4179593Y-240939D01*
X-4209864Y-331751D02*
X-4209864Y-240939D01*
X-4179593Y-210668D02*
X-4270406Y-210668D01*
X-4270406Y-134992D01*
X-4255270Y-119856D01*
X-4240135Y-119856D01*
X-4225000Y-134992D01*
X-4225000Y-210668D01*
X-4225000Y-134992D02*
X-4209864Y-119856D01*
X-4179593Y-119856D01*
X-4209864Y-29044D02*
X-4209864Y+1227D01*
X-4179593Y+1227D01*
X-4179593Y-59315D01*
X-4209864Y-89585D01*
X-4240135Y-89585D01*
X-4270406Y-59315D01*
X-4270406Y-13909D01*
X-4255270Y+1227D01*
X-4179593Y+122310D02*
X-4179593Y+31498D01*
X-4270406Y+31498D01*
X-4270406Y+122310D01*
X-4225000Y+31498D02*
X-4225000Y+92039D01*
D39*
X+1269840Y-1180160D02*
X+3540160Y-1180160D01*
X+3540160Y+490160D01*
X+1269840Y+490160D01*
X+1269840Y-1180160D01*
D92*
X+1579435Y-283083D02*
X+1579435Y-406918D01*
X+1703269Y-406918D01*
X+1765187Y-283083D02*
X+1847743Y-283083D01*
X+1806465Y-283083D02*
X+1806465Y-406918D01*
X+1765187Y-406918D02*
X+1847743Y-406918D01*
X+1909661Y-406918D02*
X+1909661Y-283083D01*
X+2033495Y-406918D01*
X+2033495Y-283083D01*
X+2198608Y-406918D02*
X+2074774Y-406918D01*
X+2074774Y-283083D01*
X+2198608Y-283083D01*
X+2074774Y-345000D02*
X+2157330Y-345000D01*
X+2446278Y-324361D02*
X+2487556Y-283083D01*
X+2487556Y-406918D01*
X+2755865Y-345000D02*
X+2859060Y-345000D01*
X+3086091Y-303722D02*
X+3106730Y-283083D01*
X+3168647Y-283083D01*
X+3189286Y-303722D01*
X+3189286Y-324361D01*
X+3168647Y-345000D01*
X+3106730Y-345000D01*
X+3086091Y-365640D01*
X+3086091Y-406918D01*
X+3189286Y-406918D01*
D39*
X+8065000Y+2864601D02*
X+8466320Y+2864601D01*
X+8466320Y+3646921D01*
X+8065000Y+3646921D01*
X+8065000Y+2864601D01*
D83*
X+8329160Y+3001761D02*
X+8329160Y+3001761D01*
D93*
X+8246102Y+3021065D02*
X+8206986Y+3060181D01*
X+8206986Y+3099297D01*
X+8246102Y+3138413D01*
X+8285218Y+3138413D01*
X+8324334Y+3099297D01*
X+8324334Y+3060181D01*
X+8285218Y+3021065D01*
X+8246102Y+3021065D01*
X+8285218Y+3099297D02*
X+8324334Y+3138413D01*
X+8246102Y+3216645D02*
X+8206986Y+3255761D01*
X+8324334Y+3255761D01*
X+8226544Y+3353551D02*
X+8206986Y+3373109D01*
X+8206986Y+3431783D01*
X+8226544Y+3451341D01*
X+8246102Y+3451341D01*
X+8265660Y+3431783D01*
X+8265660Y+3373109D01*
X+8285218Y+3353551D01*
X+8324334Y+3353551D01*
X+8324334Y+3451341D01*
D39*
X+8065000Y+1721601D02*
X+8466320Y+1721601D01*
X+8466320Y+2503921D01*
X+8065000Y+2503921D01*
X+8065000Y+1721601D01*
D83*
X+8329160Y+1858761D02*
X+8329160Y+1858761D01*
D93*
X+8246102Y+1878065D02*
X+8206986Y+1917181D01*
X+8206986Y+1956297D01*
X+8246102Y+1995413D01*
X+8285218Y+1995413D01*
X+8324334Y+1956297D01*
X+8324334Y+1917181D01*
X+8285218Y+1878065D01*
X+8246102Y+1878065D01*
X+8285218Y+1956297D02*
X+8324334Y+1995413D01*
X+8246102Y+2073645D02*
X+8206986Y+2112761D01*
X+8324334Y+2112761D01*
X+8226544Y+2210551D02*
X+8206986Y+2230109D01*
X+8206986Y+2288783D01*
X+8226544Y+2308341D01*
X+8246102Y+2308341D01*
X+8265660Y+2288783D01*
X+8285218Y+2308341D01*
X+8304776Y+2308341D01*
X+8324334Y+2288783D01*
X+8324334Y+2230109D01*
X+8304776Y+2210551D01*
X+8265660Y+2249667D02*
X+8265660Y+2288783D01*
D39*
X+8065000Y+4007601D02*
X+8466320Y+4007601D01*
X+8466320Y+4789921D01*
X+8065000Y+4789921D01*
X+8065000Y+4007601D01*
D83*
X+8329160Y+4144761D02*
X+8329160Y+4144761D01*
D93*
X+8246102Y+4164065D02*
X+8206986Y+4203181D01*
X+8206986Y+4242297D01*
X+8246102Y+4281413D01*
X+8285218Y+4281413D01*
X+8324334Y+4242297D01*
X+8324334Y+4203181D01*
X+8285218Y+4164065D01*
X+8246102Y+4164065D01*
X+8285218Y+4242297D02*
X+8324334Y+4281413D01*
X+8246102Y+4359645D02*
X+8206986Y+4398761D01*
X+8324334Y+4398761D01*
X+8246102Y+4516109D02*
X+8206986Y+4555225D01*
X+8324334Y+4555225D01*
D39*
X+8065840Y+514840D02*
X+8467160Y+514840D01*
X+8467160Y+1297160D01*
X+8065840Y+1297160D01*
X+8065840Y+514840D01*
D83*
X+8330000Y+652000D02*
X+8330000Y+652000D01*
D93*
X+8246942Y+671304D02*
X+8207826Y+710420D01*
X+8207826Y+749536D01*
X+8246942Y+788652D01*
X+8286058Y+788652D01*
X+8325174Y+749536D01*
X+8325174Y+710420D01*
X+8286058Y+671304D01*
X+8246942Y+671304D01*
X+8286058Y+749536D02*
X+8325174Y+788652D01*
X+8246942Y+866884D02*
X+8207826Y+906000D01*
X+8325174Y+906000D01*
X+8286058Y+1101580D02*
X+8286058Y+984232D01*
X+8207826Y+1062464D01*
X+8325174Y+1062464D01*
D39*
X+3853133Y+3861788D02*
X+4254453Y+3861788D01*
X+4254453Y+4644108D01*
X+3853133Y+4644108D01*
X+3853133Y+3861788D01*
D83*
X+3990293Y+4506948D02*
X+3990293Y+4506948D01*
D94*
X+4029714Y+4060315D02*
X+3981556Y+4108473D01*
X+3981556Y+4156631D01*
X+4029714Y+4204789D01*
X+4077873Y+4204789D01*
X+4126031Y+4156631D01*
X+4126031Y+4108473D01*
X+4077873Y+4060315D01*
X+4029714Y+4060315D01*
X+4077873Y+4156631D02*
X+4126031Y+4204789D01*
X+3981556Y+4277027D02*
X+3981556Y+4397422D01*
X+4005635Y+4397422D01*
X+4126031Y+4277027D01*
D39*
X+3853133Y+2718788D02*
X+4254453Y+2718788D01*
X+4254453Y+3501108D01*
X+3853133Y+3501108D01*
X+3853133Y+2718788D01*
D83*
X+3990293Y+3363948D02*
X+3990293Y+3363948D01*
D94*
X+4029714Y+2917315D02*
X+3981556Y+2965473D01*
X+3981556Y+3013631D01*
X+4029714Y+3061789D01*
X+4077873Y+3061789D01*
X+4126031Y+3013631D01*
X+4126031Y+2965473D01*
X+4077873Y+2917315D01*
X+4029714Y+2917315D01*
X+4077873Y+3013631D02*
X+4126031Y+3061789D01*
X+4053793Y+3158106D02*
X+4029714Y+3134027D01*
X+4005635Y+3134027D01*
X+3981556Y+3158106D01*
X+3981556Y+3230343D01*
X+4005635Y+3254422D01*
X+4029714Y+3254422D01*
X+4053793Y+3230343D01*
X+4053793Y+3158106D01*
X+4077873Y+3134027D01*
X+4101952Y+3134027D01*
X+4126031Y+3158106D01*
X+4126031Y+3230343D01*
X+4101952Y+3254422D01*
X+4077873Y+3254422D01*
X+4053793Y+3230343D01*
D39*
X+3835901Y+1541351D02*
X+4237221Y+1541351D01*
X+4237221Y+2323671D01*
X+3835901Y+2323671D01*
X+3835901Y+1541351D01*
D83*
X+3973061Y+2186511D02*
X+3973061Y+2186511D01*
D94*
X+4012482Y+1739878D02*
X+3964324Y+1788036D01*
X+3964324Y+1836194D01*
X+4012482Y+1884352D01*
X+4060641Y+1884352D01*
X+4108799Y+1836194D01*
X+4108799Y+1788036D01*
X+4060641Y+1739878D01*
X+4012482Y+1739878D01*
X+4060641Y+1836194D02*
X+4108799Y+1884352D01*
X+4012482Y+2076985D02*
X+4036561Y+2052906D01*
X+4036561Y+1980669D01*
X+4012482Y+1956590D01*
X+3988403Y+1956590D01*
X+3964324Y+1980669D01*
X+3964324Y+2052906D01*
X+3988403Y+2076985D01*
X+4084720Y+2076985D01*
X+4108799Y+2052906D01*
X+4108799Y+1980669D01*
D39*
X+3835901Y+398351D02*
X+4237221Y+398351D01*
X+4237221Y+1180671D01*
X+3835901Y+1180671D01*
X+3835901Y+398351D01*
D83*
X+3973061Y+1043511D02*
X+3973061Y+1043511D01*
D93*
X+4017003Y+554815D02*
X+3977887Y+593931D01*
X+3977887Y+633047D01*
X+4017003Y+672163D01*
X+4056119Y+672163D01*
X+4095235Y+633047D01*
X+4095235Y+593931D01*
X+4056119Y+554815D01*
X+4017003Y+554815D01*
X+4056119Y+633047D02*
X+4095235Y+672163D01*
X+4017003Y+750395D02*
X+3977887Y+789511D01*
X+4095235Y+789511D01*
X+4075677Y+867743D02*
X+3997445Y+867743D01*
X+3977887Y+887301D01*
X+3977887Y+965533D01*
X+3997445Y+985091D01*
X+4075677Y+985091D01*
X+4095235Y+965533D01*
X+4095235Y+887301D01*
X+4075677Y+867743D01*
X+4095235Y+867743D02*
X+3977887Y+985091D01*
D39*
X-2345500Y+3630840D02*
X-1456500Y+3630840D01*
X-1456500Y+5937160D01*
X-2345500Y+5937160D01*
X-2345500Y+3630840D01*
D79*
X-2282000Y+5800000D02*
X-2282000Y+5800000D01*
D80*
X-2061020Y+4357280D02*
X-1794320Y+4357280D01*
X-1740980Y+4410620D01*
X-1740980Y+4623980D01*
X-1794320Y+4677320D01*
X-2061020Y+4677320D01*
X-2007680Y+5104040D02*
X-2061020Y+5050700D01*
X-2061020Y+4890680D01*
X-2007680Y+4837340D01*
X-1794320Y+4837340D01*
X-1740980Y+4890680D01*
X-1740980Y+5050700D01*
X-1794320Y+5104040D01*
X-1847660Y+5104040D01*
X-1901000Y+5050700D01*
X-1901000Y+4837340D01*
D39*
X-667160Y+1014840D02*
X-265840Y+1014840D01*
X-265840Y+1797160D01*
X-667160Y+1797160D01*
X-667160Y+1014840D01*
D83*
X-530000Y+1660000D02*
X-530000Y+1660000D01*
D94*
X-538737Y+1213367D02*
X-418341Y+1213367D01*
X-394262Y+1237446D01*
X-394262Y+1333762D01*
X-418341Y+1357841D01*
X-538737Y+1357841D01*
X-538737Y+1430079D02*
X-538737Y+1550474D01*
X-514658Y+1550474D01*
X-394262Y+1430079D01*
D39*
X-1214160Y-2338160D02*
X-177840Y-2338160D01*
X-177840Y-1301840D01*
X-1214160Y-1301840D01*
X-1214160Y-2338160D01*
D85*
X-950000Y-1820000D02*
X-950000Y-1820000D01*
D95*
X-1051308Y-1864413D02*
X-1051308Y-1805195D01*
X-1021699Y-1775586D01*
X-992090Y-1775586D01*
X-962481Y-1805195D01*
X-962481Y-1864413D01*
X-1051308Y-1834804D02*
X-962481Y-1834804D01*
X-844045Y-1849609D02*
X-858850Y-1864413D01*
X-903263Y-1864413D01*
X-932872Y-1834804D01*
X-932872Y-1805195D01*
X-903263Y-1775586D01*
X-858850Y-1775586D01*
X-844045Y-1790391D01*
X-696000Y-1805195D02*
X-666391Y-1775586D01*
X-636782Y-1775586D01*
X-607173Y-1805195D01*
X-607173Y-1834804D01*
X-636782Y-1864413D01*
X-666391Y-1864413D01*
X-696000Y-1834804D01*
X-696000Y-1805195D01*
X-577564Y-1775586D02*
X-577564Y-1849609D01*
X-562760Y-1864413D01*
X-503542Y-1864413D01*
X-488737Y-1849609D01*
X-488737Y-1775586D01*
X-459128Y-1775586D02*
X-370301Y-1775586D01*
X-414715Y-1775586D02*
X-414715Y-1864413D01*
D39*
X+1405840Y-2378160D02*
X+3458160Y-2378160D01*
X+3458160Y-1341840D01*
X+1405840Y-1341840D01*
X+1405840Y-2378160D01*
D85*
X+1670000Y-1860000D02*
X+1670000Y-1860000D01*
D96*
X+1662380Y-1821519D02*
X+1739342Y-1821519D01*
X+1700861Y-1821519D02*
X+1700861Y-1898481D01*
X+1764996Y-1898481D02*
X+1764996Y-1821519D01*
X+1829131Y-1821519D01*
X+1841958Y-1834346D01*
X+1841958Y-1847173D01*
X+1829131Y-1860000D01*
X+1764996Y-1860000D01*
X+1829131Y-1860000D02*
X+1841958Y-1872827D01*
X+1841958Y-1898481D01*
X+1867612Y-1898481D02*
X+1867612Y-1847173D01*
X+1893266Y-1821519D01*
X+1918920Y-1821519D01*
X+1944574Y-1847173D01*
X+1944574Y-1898481D01*
X+1867612Y-1872827D02*
X+1944574Y-1872827D01*
X+1970228Y-1898481D02*
X+1970228Y-1821519D01*
X+2047190Y-1898481D01*
X+2047190Y-1821519D01*
X+2072844Y-1885654D02*
X+2085671Y-1898481D01*
X+2136979Y-1898481D01*
X+2149806Y-1885654D01*
X+2149806Y-1872827D01*
X+2136979Y-1860000D01*
X+2085671Y-1860000D01*
X+2072844Y-1847173D01*
X+2072844Y-1834346D01*
X+2085671Y-1821519D01*
X+2136979Y-1821519D01*
X+2149806Y-1834346D01*
X+2175460Y-1898481D02*
X+2175460Y-1821519D01*
X+2252422Y-1821519D01*
X+2175460Y-1860000D02*
X+2226768Y-1860000D01*
X+2278076Y-1847173D02*
X+2303730Y-1821519D01*
X+2329384Y-1821519D01*
X+2355038Y-1847173D01*
X+2355038Y-1872827D01*
X+2329384Y-1898481D01*
X+2303730Y-1898481D01*
X+2278076Y-1872827D01*
X+2278076Y-1847173D01*
X+2380692Y-1898481D02*
X+2380692Y-1821519D01*
X+2444827Y-1821519D01*
X+2457654Y-1834346D01*
X+2457654Y-1847173D01*
X+2444827Y-1860000D01*
X+2380692Y-1860000D01*
X+2444827Y-1860000D02*
X+2457654Y-1872827D01*
X+2457654Y-1898481D01*
X+2483308Y-1898481D02*
X+2483308Y-1821519D01*
X+2521789Y-1860000D01*
X+2560270Y-1821519D01*
X+2560270Y-1898481D01*
X+2662886Y-1898481D02*
X+2585924Y-1898481D01*
X+2585924Y-1821519D01*
X+2662886Y-1821519D01*
X+2585924Y-1860000D02*
X+2637232Y-1860000D01*
X+2688540Y-1898481D02*
X+2688540Y-1821519D01*
X+2752675Y-1821519D01*
X+2765502Y-1834346D01*
X+2765502Y-1847173D01*
X+2752675Y-1860000D01*
X+2688540Y-1860000D01*
X+2752675Y-1860000D02*
X+2765502Y-1872827D01*
X+2765502Y-1898481D01*
X+2893772Y-1885654D02*
X+2906599Y-1898481D01*
X+2957907Y-1898481D01*
X+2970734Y-1885654D01*
X+2970734Y-1872827D01*
X+2957907Y-1860000D01*
X+2906599Y-1860000D01*
X+2893772Y-1847173D01*
X+2893772Y-1834346D01*
X+2906599Y-1821519D01*
X+2957907Y-1821519D01*
X+2970734Y-1834346D01*
X+3073350Y-1898481D02*
X+2996388Y-1898481D01*
X+2996388Y-1821519D01*
X+3073350Y-1821519D01*
X+2996388Y-1860000D02*
X+3047696Y-1860000D01*
X+3175966Y-1885654D02*
X+3163139Y-1898481D01*
X+3124658Y-1898481D01*
X+3099004Y-1872827D01*
X+3099004Y-1847173D01*
X+3124658Y-1821519D01*
X+3163139Y-1821519D01*
X+3175966Y-1834346D01*
D39*
X-12547180Y+2562140D02*
X-11764860Y+2562140D01*
X-11764860Y+3471460D01*
X-12547180Y+3471460D01*
X-12547180Y+2562140D01*
D85*
X-12250000Y+3220000D02*
X-12250000Y+3220000D01*
D97*
X-12121921Y+2698538D02*
X-12190120Y+2698538D01*
X-12190120Y+2755370D01*
X-12178753Y+2766737D01*
X-12167387Y+2766737D01*
X-12156020Y+2755370D01*
X-12156020Y+2698538D01*
X-12190120Y+2789470D02*
X-12121921Y+2789470D01*
X-12156020Y+2823569D01*
X-12121921Y+2857669D01*
X-12190120Y+2857669D01*
X-12121921Y+2880402D02*
X-12190120Y+2880402D01*
X-12190120Y+2937234D01*
X-12178753Y+2948601D01*
X-12167387Y+2948601D01*
X-12156020Y+2937234D01*
X-12156020Y+2880402D01*
X-12156020Y+2937234D02*
X-12144654Y+2948601D01*
X-12121921Y+2948601D01*
X-12121921Y+3062266D02*
X-12190120Y+3062266D01*
X-12190120Y+3119098D01*
X-12178753Y+3130465D01*
X-12167387Y+3130465D01*
X-12156020Y+3119098D01*
X-12144654Y+3130465D01*
X-12133287Y+3130465D01*
X-12121921Y+3119098D01*
X-12121921Y+3062266D01*
X-12156020Y+3062266D02*
X-12156020Y+3119098D01*
X-12190120Y+3153198D02*
X-12190120Y+3221397D01*
X-12190120Y+3187297D02*
X-12121921Y+3187297D01*
X-12121921Y+3244130D02*
X-12190120Y+3244130D01*
X-12121921Y+3312329D01*
X-12190120Y+3312329D01*
D39*
X+9662840Y-517160D02*
X+9937160Y-517160D01*
X+9937160Y+11160D01*
X+9662840Y+11160D01*
X+9662840Y-517160D01*
D83*
X+9800000Y-126000D02*
X+9800000Y-126000D01*
D98*
X+9784906Y-426590D02*
X+9777358Y-419043D01*
X+9777358Y-396401D01*
X+9784906Y-388853D01*
X+9792453Y-388853D01*
X+9800000Y-396401D01*
X+9807548Y-388853D01*
X+9815095Y-388853D01*
X+9822643Y-396401D01*
X+9822643Y-419043D01*
X+9815095Y-426590D01*
X+9800000Y-411495D02*
X+9800000Y-396401D01*
X+9815095Y-373758D02*
X+9784906Y-373758D01*
X+9777358Y-366211D01*
X+9777358Y-336022D01*
X+9784906Y-328474D01*
X+9815095Y-328474D01*
X+9822643Y-336022D01*
X+9822643Y-366211D01*
X+9815095Y-373758D01*
X+9822643Y-373758D02*
X+9777358Y-328474D01*
X+9777358Y-253000D02*
X+9800000Y-253000D01*
X+9822643Y-230358D01*
X+9800000Y-207716D01*
X+9777358Y-207716D01*
X+9822643Y-192621D02*
X+9792453Y-192621D01*
X+9777358Y-177527D01*
X+9777358Y-162432D01*
X+9792453Y-147337D01*
X+9822643Y-147337D01*
X+9807548Y-192621D02*
X+9807548Y-147337D01*
X+9815095Y-86958D02*
X+9822643Y-94506D01*
X+9822643Y-117148D01*
X+9807548Y-132242D01*
X+9792453Y-132242D01*
X+9777358Y-117148D01*
X+9777358Y-94506D01*
X+9784906Y-86958D01*
D39*
X+9682840Y-1281160D02*
X+9957160Y-1281160D01*
X+9957160Y-752840D01*
X+9682840Y-752840D01*
X+9682840Y-1281160D01*
D83*
X+9820000Y-890000D02*
X+9820000Y-890000D01*
D99*
X+9859624Y-1175496D02*
X+9780376Y-1175496D01*
X+9859624Y-1096248D01*
X+9780376Y-1096248D01*
X+9780376Y-1069832D02*
X+9780376Y-990584D01*
X+9780376Y-1030208D02*
X+9859624Y-1030208D01*
X+9846416Y-884920D02*
X+9859624Y-898128D01*
X+9859624Y-937752D01*
X+9833208Y-964168D01*
X+9806792Y-964168D01*
X+9780376Y-937752D01*
X+9780376Y-898128D01*
X+9793584Y-884920D01*
D39*
X+4065840Y-2338160D02*
X+5102160Y-2338160D01*
X+5102160Y-1301840D01*
X+4065840Y-1301840D01*
X+4065840Y-2338160D01*
D85*
X+4330000Y-1820000D02*
X+4330000Y-1820000D01*
D100*
X+4238560Y-1871816D02*
X+4238560Y-1802728D01*
X+4273104Y-1768184D01*
X+4307648Y-1768184D01*
X+4342192Y-1802728D01*
X+4342192Y-1871816D01*
X+4238560Y-1837272D02*
X+4342192Y-1837272D01*
X+4480368Y-1854544D02*
X+4463096Y-1871816D01*
X+4411280Y-1871816D01*
X+4376736Y-1837272D01*
X+4376736Y-1802728D01*
X+4411280Y-1768184D01*
X+4463096Y-1768184D01*
X+4480368Y-1785456D01*
X+4670360Y-1768184D02*
X+4739448Y-1768184D01*
X+4704904Y-1768184D02*
X+4704904Y-1871816D01*
X+4670360Y-1871816D02*
X+4739448Y-1871816D01*
X+4791264Y-1871816D02*
X+4791264Y-1768184D01*
X+4894896Y-1871816D01*
X+4894896Y-1768184D01*
D39*
X+8149700Y-264780D02*
X+9394300Y-264780D01*
X+9394300Y+22240D01*
X+8149700Y+22240D01*
X+8149700Y-264780D01*
D101*
X+9280000Y-120000D02*
X+9280000Y-120000D01*
D102*
X+8634231Y-172934D02*
X+8634231Y-69607D01*
X+8703115Y-69607D01*
X+8737557Y-104049D01*
X+8737557Y-138492D01*
X+8703115Y-172934D01*
X+8634231Y-172934D01*
X+8875326Y-86828D02*
X+8858105Y-69607D01*
X+8806442Y-69607D01*
X+8789221Y-86828D01*
X+8789221Y-155713D01*
X+8806442Y-172934D01*
X+8858105Y-172934D01*
X+8875326Y-155713D01*
X+8875326Y-138492D01*
X+8858105Y-121270D01*
X+8789221Y-121270D01*
D39*
X+8165700Y-622240D02*
X+9410300Y-622240D01*
X+9410300Y-335220D01*
X+8165700Y-335220D01*
X+8165700Y-622240D01*
D101*
X+8280000Y-480000D02*
X+8280000Y-480000D01*
D102*
X+8650231Y-530394D02*
X+8650231Y-427067D01*
X+8719115Y-427067D01*
X+8753557Y-461509D01*
X+8753557Y-495952D01*
X+8719115Y-530394D01*
X+8650231Y-530394D01*
X+8891326Y-461509D02*
X+8874105Y-478730D01*
X+8822442Y-478730D01*
X+8805221Y-461509D01*
X+8805221Y-444288D01*
X+8822442Y-427067D01*
X+8874105Y-427067D01*
X+8891326Y-444288D01*
X+8891326Y-513173D01*
X+8874105Y-530394D01*
X+8822442Y-530394D01*
D39*
X+3985700Y-712240D02*
X+5230300Y-712240D01*
X+5230300Y-425220D01*
X+3985700Y-425220D01*
X+3985700Y-712240D01*
D101*
X+4100000Y-570000D02*
X+4100000Y-570000D01*
D102*
X+4470231Y-620394D02*
X+4470231Y-517067D01*
X+4539115Y-517067D01*
X+4573557Y-551509D01*
X+4573557Y-585952D01*
X+4539115Y-620394D01*
X+4470231Y-620394D01*
X+4711326Y-517067D02*
X+4625221Y-517067D01*
X+4625221Y-551509D01*
X+4694105Y-551509D01*
X+4711326Y-568730D01*
X+4711326Y-603173D01*
X+4694105Y-620394D01*
X+4642442Y-620394D01*
X+4625221Y-603173D01*
D39*
X+8739700Y+5065220D02*
X+9984300Y+5065220D01*
X+9984300Y+5352240D01*
X+8739700Y+5352240D01*
X+8739700Y+5065220D01*
D101*
X+9870000Y+5210000D02*
X+9870000Y+5210000D01*
D102*
X+9224231Y+5157066D02*
X+9224231Y+5260393D01*
X+9293115Y+5260393D01*
X+9327557Y+5225951D01*
X+9327557Y+5191508D01*
X+9293115Y+5157066D01*
X+9224231Y+5157066D01*
X+9379221Y+5260393D02*
X+9465326Y+5260393D01*
X+9465326Y+5243172D01*
X+9379221Y+5157066D01*
D39*
X+8739700Y+4685220D02*
X+9984300Y+4685220D01*
X+9984300Y+4972240D01*
X+8739700Y+4972240D01*
X+8739700Y+4685220D01*
D101*
X+9870000Y+4830000D02*
X+9870000Y+4830000D01*
D102*
X+9224231Y+4777066D02*
X+9224231Y+4880393D01*
X+9293115Y+4880393D01*
X+9327557Y+4845951D01*
X+9327557Y+4811508D01*
X+9293115Y+4777066D01*
X+9224231Y+4777066D01*
X+9396442Y+4828730D02*
X+9379221Y+4845951D01*
X+9379221Y+4863172D01*
X+9396442Y+4880393D01*
X+9448105Y+4880393D01*
X+9465326Y+4863172D01*
X+9465326Y+4845951D01*
X+9448105Y+4828730D01*
X+9396442Y+4828730D01*
X+9379221Y+4811508D01*
X+9379221Y+4794287D01*
X+9396442Y+4777066D01*
X+9448105Y+4777066D01*
X+9465326Y+4794287D01*
X+9465326Y+4811508D01*
X+9448105Y+4828730D01*
D39*
X+2555100Y+4391100D02*
X+3748900Y+4391100D01*
X+3748900Y+4568900D01*
X+2555100Y+4568900D01*
X+2555100Y+4391100D01*
D81*
X+3660000Y+4480000D02*
X+3660000Y+4480000D01*
D103*
X+3023984Y+4447996D02*
X+3023984Y+4512004D01*
X+3077324Y+4512004D01*
X+3087992Y+4501336D01*
X+3087992Y+4490668D01*
X+3077324Y+4480000D01*
X+3023984Y+4480000D01*
X+3077324Y+4480000D02*
X+3087992Y+4469332D01*
X+3087992Y+4447996D01*
X+3119996Y+4501336D02*
X+3130664Y+4512004D01*
X+3162668Y+4512004D01*
X+3173336Y+4501336D01*
X+3173336Y+4490668D01*
X+3162668Y+4480000D01*
X+3173336Y+4469332D01*
X+3173336Y+4458664D01*
X+3162668Y+4447996D01*
X+3130664Y+4447996D01*
X+3119996Y+4458664D01*
X+3141332Y+4480000D02*
X+3162668Y+4480000D01*
X+3258680Y+4501336D02*
X+3248012Y+4512004D01*
X+3216008Y+4512004D01*
X+3205340Y+4501336D01*
X+3205340Y+4458664D01*
X+3216008Y+4447996D01*
X+3248012Y+4447996D01*
X+3258680Y+4458664D01*
X+3258680Y+4469332D01*
X+3248012Y+4480000D01*
X+3205340Y+4480000D01*
D39*
X+2555100Y+3271100D02*
X+3748900Y+3271100D01*
X+3748900Y+3448900D01*
X+2555100Y+3448900D01*
X+2555100Y+3271100D01*
D81*
X+3660000Y+3360000D02*
X+3660000Y+3360000D01*
D103*
X+3023984Y+3327996D02*
X+3023984Y+3392004D01*
X+3077324Y+3392004D01*
X+3087992Y+3381336D01*
X+3087992Y+3370668D01*
X+3077324Y+3360000D01*
X+3023984Y+3360000D01*
X+3077324Y+3360000D02*
X+3087992Y+3349332D01*
X+3087992Y+3327996D01*
X+3119996Y+3381336D02*
X+3130664Y+3392004D01*
X+3162668Y+3392004D01*
X+3173336Y+3381336D01*
X+3173336Y+3370668D01*
X+3162668Y+3360000D01*
X+3173336Y+3349332D01*
X+3173336Y+3338664D01*
X+3162668Y+3327996D01*
X+3130664Y+3327996D01*
X+3119996Y+3338664D01*
X+3141332Y+3360000D02*
X+3162668Y+3360000D01*
X+3205340Y+3392004D02*
X+3258680Y+3392004D01*
X+3258680Y+3381336D01*
X+3205340Y+3327996D01*
D39*
X+2555100Y+2141100D02*
X+3748900Y+2141100D01*
X+3748900Y+2318900D01*
X+2555100Y+2318900D01*
X+2555100Y+2141100D01*
D81*
X+3660000Y+2230000D02*
X+3660000Y+2230000D01*
D103*
X+3023984Y+2197996D02*
X+3023984Y+2262004D01*
X+3077324Y+2262004D01*
X+3087992Y+2251336D01*
X+3087992Y+2240668D01*
X+3077324Y+2230000D01*
X+3023984Y+2230000D01*
X+3077324Y+2230000D02*
X+3087992Y+2219332D01*
X+3087992Y+2197996D01*
X+3119996Y+2251336D02*
X+3130664Y+2262004D01*
X+3162668Y+2262004D01*
X+3173336Y+2251336D01*
X+3173336Y+2240668D01*
X+3162668Y+2230000D01*
X+3173336Y+2219332D01*
X+3173336Y+2208664D01*
X+3162668Y+2197996D01*
X+3130664Y+2197996D01*
X+3119996Y+2208664D01*
X+3141332Y+2230000D02*
X+3162668Y+2230000D01*
X+3216008Y+2230000D02*
X+3205340Y+2240668D01*
X+3205340Y+2251336D01*
X+3216008Y+2262004D01*
X+3248012Y+2262004D01*
X+3258680Y+2251336D01*
X+3258680Y+2240668D01*
X+3248012Y+2230000D01*
X+3216008Y+2230000D01*
X+3205340Y+2219332D01*
X+3205340Y+2208664D01*
X+3216008Y+2197996D01*
X+3248012Y+2197996D01*
X+3258680Y+2208664D01*
X+3258680Y+2219332D01*
X+3248012Y+2230000D01*
D39*
X+2555100Y+971100D02*
X+3748900Y+971100D01*
X+3748900Y+1148900D01*
X+2555100Y+1148900D01*
X+2555100Y+971100D01*
D81*
X+3660000Y+1060000D02*
X+3660000Y+1060000D01*
D103*
X+3023984Y+1027996D02*
X+3023984Y+1092004D01*
X+3077324Y+1092004D01*
X+3087992Y+1081336D01*
X+3087992Y+1070668D01*
X+3077324Y+1060000D01*
X+3023984Y+1060000D01*
X+3077324Y+1060000D02*
X+3087992Y+1049332D01*
X+3087992Y+1027996D01*
X+3119996Y+1081336D02*
X+3130664Y+1092004D01*
X+3162668Y+1092004D01*
X+3173336Y+1081336D01*
X+3173336Y+1070668D01*
X+3162668Y+1060000D01*
X+3173336Y+1049332D01*
X+3173336Y+1038664D01*
X+3162668Y+1027996D01*
X+3130664Y+1027996D01*
X+3119996Y+1038664D01*
X+3141332Y+1060000D02*
X+3162668Y+1060000D01*
X+3258680Y+1070668D02*
X+3248012Y+1060000D01*
X+3216008Y+1060000D01*
X+3205340Y+1070668D01*
X+3205340Y+1081336D01*
X+3216008Y+1092004D01*
X+3248012Y+1092004D01*
X+3258680Y+1081336D01*
X+3258680Y+1038664D01*
X+3248012Y+1027996D01*
X+3216008Y+1027996D01*
D39*
X+8661100Y+4041100D02*
X+9854900Y+4041100D01*
X+9854900Y+4218900D01*
X+8661100Y+4218900D01*
X+8661100Y+4041100D01*
D81*
X+8750000Y+4130000D02*
X+8750000Y+4130000D01*
D103*
X+9129984Y+4097996D02*
X+9129984Y+4162004D01*
X+9183324Y+4162004D01*
X+9193992Y+4151336D01*
X+9193992Y+4140668D01*
X+9183324Y+4130000D01*
X+9129984Y+4130000D01*
X+9183324Y+4130000D02*
X+9193992Y+4119332D01*
X+9193992Y+4097996D01*
X+9279336Y+4119332D02*
X+9215328Y+4119332D01*
X+9258000Y+4162004D01*
X+9258000Y+4097996D01*
X+9311340Y+4151336D02*
X+9322008Y+4162004D01*
X+9354012Y+4162004D01*
X+9364680Y+4151336D01*
X+9364680Y+4140668D01*
X+9354012Y+4130000D01*
X+9364680Y+4119332D01*
X+9364680Y+4108664D01*
X+9354012Y+4097996D01*
X+9322008Y+4097996D01*
X+9311340Y+4108664D01*
X+9332676Y+4130000D02*
X+9354012Y+4130000D01*
D39*
X+8661100Y+2911100D02*
X+9854900Y+2911100D01*
X+9854900Y+3088900D01*
X+8661100Y+3088900D01*
X+8661100Y+2911100D01*
D81*
X+8750000Y+3000000D02*
X+8750000Y+3000000D01*
D103*
X+9129984Y+2967996D02*
X+9129984Y+3032004D01*
X+9183324Y+3032004D01*
X+9193992Y+3021336D01*
X+9193992Y+3010668D01*
X+9183324Y+3000000D01*
X+9129984Y+3000000D01*
X+9183324Y+3000000D02*
X+9193992Y+2989332D01*
X+9193992Y+2967996D01*
X+9279336Y+2989332D02*
X+9215328Y+2989332D01*
X+9258000Y+3032004D01*
X+9258000Y+2967996D01*
X+9364680Y+2989332D02*
X+9300672Y+2989332D01*
X+9343344Y+3032004D01*
X+9343344Y+2967996D01*
D39*
X+8661100Y+1771100D02*
X+9854900Y+1771100D01*
X+9854900Y+1948900D01*
X+8661100Y+1948900D01*
X+8661100Y+1771100D01*
D81*
X+8750000Y+1860000D02*
X+8750000Y+1860000D01*
D103*
X+9129984Y+1827996D02*
X+9129984Y+1892004D01*
X+9183324Y+1892004D01*
X+9193992Y+1881336D01*
X+9193992Y+1870668D01*
X+9183324Y+1860000D01*
X+9129984Y+1860000D01*
X+9183324Y+1860000D02*
X+9193992Y+1849332D01*
X+9193992Y+1827996D01*
X+9279336Y+1849332D02*
X+9215328Y+1849332D01*
X+9258000Y+1892004D01*
X+9258000Y+1827996D01*
X+9364680Y+1892004D02*
X+9311340Y+1892004D01*
X+9311340Y+1870668D01*
X+9354012Y+1870668D01*
X+9364680Y+1860000D01*
X+9364680Y+1838664D01*
X+9354012Y+1827996D01*
X+9322008Y+1827996D01*
X+9311340Y+1838664D01*
D39*
X+8661100Y+601100D02*
X+9854900Y+601100D01*
X+9854900Y+778900D01*
X+8661100Y+778900D01*
X+8661100Y+601100D01*
D81*
X+8750000Y+690000D02*
X+8750000Y+690000D01*
D103*
X+9129984Y+657996D02*
X+9129984Y+722004D01*
X+9183324Y+722004D01*
X+9193992Y+711336D01*
X+9193992Y+700668D01*
X+9183324Y+690000D01*
X+9129984Y+690000D01*
X+9183324Y+690000D02*
X+9193992Y+679332D01*
X+9193992Y+657996D01*
X+9279336Y+679332D02*
X+9215328Y+679332D01*
X+9258000Y+722004D01*
X+9258000Y+657996D01*
X+9364680Y+711336D02*
X+9354012Y+722004D01*
X+9322008Y+722004D01*
X+9311340Y+711336D01*
X+9311340Y+668664D01*
X+9322008Y+657996D01*
X+9354012Y+657996D01*
X+9364680Y+668664D01*
X+9364680Y+679332D01*
X+9354012Y+690000D01*
X+9311340Y+690000D01*
D39*
X+1982725Y+4764725D02*
X+3176525Y+4764725D01*
X+3176525Y+4942525D01*
X+1982725Y+4942525D01*
X+1982725Y+4764725D01*
D81*
X+2071625Y+4853625D02*
X+2071625Y+4853625D01*
D103*
X+2451609Y+4821621D02*
X+2451609Y+4885629D01*
X+2504949Y+4885629D01*
X+2515617Y+4874961D01*
X+2515617Y+4864293D01*
X+2504949Y+4853625D01*
X+2451609Y+4853625D01*
X+2504949Y+4853625D02*
X+2515617Y+4842957D01*
X+2515617Y+4821621D01*
X+2600961Y+4842957D02*
X+2536953Y+4842957D01*
X+2579625Y+4885629D01*
X+2579625Y+4821621D01*
X+2643633Y+4864293D02*
X+2664969Y+4885629D01*
X+2664969Y+4821621D01*
D39*
X+1991100Y+5041100D02*
X+3184900Y+5041100D01*
X+3184900Y+5218900D01*
X+1991100Y+5218900D01*
X+1991100Y+5041100D01*
D81*
X+2080000Y+5130000D02*
X+2080000Y+5130000D01*
D103*
X+2459984Y+5097996D02*
X+2459984Y+5162004D01*
X+2513324Y+5162004D01*
X+2523992Y+5151336D01*
X+2523992Y+5140668D01*
X+2513324Y+5130000D01*
X+2459984Y+5130000D01*
X+2513324Y+5130000D02*
X+2523992Y+5119332D01*
X+2523992Y+5097996D01*
X+2609336Y+5119332D02*
X+2545328Y+5119332D01*
X+2588000Y+5162004D01*
X+2588000Y+5097996D01*
X+2641340Y+5151336D02*
X+2652008Y+5162004D01*
X+2684012Y+5162004D01*
X+2694680Y+5151336D01*
X+2694680Y+5140668D01*
X+2684012Y+5130000D01*
X+2652008Y+5130000D01*
X+2641340Y+5119332D01*
X+2641340Y+5097996D01*
X+2694680Y+5097996D01*
D39*
X-5304160Y+4878340D02*
X-4267840Y+4878340D01*
X-4267840Y+5914660D01*
X-5304160Y+5914660D01*
X-5304160Y+4878340D01*
D83*
X-4532000Y+5460000D02*
X-4532000Y+5460000D01*
D104*
X-5096896Y+5318776D02*
X-5096896Y+5474224D01*
X-4967356Y+5474224D01*
X-4941448Y+5448316D01*
X-4941448Y+5422408D01*
X-4967356Y+5396500D01*
X-5096896Y+5396500D01*
X-4967356Y+5396500D02*
X-4941448Y+5370592D01*
X-4941448Y+5318776D01*
X-4889632Y+5474224D02*
X-4889632Y+5396500D01*
X-4811908Y+5318776D01*
X-4734184Y+5396500D01*
X-4734184Y+5474224D01*
X-4630552Y+5422408D02*
X-4578736Y+5474224D01*
X-4578736Y+5318776D01*
D39*
X-5308160Y+3524340D02*
X-4271840Y+3524340D01*
X-4271840Y+4560660D01*
X-5308160Y+4560660D01*
X-5308160Y+3524340D01*
D83*
X-4536000Y+4106000D02*
X-4536000Y+4106000D01*
D104*
X-5100896Y+3964776D02*
X-5100896Y+4120224D01*
X-4971356Y+4120224D01*
X-4945448Y+4094316D01*
X-4945448Y+4068408D01*
X-4971356Y+4042500D01*
X-5100896Y+4042500D01*
X-4971356Y+4042500D02*
X-4945448Y+4016592D01*
X-4945448Y+3964776D01*
X-4893632Y+4120224D02*
X-4893632Y+4042500D01*
X-4815908Y+3964776D01*
X-4738184Y+4042500D01*
X-4738184Y+4120224D01*
X-4660460Y+4094316D02*
X-4634552Y+4120224D01*
X-4556828Y+4120224D01*
X-4530920Y+4094316D01*
X-4530920Y+4068408D01*
X-4556828Y+4042500D01*
X-4634552Y+4042500D01*
X-4660460Y+4016592D01*
X-4660460Y+3964776D01*
X-4530920Y+3964776D01*
D105*
X-6965000Y+1584000D02*
X-6033000Y+1584000D01*
X-6033000Y+2122000D01*
X-6965000Y+2122000D01*
X-6965000Y+1584000D01*
D106*
X-6118000Y+1726000D02*
X-6118000Y+1726000D01*
D107*
X-6748866Y+1946700D02*
X-6748866Y+1790533D01*
X-6717633Y+1759300D01*
X-6592700Y+1759300D01*
X-6561467Y+1790533D01*
X-6561467Y+1946700D01*
X-6311601Y+1821767D02*
X-6499000Y+1821767D01*
X-6374067Y+1946700D01*
X-6374067Y+1759300D01*
D105*
X-6965000Y+2324000D02*
X-6033000Y+2324000D01*
X-6033000Y+2862000D01*
X-6965000Y+2862000D01*
X-6965000Y+2324000D01*
D106*
X-6118000Y+2466000D02*
X-6118000Y+2466000D01*
D107*
X-6748866Y+2686700D02*
X-6748866Y+2530533D01*
X-6717633Y+2499300D01*
X-6592700Y+2499300D01*
X-6561467Y+2530533D01*
X-6561467Y+2686700D01*
X-6311601Y+2686700D02*
X-6467767Y+2686700D01*
X-6467767Y+2624233D01*
X-6342834Y+2624233D01*
X-6311601Y+2593000D01*
X-6311601Y+2530533D01*
X-6342834Y+2499300D01*
X-6436534Y+2499300D01*
X-6467767Y+2530533D01*
D39*
X-5823500Y+2194840D02*
X-4934500Y+2194840D01*
X-4934500Y+2977160D01*
X-5823500Y+2977160D01*
X-5823500Y+2194840D01*
D108*
X-5645700Y+2519325D02*
X-5645700Y+2652675D01*
X-5534575Y+2652675D01*
X-5512350Y+2630450D01*
X-5512350Y+2608225D01*
X-5534575Y+2586000D01*
X-5512350Y+2563775D01*
X-5512350Y+2541550D01*
X-5534575Y+2519325D01*
X-5645700Y+2519325D01*
X-5645700Y+2586000D02*
X-5534575Y+2586000D01*
X-5467900Y+2519325D02*
X-5467900Y+2652675D01*
X-5356775Y+2652675D01*
X-5334550Y+2630450D01*
X-5334550Y+2608225D01*
X-5356775Y+2586000D01*
X-5467900Y+2586000D01*
X-5356775Y+2586000D02*
X-5334550Y+2563775D01*
X-5334550Y+2519325D01*
X-5245650Y+2608225D02*
X-5201200Y+2652675D01*
X-5201200Y+2519325D01*
D39*
X-5835500Y+1254840D02*
X-4946500Y+1254840D01*
X-4946500Y+2037160D01*
X-5835500Y+2037160D01*
X-5835500Y+1254840D01*
D108*
X-5657700Y+1579325D02*
X-5657700Y+1712675D01*
X-5546575Y+1712675D01*
X-5524350Y+1690450D01*
X-5524350Y+1668225D01*
X-5546575Y+1646000D01*
X-5524350Y+1623775D01*
X-5524350Y+1601550D01*
X-5546575Y+1579325D01*
X-5657700Y+1579325D01*
X-5657700Y+1646000D02*
X-5546575Y+1646000D01*
X-5479900Y+1579325D02*
X-5479900Y+1712675D01*
X-5368775Y+1712675D01*
X-5346550Y+1690450D01*
X-5346550Y+1668225D01*
X-5368775Y+1646000D01*
X-5479900Y+1646000D01*
X-5368775Y+1646000D02*
X-5346550Y+1623775D01*
X-5346550Y+1579325D01*
X-5279875Y+1690450D02*
X-5257650Y+1712675D01*
X-5190975Y+1712675D01*
X-5168750Y+1690450D01*
X-5168750Y+1668225D01*
X-5190975Y+1646000D01*
X-5257650Y+1646000D01*
X-5279875Y+1623775D01*
X-5279875Y+1579325D01*
X-5168750Y+1579325D01*
D39*
X-6858900Y+3015100D02*
X-6681100Y+3015100D01*
X-6681100Y+4208900D01*
X-6858900Y+4208900D01*
X-6858900Y+3015100D01*
D81*
X-6770000Y+4120000D02*
X-6770000Y+4120000D01*
D103*
X-6737996Y+3526656D02*
X-6802004Y+3526656D01*
X-6802004Y+3579996D01*
X-6791336Y+3590664D01*
X-6780668Y+3590664D01*
X-6770000Y+3579996D01*
X-6770000Y+3526656D01*
X-6770000Y+3579996D02*
X-6759332Y+3590664D01*
X-6737996Y+3590664D01*
X-6791336Y+3676008D02*
X-6802004Y+3665340D01*
X-6802004Y+3633336D01*
X-6791336Y+3622668D01*
X-6748664Y+3622668D01*
X-6737996Y+3633336D01*
X-6737996Y+3665340D01*
X-6748664Y+3676008D01*
X-6759332Y+3676008D01*
X-6770000Y+3665340D01*
X-6770000Y+3622668D01*
D39*
X-6528900Y+3001100D02*
X-6351100Y+3001100D01*
X-6351100Y+4194900D01*
X-6528900Y+4194900D01*
X-6528900Y+3001100D01*
D81*
X-6440000Y+3090000D02*
X-6440000Y+3090000D01*
D103*
X-6407996Y+3512656D02*
X-6472004Y+3512656D01*
X-6472004Y+3565996D01*
X-6461336Y+3576664D01*
X-6450668Y+3576664D01*
X-6440000Y+3565996D01*
X-6440000Y+3512656D01*
X-6440000Y+3565996D02*
X-6429332Y+3576664D01*
X-6407996Y+3576664D01*
X-6472004Y+3608668D02*
X-6472004Y+3662008D01*
X-6461336Y+3662008D01*
X-6407996Y+3608668D01*
D39*
X-6188900Y+3001100D02*
X-6011100Y+3001100D01*
X-6011100Y+4194900D01*
X-6188900Y+4194900D01*
X-6188900Y+3001100D01*
D81*
X-6100000Y+3090000D02*
X-6100000Y+3090000D01*
D103*
X-6067996Y+3512656D02*
X-6132004Y+3512656D01*
X-6132004Y+3565996D01*
X-6121336Y+3576664D01*
X-6110668Y+3576664D01*
X-6100000Y+3565996D01*
X-6100000Y+3512656D01*
X-6100000Y+3565996D02*
X-6089332Y+3576664D01*
X-6067996Y+3576664D01*
X-6100000Y+3619336D02*
X-6110668Y+3608668D01*
X-6121336Y+3608668D01*
X-6132004Y+3619336D01*
X-6132004Y+3651340D01*
X-6121336Y+3662008D01*
X-6110668Y+3662008D01*
X-6100000Y+3651340D01*
X-6100000Y+3619336D01*
X-6089332Y+3608668D01*
X-6078664Y+3608668D01*
X-6067996Y+3619336D01*
X-6067996Y+3651340D01*
X-6078664Y+3662008D01*
X-6089332Y+3662008D01*
X-6100000Y+3651340D01*
D39*
X-7168900Y+701100D02*
X-5975100Y+701100D01*
X-5975100Y+878900D01*
X-7168900Y+878900D01*
X-7168900Y+701100D01*
D81*
X-7080000Y+790000D02*
X-7080000Y+790000D01*
D103*
X-6700016Y+757996D02*
X-6700016Y+822004D01*
X-6646676Y+822004D01*
X-6636008Y+811336D01*
X-6636008Y+800668D01*
X-6646676Y+790000D01*
X-6700016Y+790000D01*
X-6646676Y+790000D02*
X-6636008Y+779332D01*
X-6636008Y+757996D01*
X-6593336Y+800668D02*
X-6572000Y+822004D01*
X-6572000Y+757996D01*
X-6518660Y+811336D02*
X-6507992Y+822004D01*
X-6475988Y+822004D01*
X-6465320Y+811336D01*
X-6465320Y+800668D01*
X-6475988Y+790000D01*
X-6507992Y+790000D01*
X-6518660Y+779332D01*
X-6518660Y+757996D01*
X-6465320Y+757996D01*
D39*
X-7164900Y-198900D02*
X-5971100Y-198900D01*
X-5971100Y-21100D01*
X-7164900Y-21100D01*
X-7164900Y-198900D01*
D81*
X-7076000Y-110000D02*
X-7076000Y-110000D01*
D103*
X-6696016Y-142004D02*
X-6696016Y-77996D01*
X-6642676Y-77996D01*
X-6632008Y-88664D01*
X-6632008Y-99332D01*
X-6642676Y-110000D01*
X-6696016Y-110000D01*
X-6642676Y-110000D02*
X-6632008Y-120668D01*
X-6632008Y-142004D01*
X-6589336Y-99332D02*
X-6568000Y-77996D01*
X-6568000Y-142004D01*
X-6514660Y-88664D02*
X-6503992Y-77996D01*
X-6471988Y-77996D01*
X-6461320Y-88664D01*
X-6461320Y-99332D01*
X-6471988Y-110000D01*
X-6461320Y-120668D01*
X-6461320Y-131336D01*
X-6471988Y-142004D01*
X-6503992Y-142004D01*
X-6514660Y-131336D01*
X-6493324Y-110000D02*
X-6471988Y-110000D01*
D39*
X-7168900Y+101100D02*
X-5975100Y+101100D01*
X-5975100Y+278900D01*
X-7168900Y+278900D01*
X-7168900Y+101100D01*
D81*
X-7080000Y+190000D02*
X-7080000Y+190000D01*
D103*
X-6700016Y+157996D02*
X-6700016Y+222004D01*
X-6646676Y+222004D01*
X-6636008Y+211336D01*
X-6636008Y+200668D01*
X-6646676Y+190000D01*
X-6700016Y+190000D01*
X-6646676Y+190000D02*
X-6636008Y+179332D01*
X-6636008Y+157996D01*
X-6593336Y+200668D02*
X-6572000Y+222004D01*
X-6572000Y+157996D01*
X-6465320Y+179332D02*
X-6529328Y+179332D01*
X-6486656Y+222004D01*
X-6486656Y+157996D01*
D39*
X-5794900Y+531100D02*
X-4601100Y+531100D01*
X-4601100Y+708900D01*
X-5794900Y+708900D01*
X-5794900Y+531100D01*
D81*
X-4690000Y+620000D02*
X-4690000Y+620000D01*
D103*
X-5283344Y+587996D02*
X-5283344Y+652004D01*
X-5230004Y+652004D01*
X-5219336Y+641336D01*
X-5219336Y+630668D01*
X-5230004Y+620000D01*
X-5283344Y+620000D01*
X-5230004Y+620000D02*
X-5219336Y+609332D01*
X-5219336Y+587996D01*
X-5176664Y+630668D02*
X-5155328Y+652004D01*
X-5155328Y+587996D01*
D39*
X-7154900Y+411100D02*
X-5961100Y+411100D01*
X-5961100Y+588900D01*
X-7154900Y+588900D01*
X-7154900Y+411100D01*
D81*
X-7066000Y+500000D02*
X-7066000Y+500000D01*
D103*
X-6643344Y+467996D02*
X-6643344Y+532004D01*
X-6590004Y+532004D01*
X-6579336Y+521336D01*
X-6579336Y+510668D01*
X-6590004Y+500000D01*
X-6643344Y+500000D01*
X-6590004Y+500000D02*
X-6579336Y+489332D01*
X-6579336Y+467996D01*
X-6547332Y+521336D02*
X-6536664Y+532004D01*
X-6504660Y+532004D01*
X-6493992Y+521336D01*
X-6493992Y+510668D01*
X-6504660Y+500000D01*
X-6536664Y+500000D01*
X-6547332Y+489332D01*
X-6547332Y+467996D01*
X-6493992Y+467996D01*
D39*
X-7154900Y+1011100D02*
X-5961100Y+1011100D01*
X-5961100Y+1188900D01*
X-7154900Y+1188900D01*
X-7154900Y+1011100D01*
D81*
X-7066000Y+1100000D02*
X-7066000Y+1100000D01*
D103*
X-6643344Y+1067996D02*
X-6643344Y+1132004D01*
X-6590004Y+1132004D01*
X-6579336Y+1121336D01*
X-6579336Y+1110668D01*
X-6590004Y+1100000D01*
X-6643344Y+1100000D01*
X-6590004Y+1100000D02*
X-6579336Y+1089332D01*
X-6579336Y+1067996D01*
X-6547332Y+1121336D02*
X-6536664Y+1132004D01*
X-6504660Y+1132004D01*
X-6493992Y+1121336D01*
X-6493992Y+1110668D01*
X-6504660Y+1100000D01*
X-6493992Y+1089332D01*
X-6493992Y+1078664D01*
X-6504660Y+1067996D01*
X-6536664Y+1067996D01*
X-6547332Y+1078664D01*
X-6525996Y+1100000D02*
X-6504660Y+1100000D01*
D39*
X-8908900Y+2345100D02*
X-8731100Y+2345100D01*
X-8731100Y+3538900D01*
X-8908900Y+3538900D01*
X-8908900Y+2345100D01*
D81*
X-8820000Y+3450000D02*
X-8820000Y+3450000D01*
D103*
X-8787996Y+2856656D02*
X-8852004Y+2856656D01*
X-8852004Y+2909996D01*
X-8841336Y+2920664D01*
X-8830668Y+2920664D01*
X-8820000Y+2909996D01*
X-8820000Y+2856656D01*
X-8820000Y+2909996D02*
X-8809332Y+2920664D01*
X-8787996Y+2920664D01*
X-8809332Y+3006008D02*
X-8809332Y+2942000D01*
X-8852004Y+2984672D01*
X-8787996Y+2984672D01*
D39*
X-7154900Y+1291100D02*
X-5961100Y+1291100D01*
X-5961100Y+1468900D01*
X-7154900Y+1468900D01*
X-7154900Y+1291100D01*
D81*
X-7066000Y+1380000D02*
X-7066000Y+1380000D01*
D103*
X-6643344Y+1347996D02*
X-6643344Y+1412004D01*
X-6590004Y+1412004D01*
X-6579336Y+1401336D01*
X-6579336Y+1390668D01*
X-6590004Y+1380000D01*
X-6643344Y+1380000D01*
X-6590004Y+1380000D02*
X-6579336Y+1369332D01*
X-6579336Y+1347996D01*
X-6493992Y+1412004D02*
X-6547332Y+1412004D01*
X-6547332Y+1390668D01*
X-6504660Y+1390668D01*
X-6493992Y+1380000D01*
X-6493992Y+1358664D01*
X-6504660Y+1347996D01*
X-6536664Y+1347996D01*
X-6547332Y+1358664D01*
D39*
X-7258900Y+1985100D02*
X-7081100Y+1985100D01*
X-7081100Y+3178900D01*
X-7258900Y+3178900D01*
X-7258900Y+1985100D01*
D81*
X-7170000Y+2074000D02*
X-7170000Y+2074000D01*
D103*
X-7137996Y+2496656D02*
X-7202004Y+2496656D01*
X-7202004Y+2549996D01*
X-7191336Y+2560664D01*
X-7180668Y+2560664D01*
X-7170000Y+2549996D01*
X-7170000Y+2496656D01*
X-7170000Y+2549996D02*
X-7159332Y+2560664D01*
X-7137996Y+2560664D01*
X-7180668Y+2646008D02*
X-7170000Y+2635340D01*
X-7170000Y+2603336D01*
X-7180668Y+2592668D01*
X-7191336Y+2592668D01*
X-7202004Y+2603336D01*
X-7202004Y+2635340D01*
X-7191336Y+2646008D01*
X-7148664Y+2646008D01*
X-7137996Y+2635340D01*
X-7137996Y+2603336D01*
D39*
X-4288900Y+1231100D02*
X-4111100Y+1231100D01*
X-4111100Y+2424900D01*
X-4288900Y+2424900D01*
X-4288900Y+1231100D01*
D81*
X-4200000Y+1320000D02*
X-4200000Y+1320000D01*
D103*
X-4167996Y+1699984D02*
X-4232004Y+1699984D01*
X-4232004Y+1753324D01*
X-4221336Y+1763992D01*
X-4210668Y+1763992D01*
X-4200000Y+1753324D01*
X-4200000Y+1699984D01*
X-4200000Y+1753324D02*
X-4189332Y+1763992D01*
X-4167996Y+1763992D01*
X-4210668Y+1806664D02*
X-4232004Y+1828000D01*
X-4167996Y+1828000D01*
X-4232004Y+1934680D02*
X-4232004Y+1881340D01*
X-4210668Y+1881340D01*
X-4210668Y+1924012D01*
X-4200000Y+1934680D01*
X-4178664Y+1934680D01*
X-4167996Y+1924012D01*
X-4167996Y+1892008D01*
X-4178664Y+1881340D01*
D39*
X-4008900Y+1245100D02*
X-3831100Y+1245100D01*
X-3831100Y+2438900D01*
X-4008900Y+2438900D01*
X-4008900Y+1245100D01*
D81*
X-3920000Y+1334000D02*
X-3920000Y+1334000D01*
D103*
X-3887996Y+1713984D02*
X-3952004Y+1713984D01*
X-3952004Y+1767324D01*
X-3941336Y+1777992D01*
X-3930668Y+1777992D01*
X-3920000Y+1767324D01*
X-3920000Y+1713984D01*
X-3920000Y+1767324D02*
X-3909332Y+1777992D01*
X-3887996Y+1777992D01*
X-3930668Y+1820664D02*
X-3952004Y+1842000D01*
X-3887996Y+1842000D01*
X-3941336Y+1948680D02*
X-3952004Y+1938012D01*
X-3952004Y+1906008D01*
X-3941336Y+1895340D01*
X-3898664Y+1895340D01*
X-3887996Y+1906008D01*
X-3887996Y+1938012D01*
X-3898664Y+1948680D01*
X-3909332Y+1948680D01*
X-3920000Y+1938012D01*
X-3920000Y+1895340D01*
D39*
X-5568900Y+3165100D02*
X-5391100Y+3165100D01*
X-5391100Y+4358900D01*
X-5568900Y+4358900D01*
X-5568900Y+3165100D01*
D81*
X-5480000Y+4270000D02*
X-5480000Y+4270000D01*
D103*
X-5447996Y+3633984D02*
X-5512004Y+3633984D01*
X-5512004Y+3687324D01*
X-5501336Y+3697992D01*
X-5490668Y+3697992D01*
X-5480000Y+3687324D01*
X-5480000Y+3633984D01*
X-5480000Y+3687324D02*
X-5469332Y+3697992D01*
X-5447996Y+3697992D01*
X-5490668Y+3740664D02*
X-5512004Y+3762000D01*
X-5447996Y+3762000D01*
X-5512004Y+3815340D02*
X-5512004Y+3868680D01*
X-5501336Y+3868680D01*
X-5447996Y+3815340D01*
D39*
X-4118900Y+4805100D02*
X-3941100Y+4805100D01*
X-3941100Y+5998900D01*
X-4118900Y+5998900D01*
X-4118900Y+4805100D01*
D81*
X-4030000Y+4894000D02*
X-4030000Y+4894000D01*
D103*
X-3997996Y+5273984D02*
X-4062004Y+5273984D01*
X-4062004Y+5327324D01*
X-4051336Y+5337992D01*
X-4040668Y+5337992D01*
X-4030000Y+5327324D01*
X-4030000Y+5273984D01*
X-4030000Y+5327324D02*
X-4019332Y+5337992D01*
X-3997996Y+5337992D01*
X-4040668Y+5380664D02*
X-4062004Y+5402000D01*
X-3997996Y+5402000D01*
X-4030000Y+5466008D02*
X-4040668Y+5455340D01*
X-4051336Y+5455340D01*
X-4062004Y+5466008D01*
X-4062004Y+5498012D01*
X-4051336Y+5508680D01*
X-4040668Y+5508680D01*
X-4030000Y+5498012D01*
X-4030000Y+5466008D01*
X-4019332Y+5455340D01*
X-4008664Y+5455340D01*
X-3997996Y+5466008D01*
X-3997996Y+5498012D01*
X-4008664Y+5508680D01*
X-4019332Y+5508680D01*
X-4030000Y+5498012D01*
D39*
X-3778900Y+5701100D02*
X-2585100Y+5701100D01*
X-2585100Y+5878900D01*
X-3778900Y+5878900D01*
X-3778900Y+5701100D01*
D81*
X-3690000Y+5790000D02*
X-3690000Y+5790000D01*
D103*
X-3310016Y+5757996D02*
X-3310016Y+5822004D01*
X-3256676Y+5822004D01*
X-3246008Y+5811336D01*
X-3246008Y+5800668D01*
X-3256676Y+5790000D01*
X-3310016Y+5790000D01*
X-3256676Y+5790000D02*
X-3246008Y+5779332D01*
X-3246008Y+5757996D01*
X-3203336Y+5800668D02*
X-3182000Y+5822004D01*
X-3182000Y+5757996D01*
X-3075320Y+5800668D02*
X-3085988Y+5790000D01*
X-3117992Y+5790000D01*
X-3128660Y+5800668D01*
X-3128660Y+5811336D01*
X-3117992Y+5822004D01*
X-3085988Y+5822004D01*
X-3075320Y+5811336D01*
X-3075320Y+5768664D01*
X-3085988Y+5757996D01*
X-3117992Y+5757996D01*
D39*
X-3778900Y+5431100D02*
X-2585100Y+5431100D01*
X-2585100Y+5608900D01*
X-3778900Y+5608900D01*
X-3778900Y+5431100D01*
D81*
X-2674000Y+5520000D02*
X-2674000Y+5520000D01*
D103*
X-3310016Y+5487996D02*
X-3310016Y+5552004D01*
X-3256676Y+5552004D01*
X-3246008Y+5541336D01*
X-3246008Y+5530668D01*
X-3256676Y+5520000D01*
X-3310016Y+5520000D01*
X-3256676Y+5520000D02*
X-3246008Y+5509332D01*
X-3246008Y+5487996D01*
X-3214004Y+5541336D02*
X-3203336Y+5552004D01*
X-3171332Y+5552004D01*
X-3160664Y+5541336D01*
X-3160664Y+5530668D01*
X-3171332Y+5520000D01*
X-3203336Y+5520000D01*
X-3214004Y+5509332D01*
X-3214004Y+5487996D01*
X-3160664Y+5487996D01*
X-3139328Y+5498664D02*
X-3139328Y+5541336D01*
X-3128660Y+5552004D01*
X-3085988Y+5552004D01*
X-3075320Y+5541336D01*
X-3075320Y+5498664D01*
X-3085988Y+5487996D01*
X-3128660Y+5487996D01*
X-3139328Y+5498664D01*
X-3139328Y+5487996D02*
X-3075320Y+5552004D01*
D39*
X-3778900Y+5151100D02*
X-2585100Y+5151100D01*
X-2585100Y+5328900D01*
X-3778900Y+5328900D01*
X-3778900Y+5151100D01*
D81*
X-2674000Y+5240000D02*
X-2674000Y+5240000D01*
D103*
X-3310016Y+5207996D02*
X-3310016Y+5272004D01*
X-3256676Y+5272004D01*
X-3246008Y+5261336D01*
X-3246008Y+5250668D01*
X-3256676Y+5240000D01*
X-3310016Y+5240000D01*
X-3256676Y+5240000D02*
X-3246008Y+5229332D01*
X-3246008Y+5207996D01*
X-3214004Y+5261336D02*
X-3203336Y+5272004D01*
X-3171332Y+5272004D01*
X-3160664Y+5261336D01*
X-3160664Y+5250668D01*
X-3171332Y+5240000D01*
X-3203336Y+5240000D01*
X-3214004Y+5229332D01*
X-3214004Y+5207996D01*
X-3160664Y+5207996D01*
X-3117992Y+5250668D02*
X-3096656Y+5272004D01*
X-3096656Y+5207996D01*
D39*
X-3784900Y+4881100D02*
X-2591100Y+4881100D01*
X-2591100Y+5058900D01*
X-3784900Y+5058900D01*
X-3784900Y+4881100D01*
D81*
X-2680000Y+4970000D02*
X-2680000Y+4970000D01*
D103*
X-3316016Y+4937996D02*
X-3316016Y+5002004D01*
X-3262676Y+5002004D01*
X-3252008Y+4991336D01*
X-3252008Y+4980668D01*
X-3262676Y+4970000D01*
X-3316016Y+4970000D01*
X-3262676Y+4970000D02*
X-3252008Y+4959332D01*
X-3252008Y+4937996D01*
X-3220004Y+4991336D02*
X-3209336Y+5002004D01*
X-3177332Y+5002004D01*
X-3166664Y+4991336D01*
X-3166664Y+4980668D01*
X-3177332Y+4970000D01*
X-3209336Y+4970000D01*
X-3220004Y+4959332D01*
X-3220004Y+4937996D01*
X-3166664Y+4937996D01*
X-3134660Y+4991336D02*
X-3123992Y+5002004D01*
X-3091988Y+5002004D01*
X-3081320Y+4991336D01*
X-3081320Y+4980668D01*
X-3091988Y+4970000D01*
X-3123992Y+4970000D01*
X-3134660Y+4959332D01*
X-3134660Y+4937996D01*
X-3081320Y+4937996D01*
D39*
X-3784900Y+4571100D02*
X-2591100Y+4571100D01*
X-2591100Y+4748900D01*
X-3784900Y+4748900D01*
X-3784900Y+4571100D01*
D81*
X-2680000Y+4660000D02*
X-2680000Y+4660000D01*
D103*
X-3316016Y+4627996D02*
X-3316016Y+4692004D01*
X-3262676Y+4692004D01*
X-3252008Y+4681336D01*
X-3252008Y+4670668D01*
X-3262676Y+4660000D01*
X-3316016Y+4660000D01*
X-3262676Y+4660000D02*
X-3252008Y+4649332D01*
X-3252008Y+4627996D01*
X-3220004Y+4681336D02*
X-3209336Y+4692004D01*
X-3177332Y+4692004D01*
X-3166664Y+4681336D01*
X-3166664Y+4670668D01*
X-3177332Y+4660000D01*
X-3209336Y+4660000D01*
X-3220004Y+4649332D01*
X-3220004Y+4627996D01*
X-3166664Y+4627996D01*
X-3134660Y+4681336D02*
X-3123992Y+4692004D01*
X-3091988Y+4692004D01*
X-3081320Y+4681336D01*
X-3081320Y+4670668D01*
X-3091988Y+4660000D01*
X-3081320Y+4649332D01*
X-3081320Y+4638664D01*
X-3091988Y+4627996D01*
X-3123992Y+4627996D01*
X-3134660Y+4638664D01*
X-3113324Y+4660000D02*
X-3091988Y+4660000D01*
D39*
X-3784900Y+3681100D02*
X-2591100Y+3681100D01*
X-2591100Y+3858900D01*
X-3784900Y+3858900D01*
X-3784900Y+3681100D01*
D81*
X-2680000Y+3770000D02*
X-2680000Y+3770000D01*
D103*
X-3316016Y+3737996D02*
X-3316016Y+3802004D01*
X-3262676Y+3802004D01*
X-3252008Y+3791336D01*
X-3252008Y+3780668D01*
X-3262676Y+3770000D01*
X-3316016Y+3770000D01*
X-3262676Y+3770000D02*
X-3252008Y+3759332D01*
X-3252008Y+3737996D01*
X-3220004Y+3791336D02*
X-3209336Y+3802004D01*
X-3177332Y+3802004D01*
X-3166664Y+3791336D01*
X-3166664Y+3780668D01*
X-3177332Y+3770000D01*
X-3209336Y+3770000D01*
X-3220004Y+3759332D01*
X-3220004Y+3737996D01*
X-3166664Y+3737996D01*
X-3081320Y+3759332D02*
X-3145328Y+3759332D01*
X-3102656Y+3802004D01*
X-3102656Y+3737996D01*
D39*
X-3774900Y+3981100D02*
X-2581100Y+3981100D01*
X-2581100Y+4158900D01*
X-3774900Y+4158900D01*
X-3774900Y+3981100D01*
D81*
X-2670000Y+4070000D02*
X-2670000Y+4070000D01*
D103*
X-3306016Y+4037996D02*
X-3306016Y+4102004D01*
X-3252676Y+4102004D01*
X-3242008Y+4091336D01*
X-3242008Y+4080668D01*
X-3252676Y+4070000D01*
X-3306016Y+4070000D01*
X-3252676Y+4070000D02*
X-3242008Y+4059332D01*
X-3242008Y+4037996D01*
X-3210004Y+4091336D02*
X-3199336Y+4102004D01*
X-3167332Y+4102004D01*
X-3156664Y+4091336D01*
X-3156664Y+4080668D01*
X-3167332Y+4070000D01*
X-3199336Y+4070000D01*
X-3210004Y+4059332D01*
X-3210004Y+4037996D01*
X-3156664Y+4037996D01*
X-3071320Y+4102004D02*
X-3124660Y+4102004D01*
X-3124660Y+4080668D01*
X-3081988Y+4080668D01*
X-3071320Y+4070000D01*
X-3071320Y+4048664D01*
X-3081988Y+4037996D01*
X-3113992Y+4037996D01*
X-3124660Y+4048664D01*
D39*
X-4598900Y+1225100D02*
X-4421100Y+1225100D01*
X-4421100Y+2418900D01*
X-4598900Y+2418900D01*
X-4598900Y+1225100D01*
D81*
X-4510000Y+1314000D02*
X-4510000Y+1314000D01*
D103*
X-4477996Y+1693984D02*
X-4542004Y+1693984D01*
X-4542004Y+1747324D01*
X-4531336Y+1757992D01*
X-4520668Y+1757992D01*
X-4510000Y+1747324D01*
X-4510000Y+1693984D01*
X-4510000Y+1747324D02*
X-4499332Y+1757992D01*
X-4477996Y+1757992D01*
X-4531336Y+1789996D02*
X-4542004Y+1800664D01*
X-4542004Y+1832668D01*
X-4531336Y+1843336D01*
X-4520668Y+1843336D01*
X-4510000Y+1832668D01*
X-4510000Y+1800664D01*
X-4499332Y+1789996D01*
X-4477996Y+1789996D01*
X-4477996Y+1843336D01*
X-4531336Y+1928680D02*
X-4542004Y+1918012D01*
X-4542004Y+1886008D01*
X-4531336Y+1875340D01*
X-4488664Y+1875340D01*
X-4477996Y+1886008D01*
X-4477996Y+1918012D01*
X-4488664Y+1928680D01*
X-4499332Y+1928680D01*
X-4510000Y+1918012D01*
X-4510000Y+1875340D01*
D39*
X-844900Y+5601100D02*
X+348900Y+5601100D01*
X+348900Y+5778900D01*
X-844900Y+5778900D01*
X-844900Y+5601100D01*
D81*
X+260000Y+5690000D02*
X+260000Y+5690000D01*
D103*
X-376016Y+5657996D02*
X-376016Y+5722004D01*
X-322676Y+5722004D01*
X-312008Y+5711336D01*
X-312008Y+5700668D01*
X-322676Y+5690000D01*
X-376016Y+5690000D01*
X-322676Y+5690000D02*
X-312008Y+5679332D01*
X-312008Y+5657996D01*
X-280004Y+5711336D02*
X-269336Y+5722004D01*
X-237332Y+5722004D01*
X-226664Y+5711336D01*
X-226664Y+5700668D01*
X-237332Y+5690000D01*
X-269336Y+5690000D01*
X-280004Y+5679332D01*
X-280004Y+5657996D01*
X-226664Y+5657996D01*
X-194660Y+5722004D02*
X-141320Y+5722004D01*
X-141320Y+5711336D01*
X-194660Y+5657996D01*
D39*
X-1228900Y+4241100D02*
X-1051100Y+4241100D01*
X-1051100Y+5434900D01*
X-1228900Y+5434900D01*
X-1228900Y+4241100D01*
D81*
X-1140000Y+4330000D02*
X-1140000Y+4330000D01*
D103*
X-1107996Y+4709984D02*
X-1172004Y+4709984D01*
X-1172004Y+4763324D01*
X-1161336Y+4773992D01*
X-1150668Y+4773992D01*
X-1140000Y+4763324D01*
X-1140000Y+4709984D01*
X-1140000Y+4763324D02*
X-1129332Y+4773992D01*
X-1107996Y+4773992D01*
X-1161336Y+4805996D02*
X-1172004Y+4816664D01*
X-1172004Y+4848668D01*
X-1161336Y+4859336D01*
X-1150668Y+4859336D01*
X-1140000Y+4848668D01*
X-1140000Y+4816664D01*
X-1129332Y+4805996D01*
X-1107996Y+4805996D01*
X-1107996Y+4859336D01*
X-1140000Y+4902008D02*
X-1150668Y+4891340D01*
X-1161336Y+4891340D01*
X-1172004Y+4902008D01*
X-1172004Y+4934012D01*
X-1161336Y+4944680D01*
X-1150668Y+4944680D01*
X-1140000Y+4934012D01*
X-1140000Y+4902008D01*
X-1129332Y+4891340D01*
X-1118664Y+4891340D01*
X-1107996Y+4902008D01*
X-1107996Y+4934012D01*
X-1118664Y+4944680D01*
X-1129332Y+4944680D01*
X-1140000Y+4934012D01*
D39*
X-844900Y+5361100D02*
X+348900Y+5361100D01*
X+348900Y+5538900D01*
X-844900Y+5538900D01*
X-844900Y+5361100D01*
D81*
X+260000Y+5450000D02*
X+260000Y+5450000D01*
D103*
X-376016Y+5417996D02*
X-376016Y+5482004D01*
X-322676Y+5482004D01*
X-312008Y+5471336D01*
X-312008Y+5460668D01*
X-322676Y+5450000D01*
X-376016Y+5450000D01*
X-322676Y+5450000D02*
X-312008Y+5439332D01*
X-312008Y+5417996D01*
X-280004Y+5471336D02*
X-269336Y+5482004D01*
X-237332Y+5482004D01*
X-226664Y+5471336D01*
X-226664Y+5460668D01*
X-237332Y+5450000D01*
X-269336Y+5450000D01*
X-280004Y+5439332D01*
X-280004Y+5417996D01*
X-226664Y+5417996D01*
X-141320Y+5460668D02*
X-151988Y+5450000D01*
X-183992Y+5450000D01*
X-194660Y+5460668D01*
X-194660Y+5471336D01*
X-183992Y+5482004D01*
X-151988Y+5482004D01*
X-141320Y+5471336D01*
X-141320Y+5428664D01*
X-151988Y+5417996D01*
X-183992Y+5417996D01*
D39*
X-848900Y+5081100D02*
X+344900Y+5081100D01*
X+344900Y+5258900D01*
X-848900Y+5258900D01*
X-848900Y+5081100D01*
D81*
X-760000Y+5170000D02*
X-760000Y+5170000D01*
D103*
X-380016Y+5137996D02*
X-380016Y+5202004D01*
X-326676Y+5202004D01*
X-316008Y+5191336D01*
X-316008Y+5180668D01*
X-326676Y+5170000D01*
X-380016Y+5170000D01*
X-326676Y+5170000D02*
X-316008Y+5159332D01*
X-316008Y+5137996D01*
X-284004Y+5191336D02*
X-273336Y+5202004D01*
X-241332Y+5202004D01*
X-230664Y+5191336D01*
X-230664Y+5180668D01*
X-241332Y+5170000D01*
X-230664Y+5159332D01*
X-230664Y+5148664D01*
X-241332Y+5137996D01*
X-273336Y+5137996D01*
X-284004Y+5148664D01*
X-262668Y+5170000D02*
X-241332Y+5170000D01*
X-209328Y+5148664D02*
X-209328Y+5191336D01*
X-198660Y+5202004D01*
X-155988Y+5202004D01*
X-145320Y+5191336D01*
X-145320Y+5148664D01*
X-155988Y+5137996D01*
X-198660Y+5137996D01*
X-209328Y+5148664D01*
X-209328Y+5137996D02*
X-145320Y+5202004D01*
D39*
X-4174900Y+891100D02*
X-2981100Y+891100D01*
X-2981100Y+1068900D01*
X-4174900Y+1068900D01*
X-4174900Y+891100D01*
D81*
X-3070000Y+980000D02*
X-3070000Y+980000D01*
D103*
X-3706016Y+947996D02*
X-3706016Y+1012004D01*
X-3652676Y+1012004D01*
X-3642008Y+1001336D01*
X-3642008Y+990668D01*
X-3652676Y+980000D01*
X-3706016Y+980000D01*
X-3652676Y+980000D02*
X-3642008Y+969332D01*
X-3642008Y+947996D01*
X-3610004Y+1001336D02*
X-3599336Y+1012004D01*
X-3567332Y+1012004D01*
X-3556664Y+1001336D01*
X-3556664Y+990668D01*
X-3567332Y+980000D01*
X-3556664Y+969332D01*
X-3556664Y+958664D01*
X-3567332Y+947996D01*
X-3599336Y+947996D01*
X-3610004Y+958664D01*
X-3588668Y+980000D02*
X-3567332Y+980000D01*
X-3513992Y+990668D02*
X-3492656Y+1012004D01*
X-3492656Y+947996D01*
D39*
X-608900Y+731100D02*
X+584900Y+731100D01*
X+584900Y+908900D01*
X-608900Y+908900D01*
X-608900Y+731100D01*
D81*
X-520000Y+820000D02*
X-520000Y+820000D01*
D103*
X-140016Y+787996D02*
X-140016Y+852004D01*
X-86676Y+852004D01*
X-76008Y+841336D01*
X-76008Y+830668D01*
X-86676Y+820000D01*
X-140016Y+820000D01*
X-86676Y+820000D02*
X-76008Y+809332D01*
X-76008Y+787996D01*
X-44004Y+841336D02*
X-33336Y+852004D01*
X-1332Y+852004D01*
X+9336Y+841336D01*
X+9336Y+830668D01*
X-1332Y+820000D01*
X+9336Y+809332D01*
X+9336Y+798664D01*
X-1332Y+787996D01*
X-33336Y+787996D01*
X-44004Y+798664D01*
X-22668Y+820000D02*
X-1332Y+820000D01*
X+41340Y+841336D02*
X+52008Y+852004D01*
X+84012Y+852004D01*
X+94680Y+841336D01*
X+94680Y+830668D01*
X+84012Y+820000D01*
X+52008Y+820000D01*
X+41340Y+809332D01*
X+41340Y+787996D01*
X+94680Y+787996D01*
D39*
X-844900Y+4811100D02*
X+348900Y+4811100D01*
X+348900Y+4988900D01*
X-844900Y+4988900D01*
X-844900Y+4811100D01*
D81*
X+260000Y+4900000D02*
X+260000Y+4900000D01*
D103*
X-376016Y+4867996D02*
X-376016Y+4932004D01*
X-322676Y+4932004D01*
X-312008Y+4921336D01*
X-312008Y+4910668D01*
X-322676Y+4900000D01*
X-376016Y+4900000D01*
X-322676Y+4900000D02*
X-312008Y+4889332D01*
X-312008Y+4867996D01*
X-280004Y+4921336D02*
X-269336Y+4932004D01*
X-237332Y+4932004D01*
X-226664Y+4921336D01*
X-226664Y+4910668D01*
X-237332Y+4900000D01*
X-226664Y+4889332D01*
X-226664Y+4878664D01*
X-237332Y+4867996D01*
X-269336Y+4867996D01*
X-280004Y+4878664D01*
X-258668Y+4900000D02*
X-237332Y+4900000D01*
X-194660Y+4921336D02*
X-183992Y+4932004D01*
X-151988Y+4932004D01*
X-141320Y+4921336D01*
X-141320Y+4910668D01*
X-151988Y+4900000D01*
X-141320Y+4889332D01*
X-141320Y+4878664D01*
X-151988Y+4867996D01*
X-183992Y+4867996D01*
X-194660Y+4878664D01*
X-173324Y+4900000D02*
X-151988Y+4900000D01*
D39*
X-598900Y+4441100D02*
X+594900Y+4441100D01*
X+594900Y+4618900D01*
X-598900Y+4618900D01*
X-598900Y+4441100D01*
D81*
X-510000Y+4530000D02*
X-510000Y+4530000D01*
D103*
X-130016Y+4497996D02*
X-130016Y+4562004D01*
X-76676Y+4562004D01*
X-66008Y+4551336D01*
X-66008Y+4540668D01*
X-76676Y+4530000D01*
X-130016Y+4530000D01*
X-76676Y+4530000D02*
X-66008Y+4519332D01*
X-66008Y+4497996D01*
X-34004Y+4551336D02*
X-23336Y+4562004D01*
X+8668Y+4562004D01*
X+19336Y+4551336D01*
X+19336Y+4540668D01*
X+8668Y+4530000D01*
X+19336Y+4519332D01*
X+19336Y+4508664D01*
X+8668Y+4497996D01*
X-23336Y+4497996D01*
X-34004Y+4508664D01*
X-12668Y+4530000D02*
X+8668Y+4530000D01*
X+104680Y+4519332D02*
X+40672Y+4519332D01*
X+83344Y+4562004D01*
X+83344Y+4497996D01*
D39*
X-574900Y+4101100D02*
X+618900Y+4101100D01*
X+618900Y+4278900D01*
X-574900Y+4278900D01*
X-574900Y+4101100D01*
D81*
X+530000Y+4190000D02*
X+530000Y+4190000D01*
D103*
X-106016Y+4157996D02*
X-106016Y+4222004D01*
X-52676Y+4222004D01*
X-42008Y+4211336D01*
X-42008Y+4200668D01*
X-52676Y+4190000D01*
X-106016Y+4190000D01*
X-52676Y+4190000D02*
X-42008Y+4179332D01*
X-42008Y+4157996D01*
X-10004Y+4211336D02*
X+664Y+4222004D01*
X+32668Y+4222004D01*
X+43336Y+4211336D01*
X+43336Y+4200668D01*
X+32668Y+4190000D01*
X+43336Y+4179332D01*
X+43336Y+4168664D01*
X+32668Y+4157996D01*
X+664Y+4157996D01*
X-10004Y+4168664D01*
X+11332Y+4190000D02*
X+32668Y+4190000D01*
X+128680Y+4222004D02*
X+75340Y+4222004D01*
X+75340Y+4200668D01*
X+118012Y+4200668D01*
X+128680Y+4190000D01*
X+128680Y+4168664D01*
X+118012Y+4157996D01*
X+86008Y+4157996D01*
X+75340Y+4168664D01*
D39*
X-4878900Y+1565100D02*
X-4701100Y+1565100D01*
X-4701100Y+2758900D01*
X-4878900Y+2758900D01*
X-4878900Y+1565100D01*
D81*
X-4790000Y+1654000D02*
X-4790000Y+1654000D01*
D103*
X-4757996Y+2033984D02*
X-4822004Y+2033984D01*
X-4822004Y+2087324D01*
X-4811336Y+2097992D01*
X-4800668Y+2097992D01*
X-4790000Y+2087324D01*
X-4790000Y+2033984D01*
X-4790000Y+2087324D02*
X-4779332Y+2097992D01*
X-4757996Y+2097992D01*
X-4779332Y+2183336D02*
X-4779332Y+2119328D01*
X-4822004Y+2162000D01*
X-4757996Y+2162000D01*
X-4768664Y+2204672D02*
X-4811336Y+2204672D01*
X-4822004Y+2215340D01*
X-4822004Y+2258012D01*
X-4811336Y+2268680D01*
X-4768664Y+2268680D01*
X-4757996Y+2258012D01*
X-4757996Y+2215340D01*
X-4768664Y+2204672D01*
X-4757996Y+2204672D02*
X-4822004Y+2268680D01*
D105*
X-5675000Y+4665000D02*
X-5675086Y+4667076D01*
X-5675788Y+4671229D01*
X-5677258Y+4675382D01*
X-5679660Y+4679535D01*
X-5683333Y+4683634D01*
X-5687486Y+4686643D01*
X-5691639Y+4688560D01*
X-5695792Y+4689643D01*
X-5699945Y+4690000D01*
X-5700000Y+4690000D01*
X-5725000Y+4665000D02*
X-5724914Y+4667076D01*
X-5724212Y+4671229D01*
X-5722742Y+4675382D01*
X-5720340Y+4679535D01*
X-5716667Y+4683634D01*
X-5712514Y+4686643D01*
X-5708361Y+4688560D01*
X-5704208Y+4689643D01*
X-5700055Y+4690000D01*
X-5700000Y+4690000D01*
X-5725000Y+4665000D02*
X-5724914Y+4662924D01*
X-5724212Y+4658771D01*
X-5722742Y+4654618D01*
X-5720340Y+4650465D01*
X-5716667Y+4646366D01*
X-5712514Y+4643357D01*
X-5708361Y+4641440D01*
X-5704208Y+4640357D01*
X-5700055Y+4640000D01*
X-5700000Y+4640000D01*
X-5675000Y+4665000D02*
X-5675086Y+4662924D01*
X-5675788Y+4658771D01*
X-5677258Y+4654618D01*
X-5679660Y+4650465D01*
X-5683333Y+4646366D01*
X-5687486Y+4643357D01*
X-5691639Y+4641440D01*
X-5695792Y+4640357D01*
X-5699945Y+4640000D01*
X-5700000Y+4640000D01*
X-5700000Y+4630000D02*
X-5700000Y+4700000D01*
X-5665000Y+4665000D02*
X-5735000Y+4665000D01*
X-5360000Y+5005000D02*
X-5700000Y+5005000D01*
X-5769519Y+4998235D01*
X-5833809Y+4978770D01*
X-5891624Y+4947849D01*
X-5941719Y+4906719D01*
X-5982849Y+4856624D01*
X-6013770Y+4798809D01*
X-6033235Y+4734519D01*
X-6040000Y+4665000D01*
X-6033235Y+4595481D01*
X-6013770Y+4531191D01*
X-5982849Y+4473376D01*
X-5941719Y+4423281D01*
X-5891624Y+4382151D01*
X-5833809Y+4351230D01*
X-5769519Y+4331765D01*
X-5700000Y+4325000D01*
X-5630481Y+4331765D01*
X-5566191Y+4351230D01*
X-5508376Y+4382151D01*
X-5458281Y+4423281D01*
X-5417151Y+4473376D01*
X-5386230Y+4531191D01*
X-5366765Y+4595481D01*
X-5360000Y+4665000D01*
X-5360000Y+5005000D01*
D109*
X-5700000Y+4540000D02*
X-5700000Y+4540000D01*
D110*
X-5654333Y+4619333D02*
X-5631500Y+4596500D01*
X-5631500Y+4528000D01*
X-5677167Y+4482334D01*
X-5722833Y+4482334D01*
X-5768500Y+4528000D01*
X-5768500Y+4596500D01*
X-5745667Y+4619333D01*
X-5745667Y+4687833D02*
X-5768500Y+4710666D01*
X-5768500Y+4779166D01*
X-5745667Y+4801999D01*
X-5722833Y+4801999D01*
X-5700000Y+4779166D01*
X-5677167Y+4801999D01*
X-5654333Y+4801999D01*
X-5631500Y+4779166D01*
X-5631500Y+4710666D01*
X-5654333Y+4687833D01*
X-5700000Y+4733499D02*
X-5700000Y+4779166D01*
D105*
X-3330000Y+3240000D02*
X-3330086Y+3242076D01*
X-3330788Y+3246229D01*
X-3332258Y+3250382D01*
X-3334660Y+3254535D01*
X-3338333Y+3258634D01*
X-3342486Y+3261643D01*
X-3346639Y+3263560D01*
X-3350792Y+3264643D01*
X-3354945Y+3265000D01*
X-3355000Y+3265000D01*
X-3380000Y+3240000D02*
X-3379914Y+3242076D01*
X-3379212Y+3246229D01*
X-3377742Y+3250382D01*
X-3375340Y+3254535D01*
X-3371667Y+3258634D01*
X-3367514Y+3261643D01*
X-3363361Y+3263560D01*
X-3359208Y+3264643D01*
X-3355055Y+3265000D01*
X-3355000Y+3265000D01*
X-3380000Y+3240000D02*
X-3379914Y+3237924D01*
X-3379212Y+3233771D01*
X-3377742Y+3229618D01*
X-3375340Y+3225465D01*
X-3371667Y+3221366D01*
X-3367514Y+3218357D01*
X-3363361Y+3216440D01*
X-3359208Y+3215357D01*
X-3355055Y+3215000D01*
X-3355000Y+3215000D01*
X-3330000Y+3240000D02*
X-3330086Y+3237924D01*
X-3330788Y+3233771D01*
X-3332258Y+3229618D01*
X-3334660Y+3225465D01*
X-3338333Y+3221366D01*
X-3342486Y+3218357D01*
X-3346639Y+3216440D01*
X-3350792Y+3215357D01*
X-3354945Y+3215000D01*
X-3355000Y+3215000D01*
X-3390000Y+3240000D02*
X-3320000Y+3240000D01*
X-3355000Y+3205000D02*
X-3355000Y+3275000D01*
X-3015000Y+2900000D02*
X-3015000Y+3240000D01*
X-3021765Y+3309519D01*
X-3041230Y+3373809D01*
X-3072151Y+3431624D01*
X-3113281Y+3481719D01*
X-3163376Y+3522849D01*
X-3221191Y+3553770D01*
X-3285481Y+3573235D01*
X-3355000Y+3580000D01*
X-3424519Y+3573235D01*
X-3488809Y+3553770D01*
X-3546624Y+3522849D01*
X-3596719Y+3481719D01*
X-3637849Y+3431624D01*
X-3668770Y+3373809D01*
X-3688235Y+3309519D01*
X-3695000Y+3240000D01*
X-3688235Y+3170481D01*
X-3668770Y+3106191D01*
X-3637849Y+3048376D01*
X-3596719Y+2998281D01*
X-3546624Y+2957151D01*
X-3488809Y+2926230D01*
X-3424519Y+2906765D01*
X-3355000Y+2900000D01*
X-3015000Y+2900000D01*
D109*
X-3480000Y+3240000D02*
X-3480000Y+3240000D01*
D110*
X-3400667Y+3194333D02*
X-3423500Y+3171500D01*
X-3492000Y+3171500D01*
X-3537666Y+3217167D01*
X-3537666Y+3262833D01*
X-3492000Y+3308500D01*
X-3423500Y+3308500D01*
X-3400667Y+3285667D01*
X-3218001Y+3217167D02*
X-3355000Y+3217167D01*
X-3263667Y+3308500D01*
X-3263667Y+3171500D01*
D105*
X-4000000Y+3330000D02*
X-4000086Y+3332076D01*
X-4000788Y+3336229D01*
X-4002258Y+3340382D01*
X-4004660Y+3344535D01*
X-4008333Y+3348634D01*
X-4012486Y+3351643D01*
X-4016639Y+3353560D01*
X-4020792Y+3354643D01*
X-4024945Y+3355000D01*
X-4025000Y+3355000D01*
X-4050000Y+3330000D02*
X-4049914Y+3332076D01*
X-4049212Y+3336229D01*
X-4047742Y+3340382D01*
X-4045340Y+3344535D01*
X-4041667Y+3348634D01*
X-4037514Y+3351643D01*
X-4033361Y+3353560D01*
X-4029208Y+3354643D01*
X-4025055Y+3355000D01*
X-4025000Y+3355000D01*
X-4050000Y+3330000D02*
X-4049914Y+3327924D01*
X-4049212Y+3323771D01*
X-4047742Y+3319618D01*
X-4045340Y+3315465D01*
X-4041667Y+3311366D01*
X-4037514Y+3308357D01*
X-4033361Y+3306440D01*
X-4029208Y+3305357D01*
X-4025055Y+3305000D01*
X-4025000Y+3305000D01*
X-4000000Y+3330000D02*
X-4000086Y+3327924D01*
X-4000788Y+3323771D01*
X-4002258Y+3319618D01*
X-4004660Y+3315465D01*
X-4008333Y+3311366D01*
X-4012486Y+3308357D01*
X-4016639Y+3306440D01*
X-4020792Y+3305357D01*
X-4024945Y+3305000D01*
X-4025000Y+3305000D01*
X-3990000Y+3330000D02*
X-4060000Y+3330000D01*
X-4025000Y+3365000D02*
X-4025000Y+3295000D01*
X-4250000Y+3555000D02*
X-4250000Y+3330000D01*
X-4245523Y+3283995D01*
X-4232642Y+3241450D01*
X-4212180Y+3203191D01*
X-4184961Y+3170039D01*
X-4151810Y+3142821D01*
X-4113550Y+3122358D01*
X-4071005Y+3109477D01*
X-4025000Y+3105000D01*
X-3978995Y+3109477D01*
X-3936450Y+3122358D01*
X-3898190Y+3142821D01*
X-3865039Y+3170039D01*
X-3837820Y+3203191D01*
X-3817358Y+3241450D01*
X-3804477Y+3283995D01*
X-3800000Y+3330000D01*
X-3804477Y+3376005D01*
X-3817358Y+3418550D01*
X-3837820Y+3456809D01*
X-3865039Y+3489961D01*
X-3898190Y+3517179D01*
X-3936450Y+3537642D01*
X-3978995Y+3550523D01*
X-4025000Y+3555000D01*
X-4250000Y+3555000D01*
D111*
X-3950000Y+3330000D02*
X-3950000Y+3330000D01*
D112*
X-4055333Y+3299666D02*
X-4070500Y+3284500D01*
X-4115999Y+3284500D01*
X-4146332Y+3314833D01*
X-4146332Y+3345166D01*
X-4115999Y+3375499D01*
X-4070500Y+3375499D01*
X-4055333Y+3360333D01*
X-3934001Y+3375499D02*
X-4009834Y+3375499D01*
X-4009834Y+3345166D01*
X-3949168Y+3345166D01*
X-3934001Y+3330000D01*
X-3934001Y+3299666D01*
X-3949168Y+3284500D01*
X-3994667Y+3284500D01*
X-4009834Y+3299666D01*
D39*
X-635160Y+5882840D02*
X+147160Y+5882840D01*
X+147160Y+6157160D01*
X-635160Y+6157160D01*
X-635160Y+5882840D01*
D81*
X+10000Y+6020000D02*
X+10000Y+6020000D01*
D88*
X-276919Y+5987081D02*
X-293378Y+5970622D01*
X-342755Y+5970622D01*
X-375673Y+6003540D01*
X-375673Y+6036459D01*
X-342755Y+6069377D01*
X-293378Y+6069377D01*
X-276919Y+6052918D01*
X-145246Y+6052918D02*
X-161705Y+6069377D01*
X-211082Y+6069377D01*
X-227541Y+6052918D01*
X-227541Y+5987081D01*
X-211082Y+5970622D01*
X-161705Y+5970622D01*
X-145246Y+5987081D01*
X-145246Y+6003540D01*
X-161705Y+6020000D01*
X-227541Y+6020000D01*
D39*
X-3575160Y+4202840D02*
X-2792840Y+4202840D01*
X-2792840Y+4477160D01*
X-3575160Y+4477160D01*
X-3575160Y+4202840D01*
D81*
X-2930000Y+4340000D02*
X-2930000Y+4340000D01*
D88*
X-3216919Y+4307081D02*
X-3233378Y+4290622D01*
X-3282755Y+4290622D01*
X-3315673Y+4323540D01*
X-3315673Y+4356459D01*
X-3282755Y+4389377D01*
X-3233378Y+4389377D01*
X-3216919Y+4372918D01*
X-3167541Y+4389377D02*
X-3085246Y+4389377D01*
X-3085246Y+4372918D01*
X-3167541Y+4290622D01*
D105*
X+15000Y+3625000D02*
X+14914Y+3627076D01*
X+14212Y+3631229D01*
X+12742Y+3635382D01*
X+10340Y+3639535D01*
X+6667Y+3643634D01*
X+2514Y+3646643D01*
X-1639Y+3648560D01*
X-5792Y+3649643D01*
X-9945Y+3650000D01*
X-10000Y+3650000D01*
X-35000Y+3625000D02*
X-34914Y+3627076D01*
X-34212Y+3631229D01*
X-32742Y+3635382D01*
X-30340Y+3639535D01*
X-26667Y+3643634D01*
X-22514Y+3646643D01*
X-18361Y+3648560D01*
X-14208Y+3649643D01*
X-10055Y+3650000D01*
X-10000Y+3650000D01*
X-35000Y+3625000D02*
X-34914Y+3622924D01*
X-34212Y+3618771D01*
X-32742Y+3614618D01*
X-30340Y+3610465D01*
X-26667Y+3606366D01*
X-22514Y+3603357D01*
X-18361Y+3601440D01*
X-14208Y+3600357D01*
X-10055Y+3600000D01*
X-10000Y+3600000D01*
X+15000Y+3625000D02*
X+14914Y+3622924D01*
X+14212Y+3618771D01*
X+12742Y+3614618D01*
X+10340Y+3610465D01*
X+6667Y+3606366D01*
X+2514Y+3603357D01*
X-1639Y+3601440D01*
X-5792Y+3600357D01*
X-9945Y+3600000D01*
X-10000Y+3600000D01*
X-10000Y+3590000D02*
X-10000Y+3660000D01*
X+25000Y+3625000D02*
X-45000Y+3625000D01*
X+330000Y+3965000D02*
X-10000Y+3965000D01*
X-79519Y+3958235D01*
X-143809Y+3938770D01*
X-201624Y+3907849D01*
X-251719Y+3866719D01*
X-292849Y+3816624D01*
X-323770Y+3758809D01*
X-343235Y+3694519D01*
X-350000Y+3625000D01*
X-343235Y+3555481D01*
X-323770Y+3491191D01*
X-292849Y+3433376D01*
X-251719Y+3383281D01*
X-201624Y+3342151D01*
X-143809Y+3311230D01*
X-79519Y+3291765D01*
X-10000Y+3285000D01*
X+59519Y+3291765D01*
X+123809Y+3311230D01*
X+181624Y+3342151D01*
X+231719Y+3383281D01*
X+272849Y+3433376D01*
X+303770Y+3491191D01*
X+323235Y+3555481D01*
X+330000Y+3625000D01*
X+330000Y+3965000D01*
D109*
X-10000Y+3500000D02*
X-10000Y+3500000D01*
D110*
X+35667Y+3579333D02*
X+58500Y+3556500D01*
X+58500Y+3488000D01*
X+12833Y+3442334D01*
X-32833Y+3442334D01*
X-78500Y+3488000D01*
X-78500Y+3556500D01*
X-55667Y+3579333D01*
X-10000Y+3670666D02*
X-32833Y+3647833D01*
X-55667Y+3647833D01*
X-78500Y+3670666D01*
X-78500Y+3739166D01*
X-55667Y+3761999D01*
X-32833Y+3761999D01*
X-10000Y+3739166D01*
X-10000Y+3670666D01*
X+12833Y+3647833D01*
X+35667Y+3647833D01*
X+58500Y+3670666D01*
X+58500Y+3739166D01*
X+35667Y+3761999D01*
X+12833Y+3761999D01*
X-10000Y+3739166D01*
D39*
X-1175160Y+3602840D02*
X-392840Y+3602840D01*
X-392840Y+3877160D01*
X-1175160Y+3877160D01*
X-1175160Y+3602840D01*
D81*
X-530000Y+3740000D02*
X-530000Y+3740000D01*
D88*
X-816919Y+3707081D02*
X-833378Y+3690622D01*
X-882755Y+3690622D01*
X-915673Y+3723540D01*
X-915673Y+3756459D01*
X-882755Y+3789377D01*
X-833378Y+3789377D01*
X-816919Y+3772918D01*
X-685246Y+3756459D02*
X-701705Y+3740000D01*
X-751082Y+3740000D01*
X-767541Y+3756459D01*
X-767541Y+3772918D01*
X-751082Y+3789377D01*
X-701705Y+3789377D01*
X-685246Y+3772918D01*
X-685246Y+3707081D01*
X-701705Y+3690622D01*
X-751082Y+3690622D01*
D39*
X-2245160Y+3162840D02*
X-1462840Y+3162840D01*
X-1462840Y+3437160D01*
X-2245160Y+3437160D01*
X-2245160Y+3162840D01*
D81*
X-1600000Y+3300000D02*
X-1600000Y+3300000D01*
D88*
X-1952755Y+3267081D02*
X-1969214Y+3250622D01*
X-2018591Y+3250622D01*
X-2051509Y+3283540D01*
X-2051509Y+3316459D01*
X-2018591Y+3349377D01*
X-1969214Y+3349377D01*
X-1952755Y+3332918D01*
X-1886918Y+3316459D02*
X-1854000Y+3349377D01*
X-1854000Y+3250622D01*
X-1788163Y+3267081D02*
X-1788163Y+3332918D01*
X-1771704Y+3349377D01*
X-1705868Y+3349377D01*
X-1689409Y+3332918D01*
X-1689409Y+3267081D01*
X-1705868Y+3250622D01*
X-1771704Y+3250622D01*
X-1788163Y+3267081D01*
X-1788163Y+3250622D02*
X-1689409Y+3349377D01*
D39*
X-5812240Y-810300D02*
X-5525220Y-810300D01*
X-5525220Y+434300D01*
X-5812240Y+434300D01*
X-5812240Y-810300D01*
D101*
X-5670000Y+320000D02*
X-5670000Y+320000D01*
D102*
X-5617066Y-325769D02*
X-5720393Y-325769D01*
X-5720393Y-256885D01*
X-5685951Y-222443D01*
X-5651508Y-222443D01*
X-5617066Y-256885D01*
X-5617066Y-325769D01*
X-5685951Y-153558D02*
X-5720393Y-119116D01*
X-5617066Y-119116D01*
D39*
X+85700Y-1632240D02*
X+1330300Y-1632240D01*
X+1330300Y-1345220D01*
X+85700Y-1345220D01*
X+85700Y-1632240D01*
D101*
X+200000Y-1490000D02*
X+200000Y-1490000D01*
D102*
X+570231Y-1540394D02*
X+570231Y-1437067D01*
X+639115Y-1437067D01*
X+673557Y-1471509D01*
X+673557Y-1505952D01*
X+639115Y-1540394D01*
X+570231Y-1540394D01*
X+725221Y-1454288D02*
X+742442Y-1437067D01*
X+794105Y-1437067D01*
X+811326Y-1454288D01*
X+811326Y-1471509D01*
X+794105Y-1488730D01*
X+742442Y-1488730D01*
X+725221Y-1505952D01*
X+725221Y-1540394D01*
X+811326Y-1540394D01*
D39*
X-9361160Y-1907660D02*
X-8769340Y-1907660D01*
X-8769340Y-1315840D01*
X-9361160Y-1315840D01*
X-9361160Y-1907660D01*
D83*
X-9224000Y-1580000D02*
X-9224000Y-1580000D01*
D113*
X-9223068Y-1670932D02*
X-9223068Y-1552568D01*
X-9144159Y-1552568D01*
X-9104705Y-1592023D01*
X-9104705Y-1631477D01*
X-9144159Y-1670932D01*
X-9223068Y-1670932D01*
X-8946887Y-1631477D02*
X-9065250Y-1631477D01*
X-8986341Y-1552568D01*
X-8986341Y-1670932D01*
D39*
X-6737160Y+6032840D02*
X-5700840Y+6032840D01*
X-5700840Y+6307160D01*
X-6737160Y+6307160D01*
X-6737160Y+6032840D01*
D83*
X-6600000Y+6170000D02*
X-6600000Y+6170000D01*
D88*
X-6416509Y+6219377D02*
X-6416509Y+6120622D01*
X-6317755Y+6120622D01*
X-6186082Y+6137081D02*
X-6202541Y+6120622D01*
X-6251918Y+6120622D01*
X-6284836Y+6153540D01*
X-6284836Y+6186459D01*
X-6251918Y+6219377D01*
X-6202541Y+6219377D01*
X-6186082Y+6202918D01*
X-6153163Y+6120622D02*
X-6153163Y+6219377D01*
X-6087327Y+6219377D01*
X-6054409Y+6186459D01*
X-6054409Y+6153540D01*
X-6087327Y+6120622D01*
X-6153163Y+6120622D01*
D39*
X-5653060Y+744740D02*
X-4946940Y+744740D01*
X-4946940Y+1247660D01*
X-5653060Y+1247660D01*
X-5653060Y+744740D01*
D114*
X-5503200Y+920000D02*
X-5503200Y+920000D01*
D115*
X-5488298Y+1019737D02*
X-5441224Y+1066812D01*
X-5394149Y+1066812D01*
X-5347075Y+1019737D01*
X-5347075Y+972663D01*
X-5394149Y+925588D01*
X-5441224Y+925588D01*
X-5488298Y+972663D01*
X-5488298Y+1019737D01*
X-5394149Y+972663D02*
X-5347075Y+925588D01*
X-5252926Y+1019737D02*
X-5205851Y+1066812D01*
X-5205851Y+925588D01*
D39*
X-6679860Y-875260D02*
X-5973740Y-875260D01*
X-5973740Y-372340D01*
X-6679860Y-372340D01*
X-6679860Y-875260D01*
D114*
X-6530000Y-700000D02*
X-6530000Y-700000D01*
D115*
X-6515098Y-600263D02*
X-6468024Y-553188D01*
X-6420949Y-553188D01*
X-6373875Y-600263D01*
X-6373875Y-647337D01*
X-6420949Y-694412D01*
X-6468024Y-694412D01*
X-6515098Y-647337D01*
X-6515098Y-600263D01*
X-6420949Y-647337D02*
X-6373875Y-694412D01*
X-6303263Y-576725D02*
X-6279726Y-553188D01*
X-6209114Y-553188D01*
X-6185577Y-576725D01*
X-6185577Y-600263D01*
X-6209114Y-623800D01*
X-6279726Y-623800D01*
X-6303263Y-647337D01*
X-6303263Y-694412D01*
X-6185577Y-694412D01*
D39*
X-4675760Y+2605840D02*
X-3944240Y+2605840D01*
X-3944240Y+3007160D01*
X-4675760Y+3007160D01*
X-4675760Y+2605840D01*
D116*
X-4081400Y+2870000D02*
X-4081400Y+2870000D01*
D94*
X-4502633Y+2830579D02*
X-4454475Y+2878737D01*
X-4406317Y+2878737D01*
X-4358159Y+2830579D01*
X-4358159Y+2782420D01*
X-4406317Y+2734262D01*
X-4454475Y+2734262D01*
X-4502633Y+2782420D01*
X-4502633Y+2830579D01*
X-4406317Y+2782420D02*
X-4358159Y+2734262D01*
X-4285921Y+2854658D02*
X-4261842Y+2878737D01*
X-4189605Y+2878737D01*
X-4165526Y+2854658D01*
X-4165526Y+2830579D01*
X-4189605Y+2806500D01*
X-4165526Y+2782420D01*
X-4165526Y+2758341D01*
X-4189605Y+2734262D01*
X-4261842Y+2734262D01*
X-4285921Y+2758341D01*
X-4237763Y+2806500D02*
X-4189605Y+2806500D01*
D39*
X-1375260Y+1450140D02*
X-872340Y+1450140D01*
X-872340Y+2156260D01*
X-1375260Y+2156260D01*
X-1375260Y+1450140D01*
D114*
X-1200000Y+2006400D02*
X-1200000Y+2006400D01*
D117*
X-1141453Y+1591364D02*
X-1176759Y+1626670D01*
X-1176759Y+1661976D01*
X-1141453Y+1697282D01*
X-1106147Y+1697282D01*
X-1070841Y+1661976D01*
X-1070841Y+1626670D01*
X-1106147Y+1591364D01*
X-1141453Y+1591364D01*
X-1106147Y+1661976D02*
X-1070841Y+1697282D01*
X-1141453Y+1767894D02*
X-1176759Y+1803200D01*
X-1070841Y+1803200D01*
X-1176759Y+1979730D02*
X-1176759Y+1891465D01*
X-1141453Y+1891465D01*
X-1141453Y+1962077D01*
X-1123800Y+1979730D01*
X-1088494Y+1979730D01*
X-1070841Y+1962077D01*
X-1070841Y+1909118D01*
X-1088494Y+1891465D01*
D39*
X-2852240Y+1039700D02*
X-2565220Y+1039700D01*
X-2565220Y+2284300D01*
X-2852240Y+2284300D01*
X-2852240Y+1039700D01*
D101*
X-2710000Y+2170000D02*
X-2710000Y+2170000D01*
D102*
X-2657066Y+1455347D02*
X-2760393Y+1455347D01*
X-2760393Y+1524231D01*
X-2725951Y+1558673D01*
X-2691508Y+1558673D01*
X-2657066Y+1524231D01*
X-2657066Y+1455347D01*
X-2725951Y+1627558D02*
X-2760393Y+1662000D01*
X-2657066Y+1662000D01*
X-2674287Y+1730885D02*
X-2743172Y+1730885D01*
X-2760393Y+1748106D01*
X-2760393Y+1816990D01*
X-2743172Y+1834211D01*
X-2674287Y+1834211D01*
X-2657066Y+1816990D01*
X-2657066Y+1748106D01*
X-2674287Y+1730885D01*
X-2657066Y+1730885D02*
X-2760393Y+1834211D01*
D39*
X-3751160Y+2032840D02*
X-2968840Y+2032840D01*
X-2968840Y+2434160D01*
X-3751160Y+2434160D01*
X-3751160Y+2032840D01*
D83*
X-3614000Y+2170000D02*
X-3614000Y+2170000D01*
D94*
X-3552633Y+2257579D02*
X-3504475Y+2305737D01*
X-3456317Y+2305737D01*
X-3408159Y+2257579D01*
X-3408159Y+2209420D01*
X-3456317Y+2161262D01*
X-3504475Y+2161262D01*
X-3552633Y+2209420D01*
X-3552633Y+2257579D01*
X-3456317Y+2209420D02*
X-3408159Y+2161262D01*
X-3215526Y+2305737D02*
X-3335921Y+2305737D01*
X-3335921Y+2257579D01*
X-3239605Y+2257579D01*
X-3215526Y+2233500D01*
X-3215526Y+2185341D01*
X-3239605Y+2161262D01*
X-3311842Y+2161262D01*
X-3335921Y+2185341D01*
D39*
X-6643060Y-1565260D02*
X-5936940Y-1565260D01*
X-5936940Y-1062340D01*
X-6643060Y-1062340D01*
X-6643060Y-1565260D01*
D114*
X-6493200Y-1390000D02*
X-6493200Y-1390000D01*
D115*
X-6478298Y-1290263D02*
X-6431224Y-1243188D01*
X-6384149Y-1243188D01*
X-6337075Y-1290263D01*
X-6337075Y-1337337D01*
X-6384149Y-1384412D01*
X-6431224Y-1384412D01*
X-6478298Y-1337337D01*
X-6478298Y-1290263D01*
X-6384149Y-1337337D02*
X-6337075Y-1384412D01*
X-6148777Y-1266725D02*
X-6172314Y-1243188D01*
X-6242926Y-1243188D01*
X-6266463Y-1266725D01*
X-6266463Y-1360875D01*
X-6242926Y-1384412D01*
X-6172314Y-1384412D01*
X-6148777Y-1360875D01*
X-6148777Y-1337337D01*
X-6172314Y-1313800D01*
X-6266463Y-1313800D01*
D39*
X-3160160Y-1810160D02*
X-1489840Y-1810160D01*
X-1489840Y+460160D01*
X-3160160Y+460160D01*
X-3160160Y-1810160D01*
D118*
X-2287161Y-1393932D02*
X-2268242Y-1412851D01*
X-2268242Y-1469609D01*
X-2306081Y-1507447D01*
X-2343919Y-1507447D01*
X-2381758Y-1469609D01*
X-2381758Y-1412851D01*
X-2362839Y-1393932D01*
X-2268242Y-1356093D02*
X-2381758Y-1356093D01*
X-2381758Y-1242578D02*
X-2268242Y-1242578D01*
X-2325000Y-1356093D02*
X-2325000Y-1242578D01*
X-2268242Y-1204739D02*
X-2343919Y-1204739D01*
X-2381758Y-1166901D01*
X-2381758Y-1129062D01*
X-2343919Y-1091224D01*
X-2268242Y-1091224D01*
X-2306081Y-1204739D02*
X-2306081Y-1091224D01*
X-2268242Y-1053385D02*
X-2381758Y-1053385D01*
X-2268242Y-939870D01*
X-2381758Y-939870D01*
X-2306081Y-826354D02*
X-2306081Y-788516D01*
X-2268242Y-788516D01*
X-2268242Y-864193D01*
X-2306081Y-902031D01*
X-2343919Y-902031D01*
X-2381758Y-864193D01*
X-2381758Y-807435D01*
X-2362839Y-788516D01*
X-2268242Y-637162D02*
X-2268242Y-750677D01*
X-2381758Y-750677D01*
X-2381758Y-637162D01*
X-2325000Y-750677D02*
X-2325000Y-675000D01*
X-2343919Y-447969D02*
X-2381758Y-410131D01*
X-2381758Y-372292D01*
X-2343919Y-334454D01*
X-2306081Y-334454D01*
X-2268242Y-372292D01*
X-2268242Y-410131D01*
X-2306081Y-447969D01*
X-2343919Y-447969D01*
X-2381758Y-296615D02*
X-2325000Y-296615D01*
X-2268242Y-239858D01*
X-2325000Y-183100D01*
X-2381758Y-183100D01*
X-2268242Y-31746D02*
X-2268242Y-145261D01*
X-2381758Y-145261D01*
X-2381758Y-31746D01*
X-2325000Y-145261D02*
X-2325000Y-69584D01*
X-2268242Y+6093D02*
X-2381758Y+6093D01*
X-2381758Y+100689D01*
X-2362839Y+119608D01*
X-2343919Y+119608D01*
X-2325000Y+100689D01*
X-2325000Y+6093D01*
X-2325000Y+100689D02*
X-2306081Y+119608D01*
X-2268242Y+119608D01*
D39*
X-12407160Y-1681160D02*
X-12132840Y-1681160D01*
X-12132840Y-390840D01*
X-12407160Y-390840D01*
X-12407160Y-1681160D01*
D83*
X-12270000Y-528000D02*
X-12270000Y-528000D01*
D119*
X-12249627Y-1524952D02*
X-12290373Y-1524952D01*
X-12290373Y-1490997D01*
X-12283582Y-1484206D01*
X-12276791Y-1484206D01*
X-12270000Y-1490997D01*
X-12270000Y-1524952D01*
X-12270000Y-1490997D02*
X-12263209Y-1484206D01*
X-12249627Y-1484206D01*
X-12249627Y-1470624D02*
X-12276791Y-1470624D01*
X-12290373Y-1457042D01*
X-12290373Y-1443460D01*
X-12276791Y-1429878D01*
X-12249627Y-1429878D01*
X-12263209Y-1470624D02*
X-12263209Y-1429878D01*
X-12249627Y-1416296D02*
X-12290373Y-1416296D01*
X-12290373Y-1389132D01*
X-12276791Y-1375550D01*
X-12263209Y-1375550D01*
X-12249627Y-1389132D01*
X-12249627Y-1416296D01*
X-12290373Y-1355177D02*
X-12290373Y-1328013D01*
X-12290373Y-1341595D02*
X-12249627Y-1341595D01*
X-12249627Y-1355177D02*
X-12249627Y-1328013D01*
X-12276791Y-1307640D02*
X-12290373Y-1294058D01*
X-12290373Y-1280476D01*
X-12276791Y-1266894D01*
X-12263209Y-1266894D01*
X-12249627Y-1280476D01*
X-12249627Y-1294058D01*
X-12263209Y-1307640D01*
X-12276791Y-1307640D01*
X-12290373Y-1171820D02*
X-12276791Y-1185402D01*
X-12263209Y-1185402D01*
X-12249627Y-1171820D01*
X-12249627Y-1144656D02*
X-12290373Y-1144656D01*
X-12290373Y-1103910D02*
X-12249627Y-1103910D01*
X-12270000Y-1144656D02*
X-12270000Y-1103910D01*
X-12256418Y-1049582D02*
X-12249627Y-1056373D01*
X-12249627Y-1076746D01*
X-12263209Y-1090328D01*
X-12276791Y-1090328D01*
X-12290373Y-1076746D01*
X-12290373Y-1056373D01*
X-12283582Y-1049582D01*
X-12270000Y-1029209D02*
X-12270000Y-995254D01*
X-12276791Y-968090D02*
X-12290373Y-954508D01*
X-12249627Y-954508D01*
X-12283582Y-920553D02*
X-12290373Y-913762D01*
X-12290373Y-893389D01*
X-12283582Y-886598D01*
X-12276791Y-886598D01*
X-12270000Y-893389D01*
X-12270000Y-913762D01*
X-12263209Y-920553D01*
X-12249627Y-920553D01*
X-12249627Y-886598D01*
X-12270000Y-811897D02*
X-12270000Y-777942D01*
X-12256418Y-710032D02*
X-12283582Y-710032D01*
X-12290373Y-703241D01*
X-12290373Y-676077D01*
X-12283582Y-669286D01*
X-12256418Y-669286D01*
X-12249627Y-676077D01*
X-12249627Y-703241D01*
X-12256418Y-710032D01*
X-12249627Y-710032D02*
X-12290373Y-669286D01*
X-12290373Y-614958D02*
X-12290373Y-648913D01*
X-12276791Y-648913D01*
X-12276791Y-621749D01*
X-12270000Y-614958D01*
X-12256418Y-614958D01*
X-12249627Y-621749D01*
X-12249627Y-642122D01*
X-12256418Y-648913D01*
X-12290373Y-581003D02*
X-12276791Y-567421D01*
X-12263209Y-567421D01*
X-12249627Y-581003D01*
D39*
X-2278900Y+1045100D02*
X-2101100Y+1045100D01*
X-2101100Y+2238900D01*
X-2278900Y+2238900D01*
X-2278900Y+1045100D01*
D81*
X-2190000Y+1134000D02*
X-2190000Y+1134000D01*
D103*
X-2157996Y+1513984D02*
X-2222004Y+1513984D01*
X-2222004Y+1567324D01*
X-2211336Y+1577992D01*
X-2200668Y+1577992D01*
X-2190000Y+1567324D01*
X-2190000Y+1513984D01*
X-2190000Y+1567324D02*
X-2179332Y+1577992D01*
X-2157996Y+1577992D01*
X-2200668Y+1620664D02*
X-2222004Y+1642000D01*
X-2157996Y+1642000D01*
X-2168664Y+1684672D02*
X-2211336Y+1684672D01*
X-2222004Y+1695340D01*
X-2222004Y+1738012D01*
X-2211336Y+1748680D01*
X-2168664Y+1748680D01*
X-2157996Y+1738012D01*
X-2157996Y+1695340D01*
X-2168664Y+1684672D01*
X-2157996Y+1684672D02*
X-2222004Y+1748680D01*
D39*
X-1828900Y+1051100D02*
X-1651100Y+1051100D01*
X-1651100Y+2244900D01*
X-1828900Y+2244900D01*
X-1828900Y+1051100D01*
D81*
X-1740000Y+2156000D02*
X-1740000Y+2156000D01*
D103*
X-1707996Y+1519984D02*
X-1772004Y+1519984D01*
X-1772004Y+1573324D01*
X-1761336Y+1583992D01*
X-1750668Y+1583992D01*
X-1740000Y+1573324D01*
X-1740000Y+1519984D01*
X-1740000Y+1573324D02*
X-1729332Y+1583992D01*
X-1707996Y+1583992D01*
X-1750668Y+1626664D02*
X-1772004Y+1648000D01*
X-1707996Y+1648000D01*
X-1750668Y+1712008D02*
X-1772004Y+1733344D01*
X-1707996Y+1733344D01*
D39*
X-2708900Y+2861100D02*
X-1515100Y+2861100D01*
X-1515100Y+3038900D01*
X-2708900Y+3038900D01*
X-2708900Y+2861100D01*
D81*
X-2620000Y+2950000D02*
X-2620000Y+2950000D01*
D103*
X-2240016Y+2917996D02*
X-2240016Y+2982004D01*
X-2186676Y+2982004D01*
X-2176008Y+2971336D01*
X-2176008Y+2960668D01*
X-2186676Y+2950000D01*
X-2240016Y+2950000D01*
X-2186676Y+2950000D02*
X-2176008Y+2939332D01*
X-2176008Y+2917996D01*
X-2090664Y+2939332D02*
X-2154672Y+2939332D01*
X-2112000Y+2982004D01*
X-2112000Y+2917996D01*
X-2058660Y+2982004D02*
X-2005320Y+2982004D01*
X-2005320Y+2971336D01*
X-2058660Y+2917996D01*
D39*
X-1127160Y+2498840D02*
X-852840Y+2498840D01*
X-852840Y+3027160D01*
X-1127160Y+3027160D01*
X-1127160Y+2498840D01*
D83*
X-990000Y+2890000D02*
X-990000Y+2890000D01*
D88*
X-957081Y+2730081D02*
X-940622Y+2713622D01*
X-940622Y+2664245D01*
X-973540Y+2631327D01*
X-1006459Y+2631327D01*
X-1039377Y+2664245D01*
X-1039377Y+2713622D01*
X-1022918Y+2730081D01*
X-1039377Y+2763000D02*
X-1039377Y+2861754D01*
X-1039377Y+2812377D02*
X-940622Y+2812377D01*
D39*
X-2708900Y+2491100D02*
X-1515100Y+2491100D01*
X-1515100Y+2668900D01*
X-2708900Y+2668900D01*
X-2708900Y+2491100D01*
D81*
X-1604000Y+2580000D02*
X-1604000Y+2580000D01*
D103*
X-2240016Y+2547996D02*
X-2240016Y+2612004D01*
X-2186676Y+2612004D01*
X-2176008Y+2601336D01*
X-2176008Y+2590668D01*
X-2186676Y+2580000D01*
X-2240016Y+2580000D01*
X-2186676Y+2580000D02*
X-2176008Y+2569332D01*
X-2176008Y+2547996D01*
X-2090664Y+2569332D02*
X-2154672Y+2569332D01*
X-2112000Y+2612004D01*
X-2112000Y+2547996D01*
X-2047992Y+2580000D02*
X-2058660Y+2590668D01*
X-2058660Y+2601336D01*
X-2047992Y+2612004D01*
X-2015988Y+2612004D01*
X-2005320Y+2601336D01*
X-2005320Y+2590668D01*
X-2015988Y+2580000D01*
X-2047992Y+2580000D01*
X-2058660Y+2569332D01*
X-2058660Y+2558664D01*
X-2047992Y+2547996D01*
X-2015988Y+2547996D01*
X-2005320Y+2558664D01*
X-2005320Y+2569332D01*
X-2015988Y+2580000D01*
D39*
X-528900Y+2125100D02*
X-351100Y+2125100D01*
X-351100Y+3318900D01*
X-528900Y+3318900D01*
X-528900Y+2125100D01*
D81*
X-440000Y+3230000D02*
X-440000Y+3230000D01*
D103*
X-407996Y+2465968D02*
X-472004Y+2465968D01*
X-472004Y+2519308D01*
X-461336Y+2529976D01*
X-450668Y+2529976D01*
X-440000Y+2519308D01*
X-429332Y+2529976D01*
X-418664Y+2529976D01*
X-407996Y+2519308D01*
X-407996Y+2465968D01*
X-440000Y+2465968D02*
X-440000Y+2519308D01*
X-472004Y+2551312D02*
X-418664Y+2551312D01*
X-407996Y+2561980D01*
X-407996Y+2604652D01*
X-418664Y+2615320D01*
X-472004Y+2615320D01*
X-407996Y+2636656D02*
X-472004Y+2636656D01*
X-472004Y+2689996D01*
X-461336Y+2700664D01*
X-450668Y+2700664D01*
X-440000Y+2689996D01*
X-440000Y+2636656D01*
X-440000Y+2689996D02*
X-429332Y+2700664D01*
X-407996Y+2700664D01*
X-407996Y+2722000D02*
X-472004Y+2722000D01*
X-472004Y+2764672D01*
X-450668Y+2786008D01*
X-429332Y+2786008D01*
X-407996Y+2764672D01*
X-407996Y+2722000D01*
X-407996Y+2871352D02*
X-407996Y+2807344D01*
X-472004Y+2807344D01*
X-472004Y+2871352D01*
X-440000Y+2807344D02*
X-440000Y+2850016D01*
X-407996Y+2892688D02*
X-472004Y+2892688D01*
X-407996Y+2956696D01*
X-472004Y+2956696D01*
D105*
X+295000Y+2770000D02*
X+294914Y+2772076D01*
X+294212Y+2776229D01*
X+292742Y+2780382D01*
X+290340Y+2784535D01*
X+286667Y+2788634D01*
X+282514Y+2791643D01*
X+278361Y+2793560D01*
X+274208Y+2794643D01*
X+270055Y+2795000D01*
X+270000Y+2795000D01*
X+245000Y+2770000D02*
X+245086Y+2772076D01*
X+245788Y+2776229D01*
X+247258Y+2780382D01*
X+249660Y+2784535D01*
X+253333Y+2788634D01*
X+257486Y+2791643D01*
X+261639Y+2793560D01*
X+265792Y+2794643D01*
X+269945Y+2795000D01*
X+270000Y+2795000D01*
X+245000Y+2770000D02*
X+245086Y+2767924D01*
X+245788Y+2763771D01*
X+247258Y+2759618D01*
X+249660Y+2755465D01*
X+253333Y+2751366D01*
X+257486Y+2748357D01*
X+261639Y+2746440D01*
X+265792Y+2745357D01*
X+269945Y+2745000D01*
X+270000Y+2745000D01*
X+295000Y+2770000D02*
X+294914Y+2767924D01*
X+294212Y+2763771D01*
X+292742Y+2759618D01*
X+290340Y+2755465D01*
X+286667Y+2751366D01*
X+282514Y+2748357D01*
X+278361Y+2746440D01*
X+274208Y+2745357D01*
X+270055Y+2745000D01*
X+270000Y+2745000D01*
X+305000Y+2770000D02*
X+235000Y+2770000D01*
X+270000Y+2805000D02*
X+270000Y+2735000D01*
X-70000Y+3110000D02*
X-70000Y+2770000D01*
X-63235Y+2700481D01*
X-43770Y+2636191D01*
X-12849Y+2578376D01*
X+28281Y+2528281D01*
X+78376Y+2487151D01*
X+136191Y+2456230D01*
X+200481Y+2436765D01*
X+270000Y+2430000D01*
X+339519Y+2436765D01*
X+403809Y+2456230D01*
X+461624Y+2487151D01*
X+511719Y+2528281D01*
X+552849Y+2578376D01*
X+583770Y+2636191D01*
X+603235Y+2700481D01*
X+610000Y+2770000D01*
X+603235Y+2839519D01*
X+583770Y+2903809D01*
X+552849Y+2961624D01*
X+511719Y+3011719D01*
X+461624Y+3052849D01*
X+403809Y+3083770D01*
X+339519Y+3103235D01*
X+270000Y+3110000D01*
X-70000Y+3110000D01*
D109*
X+395000Y+2770000D02*
X+395000Y+2770000D01*
D120*
X+167250Y+2735750D02*
X+150125Y+2718625D01*
X+98750Y+2718625D01*
X+64500Y+2752875D01*
X+64500Y+2787125D01*
X+98750Y+2821375D01*
X+150125Y+2821375D01*
X+167250Y+2804250D01*
X+235750Y+2787125D02*
X+270000Y+2821375D01*
X+270000Y+2718625D01*
X+372750Y+2787125D02*
X+407000Y+2821375D01*
X+407000Y+2718625D01*
D39*
X-9693060Y-1065260D02*
X-8986940Y-1065260D01*
X-8986940Y-562340D01*
X-9693060Y-562340D01*
X-9693060Y-1065260D01*
D114*
X-9543200Y-890000D02*
X-9543200Y-890000D01*
D117*
X-9551836Y-796147D02*
X-9516530Y-760841D01*
X-9481224Y-760841D01*
X-9445918Y-796147D01*
X-9445918Y-831453D01*
X-9481224Y-866759D01*
X-9516530Y-866759D01*
X-9551836Y-831453D01*
X-9551836Y-796147D01*
X-9481224Y-831453D02*
X-9445918Y-866759D01*
X-9375306Y-796147D02*
X-9340000Y-760841D01*
X-9340000Y-866759D01*
X-9163470Y-778494D02*
X-9181123Y-760841D01*
X-9234082Y-760841D01*
X-9251735Y-778494D01*
X-9251735Y-849106D01*
X-9234082Y-866759D01*
X-9181123Y-866759D01*
X-9163470Y-849106D01*
X-9163470Y-831453D01*
X-9181123Y-813800D01*
X-9251735Y-813800D01*
D39*
X-8668900Y-534900D02*
X-8491100Y-534900D01*
X-8491100Y+658900D01*
X-8668900Y+658900D01*
X-8668900Y-534900D01*
D81*
X-8580000Y+570000D02*
X-8580000Y+570000D01*
D103*
X-8547996Y-66016D02*
X-8612004Y-66016D01*
X-8612004Y-12676D01*
X-8601336Y-2008D01*
X-8590668Y-2008D01*
X-8580000Y-12676D01*
X-8580000Y-66016D01*
X-8580000Y-12676D02*
X-8569332Y-2008D01*
X-8547996Y-2008D01*
X-8612004Y+83336D02*
X-8612004Y+29996D01*
X-8590668Y+29996D01*
X-8590668Y+72668D01*
X-8580000Y+83336D01*
X-8558664Y+83336D01*
X-8547996Y+72668D01*
X-8547996Y+40664D01*
X-8558664Y+29996D01*
X-8590668Y+126008D02*
X-8612004Y+147344D01*
X-8547996Y+147344D01*
D39*
X-9948900Y-338900D02*
X-8755100Y-338900D01*
X-8755100Y-161100D01*
X-9948900Y-161100D01*
X-9948900Y-338900D01*
D81*
X-9860000Y-250000D02*
X-9860000Y-250000D01*
D103*
X-9480016Y-282004D02*
X-9480016Y-217996D01*
X-9426676Y-217996D01*
X-9416008Y-228664D01*
X-9416008Y-239332D01*
X-9426676Y-250000D01*
X-9480016Y-250000D01*
X-9426676Y-250000D02*
X-9416008Y-260668D01*
X-9416008Y-282004D01*
X-9330664Y-217996D02*
X-9384004Y-217996D01*
X-9384004Y-239332D01*
X-9341332Y-239332D01*
X-9330664Y-250000D01*
X-9330664Y-271336D01*
X-9341332Y-282004D01*
X-9373336Y-282004D01*
X-9384004Y-271336D01*
X-9298660Y-228664D02*
X-9287992Y-217996D01*
X-9255988Y-217996D01*
X-9245320Y-228664D01*
X-9245320Y-239332D01*
X-9255988Y-250000D01*
X-9287992Y-250000D01*
X-9298660Y-260668D01*
X-9298660Y-282004D01*
X-9245320Y-282004D01*
D39*
X-8151160Y-1717160D02*
X-7622840Y-1717160D01*
X-7622840Y-1442840D01*
X-8151160Y-1442840D01*
X-8151160Y-1717160D01*
D83*
X-8014000Y-1580000D02*
X-8014000Y-1580000D01*
D98*
X-8068137Y-1602643D02*
X-8068137Y-1557358D01*
X-8030401Y-1557358D01*
X-8022853Y-1564906D01*
X-8022853Y-1572453D01*
X-8030401Y-1580000D01*
X-8022853Y-1587548D01*
X-8022853Y-1595095D01*
X-8030401Y-1602643D01*
X-8068137Y-1602643D01*
X-8068137Y-1580000D02*
X-8030401Y-1580000D01*
X-8007758Y-1557358D02*
X-8007758Y-1595095D01*
X-8000211Y-1602643D01*
X-7970022Y-1602643D01*
X-7962474Y-1595095D01*
X-7962474Y-1557358D01*
X-7947379Y-1557358D02*
X-7902095Y-1557358D01*
X-7947379Y-1602643D01*
X-7902095Y-1602643D01*
X-7887000Y-1557358D02*
X-7841716Y-1557358D01*
X-7887000Y-1602643D01*
X-7841716Y-1602643D01*
X-7781337Y-1602643D02*
X-7826621Y-1602643D01*
X-7826621Y-1557358D01*
X-7781337Y-1557358D01*
X-7826621Y-1580000D02*
X-7796432Y-1580000D01*
X-7766242Y-1602643D02*
X-7766242Y-1557358D01*
X-7728506Y-1557358D01*
X-7720958Y-1564906D01*
X-7720958Y-1572453D01*
X-7728506Y-1580000D01*
X-7766242Y-1580000D01*
X-7728506Y-1580000D02*
X-7720958Y-1587548D01*
X-7720958Y-1602643D01*
D39*
X+9692840Y-2011160D02*
X+9967160Y-2011160D01*
X+9967160Y-1482840D01*
X+9692840Y-1482840D01*
X+9692840Y-2011160D01*
D83*
X+9830000Y-1620000D02*
X+9830000Y-1620000D01*
D99*
X+9869624Y-1905496D02*
X+9790376Y-1905496D01*
X+9790376Y-1826248D01*
X+9830000Y-1905496D02*
X+9830000Y-1852664D01*
X+9869624Y-1799832D02*
X+9816792Y-1799832D01*
X+9790376Y-1773416D01*
X+9790376Y-1747000D01*
X+9816792Y-1720584D01*
X+9869624Y-1720584D01*
X+9843208Y-1799832D02*
X+9843208Y-1720584D01*
X+9869624Y-1694168D02*
X+9790376Y-1694168D01*
X+9869624Y-1614920D01*
X+9790376Y-1614920D01*
D39*
X+8755840Y-1857160D02*
X+9157160Y-1857160D01*
X+9157160Y-1125640D01*
X+8755840Y-1125640D01*
X+8755840Y-1857160D01*
D116*
X+9020000Y-1720000D02*
X+9020000Y-1720000D01*
D94*
X+8932421Y-1684033D02*
X+8884263Y-1635875D01*
X+8884263Y-1587717D01*
X+8932421Y-1539559D01*
X+8980580Y-1539559D01*
X+9028738Y-1587717D01*
X+9028738Y-1635875D01*
X+8980580Y-1684033D01*
X+8932421Y-1684033D01*
X+8980580Y-1587717D02*
X+9028738Y-1539559D01*
X+8980580Y-1346926D02*
X+8980580Y-1491400D01*
X+8884263Y-1395084D01*
X+9028738Y-1395084D01*
D39*
X+8471100Y-2014900D02*
X+8648900Y-2014900D01*
X+8648900Y-821100D01*
X+8471100Y-821100D01*
X+8471100Y-2014900D01*
D81*
X+8560000Y-910000D02*
X+8560000Y-910000D01*
D103*
X+8592004Y-1546016D02*
X+8527996Y-1546016D01*
X+8527996Y-1492676D01*
X+8538664Y-1482008D01*
X+8549332Y-1482008D01*
X+8560000Y-1492676D01*
X+8560000Y-1546016D01*
X+8560000Y-1492676D02*
X+8570668Y-1482008D01*
X+8592004Y-1482008D01*
X+8570668Y-1396664D02*
X+8570668Y-1460672D01*
X+8527996Y-1418000D01*
X+8592004Y-1418000D01*
X+8549332Y-1311320D02*
X+8560000Y-1321988D01*
X+8560000Y-1353992D01*
X+8549332Y-1364660D01*
X+8538664Y-1364660D01*
X+8527996Y-1353992D01*
X+8527996Y-1321988D01*
X+8538664Y-1311320D01*
X+8581336Y-1311320D01*
X+8592004Y-1321988D01*
X+8592004Y-1353992D01*
D39*
X+9241100Y-2008900D02*
X+9418900Y-2008900D01*
X+9418900Y-815100D01*
X+9241100Y-815100D01*
X+9241100Y-2008900D01*
D81*
X+9330000Y-1920000D02*
X+9330000Y-1920000D01*
D103*
X+9362004Y-1540016D02*
X+9297996Y-1540016D01*
X+9297996Y-1486676D01*
X+9308664Y-1476008D01*
X+9319332Y-1476008D01*
X+9330000Y-1486676D01*
X+9330000Y-1540016D01*
X+9330000Y-1486676D02*
X+9340668Y-1476008D01*
X+9362004Y-1476008D01*
X+9297996Y-1390664D02*
X+9297996Y-1444004D01*
X+9319332Y-1444004D01*
X+9319332Y-1401332D01*
X+9330000Y-1390664D01*
X+9351336Y-1390664D01*
X+9362004Y-1401332D01*
X+9362004Y-1433336D01*
X+9351336Y-1444004D01*
X+9351336Y-1369328D02*
X+9308664Y-1369328D01*
X+9297996Y-1358660D01*
X+9297996Y-1315988D01*
X+9308664Y-1305320D01*
X+9351336Y-1305320D01*
X+9362004Y-1315988D01*
X+9362004Y-1358660D01*
X+9351336Y-1369328D01*
X+9362004Y-1369328D02*
X+9297996Y-1305320D01*
D39*
X+3062840Y+6042840D02*
X+4099160Y+6042840D01*
X+4099160Y+6317160D01*
X+3062840Y+6317160D01*
X+3062840Y+6042840D01*
D83*
X+3200000Y+6180000D02*
X+3200000Y+6180000D01*
D121*
X+3241844Y+6170579D02*
X+3260686Y+6170579D01*
X+3260686Y+6151737D01*
X+3223002Y+6151737D01*
X+3204160Y+6170579D01*
X+3204160Y+6189421D01*
X+3223002Y+6208263D01*
X+3251265Y+6208263D01*
X+3260686Y+6198842D01*
X+3336054Y+6151737D02*
X+3279528Y+6151737D01*
X+3279528Y+6208263D01*
X+3336054Y+6208263D01*
X+3279528Y+6180000D02*
X+3317212Y+6180000D01*
X+3354896Y+6151737D02*
X+3354896Y+6208263D01*
X+3411422Y+6151737D01*
X+3411422Y+6208263D01*
X+3505632Y+6161158D02*
X+3515053Y+6151737D01*
X+3552737Y+6151737D01*
X+3562158Y+6161158D01*
X+3562158Y+6170579D01*
X+3552737Y+6180000D01*
X+3515053Y+6180000D01*
X+3505632Y+6189421D01*
X+3505632Y+6198842D01*
X+3515053Y+6208263D01*
X+3552737Y+6208263D01*
X+3562158Y+6198842D01*
X+3590421Y+6208263D02*
X+3628105Y+6208263D01*
X+3609263Y+6208263D02*
X+3609263Y+6151737D01*
X+3590421Y+6151737D02*
X+3628105Y+6151737D01*
X+3694052Y+6170579D02*
X+3712894Y+6170579D01*
X+3712894Y+6151737D01*
X+3675210Y+6151737D01*
X+3656368Y+6170579D01*
X+3656368Y+6189421D01*
X+3675210Y+6208263D01*
X+3703473Y+6208263D01*
X+3712894Y+6198842D01*
X+3731736Y+6151737D02*
X+3731736Y+6208263D01*
X+3788262Y+6151737D01*
X+3788262Y+6208263D01*
X+3807104Y+6151737D02*
X+3807104Y+6189421D01*
X+3825946Y+6208263D01*
X+3844788Y+6208263D01*
X+3863630Y+6189421D01*
X+3863630Y+6151737D01*
X+3807104Y+6170579D02*
X+3863630Y+6170579D01*
X+3882472Y+6208263D02*
X+3882472Y+6151737D01*
X+3938998Y+6151737D01*
D39*
X+442300Y+5695800D02*
X+2917700Y+5695800D01*
X+2917700Y+6252700D01*
X+442300Y+6252700D01*
X+442300Y+5695800D01*
D122*
X+2696000Y+5910000D02*
X+2696000Y+5910000D01*
D123*
X+1011720Y+5940836D02*
X+1078548Y+5940836D01*
X+1078548Y+5874008D01*
X+944892Y+5874008D01*
X+878064Y+5940836D01*
X+878064Y+6007664D01*
X+944892Y+6074492D01*
X+1045134Y+6074492D01*
X+1078548Y+6041078D01*
X+1345860Y+5874008D02*
X+1145376Y+5874008D01*
X+1145376Y+6074492D01*
X+1345860Y+6074492D01*
X+1145376Y+5974250D02*
X+1279032Y+5974250D01*
X+1412688Y+5874008D02*
X+1412688Y+6074492D01*
X+1613172Y+5874008D01*
X+1613172Y+6074492D01*
X+1947312Y+5907422D02*
X+1980726Y+5874008D01*
X+2114382Y+5874008D01*
X+2147796Y+5907422D01*
X+2147796Y+5940836D01*
X+2114382Y+5974250D01*
X+1980726Y+5974250D01*
X+1947312Y+6007664D01*
X+1947312Y+6041078D01*
X+1980726Y+6074492D01*
X+2114382Y+6074492D01*
X+2147796Y+6041078D01*
X+2214624Y+6074492D02*
X+2214624Y+5874008D01*
X+2314866Y+5974250D01*
X+2415108Y+5874008D01*
X+2415108Y+6074492D01*
D39*
X+5142300Y+5767300D02*
X+7617700Y+5767300D01*
X+7617700Y+6324200D01*
X+5142300Y+6324200D01*
X+5142300Y+5767300D01*
D122*
X+5364000Y+6110000D02*
X+5364000Y+6110000D01*
D124*
X+5637380Y+6014808D02*
X+5699265Y+6014808D01*
X+5699265Y+5952923D01*
X+5575495Y+5952923D01*
X+5513610Y+6014808D01*
X+5513610Y+6076693D01*
X+5575495Y+6138578D01*
X+5668322Y+6138578D01*
X+5699265Y+6107635D01*
X+5946805Y+5952923D02*
X+5761150Y+5952923D01*
X+5761150Y+6138578D01*
X+5946805Y+6138578D01*
X+5761150Y+6045750D02*
X+5884920Y+6045750D01*
X+6008690Y+5952923D02*
X+6008690Y+6138578D01*
X+6194345Y+5952923D01*
X+6194345Y+6138578D01*
X+6503770Y+6138578D02*
X+6503770Y+5952923D01*
X+6689425Y+6138578D02*
X+6596597Y+6045750D01*
X+6689425Y+5952923D01*
X+6503770Y+6045750D02*
X+6596597Y+6045750D01*
X+6936965Y+5952923D02*
X+6751310Y+5952923D01*
X+6751310Y+6138578D01*
X+6936965Y+6138578D01*
X+6751310Y+6045750D02*
X+6875080Y+6045750D01*
X+7184505Y+6138578D02*
X+6998850Y+5952923D01*
X+6998850Y+6138578D02*
X+7091677Y+6045750D01*
D39*
X+758840Y+4332840D02*
X+1287160Y+4332840D01*
X+1287160Y+4607160D01*
X+758840Y+4607160D01*
X+758840Y+4332840D01*
D83*
X+1150000Y+4470000D02*
X+1150000Y+4470000D01*
D99*
X+864504Y+4509624D02*
X+864504Y+4430376D01*
X+943752Y+4509624D02*
X+904128Y+4470000D01*
X+943752Y+4430376D01*
X+864504Y+4470000D02*
X+904128Y+4470000D01*
X+1049416Y+4430376D02*
X+970168Y+4430376D01*
X+970168Y+4509624D01*
X+1049416Y+4509624D01*
X+970168Y+4470000D02*
X+1023000Y+4470000D01*
X+1155080Y+4509624D02*
X+1075832Y+4430376D01*
X+1075832Y+4509624D02*
X+1115456Y+4470000D01*
D39*
X+455100Y+5061100D02*
X+1648900Y+5061100D01*
X+1648900Y+5238900D01*
X+455100Y+5238900D01*
X+455100Y+5061100D01*
D81*
X+1560000Y+5150000D02*
X+1560000Y+5150000D01*
D103*
X+923984Y+5117996D02*
X+923984Y+5182004D01*
X+977324Y+5182004D01*
X+987992Y+5171336D01*
X+987992Y+5160668D01*
X+977324Y+5150000D01*
X+923984Y+5150000D01*
X+977324Y+5150000D02*
X+987992Y+5139332D01*
X+987992Y+5117996D01*
X+1073336Y+5182004D02*
X+1019996Y+5182004D01*
X+1019996Y+5160668D01*
X+1062668Y+5160668D01*
X+1073336Y+5150000D01*
X+1073336Y+5128664D01*
X+1062668Y+5117996D01*
X+1030664Y+5117996D01*
X+1019996Y+5128664D01*
X+1105340Y+5171336D02*
X+1116008Y+5182004D01*
X+1148012Y+5182004D01*
X+1158680Y+5171336D01*
X+1158680Y+5160668D01*
X+1148012Y+5150000D01*
X+1158680Y+5139332D01*
X+1158680Y+5128664D01*
X+1148012Y+5117996D01*
X+1116008Y+5117996D01*
X+1105340Y+5128664D01*
X+1126676Y+5150000D02*
X+1148012Y+5150000D01*
D39*
X+758840Y+4742840D02*
X+1287160Y+4742840D01*
X+1287160Y+5017160D01*
X+758840Y+5017160D01*
X+758840Y+4742840D01*
D83*
X+1150000Y+4880000D02*
X+1150000Y+4880000D01*
D88*
X+891327Y+4847081D02*
X+907786Y+4830622D01*
X+973622Y+4830622D01*
X+990081Y+4847081D01*
X+990081Y+4863540D01*
X+973622Y+4880000D01*
X+907786Y+4880000D01*
X+891327Y+4896459D01*
X+891327Y+4912918D01*
X+907786Y+4929377D01*
X+973622Y+4929377D01*
X+990081Y+4912918D01*
X+1023000Y+4929377D02*
X+1023000Y+4830622D01*
X+1072377Y+4880000D01*
X+1121754Y+4830622D01*
X+1121754Y+4929377D01*
D39*
X+3381100Y+5641100D02*
X+4574900Y+5641100D01*
X+4574900Y+5818900D01*
X+3381100Y+5818900D01*
X+3381100Y+5641100D01*
D81*
X+3470000Y+5730000D02*
X+3470000Y+5730000D01*
D103*
X+3849984Y+5697996D02*
X+3849984Y+5762004D01*
X+3903324Y+5762004D01*
X+3913992Y+5751336D01*
X+3913992Y+5740668D01*
X+3903324Y+5730000D01*
X+3849984Y+5730000D01*
X+3903324Y+5730000D02*
X+3913992Y+5719332D01*
X+3913992Y+5697996D01*
X+3999336Y+5762004D02*
X+3945996Y+5762004D01*
X+3945996Y+5740668D01*
X+3988668Y+5740668D01*
X+3999336Y+5730000D01*
X+3999336Y+5708664D01*
X+3988668Y+5697996D01*
X+3956664Y+5697996D01*
X+3945996Y+5708664D01*
X+4084680Y+5719332D02*
X+4020672Y+5719332D01*
X+4063344Y+5762004D01*
X+4063344Y+5697996D01*
D39*
X+4353560Y+6042840D02*
X+4881880Y+6042840D01*
X+4881880Y+6317160D01*
X+4353560Y+6317160D01*
X+4353560Y+6042840D01*
D83*
X+4490720Y+6180000D02*
X+4490720Y+6180000D01*
D125*
X+4512056Y+6158867D02*
X+4501489Y+6148300D01*
X+4469790Y+6148300D01*
X+4448658Y+6169433D01*
X+4448658Y+6190566D01*
X+4469790Y+6211699D01*
X+4501489Y+6211699D01*
X+4512056Y+6201132D01*
X+4533189Y+6190566D02*
X+4554321Y+6211699D01*
X+4575454Y+6211699D01*
X+4596587Y+6190566D01*
X+4596587Y+6169433D01*
X+4575454Y+6148300D01*
X+4554321Y+6148300D01*
X+4533189Y+6169433D01*
X+4533189Y+6190566D01*
X+4628286Y+6211699D02*
X+4670551Y+6211699D01*
X+4649419Y+6211699D02*
X+4649419Y+6148300D01*
X+4628286Y+6148300D02*
X+4670551Y+6148300D01*
X+4702251Y+6211699D02*
X+4702251Y+6148300D01*
X+4765649Y+6148300D01*
D39*
X+764540Y+3934460D02*
X+1292860Y+3934460D01*
X+1292860Y+4208780D01*
X+764540Y+4208780D01*
X+764540Y+3934460D01*
D83*
X+901700Y+4071620D02*
X+901700Y+4071620D01*
D126*
X+864336Y+4065749D02*
X+876076Y+4065749D01*
X+876076Y+4054009D01*
X+852596Y+4054009D01*
X+840856Y+4065749D01*
X+840856Y+4077490D01*
X+852596Y+4089230D01*
X+870206Y+4089230D01*
X+876076Y+4083360D01*
X+905427Y+4059879D02*
X+911297Y+4059879D01*
X+911297Y+4054009D01*
X+905427Y+4054009D01*
X+905427Y+4059879D01*
X+981739Y+4059879D02*
X+987609Y+4054009D01*
X+1011089Y+4054009D01*
X+1016959Y+4059879D01*
X+1016959Y+4065749D01*
X+1011089Y+4071620D01*
X+987609Y+4071620D01*
X+981739Y+4077490D01*
X+981739Y+4083360D01*
X+987609Y+4089230D01*
X+1011089Y+4089230D01*
X+1016959Y+4083360D01*
X+1063920Y+4054009D02*
X+1028700Y+4054009D01*
X+1028700Y+4089230D01*
X+1063920Y+4089230D01*
X+1028700Y+4071620D02*
X+1052180Y+4071620D01*
X+1075661Y+4054009D02*
X+1075661Y+4089230D01*
X+1110881Y+4054009D01*
X+1110881Y+4089230D01*
X+1122622Y+4059879D02*
X+1128492Y+4054009D01*
X+1151972Y+4054009D01*
X+1157842Y+4059879D01*
X+1157842Y+4065749D01*
X+1151972Y+4071620D01*
X+1128492Y+4071620D01*
X+1122622Y+4077490D01*
X+1122622Y+4083360D01*
X+1128492Y+4089230D01*
X+1151972Y+4089230D01*
X+1157842Y+4083360D01*
X+1204803Y+4054009D02*
X+1169583Y+4054009D01*
X+1169583Y+4089230D01*
X+1204803Y+4089230D01*
X+1169583Y+4071620D02*
X+1193063Y+4071620D01*
D39*
X+1112520Y+3538220D02*
X+2306320Y+3538220D01*
X+2306320Y+3716020D01*
X+1112520Y+3716020D01*
X+1112520Y+3538220D01*
D81*
X+2217420Y+3627120D02*
X+2217420Y+3627120D01*
D103*
X+1581404Y+3595116D02*
X+1581404Y+3659124D01*
X+1634744Y+3659124D01*
X+1645412Y+3648456D01*
X+1645412Y+3637788D01*
X+1634744Y+3627120D01*
X+1581404Y+3627120D01*
X+1634744Y+3627120D02*
X+1645412Y+3616452D01*
X+1645412Y+3595116D01*
X+1730756Y+3659124D02*
X+1677416Y+3659124D01*
X+1677416Y+3637788D01*
X+1720088Y+3637788D01*
X+1730756Y+3627120D01*
X+1730756Y+3605784D01*
X+1720088Y+3595116D01*
X+1688084Y+3595116D01*
X+1677416Y+3605784D01*
X+1816100Y+3659124D02*
X+1762760Y+3659124D01*
X+1762760Y+3637788D01*
X+1805432Y+3637788D01*
X+1816100Y+3627120D01*
X+1816100Y+3605784D01*
X+1805432Y+3595116D01*
X+1773428Y+3595116D01*
X+1762760Y+3605784D01*
D39*
X+1104900Y+3225800D02*
X+2298700Y+3225800D01*
X+2298700Y+3403600D01*
X+1104900Y+3403600D01*
X+1104900Y+3225800D01*
D81*
X+2209800Y+3314700D02*
X+2209800Y+3314700D01*
D103*
X+1573784Y+3282696D02*
X+1573784Y+3346704D01*
X+1627124Y+3346704D01*
X+1637792Y+3336036D01*
X+1637792Y+3325368D01*
X+1627124Y+3314700D01*
X+1573784Y+3314700D01*
X+1627124Y+3314700D02*
X+1637792Y+3304032D01*
X+1637792Y+3282696D01*
X+1723136Y+3346704D02*
X+1669796Y+3346704D01*
X+1669796Y+3325368D01*
X+1712468Y+3325368D01*
X+1723136Y+3314700D01*
X+1723136Y+3293364D01*
X+1712468Y+3282696D01*
X+1680464Y+3282696D01*
X+1669796Y+3293364D01*
X+1808480Y+3336036D02*
X+1797812Y+3346704D01*
X+1765808Y+3346704D01*
X+1755140Y+3336036D01*
X+1755140Y+3293364D01*
X+1765808Y+3282696D01*
X+1797812Y+3282696D01*
X+1808480Y+3293364D01*
X+1808480Y+3304032D01*
X+1797812Y+3314700D01*
X+1755140Y+3314700D01*
D39*
X+802640Y+2621280D02*
X+980440Y+2621280D01*
X+980440Y+3815080D01*
X+802640Y+3815080D01*
X+802640Y+2621280D01*
D81*
X+891540Y+3726180D02*
X+891540Y+3726180D01*
D103*
X+923544Y+3090164D02*
X+859536Y+3090164D01*
X+859536Y+3143504D01*
X+870204Y+3154172D01*
X+880872Y+3154172D01*
X+891540Y+3143504D01*
X+891540Y+3090164D01*
X+891540Y+3143504D02*
X+902208Y+3154172D01*
X+923544Y+3154172D01*
X+859536Y+3239516D02*
X+859536Y+3186176D01*
X+880872Y+3186176D01*
X+880872Y+3228848D01*
X+891540Y+3239516D01*
X+912876Y+3239516D01*
X+923544Y+3228848D01*
X+923544Y+3196844D01*
X+912876Y+3186176D01*
X+859536Y+3271520D02*
X+859536Y+3324860D01*
X+870204Y+3324860D01*
X+923544Y+3271520D01*
D39*
X+1292860Y+2186940D02*
X+2075180Y+2186940D01*
X+2075180Y+3075940D01*
X+1292860Y+3075940D01*
X+1292860Y+2186940D01*
D108*
X+1750695Y+2364740D02*
X+1617345Y+2364740D01*
X+1617345Y+2475865D01*
X+1639570Y+2498090D01*
X+1661795Y+2498090D01*
X+1684020Y+2475865D01*
X+1706245Y+2498090D01*
X+1728470Y+2498090D01*
X+1750695Y+2475865D01*
X+1750695Y+2364740D01*
X+1684020Y+2364740D02*
X+1684020Y+2475865D01*
X+1750695Y+2542540D02*
X+1617345Y+2542540D01*
X+1617345Y+2653665D01*
X+1639570Y+2675890D01*
X+1661795Y+2675890D01*
X+1684020Y+2653665D01*
X+1684020Y+2542540D01*
X+1684020Y+2653665D02*
X+1706245Y+2675890D01*
X+1750695Y+2675890D01*
X+1639570Y+2742565D02*
X+1617345Y+2764790D01*
X+1617345Y+2831465D01*
X+1639570Y+2853690D01*
X+1661795Y+2853690D01*
X+1684020Y+2831465D01*
X+1706245Y+2853690D01*
X+1728470Y+2853690D01*
X+1750695Y+2831465D01*
X+1750695Y+2764790D01*
X+1728470Y+2742565D01*
X+1684020Y+2787015D02*
X+1684020Y+2831465D01*
D105*
X+181700Y+1747760D02*
X+1113700Y+1747760D01*
X+1113700Y+2285760D01*
X+181700Y+2285760D01*
X+181700Y+1747760D01*
D106*
X+1028700Y+1889760D02*
X+1028700Y+1889760D01*
D107*
X+397834Y+2110460D02*
X+397834Y+1954293D01*
X+429067Y+1923060D01*
X+554000Y+1923060D01*
X+585233Y+1954293D01*
X+585233Y+2110460D01*
X+710166Y+2047993D02*
X+772633Y+2110460D01*
X+772633Y+1923060D01*
D105*
X-7087000Y-646500D02*
X-7087086Y-644424D01*
X-7087788Y-640271D01*
X-7089258Y-636118D01*
X-7091660Y-631965D01*
X-7095333Y-627866D01*
X-7099486Y-624857D01*
X-7103639Y-622940D01*
X-7107792Y-621857D01*
X-7111945Y-621500D01*
X-7112000Y-621500D01*
X-7137000Y-646500D02*
X-7136914Y-644424D01*
X-7136212Y-640271D01*
X-7134742Y-636118D01*
X-7132340Y-631965D01*
X-7128667Y-627866D01*
X-7124514Y-624857D01*
X-7120361Y-622940D01*
X-7116208Y-621857D01*
X-7112055Y-621500D01*
X-7112000Y-621500D01*
X-7137000Y-646500D02*
X-7136914Y-648576D01*
X-7136212Y-652729D01*
X-7134742Y-656882D01*
X-7132340Y-661035D01*
X-7128667Y-665134D01*
X-7124514Y-668143D01*
X-7120361Y-670060D01*
X-7116208Y-671143D01*
X-7112055Y-671500D01*
X-7112000Y-671500D01*
X-7087000Y-646500D02*
X-7087086Y-648576D01*
X-7087788Y-652729D01*
X-7089258Y-656882D01*
X-7091660Y-661035D01*
X-7095333Y-665134D01*
X-7099486Y-668143D01*
X-7103639Y-670060D01*
X-7107792Y-671143D01*
X-7111945Y-671500D01*
X-7112000Y-671500D01*
X-7112000Y-681500D02*
X-7112000Y-611500D01*
X-7077000Y-646500D02*
X-7147000Y-646500D01*
X-6887000Y-421500D02*
X-7112000Y-421500D01*
X-7158005Y-425977D01*
X-7200550Y-438858D01*
X-7238810Y-459321D01*
X-7271961Y-486539D01*
X-7299180Y-519691D01*
X-7319642Y-557950D01*
X-7332523Y-600495D01*
X-7337000Y-646500D01*
X-7332523Y-692505D01*
X-7319642Y-735050D01*
X-7299180Y-773309D01*
X-7271961Y-806461D01*
X-7238810Y-833679D01*
X-7200550Y-854142D01*
X-7158005Y-867023D01*
X-7112000Y-871500D01*
X-7065995Y-867023D01*
X-7023450Y-854142D01*
X-6985190Y-833679D01*
X-6952039Y-806461D01*
X-6924820Y-773309D01*
X-6904358Y-735050D01*
X-6891477Y-692505D01*
X-6887000Y-646500D01*
X-6887000Y-421500D01*
D111*
X-7112000Y-721500D02*
X-7112000Y-721500D01*
D127*
X-7089250Y-714750D02*
X-7077875Y-726125D01*
X-7077875Y-760250D01*
X-7100625Y-783000D01*
X-7123375Y-783000D01*
X-7146125Y-760250D01*
X-7146125Y-726125D01*
X-7134750Y-714750D01*
X-7123375Y-669250D02*
X-7146125Y-646500D01*
X-7077875Y-646500D01*
X-7134750Y-589625D02*
X-7146125Y-578250D01*
X-7146125Y-544125D01*
X-7134750Y-532750D01*
X-7123375Y-532750D01*
X-7112000Y-544125D01*
X-7112000Y-578250D01*
X-7100625Y-589625D01*
X-7077875Y-589625D01*
X-7077875Y-532750D01*
M02*
